<svg width="95" height="90" viewBox="0 0 95 90" fill="none" xmlns="http://www.w3.org/2000/svg">
    <g clip-path="url(#clip0)" filter="url(#filter0_d)">
        <path d="M62.64 71.2799C62.64 71.2799 53.2 74.1599 43.48 74.1999C33.92 74.2399 24.12 71.4399 24 71.3999L26.96 44.6799L60.08 44.9599L62.64 71.2799Z"
              fill="#4B72EF"/>
        <path d="M62.5601 71.3602C62.5601 71.3602 43.2801 76.8402 24.0801 71.3602L27.0801 44.7202L60.0801 45.0002L62.5601 71.3602Z"
              fill="url(#paint0_linear)"/>
        <path d="M74.24 48.3201L43.72 37.1201L13.24 47.7601V47.9601V48.0801L13.28 50.0001L43.64 62.0001L74.32 50.6801L74.24 48.3201Z"
              fill="#4B72EF"/>
        <path d="M74.3599 48.3602L43.6799 59.6802L13.2 47.8402L43.8399 36.9202L74.3599 48.3602Z"
              fill="url(#paint1_linear)"/>
        <path d="M71.44 63.72C71.16 63.56 64.88 59.6 61 52.52C56.64 44.52 46.28 47.68 45.84 47.84L45.24 46C45.36 45.96 57.56 42.2 62.68 51.6C66.28 58.24 72.36 62.04 72.44 62.08L71.44 63.72Z"
              fill="#1746BC"/>
        <path d="M78.0001 65.36L70.2801 60.48C70.4001 59.92 70.2401 59.28 69.8001 58.84C69.1601 58.16 68.1201 58.08 67.4001 58.64L67.0001 59.04C66.4801 59.76 66.5201 60.76 67.1601 61.4C67.5601 61.84 68.1601 62 68.6801 61.96L73.2801 69.88L78.0001 65.36Z"
              fill="#264FD3"/>
        <path d="M22.88 49.5601C30.2585 49.5601 36.24 43.5786 36.24 36.2001C36.24 28.8216 30.2585 22.8401 22.88 22.8401C15.5015 22.8401 9.52002 28.8216 9.52002 36.2001C9.52002 43.5786 15.5015 49.5601 22.88 49.5601Z"
              fill="#B8D318"/>
        <path d="M21.0001 39.1602V38.2002C21.0001 37.6802 21.1201 37.1602 21.3601 36.7202C21.6001 36.2802 21.8801 35.9202 22.2001 35.6002C22.5201 35.3202 22.8401 35.0402 23.1601 34.7602C23.4801 34.4802 23.7601 34.1602 24.0001 33.8402C24.2401 33.4802 24.3601 33.1202 24.3601 32.7602C24.3601 32.2802 24.1601 31.8802 23.8001 31.5602C23.4401 31.2402 22.9601 31.0802 22.4001 31.0802C21.6801 31.0802 20.9601 31.3602 20.2801 31.9202L18.8401 30.1602C19.8401 29.2002 21.1201 28.7202 22.6001 28.7202C23.8001 28.7202 24.8001 29.0802 25.6801 29.7602C26.5601 30.4402 27.0001 31.3602 27.0001 32.4802C27.0001 33.0802 26.8801 33.6402 26.6401 34.1602C26.4001 34.6402 26.1201 35.0802 25.7601 35.4002C25.4001 35.7202 25.0801 36.0402 24.7201 36.3202C24.3601 36.6002 24.0801 36.9202 23.8401 37.2802C23.6001 37.6402 23.4801 38.0002 23.4801 38.4002V39.2002H21.0001V39.1602ZM21.0001 43.2802V40.8802H23.4801V43.2802H21.0001Z"
              fill="white"/>
        <path d="M42.84 35.2801C50.2185 35.2801 56.2 29.2986 56.2 21.9201C56.2 14.5415 50.2185 8.56006 42.84 8.56006C35.4615 8.56006 29.48 14.5415 29.48 21.9201C29.48 29.2986 35.4615 35.2801 42.84 35.2801Z"
              fill="#3DB250"/>
        <path d="M41.72 24.4801L41.52 14.3601H44.16L43.96 24.4801H41.72ZM41.6 28.6001V26.2001H44.08V28.6001H41.6Z"
              fill="white"/>
    </g>
    <defs>
        <filter id="filter0_d" x="-6" y="-6" width="104" height="104" filterUnits="userSpaceOnUse"
                color-interpolation-filters="sRGB">
            <feFlood flood-opacity="0" result="BackgroundImageFix"/>
            <feColorMatrix in="SourceAlpha" type="matrix" values="0 0 0 0 0 0 0 0 0 0 0 0 0 0 0 0 0 0 127 0"/>
            <feMorphology radius="4" operator="erode" in="SourceAlpha" result="effect1_dropShadow"/>
            <feOffset dx="3" dy="4"/>
            <feGaussianBlur stdDeviation="8"/>
            <feColorMatrix type="matrix" values="0 0 0 0 0.458333 0 0 0 0 0.58448 0 0 0 0 0.733333 0 0 0 0.4 0"/>
            <feBlend mode="normal" in2="BackgroundImageFix" result="effect1_dropShadow"/>
            <feBlend mode="normal" in="SourceGraphic" in2="effect1_dropShadow" result="shape"/>
        </filter>
        <linearGradient id="paint0_linear" x1="43.3235" y1="73.7887" x2="43.295" y2="44.6784"
                        gradientUnits="userSpaceOnUse">
            <stop offset="0.0351351" stop-color="#3B60DE" stop-opacity="0"/>
            <stop offset="0.1035" stop-color="#395EE1" stop-opacity="0.2503"/>
            <stop offset="0.3081" stop-color="#375BE5"/>
        </linearGradient>
        <linearGradient id="paint1_linear" x1="43.7618" y1="59.6933" x2="43.7618" y2="36.921"
                        gradientUnits="userSpaceOnUse">
            <stop stop-color="#375BE5"/>
            <stop offset="0.5162" stop-color="#3B60DE" stop-opacity="0"/>
        </linearGradient>
        <clipPath id="clip0">
            <rect width="80" height="80" fill="white" transform="translate(3 2)"/>
        </clipPath>
    </defs>
</svg>
