<svg width="95" height="90" viewBox="0 0 95 90" fill="none" xmlns="http://www.w3.org/2000/svg">
    <g clip-path="url(#clip0)" filter="url(#filter0_d)">
        <path d="M40.3599 67.8399C55.7355 67.8399 68.1999 55.3755 68.1999 39.9999C68.1999 24.6243 55.7355 12.1599 40.3599 12.1599C24.9843 12.1599 12.5199 24.6243 12.5199 39.9999C12.5199 55.3755 24.9843 67.8399 40.3599 67.8399Z"
              fill="#B8D318"/>
        <path d="M68.1999 39.9999C68.1999 55.3599 54.7999 55.8799 39.4399 55.8799C24.0799 55.8799 12.5199 55.3599 12.5199 39.9999C12.5199 24.6399 24.9999 12.1599 40.3599 12.1599C55.7199 12.1599 68.1999 24.6399 68.1999 39.9999Z"
              fill="url(#paint0_linear)"/>
        <path d="M33.5199 20.7996C33.3199 20.8396 33.1599 20.7996 32.9599 20.6796C32.9599 20.6796 31.3599 19.7596 29.1999 20.0396C26.6799 20.3996 25.5199 21.9196 25.5199 21.9196C25.1999 22.3596 24.6399 22.3996 24.2399 21.9596C23.8399 21.5596 23.7999 20.8396 24.1199 20.3996C24.1999 20.3196 25.68 18.2796 28.9199 17.8396C31.6399 17.4396 33.6799 18.6796 33.7599 18.7196C34.2399 18.9996 34.4399 19.6796 34.2399 20.1996C34.0399 20.5596 33.7999 20.7596 33.5199 20.7996Z"
              fill="#0EA35B"/>
        <path d="M49.9599 17.9598C49.7599 17.9998 49.5999 17.9598 49.3999 17.8398C49.3999 17.8398 47.7999 16.9198 45.6399 17.1998C43.1199 17.5598 41.9599 19.0798 41.9599 19.0798C41.6399 19.5198 41.0799 19.5598 40.6799 19.1198C40.2799 18.7198 40.2399 17.9998 40.5599 17.5598C40.6399 17.4798 42.1199 15.4398 45.3599 14.9998C48.0799 14.5998 50.1199 15.8398 50.1999 15.8798C50.6799 16.1598 50.8799 16.8398 50.6799 17.3598C50.5199 17.7198 50.2399 17.9198 49.9599 17.9598Z"
              fill="#1AAD60"/>
        <path d="M42.56 22.0396C42.36 22.0796 42.2 22.1596 42.08 22.3196C42.08 22.3196 40.88 23.7596 38.76 24.1596C36.24 24.6796 34.68 23.6396 34.64 23.5996C34.2 23.2796 33.64 23.4396 33.4 23.9596C33.16 24.4796 33.36 25.1596 33.8 25.4796C33.88 25.5596 35.96 26.9596 39.16 26.3196C41.88 25.7596 43.36 23.9596 43.44 23.8796C43.8 23.4396 43.76 22.7596 43.4 22.3196C43.12 22.1196 42.84 21.9996 42.56 22.0396Z"
              fill="#0EA35B"/>
        <path d="M24.04 34.1599L51.96 26.1199L54.56 27.7199L62.32 64.9599L31.8 71.3599L29.36 69.6799L24.04 34.1599Z"
              fill="#375BE5"/>
        <path d="M21.6799 32.4798L52.1599 26.0798L59.9199 63.3198L29.3999 69.7198L21.6799 32.4798Z" fill="#3D77EA"/>
        <path d="M27.3198 45.7201L28.5998 35.9201L30.3598 35.5601L35.4798 44.0001L33.7998 44.3601L32.5198 42.2001L29.3198 42.8801L29.0398 45.4001L27.3198 45.7201ZM29.3998 41.4401L31.7598 40.9601L30.4398 38.6801L29.7998 37.3601H29.7598C29.7598 38.0001 29.7198 38.4801 29.6798 38.8401L29.3998 41.4401Z"
              fill="#DCEFFF"/>
        <path d="M36.6398 43.7601L34.7198 34.6401L37.9598 33.9601C38.7998 33.8001 39.5198 33.8401 40.1598 34.1601C40.7598 34.4801 41.1598 35.0001 41.3198 35.7201C41.3998 36.1601 41.3998 36.5601 41.2798 36.9201C41.1598 37.3201 40.9598 37.6401 40.6398 37.8801V37.9201C41.1598 37.9601 41.5598 38.1601 41.9198 38.4801C42.2398 38.8401 42.4798 39.2401 42.5598 39.7201C42.7598 40.6001 42.5598 41.3201 42.0798 41.8801C41.5998 42.4401 40.8798 42.8401 39.9598 43.0401L36.6398 43.7601ZM37.1998 38.0401L38.7998 37.7201C39.1598 37.6401 39.3998 37.4801 39.5598 37.2001C39.7198 36.9201 39.7598 36.6401 39.6798 36.2801C39.5998 35.9601 39.4398 35.6801 39.1998 35.5201C38.9598 35.3601 38.6398 35.3201 38.2798 35.4001L36.6798 35.7201L37.1998 38.0401ZM37.9998 42.0001L39.7598 41.6401C40.1598 41.5601 40.4798 41.3601 40.6398 41.0801C40.8398 40.8001 40.8798 40.4401 40.7998 40.0401C40.7198 39.6401 40.5198 39.3601 40.2398 39.1601C39.9598 38.9601 39.5998 38.9201 39.1998 39.0001L37.4398 39.3601L37.9998 42.0001Z"
              fill="#DCEFFF"/>
        <path d="M43.2799 37.56C42.9998 36.24 43.1999 35 43.9199 33.96C44.5999 32.88 45.6399 32.2 46.9999 31.92C48.3999 31.64 49.5999 31.8 50.6399 32.44L50.1199 33.84C49.7199 33.64 49.2799 33.48 48.7999 33.4C48.3199 33.32 47.8399 33.32 47.4399 33.4C46.4799 33.6 45.7999 34.04 45.3599 34.76C44.9599 35.48 44.8399 36.28 45.0399 37.16C45.2399 38.04 45.6799 38.76 46.3599 39.28C47.0399 39.8 47.8399 39.96 48.7999 39.76C49.7599 39.56 50.5599 39 51.1999 38.04L52.3199 39.04C51.5599 40.24 50.4799 40.96 49.0399 41.28C47.6399 41.56 46.3999 41.36 45.3199 40.64C44.2399 40 43.5999 38.96 43.2799 37.56Z"
              fill="#DCEFFF"/>
        <path d="M28.92 48.0398C28.2 48.2798 25.56 47.2398 24.84 47.4798L29.36 69.5198L29.4 69.7198V69.7598L31.76 71.3998L62.28 64.9998L57.08 39.7998C47.68 44.5998 38.8 45.0398 28.92 48.0398Z"
              fill="url(#paint1_linear)"/>
        <path d="M35.6799 51.2C35.5999 51.16 35.5199 51.16 35.4399 51.12C36.6399 50.12 37.4399 49.24 36.8399 48.24C36.0799 46.92 34.3599 47.12 33.1599 47.76C32.5999 48.04 30.9999 48.68 29.3599 49.32C27.3199 48.64 24.7199 47.76 21.1599 46.56C20.3199 46.28 19.2399 46.4 18.4399 46.04C18.2399 50.2 20.3999 54.36 20.8399 58.52C25.0399 60.28 26.6399 62.32 32.2399 62.32C40.0399 62.28 42.1599 52.88 35.6799 51.2Z"
              fill="#B8D318"/>
        <path d="M63.9199 48.5998C62.9599 44.7198 60.9599 41.7598 60.1999 42.2798C59.3599 42.8798 57.3999 44.0398 55.3199 45.2398C53.4399 44.9998 51.5199 44.7599 50.9199 44.5998C49.5599 44.2799 47.7999 44.5198 47.3599 45.9998C46.9999 47.1598 47.9999 47.8398 49.4799 48.5598C49.3999 48.5998 49.3199 48.6398 49.2399 48.6798C43.1599 51.9598 47.5599 60.7598 55.4399 58.9198C58.4799 58.1998 61.1599 56.6798 62.2799 55.1998C63.3999 53.7198 64.7199 51.9198 63.9199 48.5998Z"
              fill="#B8D318"/>
    </g>
    <defs>
        <filter id="filter0_d" x="-9" y="-8" width="104" height="104" filterUnits="userSpaceOnUse"
                color-interpolation-filters="sRGB">
            <feFlood flood-opacity="0" result="BackgroundImageFix"/>
            <feColorMatrix in="SourceAlpha" type="matrix" values="0 0 0 0 0 0 0 0 0 0 0 0 0 0 0 0 0 0 127 0"/>
            <feMorphology radius="4" operator="erode" in="SourceAlpha" result="effect1_dropShadow"/>
            <feOffset dx="3" dy="4"/>
            <feGaussianBlur stdDeviation="8"/>
            <feColorMatrix type="matrix" values="0 0 0 0 0.458333 0 0 0 0 0.58448 0 0 0 0 0.733333 0 0 0 0.4 0"/>
            <feBlend mode="normal" in2="BackgroundImageFix" result="effect1_dropShadow"/>
            <feBlend mode="normal" in="SourceGraphic" in2="effect1_dropShadow" result="shape"/>
        </filter>
        <linearGradient id="paint0_linear" x1="40.3401" y1="55.8853" x2="40.3401" y2="12.1657"
                        gradientUnits="userSpaceOnUse">
            <stop offset="0.2243" stop-color="#96CA4B" stop-opacity="0"/>
            <stop offset="0.7321" stop-color="#BADE17" stop-opacity="0.6547"/>
            <stop offset="1" stop-color="#C9E600"/>
        </linearGradient>
        <linearGradient id="paint1_linear" x1="43.5602" y1="71.3721" x2="43.5602" y2="34.7354"
                        gradientUnits="userSpaceOnUse">
            <stop stop-color="#375BE5"/>
            <stop offset="0.6514" stop-color="#3B60DE" stop-opacity="0"/>
        </linearGradient>
        <clipPath id="clip0">
            <rect width="80" height="80" fill="white"/>
        </clipPath>
    </defs>
</svg>
