<svg width="91" height="87" viewBox="0 0 91 87" fill="none" xmlns="http://www.w3.org/2000/svg">
    <g clip-path="url(#clip0)" filter="url(#filter0_d)">
        <path d="M75.72 70.16C75.72 70.16 25.96 70.16 19.4 70.2L46.44 20.8L75.72 70.16Z" fill="#3D77EA"/>
        <path d="M74.6401 68.56C74.6401 68.56 25.9601 70.16 19.3601 70.2L46.4401 20.8L74.6401 68.56Z"
              fill="url(#paint0_linear)"/>
        <path d="M56.24 37.4001L46.44 20.6001L37.16 37.6401L42.6 34.7201L46.28 40.2401L50 35.2801L56.24 37.4001Z"
              fill="#A9CFFC"/>
        <path d="M50.48 70.2802H9.80005L29.24 36.2002L50.48 70.2802Z" fill="#1AAD60"/>
        <path d="M69.6 70.2002L30.64 70.3202L50.28 47.4402L69.6 70.2002Z" fill="#67BC1D"/>
        <path d="M61.48 60.7202L50.3201 47.1602L38.8 60.6402L46.3601 58.7601L51.88 62.0402L52.5201 56.5602L61.48 60.7202Z"
              fill="#C2DEFF"/>
        <path d="M54.8401 14.5201L57.6401 11.1201H45.5201V13.3201V17.8001V22.2001H47.2801V17.8001H57.6401L54.8401 14.5201Z"
              fill="#3DB250"/>
        <path d="M50.36 70.36L69.52 70.32L50.16 47.52L42.04 57L28.4001 37.76L9.68005 70.4H30.5601H39.88H50.36V70.36Z"
              fill="url(#paint1_linear)"/>
        <path d="M39.5201 52.6402L29.3201 36.2002L19.8 52.7602L26.96 49.4802L30.76 54.7202L33.64 49.6002L39.5201 52.6402Z"
              fill="#A9CFFC"/>
    </g>
    <defs>
        <filter id="filter0_d" x="-7" y="-8" width="104" height="104" filterUnits="userSpaceOnUse"
                color-interpolation-filters="sRGB">
            <feFlood flood-opacity="0" result="BackgroundImageFix"/>
            <feColorMatrix in="SourceAlpha" type="matrix" values="0 0 0 0 0 0 0 0 0 0 0 0 0 0 0 0 0 0 127 0"/>
            <feMorphology radius="4" operator="erode" in="SourceAlpha" result="effect1_dropShadow"/>
            <feOffset dx="3" dy="4"/>
            <feGaussianBlur stdDeviation="8"/>
            <feColorMatrix type="matrix" values="0 0 0 0 0.458333 0 0 0 0 0.58448 0 0 0 0 0.733333 0 0 0 0.4 0"/>
            <feBlend mode="normal" in2="BackgroundImageFix" result="effect1_dropShadow"/>
            <feBlend mode="normal" in="SourceGraphic" in2="effect1_dropShadow" result="shape"/>
        </filter>
        <linearGradient id="paint0_linear" x1="47.0128" y1="70.2122" x2="47.0128" y2="20.8153"
                        gradientUnits="userSpaceOnUse">
            <stop offset="0.2676" stop-color="#3B60DE" stop-opacity="0"/>
            <stop offset="0.6162" stop-color="#375BE5"/>
        </linearGradient>
        <linearGradient id="paint1_linear" x1="32.0531" y1="83.2921" x2="52.0669" y2="48.6272"
                        gradientUnits="userSpaceOnUse">
            <stop stop-color="#92CC48"/>
            <stop offset="0.7" stop-color="#96CA4B" stop-opacity="0"/>
        </linearGradient>
        <clipPath id="clip0">
            <rect width="80" height="80" fill="white" transform="translate(2)"/>
        </clipPath>
    </defs>
</svg>