<svg width="87" height="90" viewBox="0 0 87 90" fill="none" xmlns="http://www.w3.org/2000/svg">
    <g clip-path="url(#clip0)" filter="url(#filter0_d)">
        <path d="M28.56 53.4002C28.24 47.8402 29.36 46.1602 33 40.1602C29.92 39.4002 21.76 41.4402 17.68 45.7602C10.36 53.4402 7.76 63.8002 9.8 73.1202C19.2 74.6802 29.4 71.5202 36.68 63.8402C40.76 59.5202 41.72 52.2002 41.6 48.2002C35.8 52.1202 34.12 53.4402 28.56 53.4002Z"
              fill="#375BE5"/>
        <path d="M21.5599 39.6401L49.8399 32.8801C49.8399 32.8801 49.2799 24.0401 39.7599 23.2001C30.2399 22.3601 22.5599 29.8401 21.5599 39.6401Z"
              fill="#0EA35B"/>
        <path d="M42.5199 59.9202L48.3999 31.4402C48.3999 31.4402 56.9199 32.0402 58.0799 41.5202C59.1999 51.0002 52.3199 58.6002 42.5199 59.9202Z"
              fill="#0EA35B"/>
        <path d="M68.6 25.8802C70.72 22.0402 71.32 13.4802 71.48 10.0402C71.52 9.32018 70.76 8.60018 70.04 8.68018C66.6 9.04018 58.08 10.0802 54.36 12.4002C46.76 17.0802 34 36.9202 34 36.9202C34 36.9202 37.72 40.6002 39.52 42.2402C41.24 43.9602 45.12 47.4802 45.12 47.4802C45.12 47.4802 64.28 33.7202 68.6 25.8802Z"
              fill="#67BC1D"/>
        <path d="M30.4001 51.4001C30.0801 47.8401 31.0401 43.8801 33.2001 40.1201C30.6401 40.0801 28.4001 40.8801 25.8801 43.5201C21.4001 48.2401 20.0001 54.7601 21.5201 60.7201C27.5601 61.9601 34.0001 60.2001 38.4801 55.4801C41.0001 52.8401 41.6401 50.5601 41.4801 48.0001C37.9201 50.3601 33.9601 51.5201 30.4001 51.4001Z"
              fill="#6E96F9"/>
        <path opacity="0.46"
              d="M68.7999 25.8802C70.9199 22.0402 71.5199 13.4802 71.6799 10.0402C71.7199 9.32018 70.96 8.60018 70.24 8.68018C66.7999 9.04018 58.2799 10.0802 54.5599 12.4002C46.9599 17.1202 34.2 36.9202 34.2 36.9202C34.2 36.9202 40.52 37.3602 42.36 39.0002C44.08 40.7202 45.36 47.4802 45.36 47.4802C45.36 47.4802 64.4799 33.7202 68.7999 25.8802Z"
              fill="url(#paint0_linear)"/>
        <path d="M62.8481 26.1193C65.038 23.812 64.9429 20.1663 62.6356 17.9764C60.3283 15.7865 56.6826 15.8817 54.4926 18.189C52.3027 20.4963 52.3979 24.142 54.7052 26.3319C57.0125 28.5218 60.6582 28.4266 62.8481 26.1193Z"
              fill="#B8D318"/>
        <path d="M52.3786 36.5673C54.5685 34.26 54.4734 30.6143 52.1661 28.4244C49.8588 26.2345 46.2131 26.3297 44.0232 28.637C41.8333 30.9443 41.9284 34.59 44.2357 36.7799C46.543 38.9698 50.1887 38.8746 52.3786 36.5673Z"
              fill="#B8D318"/>
    </g>
    <defs>
        <filter id="filter0_d" x="-9" y="-8" width="104" height="104" filterUnits="userSpaceOnUse"
                color-interpolation-filters="sRGB">
            <feFlood flood-opacity="0" result="BackgroundImageFix"/>
            <feColorMatrix in="SourceAlpha" type="matrix" values="0 0 0 0 0 0 0 0 0 0 0 0 0 0 0 0 0 0 127 0"/>
            <feMorphology radius="4" operator="erode" in="SourceAlpha" result="effect1_dropShadow"/>
            <feOffset dx="3" dy="4"/>
            <feGaussianBlur stdDeviation="8"/>
            <feColorMatrix type="matrix" values="0 0 0 0 0.458333 0 0 0 0 0.58448 0 0 0 0 0.733333 0 0 0 0.4 0"/>
            <feBlend mode="normal" in2="BackgroundImageFix" result="effect1_dropShadow"/>
            <feBlend mode="normal" in="SourceGraphic" in2="effect1_dropShadow" result="shape"/>
        </filter>
        <linearGradient id="paint0_linear" x1="39.1993" y1="41.8773" x2="71.6477" y2="9.42891"
                        gradientUnits="userSpaceOnUse">
            <stop offset="0.5541" stop-color="#96CA4B" stop-opacity="0"/>
            <stop offset="0.846" stop-color="#BADE17" stop-opacity="0.6547"/>
            <stop offset="1" stop-color="#C9E600"/>
        </linearGradient>
        <clipPath id="clip0">
            <rect width="80" height="80" fill="white"/>
        </clipPath>
    </defs>
</svg>