<?xml version="1.0" encoding="utf-8"?>
<!-- Generator: Adobe Illustrator 28.0.0, SVG Export Plug-In . SVG Version: 6.00 Build 0)  -->
<svg version="1.1" id="Шар_1" xmlns="http://www.w3.org/2000/svg" x="0px" y="0px"
     viewBox="0 0 512 512" style="enable-background:new 0 0 512 512;" xml:space="preserve">
<style type="text/css">
	.st0{fill:#FC8A00;}
	.st1{fill:#FFF388;}
	.st2{fill:#232323;}
	.st3{fill:#FFFFFF;}
	.st4{fill:#353535;}
	.st5{fill:none;stroke:#000000;stroke-width:0.7184;stroke-miterlimit:10;}
	.st6{fill:#C9C9C9;}
</style>
    <g>
	<ellipse class="st0" cx="184.51" cy="469.95" rx="37.55" ry="29.12"/>
        <g>
		
			<ellipse transform="matrix(0.0342 -0.9994 0.9994 0.0342 -159.9688 784.2106)" class="st0" cx="325.78"
                     cy="474.88" rx="29.11" ry="37.56"/>

            <ellipse transform="matrix(0.1773 -0.9842 0.9842 0.1773 -174.2566 706.0999)" class="st1" cx="335.19"
                     cy="457.27" rx="6.31" ry="8.52"/>
	</g>
        <g>
		<path class="st2" d="M163.95,152.37c0,0-95.43,67.27-88.32,167.38c0.65,9.13,12.23,8.43,18.4-1.15
			c18.36-28.5,55.56-75.7,119.92-116.55L163.95,152.37z"/>
	</g>
        <g>
		<path class="st2" d="M348.78,152.37c0,0,95.43,67.27,88.32,167.38c-0.65,9.13-12.23,8.43-18.4-1.15
			c-18.36-28.5-55.56-75.7-119.92-116.55L348.78,152.37z"/>
	</g>
        <g>
		<path class="st2" d="M388.37,278.61c41.13,163.92-56.81,178.74-129.65,178.74s-162.74,0-134.12-178.74
			c23.99-149.88,59.05-251.11,131.89-251.11S343.32,99.04,388.37,278.61z"/>
	</g>
        <g>
		<path class="st3" d="M248.43,146.76c0,0,13.47-109.2-14.17-98.31s-74.55,72.8-29.31,142.19c0,0-101.88,227.46,55.11,219.64
			c157.09,4.43,51.73-220.79,51.73-220.79c44.17-70.36-3.69-131.25-31.49-141.54c-27.8-10.29-12.65,98.6-12.65,98.6"/>
	</g>
        <g>
		<path class="st0" d="M284.18,142.17l-3.65,3.75c-13.77,14.15-34.81,12.69-47.01-3.27l-2.1-2.75c-2.09-2.73-1.87-6.9,0.49-9.32
			l3.65-3.75c13.77-14.15,34.81-12.69,47.01,3.27l2.1,2.75C286.75,135.57,286.54,139.75,284.18,142.17z"/>
	</g>
        <g>
		<path class="st4" d="M235.06,134.17c8.5,9.56,21.41,13.11,33.44,8.49c3.87-1.37,7.58-3.27,11.15-5.45
			c-3.58,3.04-7.72,5.54-12.17,7.22C255.55,149.01,242.1,144.84,235.06,134.17L235.06,134.17z"/>
	</g>
        <g>
		<ellipse transform="matrix(1 -5.252015e-03 5.252015e-03 1 -0.5463 1.2434)" cx="236.47" cy="104.64" rx="6.26"
                 ry="9.43"/>

            <ellipse transform="matrix(1 -3.464317e-03 3.464317e-03 1 -0.341 0.8255)" class="st3" cx="238.12" cy="98.84"
                     rx="2.57" ry="3.38"/>
	</g>
        <g>
		<ellipse transform="matrix(1 -5.252015e-03 5.252015e-03 1 -0.5456 1.497)" cx="284.75" cy="104.64" rx="6.26"
                 ry="9.43"/>

            <ellipse transform="matrix(1 -3.464317e-03 3.464317e-03 1 -0.3407 0.9928)" class="st3" cx="286.41"
                     cy="98.84" rx="2.57" ry="3.38"/>
	</g>
        <path class="st2" d="M239.1,39.89c0,0,4.26-27.89,27.51-32.81c3.35-0.71,5.96,3.55,4.32,7.08c-3.96,8.55-5.66,22.15,16.66,30.36
		L239.1,39.89z"/>

        <ellipse transform="matrix(0.9999 -0.0119 0.0119 0.9999 -1.5151 3.1575)" class="st1" cx="263.94" cy="128.59"
                 rx="7.15" ry="3.71"/>

        <ellipse transform="matrix(0.5201 -0.8541 0.8541 0.5201 6.7312 332.2912)" class="st3" cx="299.08" cy="160.16"
                 rx="5.71" ry="6.38"/>
        <ellipse class="st3" cx="309.09" cy="150.22" rx="2.68" ry="3.18"/>
        <ellipse class="st3" cx="307.44" cy="138.99" rx="2.68" ry="3.18"/>
        <g>
		<path d="M222.96,73.91c6.3-4.15,15.16-4.12,21.46,0c0,0,0,0.36,0,0.36c-1.79,0.07-3.58,0.11-5.36,0.12
			c-2.67,0.06-8.06,0.06-10.73,0c-1.79-0.01-3.58-0.05-5.36-0.12C222.96,74.27,222.96,73.91,222.96,73.91L222.96,73.91z"/>
	</g>
        <g>
		<path d="M270.35,75.15c0.91-11.39,13.37-20.79,24.14-14.82C282.85,60.4,276.75,66.11,270.35,75.15L270.35,75.15z"/>
	</g>
        <ellipse class="st5" cx="233.24" cy="98.44" rx="11.62" ry="17.47"/>
        <ellipse class="st5" cx="282.42" cy="97.38" rx="11.62" ry="17.47"/>
        <path class="st6" d="M239.51,223.5c0,7.82-6.67,14.17-14.9,14.17s-14.9-6.34-14.9-14.17"/>
        <path class="st6" d="M305.87,223.5c0,7.82-6.67,14.17-14.9,14.17c-8.23,0-14.9-6.34-14.9-14.17"/>
        <path class="st6" d="M273.36,253.12c0,7.82-6.67,14.17-14.9,14.17c-8.23,0-14.9-6.34-14.9-14.17"/>
</g>
</svg>
