<?xml version="1.0" encoding="utf-8"?>
<!-- Generator: Adobe Illustrator 28.0.0, SVG Export Plug-In . SVG Version: 6.00 Build 0)  -->
<svg version="1.1" id="Шар_1" xmlns="http://www.w3.org/2000/svg" x="0px" y="0px"
     viewBox="0 0 512 512" style="enable-background:new 0 0 512 512;" xml:space="preserve">
<style type="text/css">
	.st0{fill:url(#SVGID_1_);}
	.st1{fill:url(#SVGID_00000138535912976247031400000011756144466594252453_);}
	.st2{fill:url(#SVGID_00000028320183877759468060000013646394601858552484_);}
	.st3{fill:url(#SVGID_00000016042247740884051980000002796509600996500620_);}
	.st4{fill:url(#SVGID_00000112602365997098388470000010712193030938526905_);}
	.st5{fill:url(#SVGID_00000060749881524340134440000013259268661002560148_);}
	.st6{fill:url(#SVGID_00000134972351799266083650000011555071709083952551_);}
	.st7{fill:url(#SVGID_00000152251721534833840650000006771139449577426581_);}
	.st8{fill:url(#SVGID_00000148634162695218678490000007721656492102102658_);}
	.st9{fill:#FC8A00;}
	.st10{fill:#FFF388;}
	.st11{fill:#232323;}
	.st12{fill:#FFFFFF;}
	.st13{fill:none;stroke:#000000;stroke-width:0.7184;stroke-miterlimit:10;}
	.st14{fill:#C9C9C9;}
	.st15{fill:#353535;}
</style>
    <g>
	<g>
		<g>
			
				<linearGradient id="SVGID_1_" gradientUnits="userSpaceOnUse" x1="360.8403" y1="249.0254" x2="387.0539"
                                y2="414.0731" gradientTransform="matrix(-1 0 0 1 778.834 0)">
				<stop offset="0" style="stop-color:#FF1F00"/>
                    <stop offset="1" style="stop-color:#FFEE00"/>
			</linearGradient>
            <path class="st0" d="M447.9,265.5c9.75,41.4,0.2,53.37-19.48,69.4c35.31-52.36-29.22-77.93,35.31-140.03
				C341.96,213.14,298.2,393.7,377.35,408.03C457.64,422.57,495.38,356.82,447.9,265.5z"/>

            <linearGradient id="SVGID_00000091713322575028933630000008951217816738125710_"
                            gradientUnits="userSpaceOnUse" x1="316.8141" y1="212.2724" x2="403.6356" y2="390.1466"
                            gradientTransform="matrix(-1 0 0 1 778.834 0)">
				<stop offset="0" style="stop-color:#FF1F00"/>
                <stop offset="1" style="stop-color:#FFEE00"/>
			</linearGradient>
            <path style="fill:url(#SVGID_00000091713322575028933630000008951217816738125710_);" d="M454.9,325.69
				c-17,13.61-23.8,28.91-45.91,27.21c30.38-64.27-24.41-72.79,23.08-140.97c-66.97,35.31-117.2,156.72-62.09,187.52
				C411.37,422.57,451.5,397.1,454.9,325.69z"/>

            <linearGradient id="SVGID_00000013912906563246074120000011623991373243711903_"
                            gradientUnits="userSpaceOnUse" x1="349.0995" y1="261.2506" x2="386.5587" y2="388.9416"
                            gradientTransform="matrix(-1 0 0 1 778.834 0)">
				<stop offset="0" style="stop-color:#000000"/>
                <stop offset="1" style="stop-color:#FF8400"/>
			</linearGradient>
            <path style="fill:url(#SVGID_00000013912906563246074120000011623991373243711903_);" d="M366.49,386.9
				c23.08,23.08,72.91,8.52,81.41-37.39c-15.83,23.13-40.6,23.79-55.91,16.99c11.22-24.74,13.6-27.2,6.8-98.62
				C390.29,315.49,334.18,354.6,366.49,386.9z"/>
		</g>

        <linearGradient id="SVGID_00000055708476452871443090000000317742188461791365_" gradientUnits="userSpaceOnUse"
                        x1="209.6452" y1="121.6703" x2="258.9414" y2="432.0517">
			<stop offset="0" style="stop-color:#FF1F00"/>
            <stop offset="1" style="stop-color:#FFEE00"/>
		</linearGradient>
        <path style="fill:url(#SVGID_00000055708476452871443090000000317742188461791365_);" d="M149.35,122.72
			c-16.44,61.66,8.89,72.76,9.45,114.12C156.19,117.24,267.17,110.39,191.82,9c90.42,49.32,127.42,127.42,102.76,219.21
			c35.62-23.29,45.21-86.32,9.59-152.08c72.62,56.17,152.58,349.05-56.17,348.01C111.66,423.45,21.93,318.64,149.35,122.72z"/>

        <linearGradient id="SVGID_00000032606220220330431180000014760420957530783403_" gradientUnits="userSpaceOnUse"
                        x1="238.9554" y1="49.0766" x2="238.9554" y2="393.4598">
			<stop offset="0" style="stop-color:#FF1F00"/>
            <stop offset="1" style="stop-color:#FFEE00"/>
		</linearGradient>
        <path style="fill:url(#SVGID_00000032606220220330431180000014760420957530783403_);" d="M131.53,204.92
			c-2.74,41.78,24.36,81.17,52.07,105.5c-39.73-108.24,82.61-160.41,49.32-241.14c56.17,46.58,53.44,154.82,30.15,216.48
			c21.92-54.8,83.12-24.2,76.72-110.98c33.8,94.08,49.75,243.88-91.8,243.88C124.68,418.66,90.43,322.75,131.53,204.92z"/>

        <linearGradient id="SVGID_00000163067655530041004020000000196299150640267398_" gradientUnits="userSpaceOnUse"
                        x1="240.1344" y1="105.999" x2="240.1344" y2="381.1194">
			<stop offset="0" style="stop-color:#000000"/>
            <stop offset="1" style="stop-color:#FF8400"/>
		</linearGradient>
        <path style="fill:url(#SVGID_00000163067655530041004020000000196299150640267398_);" d="M132.91,252.88
			c1.36,56.17,56.17,86.31,80.83,83.57C162,233.11,267.17,193.96,257.58,144.64c38.36,79.46-36.99,102.75,12.33,180.85
			c9.59-54.8,69.88-26.03,76.72-100.02c17.81,86.32,13.45,189.07-104.13,189.07C154.83,414.55,106.87,348.78,132.91,252.88z"/>
        <g>
			
				<linearGradient id="SVGID_00000133502164064104829800000008432678112850186905_"
                                gradientUnits="userSpaceOnUse" x1="74.0124" y1="268.3205" x2="98.9925" y2="425.6011">
				<stop offset="0" style="stop-color:#FF1F00"/>
                    <stop offset="1" style="stop-color:#FFEE00"/>
			</linearGradient>
            <path style="fill:url(#SVGID_00000133502164064104829800000008432678112850186905_);" d="M34.8,283.64
				C34.26,328.23,45.22,343.3,67.14,357c-30.89-49.18,28.12-67.79-32.34-140.98c78.75,40.57,167.8,177.18,80.29,202.64
				C39.47,440.66,8.22,365.22,34.8,283.64z"/>

            <linearGradient id="SVGID_00000099649013095828957330000012606906398298185395_"
                            gradientUnits="userSpaceOnUse" x1="37.9431" y1="254.484" x2="111.5244" y2="405.2323">
				<stop offset="0" style="stop-color:#FF1F00"/>
                <stop offset="1" style="stop-color:#FFEE00"/>
			</linearGradient>
            <path style="fill:url(#SVGID_00000099649013095828957330000012606906398298185395_);" d="M37.99,344.89
				c15.9,12.73,22.27,27.05,42.95,25.46c-22.28-62.06,11.13-54.1-11.14-119.33c44.54,44.55,113.79,137.49,42.55,163.52
				C82.88,425.32,41.16,411.72,37.99,344.89z"/>

            <linearGradient id="SVGID_00000133500760454070132900000011187109539534027665_"
                            gradientUnits="userSpaceOnUse" x1="66.6281" y1="282.6273" x2="102.8046" y2="405.9455">
				<stop offset="0" style="stop-color:#000000"/>
                <stop offset="1" style="stop-color:#FF8400"/>
			</linearGradient>
            <path style="fill:url(#SVGID_00000133500760454070132900000011187109539534027665_);" d="M121.94,406.33
				c-21.57,21.62-64.87,0.62-72.83-42.34c15.29,16.31,33.42,25.46,47.74,19.1c-14.64-19.23-18.75-48-6.36-92.28
				C84.95,335.08,167.02,361.16,121.94,406.33z"/>
		</g>
	</g>
        <ellipse class="st9" cx="185.27" cy="481.3" rx="29.28" ry="22.7"/>
        <g>
		
			<ellipse transform="matrix(0.0342 -0.9994 0.9994 0.0342 -195.3501 759.6768)" class="st9" cx="295.4"
                     cy="480.92" rx="22.69" ry="29.28"/>

            <ellipse transform="matrix(0.1773 -0.9842 0.9842 0.1773 -210.7252 682.3184)" class="st10" cx="302.73"
                     cy="467.19" rx="4.92" ry="6.64"/>
	</g>
        <g>
		<path class="st11" d="M313.33,234.78c0,0,74.39,52.44,68.85,130.48c-0.51,7.12-9.53,6.57-14.34-0.9
			c-14.31-22.22-43.31-59.01-93.48-90.86L313.33,234.78z"/>
	</g>
        <g>
		<path class="st11" d="M164.02,234.78c0,0-74.39,52.44-68.85,130.48c0.51,7.12,9.53,6.57,14.34-0.9
			c14.31-22.22,43.31-59.01,93.48-90.86L164.02,234.78z"/>
	</g>
        <g>
		<path class="st11" d="M344.19,333.2c32.06,127.78-44.29,139.34-101.07,139.34s-126.86,0-104.56-139.34
			c18.7-116.84,46.03-195.75,102.81-195.75S309.07,193.21,344.19,333.2z"/>
	</g>
        <g>
		<path class="st12" d="M235.1,230.41c0,0,10.5-85.13-11.05-76.64c-21.54,8.49-58.12,56.75-22.85,110.85
			c0,0-79.42,177.32,42.97,171.22c122.46,3.45,40.32-172.12,40.32-172.12c34.43-54.85-2.88-102.32-24.55-110.34
			c-21.67-8.02-9.86,76.87-9.86,76.87"/>
	</g>
        <g>
		<path class="st9" d="M262.97,226.83l-2.85,2.92c-10.73,11.03-27.14,9.89-36.65-2.55l-1.64-2.15c-1.63-2.13-1.46-5.38,0.38-7.27
			l2.85-2.92c10.73-11.03,27.14-9.89,36.65,2.55l1.64,2.15C264.97,221.69,264.8,224.94,262.97,226.83z"/>
	</g>
        <g>
		<ellipse transform="matrix(1 -5.252015e-03 5.252015e-03 1 -1.018 1.1718)" cx="222.61" cy="194.41" rx="4.88"
                 ry="7.35"/>

            <ellipse transform="matrix(1 -3.464317e-03 3.464317e-03 1 -0.6565 0.7768)" class="st12" cx="223.89"
                     cy="189.89" rx="2" ry="2.63"/>
	</g>
        <g>
		<ellipse transform="matrix(1 -5.252015e-03 5.252015e-03 1 -1.0119 1.375)" cx="261.3" cy="193.35" rx="4.88"
                 ry="7.35"/>

            <ellipse transform="matrix(1 -3.464317e-03 3.464317e-03 1 -0.6526 0.9108)" class="st12" cx="262.59"
                     cy="188.83" rx="2" ry="2.63"/>
	</g>
        <path class="st11" d="M227.83,147.1c0,0,3.32-21.74,21.44-25.58c2.61-0.55,4.64,2.77,3.37,5.52c-3.08,6.66-4.42,17.27,12.99,23.67
		L227.83,147.1z"/>

        <ellipse transform="matrix(0.9999 -0.0119 0.0119 0.9999 -2.5619 2.9639)" class="st10" cx="247.19" cy="216.25"
                 rx="5.58" ry="2.89"/>

        <ellipse transform="matrix(0.5201 -0.8541 0.8541 0.5201 -73.946 350.0901)" class="st12" cx="274.58" cy="240.85"
                 rx="4.45" ry="4.97"/>
        <ellipse class="st12" cx="282.38" cy="233.11" rx="2.09" ry="2.48"/>
        <ellipse class="st12" cx="281.1" cy="224.35" rx="2.09" ry="2.48"/>
        <g>
		<path d="M215.24,173.58c4.84-4.14,11.88-4.11,16.73,0c0,0,0,0.36,0,0.36c-1.39,0.07-2.79,0.11-4.18,0.12
			c-2.09,0.06-6.28,0.06-8.36,0c-1.39-0.01-2.79-0.05-4.18-0.12V173.58L215.24,173.58z"/>
	</g>
        <g>
		<path d="M252.18,174.59c0.13-9.16,10.48-16.8,18.82-11.55C261.92,163.78,257.73,167.81,252.18,174.59L252.18,174.59z"/>
	</g>
        <ellipse class="st13" cx="223.25" cy="192.74" rx="9.06" ry="13.62"/>
        <ellipse class="st13" cx="261.59" cy="191.92" rx="9.06" ry="13.62"/>
        <path class="st14" d="M228.14,290.23c0,6.1-5.2,11.04-11.61,11.04c-6.41,0-11.61-4.94-11.61-11.04"/>
        <path class="st14" d="M279.87,290.23c0,6.1-5.2,11.04-11.61,11.04s-11.61-4.94-11.61-11.04"/>
        <path class="st14" d="M254.54,313.32c0,6.1-5.2,11.04-11.61,11.04c-6.41,0-11.61-4.94-11.61-11.04"/>
        <circle class="st12" cx="220.17" cy="194.82" r="1.06"/>
        <circle class="st12" cx="259.23" cy="193.76" r="1.06"/>
        <g>
		<path class="st15" d="M226.83,221.33c6.53,6.15,15.63,10.06,24.17,5.76c2.67-1.26,5.14-3.03,7.5-4.99
			C249.75,233.89,235.14,233.11,226.83,221.33L226.83,221.33z"/>
	</g>
</g>
</svg>
