<?xml version="1.0" encoding="utf-8"?>
<!-- Generator: Adobe Illustrator 28.0.0, SVG Export Plug-In . SVG Version: 6.00 Build 0)  -->
<svg version="1.1" id="Шар_1" xmlns="http://www.w3.org/2000/svg" x="0px" y="0px"
     viewBox="0 0 512 512" style="enable-background:new 0 0 512 512;" xml:space="preserve">
<style type="text/css">
	.st0{fill:#FC8A00;}
	.st1{fill:#FFF388;}
	.st2{fill:#232323;}
	.st3{fill:#FFFFFF;}
	.st4{fill:#D56394;}
	.st5{fill:none;stroke:#000000;stroke-width:0.7184;stroke-miterlimit:10;}
	.st6{fill:#C9C9C9;}
	.st7{fill:#84755A;}
	.st8{fill:#E5C696;}
	.st9{fill:#E1B66A;}
	.st10{fill:#E4C39B;}
	.st11{fill:#E6E5CF;}
	.st12{fill:#D9D9D9;}
	.st13{fill:#963A59;}
	.st14{fill:none;}
	.st15{fill:#353535;}
	.st16{fill:#E88BB8;}
	.st17{fill:#FFCADE;}
	.st18{fill:#684B57;}
</style>
    <g>
	<ellipse class="st0" cx="181.6" cy="468.3" rx="37.18" ry="28.82"/>
        <g>
		
			<ellipse transform="matrix(0.0342 -0.9994 0.9994 0.0342 -162.4466 778.2324)" class="st0" cx="321.45"
                     cy="473.17" rx="28.82" ry="37.18"/>

            <ellipse transform="matrix(0.1773 -0.9842 0.9842 0.1773 -176.393 700.4846)" class="st1" cx="330.76"
                     cy="455.74" rx="6.25" ry="8.44"/>
	</g>
        <g>
		<path class="st2" d="M383.41,278.88c40.72,162.27-56.24,176.94-128.35,176.94s-161.1,0-132.77-176.94
			C146.04,130.51,180.74,30.3,252.85,30.3S338.81,101.11,383.41,278.88z"/>
	</g>
        <g>
		<path class="st3" d="M244.88,148.35c0,0,13.33-108.1-14.03-97.32s-73.8,72.07-29.01,140.76c0,0-100.85,225.17,54.56,217.43
			c155.51,4.39,51.21-218.57,51.21-218.57c43.72-69.65-3.66-129.93-31.18-140.11s-12.53,97.61-12.53,97.61L244.88,148.35z"/>
	</g>
        <path class="st4" d="M277.64,146.52l-0.98,1.01c-3.43,3.53-7.32,6.07-11.41,7.64c-0.39-0.47-0.91-0.8-1.29-1.27
		c-0.36-0.43-0.58-0.95-0.91-1.41c-1.47-2.01-4.5-1.97-6.92-1.33c-2.4,0.66-4.89,1.74-7.31,1.1c-1.33-0.35-2.51-1.19-3.86-1.38
		c-1.8-0.25-3.69,0.88-4.37,2.55c-0.05,0.13-0.09,0.25-0.13,0.39c-0.27,0.95-0.19,1.97-0.42,2.94c-0.21,0.95-0.91,1.94-1.9,2
		c-1.07,0.04-1.85-1.02-2.19-2.04c-0.34-1.02-0.47-2.16-1.17-2.98c-0.7-0.8-2.29-0.93-2.67,0.08c-0.12,0.35-0.07,0.72-0.01,1.09
		c0.08,0.51,0.15,1.01,0.23,1.52c0.24,1.54,0.4,3.35-0.7,4.48c-1.34,1.38-3.86,0.74-5.01-0.82c-1.15-1.54-1.27-3.61-1.22-5.54
		c0.08-2.95,0.2-9.68,2.21-13.61c0.97-1.89,2.39-3.12,4.44-2.96c10.73,0.83,21.49,0.94,32.23,0.32c2.53-0.15,5.11-0.32,7.56,0.34
		c2.45,0.66,4.79,2.33,5.48,4.77C277.61,144.4,277.63,145.47,277.64,146.52z"/>
        <g>
		<path class="st0" d="M280.27,143.81l-2.63,2.71l-0.98,1.01c-3.43,3.53-7.32,6.07-11.41,7.64c-8.08,3.15-16.96,2.52-24.66-1.74
			c-3.87-2.13-7.45-5.19-10.48-9.14l-2.08-2.72c-0.15-0.2-0.29-0.42-0.42-0.63c-1.61-2.68-1.26-6.38,0.9-8.61l3.61-3.71
			c13.64-14.01,34.47-12.55,46.55,3.24l2.08,2.72C282.81,137.28,282.6,141.41,280.27,143.81z"/>
	</g>
        <g>
		<ellipse transform="matrix(1 -5.252015e-03 5.252015e-03 1 -0.564 1.2113)" cx="230.35" cy="108" rx="6.2"
                 ry="9.33"/>

            <ellipse transform="matrix(1 -3.464317e-03 3.464317e-03 1 -0.3529 0.8043)" class="st3" cx="231.99"
                     cy="102.26" rx="2.54" ry="3.35"/>
	</g>
        <path class="st2" d="M235.64,42.56c0,0,4.22-27.61,27.23-32.48c3.32-0.7,5.9,3.51,4.28,7.01c-3.92,8.46-5.61,21.93,16.49,30.05
		L235.64,42.56z"/>

        <ellipse transform="matrix(0.9999 -0.0119 0.0119 0.9999 -1.5366 3.1134)" class="st1" cx="260.23" cy="130.37"
                 rx="7.08" ry="3.67"/>

        <ellipse transform="matrix(0.5201 -0.8541 0.8541 0.5201 3.535 329.5209)" class="st3" cx="295.02" cy="161.61"
                 rx="5.65" ry="6.32"/>
        <ellipse class="st3" cx="304.92" cy="151.78" rx="2.66" ry="3.14"/>
        <ellipse class="st3" cx="303.29" cy="140.66" rx="2.66" ry="3.14"/>
        <g>
		<path d="M219.66,65.51c6.22-4.15,15.01-4.12,21.24,0c0,0,0,0.36,0,0.36c-1.77,0.07-3.54,0.11-5.31,0.12
			c-2.65,0.06-7.98,0.06-10.62,0c-1.77-0.01-3.54-0.05-5.31-0.12C219.66,65.87,219.66,65.51,219.66,65.51L219.66,65.51z"/>
	</g>
        <g>
		<path d="M265.23,73.44c0.87-11.29,13.24-20.61,23.9-14.67C277.61,58.86,271.59,64.51,265.23,73.44L265.23,73.44z"/>
	</g>
        <ellipse class="st5" cx="229.84" cy="100.52" rx="11.51" ry="17.29"/>
        <g>
		<ellipse transform="matrix(1 -5.252015e-03 5.252015e-03 1 -0.5634 1.4648)" cx="278.62" cy="108" rx="6.2"
                 ry="9.33"/>

            <ellipse transform="matrix(1 -3.464317e-03 3.464317e-03 1 -0.3526 0.9715)" class="st3" cx="280.26"
                     cy="102.26" rx="2.54" ry="3.35"/>
	</g>
        <ellipse class="st5" cx="278.1" cy="100.52" rx="11.51" ry="17.29"/>
        <path class="st6" d="M236.04,224.32c0,7.74-6.6,14.02-14.75,14.02s-14.75-6.28-14.75-14.02H236.04z"/>
        <path class="st6" d="M301.74,224.32c0,7.74-6.6,14.02-14.75,14.02s-14.75-6.28-14.75-14.02H301.74z"/>
        <path class="st6" d="M269.56,253.64c0,7.74-6.6,14.02-14.75,14.02c-8.15,0-14.75-6.28-14.75-14.02H269.56z"/>
        <g>
		<path class="st7" d="M344.47,289.79c0,13.8-38.86,24.98-86.79,24.98c-47.93,0-86.79-11.19-86.79-24.98
			c0-13.8,38.86-24.98,86.79-24.98C305.61,264.81,344.47,276,344.47,289.79z"/>
            <rect x="170.86" y="283.62" class="st7" width="173.65" height="6.96"/>
            <path class="st8" d="M344.51,283.62c0,13.8-38.86,24.98-86.79,24.98c-47.93,0-86.79-11.18-86.79-24.98
			c0-13.8,38.86-24.98,86.79-24.98C305.65,258.64,344.51,269.82,344.51,283.62z"/>
	</g>
        <path class="st9" d="M331.03,272.26v-51.63h-147.3v54.4c0,12.14,33.11,21.99,73.94,21.99c40.84,0,73.94-9.84,73.94-21.99
		C331.61,274.09,331.41,273.16,331.03,272.26z"/>
        <g>
		<path class="st10" d="M331.03,265.83v-13.88c-12.39,8.39-40.57,14.25-73.36,14.25c-33.31,0-61.87-6.05-73.94-14.65v13.88
			c12.08,8.6,40.63,14.65,73.94,14.65C290.46,280.08,318.64,274.22,331.03,265.83z"/>
	</g>
        <g>
		<g>
			<path class="st11" d="M257.67,276.03c-29.73,0-57.3-5.09-69.89-12.78v-4.7c15.1,7.22,41.29,11.71,69.89,11.71
				c28.58,0,54.12-4.29,69.31-11.41v4.75C314.02,271.19,287.26,276.03,257.67,276.03z"/>
		</g>
	</g>
        <path class="st4" d="M334.43,254.47l-3.4-30.56v-3.29h-147.3v3.29c0,0-8.36,34.97,0,37.4c3.55,2.11,7.23,0.05,9.81-2.69
		c1.93-2.04,3.23-4.24,4.37-6.78c0.75-1.66,1.53-3.9,3.28-4.76c1.95-0.96,4.01,1.07,5.28,2.27c2.12,2,2.86,4.59,3.03,7.44
		c0.18,3.11-0.04,6.74,2.32,9.15c1.82,1.87,5.59,4.86,8.35,3.17c2.09-1.28,3.16-3.84,4.26-5.92c1.36-2.58,2.97-5.08,5-7.19
		c1.54-1.6,3.42-3.05,5.74-3.12c2.57-0.09,5.06,0.97,7.42,1.87c6.17,2.37,11.79,3.77,17.4-0.71c1.92-1.53,3.88-3.7,6.37-4.26
		c2.57-0.58,5.18,0.52,7.27,2c3.34,2.36,5.07,6.17,6.75,9.77c1.67,3.58,3.52,7.83,7.33,9.6c2.38,1.1,5.09,1.13,7.62,0.63
		c2.55-0.49,4.82-1.35,6.38-3.53c2.59-3.61,3.09-8.23,4.37-12.37c1.02-3.28,2.71-6.84,6.53-7.31c2.21-0.27,4.82,0.15,6.55,1.62
		c1.82,1.54,2.56,3.77,3.77,5.75c1.45,2.37,4.01,3.9,6.86,3.63c0.42-0.04,0.83-0.13,1.22-0.25
		C335.15,257.24,334.43,254.47,334.43,254.47z"/>
        <g>
		<path class="st4" d="M331.32,220.62c0,12.14-33.11,21.99-73.94,21.99c-40.84,0-73.94-9.84-73.94-21.99
			c0-12.14,33.11-21.99,73.94-21.99C298.21,198.64,331.32,208.48,331.32,220.62z"/>
            <path class="st12" d="M271.62,231.42c-33.38,0-60.44-8.05-60.44-17.97c0-5.34,7.82-10.13,20.25-13.42
			c-28.04,3.13-47.99,11.17-47.99,20.59c0,12.14,33.11,21.99,73.94,21.99c40.84,0,73.94-9.84,73.94-21.99
			c0-1.08-0.27-2.14-0.77-3.17C324.43,225.45,300.37,231.42,271.62,231.42z"/>
            <g>
			<g>
				<path class="st3" d="M237.9,229.8c0,0-0.27,0.02-0.78,0.06c-0.51,0.03-1.26,0.1-2.21,0.13c-0.95,0.04-2.11,0.1-3.44,0.11
					c-1.33,0.02-2.83,0.04-4.47-0.01c-1.64-0.03-3.41-0.1-5.29-0.23c-1.87-0.14-3.86-0.28-5.89-0.54c-2.04-0.26-4.15-0.53-6.28-0.93
					c-2.13-0.39-4.28-0.88-6.42-1.46c-2.13-0.6-4.25-1.29-6.28-2.2c-2.02-0.92-4-1.98-5.59-3.73l-0.29-0.33l-0.26-0.38
					c-0.08-0.13-0.17-0.25-0.25-0.38l-0.21-0.43c-0.15-0.27-0.23-0.6-0.31-0.91c-0.08-0.31-0.07-0.66-0.1-0.98
					c0,0.01,0.01-0.22,0.01-0.13l0-0.02l0.01-0.05l0.01-0.09l0.03-0.18c0.03-0.13,0.02-0.21,0.07-0.39c0.11-0.32,0.21-0.7,0.36-0.95
					c0.15-0.25,0.29-0.52,0.46-0.74c0.18-0.21,0.35-0.43,0.53-0.63c1.51-1.49,3.2-2.28,4.75-2.92c1.55-0.64,3.02-1.04,4.31-1.38
					c1.3-0.34,2.44-0.56,3.38-0.72c0.94-0.18,1.69-0.27,2.19-0.34c0.51-0.07,0.78-0.1,0.78-0.1s-0.26,0.08-0.75,0.24
					c-0.49,0.15-1.2,0.38-2.1,0.68c-0.9,0.3-1.99,0.69-3.22,1.15c-1.22,0.48-2.59,1.04-4,1.77c-1.4,0.73-2.88,1.65-3.97,2.87
					c-0.11,0.16-0.23,0.32-0.35,0.47c-0.11,0.16-0.17,0.33-0.26,0.49c-0.08,0.16-0.07,0.27-0.14,0.4c-0.02,0.02-0.02,0.09-0.03,0.15
					l-0.02,0.18l-0.02,0.18l-0.01,0.09l0,0.05l0,0.02c-0.01,0.11,0.01-0.12,0.01-0.09c0.05,0.64,0.39,1.31,0.99,1.93
					c0.59,0.62,1.37,1.17,2.21,1.66c0.86,0.47,1.76,0.93,2.71,1.32c1.9,0.8,3.92,1.45,5.98,2.02c2.05,0.58,4.14,1.06,6.21,1.49
					c2.07,0.42,4.12,0.81,6.12,1.13c2,0.32,3.93,0.61,5.77,0.86c1.84,0.23,3.59,0.47,5.2,0.65c1.62,0.18,3.1,0.34,4.41,0.48
					c1.32,0.13,2.47,0.25,3.41,0.34C236.81,229.69,237.9,229.8,237.9,229.8z"/>
			</g>
		</g>
            <g>
			<path class="st13" d="M331.32,220.62c0,0,0.01,0.16,0.04,0.47c0.01,0.15,0.03,0.35,0.05,0.58c0.02,0.23-0.03,0.5-0.05,0.82
				c-0.12,1.26-0.73,3.1-2.18,5.01c-1.42,1.93-3.58,3.89-6.28,5.7c-2.7,1.83-5.93,3.54-9.55,5.11c-3.63,1.56-7.66,2.95-11.97,4.17
				c-4.32,1.21-8.92,2.25-13.72,3.07c-2.4,0.43-4.84,0.78-7.32,1.09c-1.24,0.15-2.49,0.29-3.75,0.44c-1.26,0.13-2.52,0.23-3.79,0.34
				c-5.08,0.44-10.25,0.61-15.42,0.64l-3.84-0.05c-1.3-0.04-2.61-0.07-3.91-0.11c-1.29-0.06-2.57-0.11-3.85-0.19
				c-1.28-0.09-2.55-0.19-3.82-0.28c-1.27-0.11-2.53-0.23-3.79-0.34c-1.25-0.15-2.5-0.3-3.75-0.44c-2.48-0.32-4.93-0.65-7.33-1.09
				c-4.8-0.82-9.4-1.86-13.72-3.07c-4.31-1.22-8.34-2.61-11.97-4.17c-3.62-1.57-6.86-3.28-9.55-5.11c-2.7-1.81-4.86-3.78-6.28-5.71
				c-1.45-1.91-2.07-3.77-2.18-5.01c-0.02-0.31-0.07-0.58-0.05-0.82c0.02-0.23,0.04-0.43,0.05-0.59c0.03-0.31,0.04-0.47,0.04-0.47
				s0.04,0.16,0.12,0.46c0.04,0.15,0.09,0.33,0.15,0.55c0.06,0.21,0.19,0.44,0.3,0.71c0.06,0.13,0.12,0.27,0.18,0.41
				c0.09,0.13,0.18,0.28,0.28,0.42c0.09,0.15,0.19,0.3,0.29,0.46c0.1,0.16,0.25,0.3,0.37,0.46c0.13,0.15,0.27,0.31,0.4,0.48
				c0.15,0.16,0.33,0.31,0.49,0.47c0.17,0.16,0.33,0.33,0.52,0.49c0.2,0.15,0.4,0.31,0.6,0.47c1.65,1.26,3.92,2.46,6.68,3.51
				c2.76,1.06,5.98,2,9.56,2.83c0.9,0.2,1.81,0.4,2.75,0.6c0.94,0.18,1.9,0.38,2.88,0.55c1.96,0.34,3.98,0.7,6.08,0.99
				c4.19,0.61,8.64,1.1,13.25,1.51c2.31,0.18,4.66,0.38,7.04,0.53c2.38,0.12,4.79,0.25,7.23,0.37c1.22,0.04,2.44,0.08,3.66,0.12
				c1.23,0.02,2.46,0.06,3.69,0.1c1.22,0.02,2.44,0.04,3.66,0.06l3.75,0.01c4.95,0.03,9.9-0.1,14.77-0.28
				c2.43-0.12,4.84-0.25,7.23-0.37c2.38-0.15,4.73-0.34,7.04-0.52c4.61-0.41,9.06-0.9,13.25-1.51c4.19-0.61,8.13-1.3,11.71-2.14
				c3.58-0.83,6.8-1.77,9.56-2.83c2.76-1.05,5.03-2.25,6.68-3.51c0.21-0.16,0.41-0.32,0.6-0.47c0.18-0.16,0.35-0.33,0.52-0.49
				c0.16-0.16,0.34-0.31,0.49-0.47c0.14-0.17,0.27-0.32,0.4-0.48c0.13-0.16,0.27-0.3,0.37-0.46c0.1-0.16,0.2-0.31,0.29-0.46
				c0.1-0.15,0.19-0.29,0.27-0.42c0.06-0.14,0.12-0.27,0.18-0.4c0.11-0.26,0.24-0.49,0.3-0.71c0.06-0.22,0.11-0.41,0.15-0.56
				C331.28,220.78,331.32,220.62,331.32,220.62z"/>
		</g>
	</g>
        <path class="st9" d="M309.38,214.16v-36.48H205.3v38.44c0,8.58,23.39,15.53,52.24,15.53c28.86,0,52.25-6.95,52.25-15.53
		C309.79,215.45,309.65,214.8,309.38,214.16z"/>
        <g>
		<path class="st10" d="M309.38,209.62v-9.81c-8.76,5.93-28.67,10.07-51.84,10.07c-23.54,0-43.71-4.27-52.24-10.35v9.81
			c8.53,6.08,28.71,10.35,52.24,10.35C280.71,219.68,300.62,215.54,309.38,209.62z"/>
	</g>
        <g>
		<g>
			<path class="st11" d="M257.54,216.82c-21.01,0-40.48-3.6-49.38-9.03v-3.32c10.67,5.1,29.17,8.27,49.38,8.27
				c20.19,0,38.24-3.03,48.97-8.06v3.36C297.36,213.4,278.45,216.82,257.54,216.82z"/>
		</g>
	</g>
        <path class="st4" d="M311.78,201.59l-2.4-21.59v-2.33H205.3V180c0,0-5.91,24.71,0,26.42c2.51,1.49,5.11,0.04,6.93-1.9
		c1.36-1.44,2.28-3,3.09-4.79c0.53-1.17,1.08-2.75,2.32-3.36c1.37-0.68,2.83,0.76,3.73,1.6c1.5,1.41,2.02,3.25,2.14,5.26
		c0.13,2.19-0.03,4.76,1.64,6.47c1.29,1.32,3.95,3.44,5.9,2.24c1.48-0.9,2.23-2.71,3.01-4.18c0.97-1.82,2.1-3.59,3.53-5.08
		c1.09-1.13,2.42-2.15,4.06-2.21c1.82-0.06,3.58,0.68,5.24,1.32c4.36,1.67,8.33,2.66,12.29-0.5c1.35-1.08,2.74-2.61,4.5-3.01
		c1.82-0.41,3.66,0.37,5.14,1.41c2.36,1.67,3.58,4.36,4.77,6.91c1.18,2.53,2.49,5.54,5.18,6.78c1.68,0.78,3.6,0.8,5.39,0.45
		c1.8-0.35,3.4-0.95,4.51-2.5c1.83-2.55,2.18-5.81,3.09-8.74c0.72-2.31,1.92-4.83,4.61-5.16c1.56-0.19,3.4,0.1,4.63,1.14
		c1.29,1.09,1.81,2.66,2.66,4.06c1.02,1.67,2.83,2.75,4.85,2.56c0.3-0.03,0.59-0.09,0.86-0.17
		C312.29,203.55,311.78,201.59,311.78,201.59z"/>
        <path class="st4" d="M309.58,177.68c0,0.46-0.07,0.93-0.2,1.37c-2.33,7.94-24.74,14.16-52.05,14.16c-27.3,0-49.7-6.22-52.03-14.16
		c-0.13-0.44-0.2-0.91-0.2-1.37c0-0.2,0.01-0.4,0.04-0.59v-0.05c0.03-0.19,0.07-0.38,0.11-0.55c0.07-0.24,0.15-0.47,0.23-0.7
		c0.07-0.16,0.15-0.32,0.23-0.48c0.01-0.03,0.03-0.05,0.04-0.07c0.11-0.2,0.23-0.4,0.36-0.6c0.09-0.15,0.21-0.31,0.34-0.47
		c0.11-0.15,0.23-0.29,0.38-0.44c0.08-0.09,0.17-0.2,0.27-0.29c0.24-0.25,0.5-0.5,0.76-0.74c0.27-0.24,0.56-0.48,0.87-0.71
		c1.41-1.06,3.18-2.06,5.3-2.99c0.24-0.11,0.48-0.21,0.72-0.31c1.09-0.46,2.27-0.9,3.51-1.31c0.42-0.15,0.83-0.28,1.26-0.42
		c1.45-0.44,2.98-0.87,4.6-1.27c0.64-0.15,1.3-0.31,1.97-0.46c0.67-0.15,1.35-0.29,2.05-0.43c0.12-0.03,0.25-0.05,0.39-0.08
		c1.89-0.38,3.86-0.71,5.93-1.01c0.15-0.03,0.29-0.05,0.46-0.07c0.12,0.21,0.29,0.4,0.48,0.58c0.08,0.07,0.16,0.13,0.24,0.19
		c0.23,0.15,0.46,0.25,0.68,0.34c0,0,0,0,0.01,0c0.08,0.23,0.19,0.46,0.28,0.67c0.38,0.8,0.83,1.6,1.57,2.09
		c2.17,1.46,5.4-0.56,7.64,0.8c0.62,0.38,1.07,0.97,1.72,1.29c1.74,0.9,3.75-0.54,5.71-0.59c2.13-0.07,3.94,1.5,5.99,2.09
		c1.93,0.56,4.09,0.19,5.72-0.97c0.71-0.5,1.38-1.17,2.24-1.27c0.86-0.11,1.72,0.39,2.59,0.35c0.66-0.04,1.26-0.38,1.8-0.74
		c1.07-0.75,2.02-1.69,2.78-2.76c0.2-0.29,0.4-0.6,0.7-0.79c0.46-0.28,1.05-0.23,1.58-0.36c0.67-0.16,1.17-0.58,1.56-1.13
		c16.28,2.1,28.24,6.61,30.85,12.01c0,0.01,0.01,0.03,0.01,0.04c0.08,0.16,0.16,0.34,0.21,0.51c0.08,0.2,0.13,0.4,0.19,0.6
		c0.04,0.17,0.07,0.35,0.08,0.51C309.56,177.3,309.58,177.49,309.58,177.68z"/>
        <path class="st12" d="M309.58,177.68c0,0.46-0.07,0.93-0.2,1.37c-2.33,7.94-24.74,14.16-52.05,14.16c-27.3,0-49.7-6.22-52.03-14.16
		c-0.13-0.44-0.2-0.91-0.2-1.37c0-0.2,0.01-0.4,0.04-0.59v-0.05c0.03-0.19,0.07-0.38,0.11-0.55c0.07-0.24,0.15-0.47,0.23-0.7
		c0.07-0.16,0.15-0.32,0.23-0.48c0.01-0.03,0.03-0.05,0.04-0.07c0.11-0.2,0.23-0.4,0.36-0.6c0.09-0.15,0.21-0.31,0.34-0.47
		c0.11-0.15,0.23-0.29,0.38-0.44c0.08-0.09,0.17-0.2,0.27-0.29c0.24-0.25,0.5-0.5,0.76-0.74c0.27-0.24,0.56-0.47,0.87-0.71
		c1.41-1.06,3.18-2.06,5.3-2.99c0.24-0.11,0.48-0.21,0.72-0.31c1.09-0.46,2.27-0.9,3.51-1.31c0.42-0.15,0.83-0.28,1.26-0.42
		c1.45-0.44,2.98-0.87,4.6-1.27c0.64-0.15,1.3-0.31,1.97-0.46c0.67-0.15,1.35-0.29,2.05-0.43c0.12-0.03,0.25-0.05,0.39-0.08
		c1.89-0.38,3.86-0.71,5.93-1.01c0.15-0.03,0.29-0.05,0.46-0.07c0.12,0.21,0.29,0.4,0.48,0.58c-6.65,2.23-10.69,5.18-10.69,8.39
		c0,1.81,1.26,3.51,3.54,5.07c2.68,1.84,6.78,3.45,11.89,4.71c0.17,0.04,0.35,0.08,0.54,0.12c1.09,0.27,2.23,0.51,3.41,0.74
		c0.03,0.01,0.07,0.01,0.11,0.03c0.9,0.17,1.84,0.34,2.79,0.5c1.03,0.16,2.09,0.32,3.18,0.47c5.22,0.68,10.99,1.06,17.08,1.07h0.17
		c1.33,0,2.64-0.01,3.94-0.05c0.25-0.01,0.5-0.01,0.74-0.03c1.1-0.03,2.19-0.08,3.24-0.13c14.05-0.79,25.67-3.62,31.24-7.41
		c1.05-0.71,1.89-1.46,2.48-2.24c0,0.01,0.01,0.03,0.01,0.04c0.08,0.16,0.16,0.34,0.21,0.51c0.08,0.2,0.13,0.4,0.19,0.6
		c0.04,0.17,0.07,0.35,0.08,0.51C309.56,177.3,309.58,177.49,309.58,177.68z"/>
        <g>
		<g>
			<path class="st3" d="M243.57,184.16c0,0-0.19,0.01-0.55,0.04c-0.36,0.02-0.89,0.07-1.56,0.1c-0.67,0.03-1.49,0.07-2.43,0.08
				c-0.94,0.02-2,0.03-3.16-0.01c-1.16-0.02-2.41-0.07-3.74-0.16c-1.32-0.1-2.72-0.19-4.16-0.38c-1.44-0.18-2.93-0.37-4.43-0.66
				c-1.5-0.29-3.02-0.62-4.53-1.03c-1.5-0.43-3-0.92-4.43-1.56c-1.43-0.64-2.83-1.4-3.95-2.63c-0.54-0.61-1.03-1.46-1-2.41
				c0,0.01,0.01-0.16,0.01-0.1l0-0.02l0-0.03l0.01-0.06l0.02-0.13c0.02-0.09,0.01-0.15,0.05-0.27c0.07-0.23,0.15-0.49,0.25-0.67
				c0.11-0.18,0.2-0.37,0.33-0.52c0.12-0.15,0.25-0.3,0.37-0.44c1.07-1.05,2.26-1.61,3.35-2.06c1.09-0.46,2.13-0.74,3.05-0.98
				c0.92-0.24,1.72-0.39,2.39-0.51c0.66-0.13,1.19-0.19,1.55-0.24c0.36-0.05,0.55-0.07,0.55-0.07s-0.18,0.06-0.53,0.17
				c-0.35,0.1-0.85,0.27-1.48,0.48c-0.64,0.21-1.4,0.48-2.27,0.81c-0.86,0.34-1.83,0.74-2.83,1.25c-0.99,0.51-2.04,1.17-2.81,2.03
				l-0.25,0.34c-0.08,0.11-0.12,0.23-0.19,0.35c-0.06,0.12-0.05,0.19-0.1,0.28c-0.02,0.04-0.02,0.16-0.03,0.23l-0.01,0.13
				l-0.01,0.06l0,0.03l0,0.02c0,0.07,0-0.08,0-0.06c0.03,0.45,0.28,0.93,0.7,1.36c0.42,0.44,0.97,0.83,1.56,1.18
				c0.61,0.33,1.24,0.65,1.92,0.94c1.34,0.58,2.77,1.03,4.23,1.42c1.45,0.41,2.93,0.76,4.39,1.06c1.47,0.29,2.91,0.57,4.32,0.8
				c1.41,0.23,2.78,0.43,4.08,0.61c1.3,0.16,2.53,0.33,3.68,0.46c1.14,0.12,2.19,0.24,3.12,0.34c0.93,0.09,1.74,0.18,2.41,0.24
				C242.81,184.08,243.57,184.16,243.57,184.16z"/>
		</g>
	</g>
        <g>
		<path class="st13" d="M309.58,177.67c0,0,0.01,0.11,0.03,0.33c0.01,0.11,0.02,0.25,0.04,0.41c0.01,0.16-0.02,0.35-0.04,0.58
			c-0.1,0.88-0.51,2.19-1.54,3.54c-1.01,1.36-2.53,2.75-4.44,4.03c-1.91,1.29-4.19,2.5-6.75,3.61c-5.13,2.2-11.37,3.94-18.15,5.12
			c-1.69,0.31-3.42,0.55-5.18,0.77c-0.88,0.1-1.76,0.21-2.65,0.31c-0.89,0.09-1.78,0.16-2.68,0.24c-3.59,0.31-7.24,0.43-10.9,0.45
			l-2.71-0.03c-0.92-0.03-1.84-0.05-2.76-0.08c-1.82-0.06-3.63-0.19-5.42-0.33c-0.9-0.08-1.79-0.16-2.68-0.24
			c-0.89-0.1-1.77-0.21-2.65-0.31c-1.75-0.23-3.48-0.46-5.18-0.77c-3.39-0.58-6.64-1.32-9.69-2.17c-3.05-0.86-5.89-1.84-8.46-2.95
			c-2.56-1.11-4.84-2.32-6.75-3.61c-1.91-1.28-3.43-2.67-4.44-4.03c-1.03-1.35-1.45-2.67-1.54-3.54c-0.02-0.22-0.05-0.41-0.04-0.58
			c0.01-0.17,0.03-0.3,0.04-0.42c0.02-0.22,0.03-0.33,0.03-0.33s0.03,0.11,0.09,0.32c0.03,0.1,0.06,0.23,0.1,0.39
			c0.05,0.15,0.14,0.31,0.21,0.5c0.32,0.75,1.05,1.69,2.22,2.57c1.17,0.89,2.77,1.74,4.72,2.48c1.95,0.75,4.23,1.42,6.75,2
			c2.53,0.59,5.31,1.08,8.27,1.51c2.96,0.43,6.1,0.78,9.36,1.07c1.63,0.13,3.29,0.27,4.97,0.37c1.68,0.09,3.39,0.18,5.1,0.26
			c0.86,0.03,1.72,0.06,2.59,0.09c0.87,0.01,1.74,0.04,2.61,0.07c0.86,0.01,1.72,0.03,2.59,0.04l2.65,0.01
			c3.5,0.02,7-0.07,10.44-0.2c1.72-0.09,3.42-0.18,5.11-0.26c1.68-0.11,3.34-0.24,4.97-0.37c3.26-0.29,6.4-0.63,9.36-1.06
			c2.96-0.43,5.74-0.92,8.27-1.51c2.53-0.58,4.81-1.25,6.75-2c1.95-0.74,3.55-1.59,4.72-2.48c1.17-0.89,1.9-1.84,2.22-2.57
			c0.07-0.18,0.17-0.34,0.21-0.5c0.04-0.16,0.08-0.29,0.11-0.39C309.55,177.78,309.58,177.67,309.58,177.67z"/>
	</g>
        <path class="st14" d="M236.31,164.74c-0.23-0.08-0.46-0.19-0.68-0.34c-0.08-0.05-0.16-0.12-0.24-0.19c0.2-0.08,0.42-0.15,0.63-0.21
		C236.11,164.25,236.21,164.5,236.31,164.74z"/>
        <path class="st2" d="M341.22,175.56c0,0,96.53,69.72,71.06,109.94c-25.47,40.22-92.51,14.75-100.55,9.39
		c-7.48-4.99,9.39-26.81,40.22-28.16c30.84-1.34-30.84-79.1-30.84-79.1L341.22,175.56z"/>
        <path class="st2" d="M170.78,175.56c0,0-96.53,69.72-71.06,109.94s92.51,14.75,100.55,9.39c7.48-4.99-9.39-26.81-40.22-28.16
		c-30.84-1.34,30.84-79.1,30.84-79.1L170.78,175.56z"/>
        <circle class="st3" cx="225.92" cy="109.86" r="1.34"/>
        <circle class="st3" cx="274.18" cy="109.86" r="1.34"/>
        <path class="st4" d="M276.26,155.47c0.38,0.4,0.85,0.76,0.99,1.29c0.18,0.67-0.18,1.53,0.32,2.02c0.42,0.4,1.11,0.22,1.62-0.06
		c0.44-0.24,0.87-0.55,1.07-1c0.12-0.26,0.15-0.55,0.19-0.83c0.05-0.31,0.12-0.62,0.06-0.93c-0.13-0.75-0.94-1.29-0.97-2.05
		c-0.03-0.61,0.45-1.26,0.12-1.77C278.49,150.31,274.51,153.65,276.26,155.47z"/>
        <g>
		<path class="st15" d="M221.22,346.5c12.59-20.96,39.4-28.43,62.57-26.86c7.9,0.47,15.7,1.86,23.24,4.06
			c-15.42-1.96-31.06-2.79-46.32,0.44C245.73,327.24,230.99,334.45,221.22,346.5L221.22,346.5z"/>
	</g>
        <ellipse class="st16" cx="228.6" cy="152.09" rx="0.67" ry="4.02"/>
        <circle class="st16" cx="278.12" cy="153.44" r="0.67"/>
        <path class="st13" d="M380.22,260.89c4.77,0.02,9.76,0.59,13.69,3.28c0.89,0.61,1.78,1.48,1.74,2.56
		c-0.08,1.68-2.33,2.52-2.67,4.17c-0.24,1.15,0.53,2.23,0.83,3.36c0.89,3.29-2.17,6.93-0.71,10.01c-1.77,0.19-3.53-1.35-3.58-3.12
		c-0.03-1.2,0.59-2.32,0.88-3.49c0.29-1.17,0.07-2.68-1.05-3.14c-0.62-0.26-1.33-0.1-2-0.1c-3,0.02-5.05-2.84-7.44-4.66
		c-2.51-1.92-5.8-2.77-8.93-2.32c-0.54,0.08-1.1,0.2-1.51,0.56c-1.27,1.1-0.33,3.42-1.4,4.72c-0.82,1.01-2.73,0.68-3.17-0.55
		c-0.42-1.17,0.39-2.55-0.11-3.69c-0.61-1.38-2.64-1.37-3.95-0.63c-1.32,0.73-2.38,1.94-3.83,2.35c-1.07,0.31-2.21,0.14-3.33,0.17
		c-3.37,0.11-6.58,2.27-7.95,5.35c-0.44,0.99-0.72,2.08-1.43,2.89c-0.72,0.81-2.11,1.17-2.86,0.39c-0.94-0.99-0.09-2.72-0.69-3.94
		c-2.02-0.32-4.46-0.49-5.74,1.11c-0.4,0.5-0.62,1.12-0.97,1.67c-0.69,1.09-1.98,1.87-3.25,1.65s-2.29-1.64-1.83-2.85
		c0.62-1.65,2.95-1.62,4.45-2.54c1.37-0.84,2.07-2.41,3.26-3.44c1.35-1.17,2.94-1.58,4.61-2.14c4.17-1.39,8.36-2.69,12.6-3.82
		C362.49,262.41,371.31,260.85,380.22,260.89z"/>
        <path class="st13" d="M126.73,261.69c-2.67,0.06-5.78,0.49-7.14,2.79c-1.55,2.62,0.07,6.15-1.15,8.94
		c-0.84,1.91-2.95,3.29-3.05,5.37c-0.11,2.32,3.13,3.96,4.93,2.5c1.22-0.99,1.48-2.72,2.21-4.11c0.73-1.39,2.71-2.49,3.79-1.34
		c-0.69,4.33,4.3,7.31,5.91,11.39c0.23,0.58,0.4,1.2,0.82,1.66c1.34,1.46,3.99-0.11,4.28-2.07c0.29-1.96-0.81-3.81-1.66-5.6
		c-1.75-3.69-2.55-7.83-2.29-11.91c3.28-0.67,6.64-0.98,9.99-0.93c1.42,0.02,3.11,0.28,3.73,1.56c0.7,1.45-0.38,3.55,0.83,4.62
		c0.67,0.6,1.77,0.51,2.43,1.13c1.22,1.13,0.25,3.83,1.81,4.41c1.05,0.39,2.05-0.81,2.18-1.93c0.13-1.11-0.19-2.26,0.11-3.34
		c0.6-2.1,3.91-2.69,5.2-0.92c0.58,0.8,0.75,1.88,1.49,2.55c1.25,1.13,3.25,0.38,4.89,0.74c2.13,0.47,3.44,2.74,5.52,3.4
		c1.8,0.57,3.72-0.18,5.46-0.91c0.39-0.16,0.8-0.35,1.01-0.72c0.29-0.52,0.05-1.16-0.2-1.7c-1.46-3.12-2.94-6.38-6.2-7.77
		c-4.35-1.86-9.6-2.67-14.2-3.78C147.39,263.29,137.11,261.47,126.73,261.69z"/>
        <ellipse class="st17" cx="303.01" cy="153.44" rx="10.06" ry="8.71"/>
        <ellipse class="st17" cx="307.03" cy="138.02" rx="4.69" ry="4.02"/>
        <circle class="st17" cx="313.06" cy="128.63" r="2.68"/>

        <ellipse transform="matrix(0.2125 -0.9772 0.9772 0.2125 -69.0423 654.2525)" class="st18" cx="371.38" cy="369.96"
                 rx="33.52" ry="11.4"/>
        <ellipse transform="matrix(0.866 -0.5 0.5 0.866 -30.3074 137.4517)" class="st1" cx="241.33" cy="125.28"
                 rx="8.71" ry="2.01"/>
        <path class="st15" d="M269.41,140.7c0,6.66-6.9,12.07-15.42,12.07c-8.52,0-15.42-5.4-15.42-12.07"/>
</g>
</svg>
