<?xml version="1.0" encoding="utf-8"?>
<!-- Generator: Adobe Illustrator 28.0.0, SVG Export Plug-In . SVG Version: 6.00 Build 0)  -->
<svg xmlns:xlink="http://www.w3.org/1999/xlink" version="1.1" id="Шар_1" xmlns="http://www.w3.org/2000/svg" x="0px"
     y="0px"
     viewBox="0 0 512 512" style="enable-background:new 0 0 512 512;" xml:space="preserve">
<style type="text/css">
	.st0{fill:#161311;}
	.st1{fill:#232323;}
	.st2{fill:#232323;stroke:#565656;stroke-width:0.2003;stroke-miterlimit:10;}
	.st3{fill:#FFFFFF;}
	.st4{fill:#3D3D3D;}
	.st5{fill:#F1F1F1;stroke:#232323;stroke-width:3.6054;stroke-miterlimit:10;}
	.st6{fill:#353535;}
	.st7{fill:#F1F1F1;}
	.st8{fill:#565656;}
	.st9{fill:#F1F1F1;stroke:#232323;stroke-width:6.9873;stroke-miterlimit:10;}
	.st10{fill:#FF8D00;}
	.st11{fill:#FFD48F;}
	.st12{fill:#FFEDE1;}
	.st13{fill:#705232;}
	.st14{fill:#F1C88D;}
	.st15{fill:#F5D6AB;}
	.st16{fill:#F8E1C1;}
	.st17{clip-path:url(#path39922_00000111174513176563160660000007165661051715788219_);fill:#55A4C9;}
	.st18{opacity:0.66;fill:#768892;}
	.st19{fill:#8B93A9;}
	.st20{opacity:0.54;fill:#8B93A9;}
	.st21{fill:#8E9092;}
	.st22{fill:#C79F44;}
	.st23{fill:#C9C9C9;}
</style>
    <g>
	<path class="st0" d="M184.23,8"/>
        <g>
		<path class="st1" d="M239.82,238.57c-0.12,0.07-0.24,0.16-0.36,0.23c-5.05,3.24-9.98,6.35-14.79,9.32h-0.01
			c-13.66,8.44-26.36,15.79-38.18,22.2c-7.4,4.03-14.46,7.68-21.18,10.98c-2.16,1.07-4.3,2.1-6.39,3.1
			c-0.02,0.01-0.05,0.03-0.07,0.03c-0.4,0.2-0.78,0.38-1.17,0.55h-0.01l-42.76-24.82c1.08-1.15,2.14-2.31,3.2-3.47
			c5.08-5.54,9.99-11.14,14.63-16.59v-0.01c1.21-1.42,2.39-2.81,3.57-4.21c1.5-1.78,2.95-3.53,4.37-5.26
			c6.13-7.45,11.57-14.35,16.05-20.15v-0.01c8.04-10.43,12.93-17.3,12.93-17.3l58.66,37.96L239.82,238.57z"/>
            <g>
			<line class="st1" x1="256.73" y1="235.27" x2="361.47" y2="282.77"/>
		</g>
            <path class="st2" d="M315.43,183.54c6.8-1.75,14.02-0.55,19.88,3.32c23.92,15.81,83.53,59.61,64.14,92.1
			c-2.82,4.73-6.7,7.56-11.3,8.8c-26.07,7.05-75.49-36.52-89.6-70.93C292.87,202.97,300.91,187.28,315.43,183.54L315.43,183.54z"/>
            <path class="st1" d="M268.26,452.62C106.3,476.94,164.18,201.93,164.18,201.93C138,60.55,244.87,54.84,244.89,54.83
			c0,0,106.73-8.19,97.3,135.51C342.19,190.35,431.83,455.75,268.26,452.62"/>
            <g>
			<path class="st3" d="M218.58,193.54l-31.25-21.36c-8.72-5.96-11.89-18.37-7.27-28.47l21.41-46.78
				c3.12-6.81,9.24-11.26,16.12-11.71l1.82-0.12c10.26-0.67,19.28,7.65,20.62,19.02l8.01,68.26
				C250.16,190.47,232.56,203.11,218.58,193.54z"/>
		</g>
            <g>
			<path class="st3" d="M288.89,188.97l28.51-25.25c7.96-7.05,9.65-19.77,3.88-29.19l-26.73-43.65c-3.89-6.36-10.49-9.98-17.36-9.53
				l-1.82,0.12c-10.26,0.67-18.24,10.1-18.23,21.55l0.04,68.77C257.19,190.01,276.13,200.27,288.89,188.97z"/>
		</g>
            <g>
			<path class="st4" d="M228.92,152.19c5.74-13.34,21.23-22.28,34.5-13.05c3.88,2.63,6.96,6.08,9.24,9.96
				c-3.5-2.81-7-5.47-10.78-7.32C249.25,135.01,237.72,142.84,228.92,152.19L228.92,152.19z"/>
		</g>
            <path class="st5" d="M215.49,172.46L215.49,172.46c-10.71,0.7-20.04-8.49-20.74-20.42l-0.87-14.87
			c-0.7-11.93,7.49-22.26,18.19-22.96h0c10.71-0.7,20.04,8.49,20.74,20.42l0.87,14.87c0.16,2.79-0.16,5.5-0.89,8.01
			C230.42,165.74,223.69,171.93,215.49,172.46z"/>
            <path class="st5" d="M289.3,168.92L289.3,168.92c-10.71,0.7-20.04-8.49-20.74-20.42l-0.87-14.87
			c-0.7-11.93,7.49-22.26,18.19-22.96l0,0c10.71-0.7,20.04,8.49,20.74,20.42l0.87,14.87c0.16,2.79-0.16,5.5-0.89,8.01
			C304.23,162.2,297.51,168.39,289.3,168.92z"/>
            <g>
			<path class="st6" d="M287.83,164.38l-2.89,0.19c-4.1,0.27-7.67-3.26-7.94-7.85l-0.62-10.6c-0.27-4.58,2.87-8.55,6.97-8.82
				l2.89-0.19c4.1-0.27,7.67,3.26,7.94,7.85l0.62,10.6C295.07,160.15,291.93,164.12,287.83,164.38z"/>

                <ellipse transform="matrix(0.9995 -0.0326 0.0326 0.9995 -4.4217 9.1918)" class="st7" cx="279.37"
                         cy="140.05" rx="5.57" ry="6.21"/>
		</g>
            <g>
			<path class="st6" d="M213.51,168.13l-2.89,0.19c-4.1,0.27-7.67-3.26-7.94-7.85l-0.62-10.6c-0.27-4.58,2.87-8.55,6.97-8.82
				l2.89-0.19c4.1-0.27,7.67,3.26,7.94,7.85l0.62,10.6C220.74,163.89,217.61,167.86,213.51,168.13z"/>

                <ellipse transform="matrix(0.9995 -0.0326 0.0326 0.9995 -4.5864 6.7319)" class="st7" cx="203.93"
                         cy="143.86" rx="5.57" ry="6.21"/>
		</g>
            <path class="st3" d="M254.39,423.17c8.16,3.62,17.32,3.03,25-1.63c11.47-6.95,28.41-17.21,40.72-24.67
			c9.62-5.83,15.49-17.14,15.26-29.37l-2.43-126.36c-0.46-23.98-23.07-39.53-42.43-29.18l-24.05,12.85
			c-6.95,3.71-14.94,4.23-22.27,1.45c-6.89-2.62-16.02-6.08-25.37-9.64c-20.42-7.76-41.05,10.61-38.69,34.46l12.39,125.71
			c1.2,12.17,8.36,22.63,18.59,27.17L254.39,423.17"/>

            <ellipse transform="matrix(0.2113 -0.9774 0.9774 0.2113 145.2912 321.3503)" class="st8" cx="271.77"
                     cy="70.64" rx="6.21" ry="11.85"/>
            <line class="st9" x1="302.52" y1="119.13" x2="312.01" y2="106.63"/>
            <line class="st9" x1="197.32" y1="124.17" x2="186.68" y2="112.63"/>
            <path class="st1" d="M223.69,64.61c0,0,19.31-12.1,20.77-25.37c0,0,20.33,9.18,18.73,19.42
			C261.58,68.89,223.69,64.61,223.69,64.61z"/>
            <g>
			<path class="st10" d="M251.35,159.09c-8.32-0.46-14.1,10.97-14.1,10.97c-11.04,2.85-10.29,11.62-10.29,11.62
				s17.33,17.7,27.83,17.27c10.5-0.43,24.67-19.4,24.67-19.4s-0.76-8.77-12.21-10.71C267.25,168.84,259.54,157.95,251.35,159.09"/>
		</g>

            <ellipse transform="matrix(0.9999 -0.012 0.012 0.9999 -2.0692 3.051)" class="st11" cx="252.94" cy="173.77"
                     rx="6.94" ry="4.31"/>

            <ellipse transform="matrix(0.9995 -0.0326 0.0326 0.9995 -10.0959 11.5646)" class="st8" cx="349.22"
                     cy="315.06" rx="5.23" ry="56.99"/>
            <g>
			<path class="st6" d="M168.73,226.83c-6.49,14.93-9.75,30.87-10.71,47.08C155.56,257.88,159.26,240.1,168.73,226.83L168.73,226.83
				z"/>
		</g>

            <ellipse transform="matrix(0.1366 -0.9906 0.9906 0.1366 -128.2644 606.3458)" class="st12" cx="283.71"
                     cy="376.75" rx="17.26" ry="16.73"/>
            <circle class="st12" cx="312.95" cy="352.28" r="10.98"/>
            <circle class="st12" cx="292.92" cy="340.55" r="4.18"/>
            <circle class="st12" cx="303.66" cy="327.78" r="3.66"/>

            <ellipse transform="matrix(0.1366 -0.9906 0.9906 0.1366 -70.3487 561.8398)" class="st12" cx="287.13"
                     cy="321.28" rx="4.71" ry="4.18"/>
            <g>
			<path class="st13" d="M237.44,184.05c7.89,3.67,16.91,4.02,25.04,1.12c1.91-0.58,3.82-1.47,5.71-2.15
				c-1.04,0.9-2.12,1.78-3.28,2.56c-0.67,0.37-2.08,1.22-2.74,1.55c-0.95,0.39-1.98,0.83-2.94,1.19c-0.73,0.18-2.37,0.67-3.08,0.81
				C249.64,190.31,242.25,188.76,237.44,184.05L237.44,184.05z"/>
		</g>
            <path class="st10" d="M187.56,500.88l33.88-5.84c7.14-1.23,11.99-8.08,10.76-15.23l-1.36-7.94c-1.23-7.16-8.09-12.01-15.24-10.77
			l-33.88,5.84c-7.14,1.23-11.99,8.08-10.76,15.23l1.36,7.94C173.54,497.26,180.4,502.11,187.56,500.88z"/>
            <path class="st10" d="M313.42,484.24l31.96,12.68c6.74,2.67,14.44-0.65,17.12-7.39l2.98-7.48c2.68-6.75-0.64-14.46-7.4-17.14
			l-31.96-12.68c-6.74-2.67-14.44,0.65-17.12,7.39l-2.98,7.48C303.34,473.85,306.67,481.57,313.42,484.24z"/>
            <g>
			<path class="st1" d="M268.26,452.62"/>
		</g>
            <g>
			<path class="st3" d="M254.39,423.17"/>
		</g>
            <g id="g53033" transform="matrix(-1.0975627,0.02651995,-0.02266449,-0.93799977,804.21676,548.74438)">
			<path id="path44130" class="st14" d="M501.4,342.28c-0.19,1.21-0.76,14.53-0.76,14.53s35.52-5.03,47.45-18.99
				s18.25-24.14,18.25-24.14s-1.03,43.64,8.7,55.15c9.72,11.51,26.42,29.89,26.42,29.89l3.61-59.34l-32.34-42.12l-16.99,0.65
				L501.4,342.28z"/>
                <path id="path43571" class="st15" d="M494.34,325.03l-6,19.82c0,0,57.58,6.24,78.4-32.94c7.28,25.19,33.44,53.55,62.4,61.87
				c0.72-14.59,4-32.55,4-32.55l-63.77-53.32L494.34,325.03z"/>
                <path class="st16" d="M482.86,336.15l5.93-17.72l70.58-26.77l9.93-3.77l0.04,0.03l0.39,0.27l12.26,8.8l0.94,0.68l0.01,0
				l38.39,27.54l18.97,13.63c0,0-3.03,16.14-3.38,29.33c-2.42-0.67-4.82-1.43-7.19-2.3c-8.96-3.24-17.59-7.83-25.48-13.25
				c-1-0.67-1.97-1.37-2.94-2.08c-16.22-11.84-28.92-27.08-34.15-41.01c-9.94,16.03-28.72,22.92-46.05,25.7l-0.01,0
				c-4.42,0.71-8.74,1.15-12.8,1.41c-6.89,0.44-13.01,0.35-17.52,0.12C485.87,336.52,482.86,336.15,482.86,336.15z"/>
                <g>
				<defs>
					<path id="path39922_00000060030482491862040710000001340006715220683138_" d="M478.1,324.39c0,0,20.99-78.57,24.46-105.73
						c17.25,2.75,55.54-4.36,67.39-12.11c11.85-7.74,22.48-2.31,29.21,5.37c6.73,7.68,41.36,28.89,57.21,34.85
						c-8.59,59.13-9.77,95.63-9.39,113.8c-18.19,1.03-56.1-21.39-67.84-40.31c-6.81-10.98-13.01-15.41-20.27-8.73
						c-7.26,6.68-21.2,11.37-29.55,13.3C517.26,327.63,486.79,330.9,478.1,324.39L478.1,324.39z"/>
				</defs>
                    <use xlink:href="#path39922_00000060030482491862040710000001340006715220683138_"
                         style="overflow:visible;fill:#5496BA;"/>
                    <clipPath id="path39922_00000085216578746078396290000007338512961764617397_">
					<use xlink:href="#path39922_00000060030482491862040710000001340006715220683138_"
                         style="overflow:visible;"/>
				</clipPath>
                    <path style="clip-path:url(#path39922_00000085216578746078396290000007338512961764617397_);fill:#55A4C9;"
                          d="M669.13,283.5
					c-53.47-8.18-62.73-40.6-93.56-45.32c-30.84-4.72-72.51,22.67-97.29,16.99l-10.32,35.32c53.28,5.83,61.39-24.91,104.11-16.6
					c42.72,8.31,37.98,41.05,92.22,44.47C718.53,321.77,669.13,283.5,669.13,283.5z"/>
			</g>
                <path id="path41833" class="st18" d="M579.32,320.52c-0.06-0.09-0.12-0.17-0.17-0.26c-6.81-10.98-13.01-15.41-20.27-8.73
				c-0.81,0.74-1.71,1.46-2.66,2.15l15.52-108.2c7.69-4.22,14.8-3.02,20.56,0.54L579.32,320.52z"/>
		</g>

            <ellipse transform="matrix(0.0893 -0.996 0.996 0.0893 -217.5808 353.2005)" class="st1" cx="84.36"
                     cy="295.58" rx="17.78" ry="9.93"/>

            <ellipse transform="matrix(0.159 -0.9873 0.9873 0.159 -222.8475 326.4338)" class="st8" cx="80.17"
                     cy="294.02" rx="10.98" ry="1.57"/>
            <g>
			<path class="st19" d="M392.92,110.52c-0.56,0.18-1.13,0.37-1.69,0.53c-2.37,0.68-4.73,1.39-7.06,2.18
				c-0.36,0.12-0.72,0.25-1.08,0.37c-0.1,0.14-0.2,0.28-0.3,0.42c-0.77,1.09-1.52,2.22-2.38,3.24c-0.05,0.06-0.14,0-0.12-0.07
				c0.13-0.51,0.26-1.02,0.4-1.53c0.12-0.44,0.25-0.88,0.38-1.32c-3.31,1.26-6.52,2.73-9.61,4.48c-0.36,0.88-0.68,1.78-0.97,2.7
				c-0.37,1.2-0.67,2.43-0.87,3.67c-0.2,1.23-0.31,2.47-0.31,3.72c0,0.08-0.13,0.1-0.14,0.02c-0.12-0.71-0.19-1.42-0.21-2.14
				c-0.03-1.27,0.08-2.54,0.21-3.8c0.11-1,0.24-2.01,0.32-3.01c-1.99,1.21-3.91,2.52-5.78,3.89c-0.09,0.74-0.15,1.49-0.19,2.23
				c-0.06,1.07-0.07,2.14-0.06,3.21c0.01,0.95,0.05,1.9,0.09,2.86c0,0.09-0.11,0.09-0.14,0.02c-0.35-0.88-0.64-1.79-0.86-2.71
				c-0.34-1.39-0.55-2.82-0.63-4.25c-1.87,1.45-3.69,2.96-5.47,4.53c-0.15,0.82-0.27,1.65-0.37,2.48c-0.16,1.3-0.25,2.61-0.28,3.92
				c-0.03,1.31,0,2.62,0.11,3.93c0.11,1.33,0.29,2.65,0.55,3.96c0.02,0.09-0.11,0.12-0.14,0.04c-0.05-0.14-0.1-0.27-0.15-0.41
				c-0.41-1.12-0.79-2.27-1.11-3.42c-0.33-1.18-0.61-2.37-0.82-3.58c-0.22-1.22-0.37-2.45-0.45-3.68c-0.02-0.27-0.03-0.53-0.04-0.8
				c-1.3,1.2-2.58,2.41-3.84,3.64c-0.28,0.59-0.54,1.19-0.8,1.79c-0.87,2.04-1.63,4.13-2.27,6.26c-0.64,2.13-1.16,4.29-1.56,6.48
				c-0.41,2.23-0.71,4.49-0.9,6.75c-0.01,0.08-0.12,0.1-0.14,0.02c-0.44-1.86-0.68-3.76-0.71-5.67c-0.05-3.29,0.54-6.55,1.49-9.69
				c0.15-0.5,0.31-1,0.48-1.49c-3.77,4-7.21,8.3-10.38,12.79c-0.27,1.42-0.49,2.85-0.66,4.28c-0.25,2.17-0.37,4.35-0.38,6.53
				c0,2.03,0.1,4.06,0.33,6.08c0.01,0.09-0.12,0.09-0.14,0.02c-0.53-1.4-0.92-2.84-1.15-4.32c-0.41-2.55-0.37-5.14-0.08-7.69
				c0.09-0.79,0.2-1.58,0.33-2.37c-1.01,1.5-1.99,3.02-2.94,4.55c-0.79,1.27-1.56,2.56-2.31,3.85c-0.02,0.41-0.04,0.82-0.06,1.23
				c-0.07,1.99-0.06,3.97-0.01,5.96c0.05,1.99,0.13,3.98,0.22,5.98c0.08,2.01,0.16,4.01,0.2,6.02c0,0.07-0.1,0.1-0.13,0.04
				c-0.1-0.2-0.2-0.4-0.29-0.6c-0.75-1.61-1.31-3.3-1.72-5.02c-0.42-1.77-0.68-3.58-0.79-5.4c-0.07-1.13-0.09-2.25-0.07-3.38
				c-0.73,1.38-1.44,2.77-2.13,4.17c-1.97,4-3.85,8.06-5.86,12.04c-0.07,1.52-0.08,3.04-0.02,4.56c0.07,1.96,0.24,3.92,0.55,5.85
				c0.3,1.88,0.71,3.74,1.28,5.55c0.02,0.08-0.09,0.13-0.13,0.06c-0.79-1.51-1.4-3.11-1.84-4.76c-0.76-2.79-1.08-5.68-1.23-8.56
				c-1.32,2.52-2.66,5.02-3.99,7.53c0.03,1.47,0.09,2.94,0.21,4.4c0.14,1.75,0.35,3.5,0.65,5.24c0.3,1.71,0.69,3.4,1.19,5.07
				c0.5,1.65,1.12,3.27,1.88,4.82c0.04,0.08-0.08,0.15-0.12,0.07c-0.7-1.24-1.34-2.51-1.91-3.81c-0.98-2.22-1.77-4.53-2.38-6.88
				c-0.49-1.88-0.88-3.78-1.2-5.7c-0.28,0.54-0.57,1.07-0.85,1.61c-1.03,1.98-2.02,3.96-2.44,6.17c-0.41,2.16-0.64,4.44-0.39,6.63
				c0.1,0.85,0.25,1.77,0.07,2.62c-0.64-0.46-0.99-1.52-1.2-2.17c-0.26-0.83-0.58-1.98-0.24-2.84c0.15-0.37-0.45-0.34-0.58-0.08
				c-2.3,4.4-2.47,10.5-0.03,14.88c1.43,2.57,3.92,4.12,6.51,5.32c2.37,1.09,5.16,1.94,6.88,4.03c1.07,1.31,1.56,2.95,1.87,4.62
				c-0.02,1.45,0.03,2.93,0.53,4.31c0.07,0.19,0.29,0.23,0.46,0.14c4.67-2.4,9.72-3.92,14.43-6.23c1.82-0.9,3.58-1.93,5.27-3.06
				c-0.38,0.06-0.76,0.11-1.14,0.15c-1.25,0.14-2.52,0.18-3.78,0.07c-1.15-0.1-2.3-0.33-3.37-0.76c-0.06-0.02-0.08-0.13,0-0.14
				c0.17-0.02,0.33-0.05,0.5-0.07c1.31-0.19,2.62-0.38,3.93-0.58c1.32-0.21,2.64-0.43,3.95-0.69c1.31-0.26,2.61-0.55,3.9-0.88
				c1.18-0.93,2.31-1.92,3.33-3c1.93-2.04,3.36-4.48,5.16-6.62c0.25-0.3,0.04-0.62-0.34-0.48c-1.27,0.49-2.38,1.33-3.51,2.07
				c-0.9,0.58-1.98,1.37-3.09,1.54c1.23-1.33,2.8-2.29,4.15-3.49c1.45-1.28,2.7-2.82,3.86-4.37c-1.2,0.6-2.43,1.17-3.67,1.69
				c-1.42,0.59-2.87,1.13-4.34,1.61c-1.44,0.47-2.9,0.87-4.38,1.21c-1.4,0.32-2.83,0.56-4.26,0.72c-0.07,0.01-0.1-0.1-0.04-0.13
				c0.16-0.07,0.32-0.15,0.47-0.22c1.28-0.59,2.58-1.13,3.9-1.65c1.33-0.53,2.68-1.02,4.02-1.51c1.35-0.49,2.7-0.97,4.05-1.46
				c1.36-0.49,2.71-0.99,4.06-1.52c0.51-0.2,1.03-0.41,1.54-0.62c1.41-2.03,2.75-4.13,4.02-6.26c-1.05,0.4-2.12,0.76-3.19,1.07
				c-1.66,0.49-3.35,0.89-5.07,1.16c-1.65,0.26-3.32,0.42-4.99,0.4c-1.54-0.02-3.09-0.18-4.58-0.57c-0.07-0.02-0.07-0.12,0-0.14
				c1.62-0.37,3.24-0.76,4.85-1.16c2.85-0.71,5.69-1.47,8.51-2.29c2.19-0.64,4.37-1.31,6.54-2.03c0.04-0.07,0.09-0.15,0.13-0.22
				c1.48-2.6,2.88-5.26,4.21-7.94c-0.99,0.13-1.98,0.21-2.97,0.24c-1.47,0.04-2.95-0.03-4.4-0.26c-0.07-0.01-0.07-0.13,0-0.14
				c0.6-0.09,1.2-0.17,1.81-0.26c2.1-0.3,4.21-0.62,6.29-1.05c1.41-2.91,2.74-5.85,4.02-8.82c-0.15,0.04-0.31,0.08-0.46,0.11
				c-1.32,0.3-2.66,0.54-4,0.72c-1.38,0.18-2.77,0.29-4.16,0.3c-1.36,0.01-2.73-0.06-4.08-0.26c-1.3-0.19-2.58-0.5-3.81-0.96
				c-0.07-0.03-0.07-0.14,0.02-0.14c1.33-0.04,2.65-0.15,3.97-0.3c2.35-0.27,4.67-0.69,6.99-1.16c2.28-0.45,4.55-0.94,6.83-1.38
				c0.54-1.3,1.07-2.6,1.6-3.9c1.64-4.08,3.27-8.16,4.88-12.25c-1.29,0.42-2.59,0.8-3.9,1.12c-1.33,0.33-2.68,0.6-4.04,0.78
				c-1.35,0.18-2.72,0.29-4.08,0.29c-1.41,0-2.82-0.11-4.21-0.33c-0.09-0.01-0.06-0.14,0.02-0.14c1.41-0.08,2.82-0.22,4.22-0.4
				c2.48-0.32,4.93-0.77,7.38-1.27c1.68-0.34,3.35-0.71,5.02-1.08c0.4-1.01,0.79-2.03,1.19-3.04c-1.17,0.31-2.37,0.54-3.57,0.72
				c-1.35,0.2-2.71,0.34-4.07,0.42c-0.09,0.01-0.09-0.12-0.02-0.14c0.77-0.26,1.54-0.5,2.32-0.73c1.41-0.43,2.83-0.83,4.25-1.24
				c0.55-0.16,1.11-0.32,1.66-0.49c1.2-3.13,2.39-6.27,3.54-9.42c-0.96,0.4-1.92,0.79-2.89,1.16c-1.2,0.45-2.41,0.86-3.64,1.21
				c-1.17,0.33-2.35,0.6-3.55,0.77c-1.06,0.14-2.13,0.21-3.19,0.08c-0.08-0.01-0.1-0.11-0.02-0.14c0.14-0.05,0.28-0.1,0.43-0.15
				c1.17-0.41,2.35-0.82,3.52-1.23c1.18-0.41,2.35-0.83,3.51-1.27c1.17-0.45,2.34-0.91,3.48-1.42c1.12-0.5,2.23-1.03,3.3-1.62
				c1.32-3.69,2.6-7.39,3.8-11.12c0.08-0.24,0.16-0.49,0.23-0.73c-1.01,0.46-2.03,0.9-3.06,1.32c-1.32,0.54-2.66,1.04-4.01,1.51
				c-1.34,0.46-2.69,0.88-4.05,1.25c-1.34,0.37-2.69,0.69-4.06,0.95c-0.08,0.01-0.13-0.09-0.06-0.13c0.17-0.08,0.34-0.17,0.51-0.25
				c1.38-0.69,2.74-1.41,4.09-2.16c1.34-0.75,2.67-1.52,3.99-2.3c1.32-0.78,2.64-1.57,3.96-2.36c1.31-0.78,2.62-1.54,3.95-2.29
				c0.04-0.02,0.08-0.04,0.11-0.06c0.85-2.88,1.67-5.77,2.5-8.66c0.03-0.09,0.05-0.18,0.08-0.27c-1.14,0.77-2.31,1.5-3.51,2.18
				c-1.57,0.89-3.2,1.69-4.9,2.31c-0.07,0.02-0.13-0.08-0.07-0.12c0.14-0.11,0.28-0.22,0.42-0.32c1.32-0.95,2.76-1.7,4.16-2.52
				c1.41-0.82,2.84-1.69,3.98-2.87c0.15-0.16,0.3-0.32,0.44-0.49c0.37-1.24,0.76-2.49,1.21-3.71c0.01-0.05,0.01-0.1,0.02-0.14
				c0.06-0.42,0.12-0.84,0.2-1.25c0.09-0.44,0.21-0.88,0.33-1.31c0.26-0.98,0.55-1.95,0.8-2.93c0.27-1.04,0.51-2.11,0.64-3.19
				C395.59,110.53,394.26,110.53,392.92,110.52z"/>
                <path class="st20" d="M333.53,234.21c-0.38-0.1-0.75-0.22-1.11-0.37c-0.06-0.02-0.08-0.13,0-0.14c0.17-0.02,0.33-0.05,0.5-0.07
				c0.13-0.02,0.27-0.04,0.4-0.06c-0.09-0.32-0.17-0.65-0.23-0.97c-0.36-1.9-0.27-3.85-0.1-5.77c0.2-2.22,0.59-4.42,1.1-6.59
				c1.05-4.5,2.59-8.87,4.03-13.25c2.96-9.02,6.18-17.93,9.95-26.65c1.91-4.41,4.01-8.72,6.09-13.05c2.05-4.27,4.08-8.55,6.22-12.76
				c1.96-3.84,3.93-7.72,6.43-11.24c1.11-1.57,2.26-3.13,3.27-4.77c0.86-1.41,1.67-2.92,1.98-4.55c-0.83,0.95-1.65,1.91-2.47,2.87
				c-7.08,8.43-13.4,17.49-19.18,26.85c-5.76,9.32-11.01,18.96-16.08,28.67c-2.54,4.88-5.04,9.78-7.54,14.68
				c-1.67,3.28-3.16,6.67-4.97,9.88c-1.68,2.97-3.79,6.17-6.89,7.81c-2.7,1.43-6.18,1.19-8.6-0.71c-1.53-1.2-2.58-2.88-3.29-4.7
				c0.16,2.12,0.72,4.18,1.71,5.95c1.43,2.57,3.92,4.12,6.51,5.32c2.37,1.09,5.16,1.94,6.88,4.03c1.07,1.31,1.56,2.95,1.87,4.62
				c-0.02,1.45,0.03,2.93,0.53,4.31c0.07,0.19,0.29,0.23,0.46,0.14c4.67-2.4,9.72-3.92,14.43-6.23c0.18-0.09,0.36-0.18,0.53-0.27
				C334.78,236.57,334,235.46,333.53,234.21z"/>
                <path class="st21" d="M319.88,253.98c-0.09-0.71-0.2-1.41-0.27-2.12c-0.05-0.5-0.09-1.01-0.12-1.51
				c0.03-1.42,0.01-2.85-0.08-4.27c-0.1-1.57-0.33-3.15-0.78-4.65c-0.44-1.49-1.1-2.91-2.04-4.14c-0.5-0.66-1.08-1.26-1.67-1.83
				c-0.61-0.6-1.26-1.16-1.93-1.68c-0.76-0.59-1.56-1.13-2.41-1.59c-0.42-0.24-0.86-0.45-1.3-0.65c-0.44-0.2-0.91-0.35-1.36-0.53
				c-0.1-0.04-0.24,0.14-0.12,0.19c0.4,0.16,0.77,0.38,1.15,0.58c0.37,0.2,0.74,0.41,1.1,0.63c0.71,0.44,1.39,0.92,2.05,1.43
				c1.31,1.02,2.56,2.19,3.62,3.47c1.88,2.27,2.69,5.18,3.06,8.06c-0.4-1.19-1.03-2.29-1.77-3.3c-0.79-1.09-1.72-2.08-2.73-2.96
				c-0.57-0.49-1.16-0.96-1.78-1.38c-0.63-0.42-1.29-0.76-1.95-1.12c-0.12-0.07-0.34,0.14-0.2,0.21c0.56,0.31,1.08,0.69,1.59,1.07
				c0.53,0.4,1.05,0.82,1.55,1.27c0.99,0.89,1.89,1.88,2.68,2.95c0.78,1.07,1.51,2.21,1.92,3.49c0.42,1.3,0.55,2.67,0.65,4.02
				c0.05,0.78,0.1,1.56,0.19,2.34c0.09,0.77,0.21,1.53,0.5,2.25C319.51,254.46,319.91,254.22,319.88,253.98z"/>
                <path class="st21" d="M344.35,239.48c-2.54,0.88-5.1,1.7-7.61,2.67c-2.52,0.97-4.99,2.05-7.32,3.41
				c-2.15,1.25-4.14,2.74-5.91,4.48c-1.76,1.72-3.33,3.68-4.52,5.83c-1.16,2.09-2.03,4.41-2.17,6.81c-0.02,0.29-0.01,0.57,0.02,0.85
				c0.01,0.11,0.16,0.12,0.24,0.09c0.11-0.04,0.19-0.13,0.21-0.24c0.1-0.59,0.16-1.18,0.26-1.77c0.1-0.56,0.23-1.12,0.39-1.67
				c0.32-1.13,0.77-2.22,1.31-3.26c1.11-2.14,2.56-4.07,4.23-5.8c1.65-1.71,3.52-3.19,5.53-4.45c2.24-1.39,4.64-2.5,7.07-3.5
				c2.46-1.01,4.96-1.89,7.41-2.91c0.3-0.13,0.6-0.25,0.9-0.38C344.51,239.6,344.49,239.43,344.35,239.48z"/>
                <path class="st21" d="M333.13,241.05c-2.07,0.85-4.1,1.78-6.03,2.92c-1.95,1.16-3.82,2.54-5.27,4.29c-0.8,0.97-1.5,2.03-1.9,3.23
				c-0.05,0.14,0.04,0.26,0.19,0.27c0.17,0.01,0.31-0.12,0.37-0.26c0.43-0.95,0.96-1.87,1.61-2.69c0.66-0.84,1.43-1.6,2.25-2.29
				c1.71-1.44,3.64-2.6,5.62-3.64c1.06-0.56,2.13-1.11,3.21-1.64C333.31,241.18,333.29,240.98,333.13,241.05z"/>
                <path class="st21" d="M337.44,247.23c-1.93,1.06-4.11,1.54-6.17,2.29c-2.1,0.76-4.11,1.84-5.99,3.05
				c-1.85,1.19-3.54,2.59-5.1,4.14c-1.45,1.45-2.78,3.04-3.81,4.82c-1.02,1.75-1.77,3.71-1.9,5.74c-0.02,0.25,0,0.49,0.04,0.73
				c0.02,0.11,0.17,0.12,0.25,0.1c0.12-0.04,0.2-0.13,0.22-0.25c0.1-0.5,0.15-1.01,0.24-1.51c0.09-0.48,0.2-0.95,0.34-1.42
				c0.28-0.93,0.66-1.83,1.12-2.69c0.94-1.76,2.2-3.33,3.57-4.77c1.46-1.53,3.06-2.9,4.8-4.1c1.8-1.23,3.74-2.32,5.75-3.16
				c2.01-0.83,4.1-1.42,6.04-2.41c0.23-0.12,0.45-0.24,0.67-0.37C337.65,247.34,337.58,247.15,337.44,247.23z"/>
                <path class="st21" d="M316.48,254.92c-0.15-1.11-0.45-2.2-0.85-3.25c-0.49-1.28-0.98-2.6-1.8-3.71c-0.4-0.54-0.93-1.07-1.63-1.17
				c-0.1-0.01-0.22,0.18-0.1,0.2c0.59,0.11,1.03,0.6,1.36,1.07c0.41,0.58,0.73,1.24,1,1.9c0.63,1.52,1.17,3.1,1.44,4.72
				c0.1,0.6,0.15,1.2,0.15,1.81c0,0.6-0.07,1.21-0.06,1.81c0,0.24,0.34,0.12,0.39-0.04c0.17-0.53,0.21-1.12,0.22-1.68
				C316.6,256.02,316.56,255.47,316.48,254.92z"/>
                <path class="st22" d="M388.47,113.9c0,0-22.92,18.36-50.8,81.09c-13.15,29.59-29.06,82.64-35.28,111.43
				c-1.83,8.49-4.57,25.09-5.03,29.76c0,0,20.09-75.13,32.83-112.29C343.99,183.64,373.71,129.29,388.47,113.9z"/>
                <path class="st22" d="M388.47,113.9c0,0-20.42,17.11-48.3,79.84c-13.15,29.59-29.37,81.25-35.59,110.04
				c-1.83,8.49-6.77,27.72-7.23,32.4c0,0,20.09-75.13,32.83-112.29C343.99,183.64,373.71,129.29,388.47,113.9z"/>
		</g>
            <path class="st1" d="M387.44,288.87c-22.89,8.33-58.53,15.69-89.64-1.99c-3.87-2.2-4.48-7.49-1.25-10.55
			c9.96-9.43,34.85-25.89,85.57-23.1c4.93,0.27,9.55,2.52,12.81,6.23l0,0C403.47,269.17,399.6,284.45,387.44,288.87z"/>

            <ellipse transform="matrix(0.7829 -0.6222 0.6222 0.7829 -63.9641 284.4852)" class="st8" cx="375.6"
                     cy="233.88" rx="5.23" ry="20.92"/>
            <g>
			<path class="st8" d="M338.39,257.18c12.37-6.4,28.62-5.86,41.92-2.91c-1.78-0.05-3.55-0.17-5.31-0.28
				C362.79,253.49,350.13,253.39,338.39,257.18L338.39,257.18z"/>
		</g>

            <ellipse transform="matrix(0.1822 -0.9833 0.9833 0.1822 -17.1404 538.1414)" class="st8" cx="314.95"
                     cy="279.38" rx="9.93" ry="2.09"/>
	</g>
        <ellipse class="st23" cx="335.34" cy="86.43" rx="8.89" ry="7.32"/>
        <ellipse class="st23" cx="363.05" cy="75.97" rx="13.59" ry="10.46"/>
        <ellipse class="st23" cx="411.16" cy="49.31" rx="31.37" ry="24.58"/>
</g>
</svg>
