<?xml version="1.0" encoding="utf-8"?>
<!-- Generator: Adobe Illustrator 28.0.0, SVG Export Plug-In . SVG Version: 6.00 Build 0)  -->
<svg version="1.1" id="Шар_1" xmlns="http://www.w3.org/2000/svg" x="0px" y="0px"
     viewBox="0 0 512 512" style="enable-background:new 0 0 512 512;" xml:space="preserve">
<style type="text/css">
	.st0{fill:#161311;}
	.st1{fill:#232323;}
	.st2{fill:#FF8D00;}
	.st3{fill:#FFFFFF;}
	.st4{fill:#3D3D3D;}
	.st5{fill:#F1F1F1;stroke:#232323;stroke-width:3.4519;stroke-miterlimit:10;}
	.st6{fill:#353535;}
	.st7{fill:#F1F1F1;}
	.st8{fill:#565656;}
	.st9{fill:#F1F1F1;stroke:#232323;stroke-width:6.6898;stroke-miterlimit:10;}
	.st10{fill:#C9C9C9;}
	.st11{fill:#FFD48F;}
	.st12{fill:#705232;}
	.st13{fill:#846A57;}
	.st14{fill:#E5CDBD;}
	.st15{fill:#6B5648;}
	.st16{fill:#F7DDCB;}
	.st17{fill:#C1AD9F;}
	.st18{fill:#C9AF9B;}
	.st19{fill:#1C1C1C;}
	.st20{fill:#FFEDE1;}
</style>
    <g>
	<path class="st0" d="M172.25,1.24"/>
        <g>
		<g>
			<path class="st1" d="M191.38,194.94c0,0-70.39,59.15-121.28,78.59c-6.62,2.53-8.7,12.45-2.79,13.35
				c27.07,4.13,81.36,3.1,181.17-29.82L191.38,194.94z"/>
		</g>
            <g>
			<line class="st1" x1="270.01" y1="233.09" x2="381.3" y2="266.15"/>
		</g>
            <path class="st2" d="M232.61,504.85l35.56-6.13c6.84-1.18,11.48-7.74,10.3-14.58l-1.6-9.37c-1.17-6.85-7.74-11.5-14.59-10.31
			l-35.56,6.13c-6.84,1.18-11.48,7.74-10.3,14.58l1.6,9.37C219.19,501.39,225.76,506.03,232.61,504.85z"/>
            <path class="st2" d="M369.2,478.18l33.54,13.3c6.45,2.56,13.83-0.62,16.39-7.07l3.51-8.83c2.57-6.46-0.62-13.84-7.08-16.41
			l-33.54-13.3c-6.45-2.56-13.83,0.62-16.39,7.07l-3.51,8.83C359.55,468.24,362.74,475.62,369.2,478.18z"/>
            <g>
			<path class="st1" d="M311.5,448.86c-158.61,46.65-138.65-236.35-138.65-236.35c-61.17-159.94,56-174.72,56.01-174.72
				c0,0,114.01-26.39,120.4,138.59C349.27,176.38,475.51,429.43,311.5,448.86z"/>
		</g>
            <g>
			<path class="st3" d="M226.09,196.63l-34.2-17.05c-9.55-4.76-14.43-16.73-11.2-27.46l14.97-49.73c2.18-7.24,7.69-12.54,14.5-13.93
				l1.81-0.37c10.17-2.08,20.34,5,23.24,16.18l17.42,67.15C257.25,189.2,241.4,204.26,226.09,196.63z"/>
		</g>
            <g>
			<path class="st3" d="M295.78,182.36l25.03-29.18c6.99-8.15,6.93-21.11-0.14-29.73l-32.75-39.96c-4.77-5.82-11.87-8.53-18.68-7.14
				l-1.81,0.37c-10.17,2.08-16.85,12.61-15.26,24.06l9.52,68.77C264.23,187.77,284.58,195.42,295.78,182.36z"/>
		</g>
            <g>
			<path class="st4" d="M230.74,153.85c4.01-14.04,18.15-25.07,32.68-17.73c4.24,2.07,7.8,5.08,10.65,8.61
				c-3.86-2.36-7.72-4.56-11.76-5.91C248.7,133.73,238.17,143.19,230.74,153.85L230.74,153.85z"/>
		</g>
            <path class="st5" d="M220.1,175.97L220.1,175.97c-10.61,2.17-21.21-5.73-23.56-17.56l-2.93-14.75
			c-2.35-11.83,4.42-23.29,15.03-25.47l0,0c10.61-2.17,21.21,5.73,23.56,17.56l2.93,14.75c0.55,2.77,0.6,5.52,0.22,8.13
			C234.1,167.19,228.23,174.3,220.1,175.97z"/>
            <path class="st5" d="M293.43,162.25L293.43,162.25c-10.61,2.17-21.21-5.73-23.56-17.56l-2.93-14.75
			c-2.35-11.83,4.42-23.29,15.03-25.47l0,0c10.61-2.17,21.21,5.73,23.56,17.56l2.93,14.75c0.55,2.77,0.6,5.52,0.22,8.13
			C307.43,153.48,301.56,160.59,293.43,162.25z"/>
            <g>
			<path class="st6" d="M291.48,158.96l-2.87,0.59c-4.06,0.83-8.12-2.21-9.02-6.75l-2.08-10.52c-0.9-4.55,1.69-8.95,5.75-9.78
				l2.87-0.59c4.06-0.83,8.12,2.21,9.02,6.75l2.08,10.52C298.13,153.73,295.54,158.13,291.48,158.96z"/>

                <ellipse transform="matrix(0.9856 -0.1688 0.1688 0.9856 -18.9125 49.1667)" class="st7" cx="279.66"
                         cy="135.79" rx="5.63" ry="6.27"/>
		</g>
            <g>
			<path class="st6" d="M218.71,172.81l-2.87,0.59c-4.06,0.83-8.12-2.21-9.02-6.75l-2.08-10.52c-0.9-4.55,1.69-8.95,5.75-9.78
				l2.87-0.59c4.06-0.83,8.12,2.21,9.02,6.75l2.08,10.52C225.36,167.57,222.77,171.98,218.71,172.81z"/>

                <ellipse transform="matrix(0.9856 -0.1688 0.1688 0.9856 -22.3489 36.8967)" class="st7" cx="205.79"
                         cy="149.87" rx="5.63" ry="6.27"/>
		</g>
            <g>
			<path class="st3" d="M256.22,225.81c-7.25-1.67-16.85-3.88-26.7-6.14c-21.49-4.94-39.58,16.27-33.94,39.8l29.72,124.01
				c2.88,12,11.48,21.48,22.33,24.61l45.94,13.23c8.66,2.5,17.74,0.64,24.78-5.07c10.51-8.53,26.03-21.13,37.32-30.29
				c8.81-7.15,13.13-19.28,11.21-31.47l-19.85-126.03c-3.77-23.92-28.52-36.35-46.46-23.33l-22.27,16.17
				C271.86,225.96,263.93,227.58,256.22,225.81z"/>
		</g>

            <ellipse transform="matrix(0.0759 -0.9971 0.9971 0.0759 176.2511 322.9461)" class="st8" cx="262.35"
                     cy="66.39" rx="6.27" ry="11.97"/>
            <line class="st9" x1="299.78" y1="110.63" x2="307.54" y2="96.83"/>
            <line class="st9" x1="195.27" y1="130.18" x2="183.04" y2="120.11"/>
            <path class="st1"
                  d="M209.21,52.21c0,0,17.64-14.76,17.27-28.24c0,0,21.6,6.38,21.41,16.83S209.21,52.21,209.21,52.21z"/>
            <path class="st10" d="M308.04,244.13c1.14,6.12-3.04,12.03-9.34,13.21s-12.34-2.82-13.49-8.94"/>
            <g>
			<g>
				<path class="st2" d="M255.18,160.87c-8.38,0.79-12.59,14.85-12.59,14.85c-10.65,5.03-8.68,14.99-8.68,14.99
					s19.77,17.6,30.21,15.45c10.44-2.15,21.99-26.22,21.99-26.22s-1.97-9.96-13.69-10.37C272.42,169.56,263.2,158.27,255.18,160.87"
                />
			</g>

                <ellipse transform="matrix(0.9776 -0.2106 0.2106 0.9776 -31.577 58.4822)" class="st11" cx="258.79"
                         cy="177.5" rx="7.04" ry="4.98"/>
                <g>
				<path class="st12" d="M274.4,188.92L274.4,188.92c-5.9,9.45-17.9,11.69-26.81,5.02h0l0,0
					C253.48,184.49,265.48,182.24,274.4,188.92L274.4,188.92z"/>
			</g>
		</g>
            <g>
			<path class="st13" d="M257.48,246.22l2.88,6.92c-2.47,3.64-6,6.64-10.37,8.46c-4.37,1.82-8.99,2.21-13.31,1.4l-2.88-6.92
				c-1.91-4.6,0.28-9.93,4.88-11.84l6.97-2.9c2.2-0.92,4.57-0.89,6.65-0.11c0.61,0.24,1.2,0.53,1.75,0.88
				C255.53,243.06,256.75,244.47,257.48,246.22z"/>
                <path class="st13" d="M250.85,263.69c4.37-1.82,7.9-4.82,10.37-8.46l27.86,66.92c1.91,4.6-0.28,9.93-4.88,11.84l-6.97,2.9
				c-4.6,1.91-9.93-0.28-11.84-4.88l-27.86-66.92C241.87,265.9,246.48,265.51,250.85,263.69z"/>
                <path class="st14" d="M262.59,231.01c0.15,0.35,0.28,0.7,0.41,1.06c2.63,7.26,1.43,15.05-2.64,21.07
				c-2.47,3.64-6,6.64-10.37,8.46c-4.37,1.82-8.99,2.21-13.31,1.4c-7.13-1.35-13.51-5.99-16.81-12.97
				c-0.17-0.34-0.32-0.68-0.46-1.03c-4.97-11.93,0.68-25.62,12.6-30.59C243.93,213.44,257.62,219.09,262.59,231.01z"/>
                <path class="st15" d="M260.36,253.13l0.87,2.09c-2.47,3.64-6,6.64-10.37,8.46c-4.37,1.82-8.99,2.21-13.31,1.4l-0.87-2.09
				c4.33,0.81,8.94,0.42,13.31-1.4C254.36,259.78,257.88,256.78,260.36,253.13z"/>
                <circle class="st16" cx="227.24" cy="228.56" r="1.51"/>
                <circle class="st16" cx="235.45" cy="229.64" r="1.89"/>
                <circle class="st16" cx="239.49" cy="222.65" r="2.26"/>
                <circle class="st16" cx="229.44" cy="245.63" r="2.26"/>
                <circle class="st16" cx="249.9" cy="250.6" r="1.89"/>
                <circle class="st16" cx="243.17" cy="240.32" r="1.89"/>
                <circle class="st16" cx="223.58" cy="237.44" r="2.26"/>
                <circle class="st16" cx="238.64" cy="256.92" r="2.64"/>
                <circle class="st16" cx="249.61" cy="230.28" r="1.89"/>

                <ellipse transform="matrix(0.9232 -0.3844 0.3844 0.9232 -71.4424 110.7763)" class="st16" cx="241.4"
                         cy="234.11" rx="1.89" ry="2.26"/>
                <circle class="st16" cx="252.25" cy="243.49" r="2.26"/>
                <circle class="st16" cx="240.61" cy="247.93" r="1.89"/>
                <circle class="st16" cx="233.77" cy="239.33" r="3.4"/>
                <circle class="st16" cx="232.15" cy="223.66" r="1.89"/>
                <g>
				<path class="st16" d="M249.21,221.46c8.42,4.64,12.84,15.38,9.89,24.56c-0.17,0.6-0.36,1.2-0.55,1.8
					c0.13-1.25,0.42-2.46,0.49-3.7C260.02,235.45,255.98,226.83,249.21,221.46L249.21,221.46z"/>
			</g>
                <g>
				<path class="st17" d="M220.36,242.46c1.96,6.61,5.77,12.7,11.72,16.37c-1.63-0.61-3.28-1.38-4.64-2.54
					C223.28,253,220.67,247.71,220.36,242.46L220.36,242.46z"/>
			</g>

                <ellipse transform="matrix(0.9232 -0.3844 0.3844 0.9232 -92.0123 127.0976)" class="st15" cx="271.95"
                         cy="293.73" rx="1.89" ry="32.82"/>

                <ellipse transform="matrix(0.9232 -0.3844 0.3844 0.9232 -93.2498 125.2566)" class="st15" cx="266.72"
                         cy="295.91" rx="1.51" ry="13.21"/>

                <ellipse transform="matrix(0.9232 -0.3844 0.3844 0.9232 -95.8899 121.3289)" class="st15" cx="255.58"
                         cy="300.55" rx="0.75" ry="29.05"/>
                <g>
				<path class="st15" d="M269.06,332.94c4.52,2.05,9.71,1.11,13.82-1.39c1.42-0.83,2.72-1.82,4.06-2.78
					c-0.52,0.65-1.1,1.25-1.66,1.88C281.19,334.79,273.97,336.83,269.06,332.94L269.06,332.94z"/>
			</g>
		</g>
            <g>
			<path class="st1" d="M337.73,172.72c-17.81-3.96-35.61,5.3-41.11,21.41c-10.09,29.6-29.09,67.09-48.28,103.61
				c-3.29,6.27-0.77,12.93,5.72,12.55c23.46-1.35,55.55-31.56,103.26-83.5C374.51,208.08,363.83,178.52,337.73,172.72L337.73,172.72
				z"/>
		</g>
            <g>
			<g>
				<path class="st13" d="M339.08,106.21l-11.05,2.07c-8.32-44.47-51.26-73.88-95.73-65.56s-73.88,51.26-65.56,95.73l-11.05,2.07
					c-9.46-50.56,23.98-99.39,74.54-108.84S329.62,55.65,339.08,106.21z"/>
			</g>

                <ellipse transform="matrix(0.0247 -0.9997 0.9997 0.0247 -2.6892 315.4067)" class="st18" cx="160.31"
                         cy="159.08" rx="35.96" ry="19.11"/>

                <ellipse transform="matrix(0.9232 -0.3844 0.3844 0.9232 -21.5591 141.6971)" class="st18" cx="343.69"
                         cy="124.78" rx="19.11" ry="35.96"/>

                <ellipse transform="matrix(0.9079 -0.4191 0.4191 0.9079 -18.0466 158.5914)" class="st14" cx="351.98"
                         cy="120.38" rx="4.53" ry="19.11"/>
                <g>
				<path class="st14" d="M330.59,97.5c-3.81,11.6-0.48,24.1,3.43,35.24c0.63,1.62,1.26,3.25,1.8,4.95
					C328.03,126.85,322.79,109.58,330.59,97.5L330.59,97.5z"/>
			</g>
                <g>
				<path class="st14" d="M154.69,132.12c-5.33,9-7.42,19.56-7.12,29.92c0.15,1.58,0.24,3.32,0.39,4.9
					c0.17,1.06,0.59,3.84,0.74,4.87c0,0,0.37,1.6,0.37,1.6c0.61,3.16,1.67,6.5,2.55,9.59c-1.34-2.91-2.73-6.21-3.59-9.33
					C144,159.88,145.61,143.59,154.69,132.12L154.69,132.12z"/>
			</g>

                <ellipse transform="matrix(0.0247 -0.9997 0.9997 0.0247 3.5197 328.4077)" class="st14" cx="170.08"
                         cy="162.4" rx="19.11" ry="2.81"/>
                <g>
				<path class="st18" d="M312.27,63.77c-18.31-18.29-44.05-30.12-70.21-27.87c-8.62,0.78-17.15,2.76-25.4,5.74
					c7.87-3.86,16.41-6.52,25.21-7.64C268.42,30.65,295.67,43.18,312.27,63.77L312.27,63.77z"/>
			</g>
		</g>
            <g>
			<path class="st8" d="M301.71,202.48c4.76-18.29,22.7-29.64,41.17-24.28c-4.37-0.24-8.69-0.1-12.87,0.69
				C317.16,181.19,307.29,191.02,301.71,202.48L301.71,202.48z"/>
		</g>

            <ellipse transform="matrix(0.6489 -0.7609 0.7609 0.6489 -60.2611 343.5107)" class="st8" cx="342.09"
                     cy="237.05" rx="22.96" ry="2.9"/>

            <ellipse transform="matrix(0.9856 -0.1688 0.1688 0.9856 -45.3115 67.3694)" class="st8" cx="373.5"
                     cy="300.13" rx="5.28" ry="57.53"/>
            <g>
			<path class="st6" d="M180.84,236.79c-4.52,15.81-5.58,32.22-4.22,48.56C172.04,269.6,173.27,251.43,180.84,236.79L180.84,236.79z
				"/>
		</g>
            <g>
			<polyline class="st19" points="137.63,60.82 127.69,36.95 152.78,26.5 163.23,51.59 161.4,52.36 153.75,34 131.71,43.17 
				138.85,60.31 137.63,60.82 			"/>

                <ellipse transform="matrix(0.3353 -0.9421 0.9421 0.3353 28.6279 172.4641)" class="st19" cx="136.53"
                         cy="65.95" rx="6.96" ry="4.31"/>

                <ellipse transform="matrix(0.3353 -0.9421 0.9421 0.3353 53.2139 187.9398)" class="st19" cx="159.79"
                         cy="56.26" rx="6.96" ry="4.31"/>
		</g>
            <g>
			<polyline class="st19" points="385.72,194.11 393.64,169.49 419.52,177.83 411.19,203.7 409.29,203.09 415.39,184.16 
				392.67,176.84 386.98,194.51 385.72,194.11 			"/>

                <ellipse transform="matrix(0.8664 -0.4993 0.4993 0.8664 -47.545 216.8553)" class="st19" cx="381.56"
                         cy="197.29" rx="6.96" ry="4.31"/>

                <ellipse transform="matrix(0.8664 -0.4993 0.4993 0.8664 -48.1987 229.8609)" class="st19" cx="405.54"
                         cy="205.02" rx="6.96" ry="4.31"/>
		</g>
            <path d="M368.22,14.57c4.05,4.96,5.68,10.14,5.19,16.4c-0.62,7.99-4.09,14.58-10.16,19.82c-0.29,0.25-0.36,0.47-0.27,0.85
			c0.69,2.85,1.37,5.7,2.01,8.55c0.12,0.52,0.3,0.61,0.81,0.57c5.31-0.43,9.88,1.01,13.24,5.36c5.18,6.71,3.05,16.6-4.43,20.61
			c-0.98,0.53-2.02,0.95-3.16,1.47c0.27,1.1,0.58,2.26,0.85,3.43c0.65,2.8,1.49,5.58,1.89,8.42c0.87,6.24-2.18,10.55-8.32,12.03
			c-3.89,0.94-7.63,0.48-11.14-1.5c-3.8-2.14-5.13-6.76-3.01-10.34c1.32-2.23,4.21-3.47,6.87-2.93c2.6,0.52,4.46,2.57,4.8,5.29
			c0.37,2.98-1.72,5.42-4.89,5.7c-0.47,0.04-0.94,0.01-1.41,0.01c-0.03,0.06-0.07,0.13-0.1,0.19c0.29,0.28,0.56,0.59,0.88,0.83
			c2.01,1.46,4.28,1.51,6.58,1.06c1.06-0.21,2.11-0.61,3.1-1.06c2.97-1.33,4.29-3.78,4.52-6.91c0.21-2.96-0.56-5.76-1.36-8.56
			c-0.47-1.65-0.96-3.28-1.43-4.87c-1.69,0.16-3.34,0.4-4.99,0.47c-10.02,0.4-19.38-6.55-21.82-16.2c-0.28-1.13-0.44-2.29-0.65-3.43
			c0-0.81,0-1.62,0-2.43c0.17-0.93,0.29-1.87,0.51-2.79c0.91-3.84,2.96-7.09,5.38-10.13c3.15-3.95,6.93-7.28,10.71-10.6
			c0.47-0.41,0.55-0.73,0.37-1.32c-1.34-4.33-2.01-8.76-1.78-13.31c0.24-4.72,1.6-9.07,4.27-12.99
			C365.05,11.4,367.72,13.97,368.22,14.57z M364.55,67.69c-1.59,0.41-2.92,1.07-4.07,2.07c-4.18,3.61-3.2,9.75,1.89,11.89
			c1.63,0.48,1.63,1.53-0.08,1.03c-1.92-0.51-3.68-1.34-5.13-2.72c-2.26-2.14-3.55-4.72-3.17-7.91c0.45-3.8,2.39-6.74,5.47-8.92
			c1.07-0.77,2.3-1.32,3.52-2.01c-0.62-2.77-1.25-5.61-1.91-8.53c-0.28,0.19-0.47,0.32-0.66,0.46c-2.8,2.08-5.42,4.38-7.78,6.95
			c-1.65,1.79-3.18,3.68-4.29,5.87c-4.07,8.03-0.94,16.94,7.18,20.35c3.25,1.37,6.65,1.63,10.12,1.27c1.1-0.11,2.18-0.33,3.31-0.51
			C367.45,80.47,366.01,74.11,364.55,67.69z M360.72,41.99c0.74-0.51,1.34-0.85,1.86-1.29c3.73-3.14,6.26-7.08,7.76-11.68
			c0.53-1.63,0.74-3.3,0.43-5c-0.37-1.98-1.62-3.05-3.49-2.78c-0.93,0.14-1.89,0.52-2.7,1.01c-1.33,0.82-2.16,2.14-2.8,3.54
			c-1.84,4.05-2.32,8.32-1.83,12.7C360.07,39.61,360.43,40.71,360.72,41.99z M366.61,67.55c1.45,6.26,2.9,12.51,4.34,18.76
			c4.1-1.24,7.25-5.3,6.3-10.4C376.3,70.79,371.5,67.23,366.61,67.55z"/>
            <path d="M91.84,131.01c4.26,1.01,7.3,3.15,9.63,6.75c2.98,4.6,3.84,9.62,2.72,14.98c-0.05,0.26,0,0.4,0.21,0.58
			c1.56,1.26,3.11,2.53,4.64,3.81c0.28,0.23,0.42,0.21,0.68-0.03c2.7-2.44,5.79-3.56,9.42-2.59c5.6,1.49,8.55,7.75,6.16,13.03
			c-0.31,0.69-0.71,1.35-1.1,2.11c0.61,0.48,1.26,0.99,1.89,1.51c1.52,1.25,3.13,2.41,4.52,3.79c3.06,3.02,3.2,6.64,0.48,9.99
			c-1.72,2.13-3.95,3.43-6.67,3.82c-2.95,0.42-5.6-1.54-5.93-4.36c-0.21-1.76,0.85-3.63,2.51-4.45c1.63-0.8,3.49-0.46,4.8,0.88
			c1.44,1.46,1.32,3.66-0.29,5.13c-0.24,0.22-0.51,0.39-0.77,0.59c0.01,0.05,0.02,0.1,0.03,0.15c0.27,0.03,0.55,0.09,0.82,0.08
			c1.7-0.04,2.95-0.96,4.01-2.16c0.49-0.56,0.89-1.21,1.24-1.86c1.06-1.96,0.76-3.83-0.42-5.63c-1.11-1.69-2.7-2.9-4.3-4.09
			c-0.94-0.7-1.89-1.38-2.8-2.05c-0.85,0.79-1.65,1.6-2.52,2.33c-5.28,4.38-13.25,4.49-18.58,0.27c-0.62-0.49-1.19-1.06-1.78-1.59
			c-0.34-0.44-0.67-0.88-1.01-1.32c-0.3-0.58-0.62-1.14-0.88-1.73c-1.1-2.46-1.34-5.08-1.29-7.74c0.07-3.45,0.74-6.83,1.41-10.21
			c0.08-0.42,0-0.62-0.35-0.87c-2.53-1.79-4.73-3.92-6.49-6.49c-1.83-2.66-2.9-5.59-3.08-8.83
			C88.81,130.61,91.32,130.89,91.84,131.01z M111.92,161.38c-0.69,0.88-1.14,1.8-1.35,2.82c-0.77,3.7,2.31,6.63,5.97,5.68
			c1.08-0.42,1.52,0.15,0.39,0.59c-1.26,0.52-2.56,0.8-3.92,0.66c-2.12-0.22-3.89-1.09-5.01-2.98c-1.33-2.25-1.5-4.65-0.74-7.12
			c0.27-0.86,0.7-1.67,1.08-2.55c-1.49-1.25-3.01-2.53-4.58-3.84c-0.07,0.22-0.12,0.37-0.17,0.52c-0.66,2.3-1.12,4.63-1.34,7.01
			c-0.15,1.66-0.2,3.32,0.11,4.97c1.13,6.05,6.53,9.59,12.36,8.07c2.33-0.61,4.29-1.88,6.02-3.51c0.55-0.52,1.05-1.09,1.59-1.65
			C118.81,167.12,115.38,164.26,111.92,161.38z M99.16,149.02c0.19-0.58,0.37-1.02,0.47-1.47c0.72-3.25,0.46-6.44-0.64-9.57
			c-0.39-1.11-0.97-2.1-1.85-2.89c-1.02-0.92-2.15-0.98-3.05-0.06c-0.45,0.46-0.81,1.07-1.04,1.67c-0.38,1-0.28,2.06-0.05,3.09
			c0.68,2.97,2.19,5.48,4.28,7.66C97.82,148,98.47,148.44,99.16,149.02z M112.98,160.45c3.39,2.8,6.77,5.59,10.15,8.38
			c1.71-2.37,1.74-5.89-0.9-8.27C119.59,158.18,115.51,158.24,112.98,160.45z"/>

            <ellipse transform="matrix(0.479 -0.8778 0.8778 0.479 -68.9049 376.4859)" class="st8" cx="282.71"
                     cy="246.29" rx="23.75" ry="2.11"/>
            <ellipse class="st20" cx="316.49" cy="370.86" rx="16.89" ry="17.42"/>
            <circle class="st20" cx="342.35" cy="342.36" r="11.08"/>
            <circle class="st20" cx="320.71" cy="333.38" r="4.22"/>
            <circle class="st20" cx="329.69" cy="319.13" r="3.69"/>
            <ellipse class="st20" cx="312.27" cy="314.91" rx="4.22" ry="4.75"/>
	</g>
</g>
</svg>
