<?xml version="1.0" encoding="utf-8"?>
<!-- Generator: Adobe Illustrator 28.0.0, SVG Export Plug-In . SVG Version: 6.00 Build 0)  -->
<svg version="1.1" id="Шар_1" xmlns="http://www.w3.org/2000/svg" x="0px" y="0px"
     viewBox="0 0 512 512" style="enable-background:new 0 0 512 512;" xml:space="preserve">
<style type="text/css">
	.st0{fill:#161311;}
	.st1{fill:#232323;}
	.st2{fill:#FF8D00;}
	.st3{fill:#FFFFFF;}
	.st4{fill:#3D3D3D;}
	.st5{fill:#F1F1F1;stroke:#232323;stroke-width:3.5787;stroke-miterlimit:10;}
	.st6{fill:#353535;}
	.st7{fill:#F1F1F1;}
	.st8{fill:#FFD48F;}
	.st9{fill:#565656;}
	.st10{fill:#F1F1F1;stroke:#232323;stroke-width:6.9356;stroke-miterlimit:10;}
	.st11{fill:#C9C9C9;}
	.st12{fill:#0C0C0C;}
	.st13{fill:#5E5E5E;}
	.st14{fill:#454545;}
	.st15{fill:#1E1E1E;}
	.st16{fill:#F78B1E;}
	.st17{fill:#E0DE2F;}
	.st18{opacity:0.25;fill:#2D2406;}
	.st19{fill:#1F2120;}
	.st20{fill:#6D6D6D;}
</style>
    <path class="st0" d="M179.93,10.58"/>
    <g>
	<g>
		<path class="st1" d="M163.17,203.31c0,0-28.24,87.22-60.99,130.55c-4.26,5.63-0.77,15.12,4.7,12.76
			c25.07-10.82,70.42-40.39,137.4-120.98L163.17,203.31z"/>
	</g>
        <g>
		<path class="st1" d="M339.28,203.31c0,0,28.24,87.22,60.99,130.55c4.26,5.63,0.77,15.12-4.7,12.76
			c-25.07-10.82-70.42-40.39-137.4-120.98L339.28,203.31z"/>
	</g>
        <g>
		<line class="st1" x1="252.99" y1="256.75" x2="355.91" y2="309.74"/>
	</g>
        <path class="st2" d="M180.96,500.33l34.97,0.59c7.19,0.12,13.19-5.67,13.31-12.86l0.15-8.47c0.13-7.21-5.66-13.2-12.87-13.33
		l-34.97-0.59c-7.19-0.12-13.19,5.67-13.31,12.86l-0.15,8.47C167.96,494.21,173.76,500.21,180.96,500.33z"/>
        <path class="st2" d="M283.38,502.47l34.97,0.59c7.19,0.12,13.19-5.67,13.31-12.86l0.15-8.47c0.13-7.21-5.66-13.2-12.87-13.33
		l-34.97-0.59c-7.19-0.12-13.19,5.67-13.31,12.86l-0.15,8.47C270.38,496.36,276.17,502.35,283.38,502.47z"/>
        <g>
		<path class="st1" d="M253.72,475.84c-164.04,16.36-92.11-257.23-92.11-257.23C142.36,75.17,250.08,74.76,250.1,74.76
			c0,0,107.7-2.9,91.05,141.09C341.15,215.86,418.01,487.15,253.72,475.84z"/>
	</g>
        <g>
		<path class="st3" d="M216.72,212.9l-30.35-23.03c-8.47-6.43-11.04-19.06-5.89-28.98l23.87-45.96c3.48-6.69,9.86-10.86,16.79-10.97
			l1.84-0.03c10.35-0.16,19,8.66,19.77,20.15l4.65,69.02C248.62,211.38,230.3,223.21,216.72,212.9z"/>
	</g>
        <g>
		<path class="st3" d="M287.64,211.81l29.92-23.96c8.35-6.69,10.69-19.4,5.36-29.15l-24.69-45.21c-3.6-6.58-10.05-10.56-16.98-10.45
			l-1.84,0.03c-10.35,0.16-18.84,9.24-19.4,20.75l-3.39,69.14C255.72,211.28,274.24,222.54,287.64,211.81z"/>
	</g>
        <g>
		<path class="st2" d="M250.77,184.16c-8.02-0.69-14.48,10.77-14.48,10.77c-10.91,2.6-10.83,11.53-10.83,11.53
			s15.47,18.43,25.67,18.27c10.2-0.16,25.33-19.06,25.33-19.06s-0.08-8.93-11.03-11.19C265.43,194.49,258.77,183.23,250.77,184.16"
        />
	</g>
        <g>
		<path class="st4" d="M229.18,171.84c6.46-13.09,22.45-21.3,35.33-11.38c3.77,2.83,6.7,6.45,8.81,10.46
			c-3.37-3.01-6.75-5.86-10.46-7.92C250.48,155.55,238.48,162.85,229.18,171.84L229.18,171.84z"/>
	</g>
        <path class="st5" d="M214.67,191.55L214.67,191.55c-10.8,0.17-19.72-9.54-19.83-21.57l-0.14-15c-0.11-12.03,8.64-22.01,19.44-22.17
		h0c10.8-0.17,19.72,9.54,19.83,21.57l0.14,15c0.03,2.82-0.43,5.52-1.29,8.01C230.01,185.54,222.94,191.42,214.67,191.55z"/>
        <path class="st5" d="M289.05,191.68L289.05,191.68c-10.8,0.17-19.72-9.54-19.83-21.57l-0.14-15c-0.11-12.03,8.64-22.01,19.44-22.17
		h0c10.8-0.17,19.72,9.54,19.83,21.57l0.14,15c0.03,2.82-0.43,5.52-1.29,8.01C304.39,185.67,297.32,191.55,289.05,191.68z"/>
        <path class="st6" d="M289.56,184.15l-2.92,0.04c-4.13,0.06-7.55-3.67-7.59-8.29l-0.1-10.69c-0.04-4.62,3.31-8.46,7.44-8.52
		l2.92-0.04c4.13-0.06,7.55,3.67,7.59,8.29l0.1,10.69C297.05,180.25,293.7,184.09,289.56,184.15z"/>
        <path class="st6" d="M215.51,185.29l-2.92,0.04c-4.13,0.06-7.55-3.67-7.59-8.29l-0.1-10.69c-0.04-4.62,3.31-8.46,7.44-8.52
		l2.92-0.04c4.13-0.06,7.55,3.67,7.59,8.29l0.1,10.69C222.99,181.39,219.64,185.22,215.51,185.29z"/>

        <ellipse transform="matrix(0.017 -0.9999 0.9999 0.017 118.2283 438.7845)" class="st7" cx="282.27" cy="159.26"
                 rx="6.25" ry="5.61"/>

        <ellipse transform="matrix(0.017 -0.9999 0.9999 0.017 43.1778 364.7536)" class="st7" cx="207.09" cy="160.42"
                 rx="6.25" ry="5.61"/>
        <g>
		<path class="st3" d="M240.83,247.06c-6.8-2.98-15.8-6.92-25.02-10.95c-20.15-8.82-41.79,8.61-40.62,32.71l6.17,127
			c0.6,12.29,7.27,23.17,17.33,28.24l42.56,21.47c8.03,4.05,17.27,3.91,25.22-0.39c11.88-6.41,29.42-15.88,42.17-22.77
			c9.96-5.38,16.43-16.46,16.81-28.76l3.87-127.15c0.73-24.13-21.22-40.89-41.2-31.46l-24.82,11.72
			C256.13,250.1,248.06,250.23,240.83,247.06z"/>
	</g>

        <ellipse transform="matrix(0.9998 -0.0199 0.0199 0.9998 -3.9167 5.0439)" class="st8" cx="251.21" cy="199.11"
                 rx="6.73" ry="4.37"/>

        <ellipse transform="matrix(0.2596 -0.9657 0.9657 0.2596 119.1895 333.2524)" class="st9" cx="276.92" cy="88.9"
                 rx="6.25" ry="11.93"/>
        <line class="st10" x1="304.82" y1="142.28" x2="314.99" y2="130.19"/>
        <line class="st10" x1="198.81" y1="142.09" x2="188.69" y2="129.96"/>
        <path class="st1"
              d="M228.3,83.53c0,0,20.02-11.2,22.15-24.47c0,0,19.98,10.25,17.86,20.45S228.3,83.53,228.3,83.53z"/>
        <path class="st11" d="M236.64,274.51c-0.01,6.2-5.2,11.22-11.6,11.21c-6.39-0.01-11.57-5.05-11.56-11.25"/>
        <path class="st11" d="M288.21,274.6c-0.01,6.2-5.2,11.22-11.6,11.21c-6.39-0.01-11.57-5.05-11.56-11.25"/>
        <path class="st11" d="M262.91,298.04c-0.01,6.2-5.2,11.22-11.6,11.21s-11.57-5.05-11.56-11.25"/>
        <path class="st12" d="M198.25,92.05c0,0-11.58,16.84,21.05,16.84L198.25,92.05z"/>

        <ellipse transform="matrix(0.3517 -0.9361 0.9361 0.3517 39.4207 286.3872)" class="st11" cx="226.48" cy="114.73"
                 rx="5.26" ry="18.09"/>
        <path class="st13" d="M320.44,95.03c0.74,8.46,4.13,32.81-7.23,32.74c-47.58,2.17-64.42-0.99-102.57-18.97
		c-1.07-0.5-10.22-8.5-13.32-13.92c-1.15-9.01,3.05-20.84,8.52-28.95c17.08-25.36,40.99-31.05,70.67-22.92
		C289.09,46.46,317.29,59,320.44,95.03z"/>
        <path class="st14" d="M210.64,108.19c-0.01,0-0.02,0-0.02,0c-0.25-0.01-0.44-0.21-0.43-0.46c0-0.03,0.03-0.84,0.15-2.27
		c0.02-0.24,0.23-0.43,0.48-0.41c0.24,0.02,0.43,0.24,0.41,0.48c-0.12,1.41-0.15,2.22-0.15,2.23
		C211.07,108,210.87,108.19,210.64,108.19z M211.01,103.71c-0.02,0-0.04,0-0.06,0c-0.24-0.03-0.42-0.25-0.39-0.49
		c0.08-0.68,0.17-1.42,0.28-2.23c0.03-0.24,0.26-0.41,0.5-0.38c0.24,0.03,0.41,0.26,0.38,0.5c-0.11,0.8-0.2,1.54-0.27,2.21
		C211.42,103.54,211.23,103.71,211.01,103.71z M211.62,99.28c-0.03,0-0.05,0-0.08-0.01c-0.24-0.04-0.41-0.27-0.37-0.51
		c0.11-0.71,0.24-1.44,0.37-2.21c0.04-0.24,0.27-0.4,0.52-0.36c0.24,0.04,0.4,0.28,0.36,0.52c-0.14,0.76-0.26,1.49-0.37,2.19
		C212.01,99.12,211.83,99.28,211.62,99.28z M212.41,94.89c-0.03,0-0.06,0-0.1-0.01c-0.24-0.05-0.4-0.28-0.35-0.52
		c0.14-0.71,0.3-1.44,0.47-2.19c0.05-0.24,0.29-0.39,0.53-0.34c0.24,0.05,0.39,0.29,0.34,0.53c-0.17,0.74-0.32,1.47-0.46,2.17
		C212.79,94.74,212.61,94.88,212.41,94.89z M213.38,90.53c-0.04,0-0.08,0-0.12-0.01c-0.24-0.06-0.38-0.3-0.33-0.54
		c0.18-0.71,0.36-1.43,0.56-2.17c0.06-0.24,0.31-0.38,0.55-0.31c0.24,0.06,0.38,0.31,0.31,0.55c-0.2,0.73-0.38,1.44-0.56,2.15
		C213.76,90.4,213.58,90.53,213.38,90.53z M214.55,86.23c-0.04,0-0.09,0-0.13-0.02c-0.24-0.07-0.37-0.32-0.3-0.55
		c0.21-0.71,0.43-1.42,0.66-2.14c0.08-0.23,0.33-0.36,0.56-0.29c0.23,0.07,0.36,0.33,0.29,0.56c-0.23,0.71-0.45,1.42-0.65,2.12
		C214.91,86.1,214.74,86.23,214.55,86.23z M215.91,81.98c-0.05,0-0.1-0.01-0.16-0.02c-0.23-0.08-0.36-0.33-0.27-0.57
		c0.24-0.7,0.5-1.4,0.76-2.11c0.09-0.23,0.34-0.35,0.57-0.26c0.23,0.09,0.35,0.34,0.26,0.57c-0.26,0.7-0.52,1.39-0.76,2.09
		C216.26,81.87,216.09,81.98,215.91,81.98z M217.48,77.81c-0.06,0-0.12-0.01-0.18-0.03c-0.23-0.09-0.34-0.35-0.24-0.58
		c0.28-0.69,0.57-1.38,0.87-2.06c0.1-0.23,0.36-0.33,0.59-0.23c0.23,0.1,0.33,0.36,0.23,0.59c-0.3,0.67-0.59,1.36-0.86,2.04
		C217.82,77.7,217.66,77.81,217.48,77.81z M219.28,73.73c-0.07,0-0.14-0.01-0.2-0.04c-0.22-0.11-0.32-0.37-0.21-0.59
		c0.32-0.68,0.66-1.36,0.99-2.01c0.11-0.22,0.38-0.3,0.6-0.19c0.22,0.11,0.31,0.38,0.19,0.6c-0.33,0.64-0.66,1.31-0.98,1.99
		C219.6,73.64,219.44,73.73,219.28,73.73z M221.31,69.77c-0.08,0-0.15-0.02-0.22-0.06c-0.22-0.12-0.29-0.39-0.17-0.61
		c0.36-0.65,0.74-1.31,1.12-1.94c0.13-0.21,0.4-0.28,0.61-0.15c0.21,0.13,0.28,0.4,0.15,0.61c-0.37,0.63-0.75,1.27-1.1,1.92
		C221.61,69.68,221.46,69.77,221.31,69.77z M223.59,65.94c-0.09,0-0.17-0.02-0.25-0.07c-0.21-0.13-0.27-0.41-0.13-0.62
		c0.41-0.63,0.83-1.26,1.25-1.86c0.14-0.2,0.42-0.25,0.62-0.11c0.2,0.14,0.25,0.42,0.11,0.62c-0.41,0.59-0.83,1.21-1.23,1.84
		C223.88,65.87,223.74,65.94,223.59,65.94z M226.14,62.29c-0.1,0-0.19-0.03-0.28-0.09c-0.2-0.15-0.23-0.43-0.09-0.62
		c0.45-0.6,0.92-1.19,1.39-1.76c0.16-0.19,0.44-0.22,0.63-0.06c0.19,0.16,0.22,0.44,0.06,0.63c-0.46,0.56-0.92,1.14-1.37,1.73
		C226.4,62.23,226.27,62.29,226.14,62.29z M228.97,58.85c-0.11,0-0.22-0.04-0.31-0.11c-0.18-0.16-0.2-0.45-0.04-0.63
		c0.5-0.56,1.01-1.11,1.53-1.64c0.17-0.18,0.45-0.18,0.63-0.01c0.18,0.17,0.18,0.45,0.01,0.63c-0.51,0.52-1.01,1.06-1.5,1.61
		C229.2,58.8,229.09,58.85,228.97,58.85z M232.07,55.67c-0.12,0-0.24-0.04-0.33-0.14c-0.17-0.18-0.16-0.46,0.02-0.63
		c0.55-0.52,1.11-1.02,1.67-1.5c0.19-0.16,0.47-0.14,0.63,0.05c0.16,0.19,0.14,0.47-0.05,0.63c-0.55,0.47-1.1,0.97-1.64,1.47
		C232.28,55.62,232.18,55.66,232.07,55.67z M235.45,52.77c-0.14,0-0.27-0.06-0.36-0.17c-0.15-0.19-0.12-0.47,0.08-0.62
		c0.59-0.46,1.19-0.91,1.8-1.34c0.2-0.14,0.48-0.09,0.62,0.11c0.14,0.2,0.09,0.48-0.11,0.62c-0.6,0.42-1.19,0.86-1.77,1.31
		C235.63,52.74,235.54,52.77,235.45,52.77z M239.08,50.21c-0.15,0-0.3-0.07-0.39-0.21c-0.13-0.21-0.07-0.48,0.14-0.61
		c0.63-0.4,1.28-0.79,1.92-1.16c0.21-0.12,0.49-0.05,0.61,0.17c0.12,0.21,0.05,0.49-0.17,0.61c-0.63,0.36-1.27,0.74-1.89,1.13
		C239.24,50.19,239.16,50.21,239.08,50.21z M242.94,48.01c-0.17,0-0.33-0.09-0.41-0.24c-0.11-0.22-0.02-0.49,0.2-0.6
		c0.67-0.34,1.35-0.66,2.03-0.96c0.22-0.1,0.49,0,0.59,0.23c0.1,0.22,0,0.49-0.23,0.59c-0.67,0.3-1.34,0.61-1.99,0.94
		C243.07,48,243.01,48.01,242.94,48.01z M247,46.2c-0.18,0-0.35-0.1-0.42-0.28c-0.09-0.23,0.02-0.49,0.25-0.58
		c0.69-0.27,1.4-0.53,2.11-0.76c0.23-0.08,0.49,0.05,0.56,0.28c0.08,0.23-0.05,0.49-0.28,0.56c-0.69,0.23-1.39,0.49-2.07,0.75
		C247.1,46.19,247.05,46.2,247,46.2z M251.21,44.79c-0.2,0-0.38-0.12-0.44-0.32c-0.07-0.24,0.07-0.48,0.31-0.55
		c0.71-0.2,1.44-0.39,2.17-0.57c0.24-0.06,0.48,0.09,0.54,0.33c0.06,0.24-0.09,0.48-0.33,0.54c-0.72,0.17-1.43,0.36-2.13,0.56
		C251.29,44.78,251.25,44.79,251.21,44.79z M255.54,43.76c-0.21,0-0.4-0.15-0.45-0.36c-0.05-0.24,0.11-0.47,0.35-0.52
		c0.72-0.14,1.47-0.27,2.21-0.38c0.24-0.04,0.47,0.13,0.51,0.37c0.04,0.24-0.13,0.47-0.37,0.51c-0.73,0.11-1.46,0.23-2.17,0.37
		C255.59,43.76,255.56,43.76,255.54,43.76z M271.05,42.9c-0.01,0-0.03,0-0.04,0c-0.74-0.05-1.49-0.08-2.21-0.11
		c-0.25-0.01-0.44-0.21-0.43-0.46c0.01-0.25,0.22-0.44,0.46-0.43c0.73,0.02,1.49,0.06,2.24,0.11c0.25,0.02,0.43,0.23,0.42,0.47
		C271.47,42.72,271.28,42.9,271.05,42.9z M259.93,43.1c-0.23,0-0.43-0.17-0.45-0.4c-0.03-0.24,0.15-0.46,0.39-0.49
		c0.73-0.08,1.48-0.15,2.23-0.2c0.24-0.02,0.46,0.17,0.48,0.41c0.02,0.25-0.17,0.46-0.41,0.48c-0.74,0.05-1.48,0.12-2.2,0.2
		C259.96,43.1,259.95,43.1,259.93,43.1z M266.6,42.75C266.6,42.75,266.59,42.75,266.6,42.75c-0.76,0-1.49,0.01-2.22,0.04
		c-0.23,0.01-0.45-0.18-0.46-0.43c-0.01-0.25,0.18-0.45,0.43-0.46c0.74-0.03,1.48-0.04,2.24-0.04c0.25,0,0.45,0.2,0.45,0.45
		C267.04,42.55,266.84,42.75,266.6,42.75z"/>
        <path class="st15" d="M381.39,88.42L230.06,67.18c-2.49-0.35-4.82-1.44-6.67-3.14l-58.52-53.41c-0.7-0.64-0.12-1.79,0.81-1.61
		l130.37,24.9c1.52,0.29,2.97,0.86,4.27,1.68l81.7,51.1C382.88,87.24,382.39,88.56,381.39,88.42z"/>
        <g>
		<path class="st16" d="M355.42,98.34c-0.03-1.42-0.09-3.04-0.14-4.65c-0.06-1.75-0.12-3.55-0.15-5.05
			c-0.03-1.57-0.22-2.5-0.45-3.68l-0.01-0.07c-0.31-1.54-1.81-2.72-3.01-3.68l-0.12-0.09c-2.39-1.9-7.58-4.65-11.66-6.54
			c-6.34-2.93-12.86-5.94-19.31-8.92c-17.02-7.86-33.09-15.28-44.64-20.74l0.57-1.21c11.54,5.46,27.62,12.88,44.63,20.74
			c6.46,2.98,12.98,5.99,19.31,8.92c4.15,1.92,9.44,4.74,11.92,6.7l0.12,0.09c1.3,1.03,3.09,2.44,3.49,4.46l0.02,0.07
			c0.24,1.19,0.44,2.22,0.48,3.91c0.03,1.49,0.09,3.29,0.15,5.03c0.06,1.62,0.11,3.24,0.14,4.66L355.42,98.34z"/>

            <rect x="353.65" y="105.35" transform="matrix(0.9998 -0.0199 0.0199 0.9998 -2.1239 7.1204)" class="st17"
                  width="5.34" height="9.62"/>
            <path class="st16" d="M358.99,225.73L358.99,225.73c-3.4,0.07-6.2-2.67-6.2-6.08l0.03-103.92c0-0.77,0.62-1.4,1.39-1.41l4.68-0.09
			c0.77-0.02,1.41,0.58,1.44,1.35l4.61,103.8C365.1,222.8,362.41,225.66,358.99,225.73z"/>
            <path class="st16" d="M358.63,106.1l-4.72,0.09c-0.6,0.01-1.09-0.46-1.1-1.06l-0.02-0.99c-0.04-1.9,1.47-3.47,3.37-3.51l0,0
			c1.9-0.04,3.47,1.47,3.51,3.37l0.02,0.99C359.7,105.6,359.23,106.09,358.63,106.1z"/>
            <path class="st17" d="M357.68,100.95l-3.01,0.06l-0.04-1.99c-0.01-0.71,0.55-1.29,1.25-1.3l0.45-0.01
			c0.71-0.01,1.29,0.55,1.3,1.25L357.68,100.95z"/>
            <polygon class="st18" points="359.34,114.21 363.07,224.05 358.45,114.25 359.34,114.21 		"/>
            <polygon class="st18" points="358.1,114.25 358.99,225.73 357.21,114.26 358.1,114.25 		"/>
            <polygon class="st18" points="356.69,114.27 358.91,199.24 355.8,114.3 356.69,114.27 		"/>
            <polygon class="st18" points="354.66,114.32 354.86,224.22 353.77,114.33 354.66,114.32 		"/>
            <polygon class="st18" points="355.6,114.3 356.42,225.22 354.71,114.31 355.6,114.3 		"/>
	</g>
        <g>
		<path class="st19" d="M280.94,43.6l-0.9,2.08c-0.09,0.22-0.39,0.32-0.83,0.34l-0.01,0c-1.13,0.04-3.22-0.5-5.48-1.49
			c-2.14-0.93-3.89-2.02-4.69-2.86c-0.39-0.4-0.56-0.75-0.45-0.99l0.9-2.08l1.51,1.92c1.1,0.23,2.47,0.68,3.91,1.31
			c1.34,0.58,2.52,1.22,3.42,1.83L280.94,43.6z"/>
            <path class="st20" d="M280.94,43.6c-0.33,0.75-3.16,0.24-6.32-1.14c-3.17-1.38-5.47-3.1-5.14-3.85c0.33-0.75,3.16-0.24,6.32,1.14
			C278.96,41.13,281.27,42.85,280.94,43.6z"/>
	</g>

        <ellipse transform="matrix(0.9546 -0.2979 0.2979 0.9546 -27.1837 104.6774)" class="st11" cx="329.83" cy="141.52"
                 rx="3.16" ry="17.89"/>

        <ellipse transform="matrix(0.9998 -0.0199 0.0199 0.9998 -1.9413 6.0664)" class="st11" cx="303.52" cy="100.47"
                 rx="3.16" ry="17.89"/>
        <g>
		<path class="st6" d="M231.41,207.31c9.11,1.99,18.44,3.3,27.71,2.06c3.08-0.36,6.05-1.2,9.13-2.06
			C257.44,214.48,242.49,213.31,231.41,207.31L231.41,207.31z"/>
	</g>
</g>
</svg>
