<?xml version="1.0" encoding="utf-8"?>
<!-- Generator: Adobe Illustrator 28.0.0, SVG Export Plug-In . SVG Version: 6.00 Build 0)  -->
<svg version="1.1" id="Шар_1" xmlns="http://www.w3.org/2000/svg" x="0px" y="0px"
     viewBox="0 0 512 512" style="enable-background:new 0 0 512 512;" xml:space="preserve">
<style type="text/css">
	.st0{fill:#161311;}
	.st1{fill:#232323;}
	.st2{fill:none;}
	.st3{fill:#FF8D00;}
	.st4{fill:#FFFFFF;}
	.st5{fill:#3D3D3D;}
	.st6{fill:#F1F1F1;stroke:#232323;stroke-width:3.7173;stroke-miterlimit:10;}
	.st7{fill:#353535;}
	.st8{fill:#F1F1F1;}
	.st9{fill:#FFD48F;}
	.st10{fill:#565656;}
	.st11{fill:none;stroke:#232323;stroke-width:7.2041;stroke-miterlimit:10;}
	.st12{fill:#C9C9C9;}
	.st13{fill:#FFFFFF;stroke:#999999;stroke-width:0.9697;stroke-miterlimit:10;}
	.st14{fill:#F8FEFF;stroke:#424242;stroke-width:1.3185;stroke-miterlimit:10;}
	.st15{fill:#4CFC59;}
	.st16{fill:#BCBCBC;}
	.st17{fill:#E2E2E2;}
	.st18{opacity:0.8;fill:#C9C9C9;}
</style>
    <path class="st0" d="M189,12"/>
    <g>
	<path class="st1" d="M402.39,305.07l-8.7,20.72c-0.11,0.26-0.23,0.51-0.35,0.75c-1.15-0.48-2.33-0.98-3.53-1.51
		c-3.43-1.49-7.05-3.16-10.89-5.06c-1.13-0.57-2.28-1.14-3.45-1.74c-8.24-4.22-17.37-9.4-27.42-15.75
		c-9.28-5.86-19.35-12.72-30.26-20.75c-17.49-12.88-37.09-28.75-58.93-48.33c-2.44-2.17-4.91-4.41-7.4-6.69l80.51-34.93l0.3-0.13
		c0,0,25.75,52.9,56.29,95.38c0.87,1.23,1.75,2.44,2.65,3.65c2.77,3.77,5.58,7.45,8.42,10.98
		C400.53,302.82,401.46,303.95,402.39,305.07z"/>
        <g>
		<path class="st1" d="M143.01,201.13c0,0-46.68,84.45-89.12,122.6c-5.52,4.96-3.85,15.48,2.25,14.15
			c27.97-6.09,80.6-27.46,165.79-97.19L143.01,201.13z"/>
	</g>
        <g>
		<line class="st2" x1="238.41" y1="248.6" x2="346.4" y2="304.25"/>
	</g>
        <path class="st3" d="M162.47,505.41l38.42,0.58c7.06,0.11,12.93-5.58,13.04-12.64l0.17-10.83c0.11-7.07-5.58-12.94-12.65-13.05
		l-38.42-0.58c-7.06-0.11-12.93,5.58-13.04,12.64l-0.17,10.83C149.71,499.42,155.4,505.3,162.47,505.41z"/>
        <path class="st3" d="M269.84,507.48l38.42,0.58c7.06,0.11,12.93-5.58,13.04-12.64l0.17-10.83c0.11-7.07-5.58-12.94-12.65-13.05
		l-38.42-0.58c-7.06-0.11-12.93,5.58-13.04,12.64l-0.17,10.83C257.07,501.5,262.77,507.37,269.84,507.48z"/>
        <g>
		<path class="st1" d="M239.58,479.47c-171.93,17.54-97.03-270.89-97.03-270.89C122.1,57.46,235.03,56.84,235.04,56.84
			c0,0,112.9-3.26,95.71,148.51C330.75,205.35,411.82,491.09,239.58,479.47z"/>
	</g>
        <g>
		<path class="st4" d="M200.3,202.46l-31.86-24.22c-8.89-6.76-11.61-20.07-6.23-30.53l24.93-48.47
			c3.63-7.06,10.31-11.46,17.58-11.59l1.93-0.03c10.85-0.19,19.93,9.09,20.77,21.2l5,72.72C233.74,200.81,214.56,213.3,200.3,202.46
			z"/>
	</g>
        <g>
		<path class="st4" d="M274.65,201.18l31.32-25.3c8.74-7.06,11.17-20.46,5.57-30.73l-25.97-47.6c-3.78-6.93-10.55-11.11-17.82-10.98
			l-1.93,0.03c-10.85,0.19-19.73,9.77-20.3,21.9l-3.43,72.87C241.18,200.68,260.63,212.51,274.65,201.18z"/>
	</g>
        <g>
		<path class="st3" d="M235.95,172.12c-8.41-0.71-15.16,11.38-15.16,11.38c-11.43,2.76-11.33,12.17-11.33,12.17
			s16.25,19.39,26.94,19.21c10.69-0.18,26.52-20.13,26.52-20.13s-0.1-9.41-11.58-11.77C251.34,182.97,244.34,171.12,235.95,172.12
			L235.95,172.12z"/>
	</g>
        <g>
		<path class="st5" d="M213.29,159.17c6.75-13.76,23.48-22.47,37.02-12.03c3.95,2.97,7.03,6.78,9.25,10.98
			c-3.53-3.17-7.07-6.17-10.97-8.34C235.54,141.91,223.05,149.66,213.29,159.17L213.29,159.17z"/>
	</g>
        <path class="st6" d="M198.12,179.97L198.12,179.97c-11.32,0.19-20.69-10.02-20.83-22.69l-0.17-15.8
		c-0.14-12.68,9.01-23.21,20.34-23.4h0c11.32-0.19,20.69,10.02,20.83,22.69l0.17,15.8c0.03,2.97-0.44,5.82-1.34,8.44
		C214.19,173.61,206.79,179.82,198.12,179.97z"/>
        <path class="st6" d="M276.09,179.97L276.09,179.97c-11.32,0.19-20.69-10.02-20.83-22.69l-0.17-15.8
		c-0.14-12.68,9.01-23.21,20.34-23.4h0c11.32-0.19,20.69,10.02,20.83,22.69l0.17,15.8c0.03,2.97-0.44,5.82-1.34,8.44
		C292.16,173.61,284.76,179.82,276.09,179.97z"/>
        <path class="st7" d="M276.61,172.03l-3.06,0.05c-4.33,0.07-7.92-3.85-7.97-8.72l-0.12-11.26c-0.05-4.87,3.45-8.92,7.79-8.99
		l3.06-0.05c4.33-0.07,7.92,3.85,7.97,8.72l0.12,11.26C284.45,167.91,280.95,171.96,276.61,172.03z"/>
        <path class="st7" d="M198.99,173.37l-3.06,0.05c-4.33,0.07-7.92-3.85-7.97-8.72l-0.12-11.26c-0.05-4.87,3.45-8.92,7.79-8.99
		l3.06-0.05c4.33-0.07,7.92,3.85,7.97,8.72l0.12,11.26C206.83,169.25,203.32,173.29,198.99,173.37z"/>

        <ellipse transform="matrix(0.0145 -0.9999 0.9999 0.0145 119.2066 412.5952)" class="st8" cx="268.92" cy="145.82"
                 rx="6.59" ry="5.88"/>

        <ellipse transform="matrix(0.0145 -0.9999 0.9999 0.0145 40.1942 335.1336)" class="st8" cx="190.12" cy="147.18"
                 rx="6.59" ry="5.88"/>
        <g>
		<path class="st4" d="M225.65,238.42c-7.13-3.12-16.57-7.26-26.25-11.5c-21.13-9.26-43.8,9.15-42.52,34.55l6.71,133.82
			c0.65,12.95,7.67,24.4,18.22,29.73l44.66,22.54c8.42,4.25,18.11,4.09,26.43-0.45c12.44-6.78,30.81-16.79,44.16-24.07
			c10.43-5.69,17.2-17.37,17.57-30.34l3.82-134c0.73-25.43-22.32-43.05-43.25-33.07l-25.99,12.39
			C241.69,241.59,233.23,241.74,225.65,238.42z"/>
	</g>
        <g>
		<path class="st7" d="M214.14,192.86c9.83,10.33,22.87,14.35,35.44,6.27c3.78-2.29,7.17-5.25,10.41-8.38
			c-2.67,3.64-5.84,6.97-9.62,9.59C237.83,209.52,222.56,205.2,214.14,192.86L214.14,192.86z"/>
	</g>

        <ellipse transform="matrix(0.9998 -0.022 0.022 0.9998 -4.0678 5.2363)" class="st9" cx="236.44" cy="187.87"
                 rx="7.06" ry="4.61"/>

        <ellipse transform="matrix(0.2601 -0.9656 0.9656 0.2601 125.5203 307.1661)" class="st10" cx="263.19" cy="71.68"
                 rx="6.59" ry="12.51"/>
        <line class="st11" x1="292.54" y1="127.88" x2="303.17" y2="115.12"/>
        <line class="st11" x1="181.4" y1="127.88" x2="170.77" y2="115.12"/>
        <path class="st1"
              d="M212.2,66.12c0,0,20.97-11.84,23.17-25.83c0,0,20.97,10.76,18.76,21.52S212.2,66.12,212.2,66.12z"/>
        <path class="st12" d="M221.3,267.35c0,6.54-5.43,11.84-12.14,11.84s-12.14-5.3-12.14-11.84H221.3z"/>
        <path class="st12" d="M275.37,267.35c0,6.54-5.43,11.84-12.14,11.84s-12.14-5.3-12.14-11.84H275.37z"/>
        <path class="st12" d="M246.68,295.21c0,6.54-5.43,11.84-12.14,11.84c-6.7,0-12.14-5.3-12.14-11.84H246.68z"/>
        <path class="st13"
              d="M375.28,322.47l23.42-63.98c0,0-55.84-71.08-68.45-62.55s9.01,136.48,9.01,136.48L375.28,322.47z"/>
        <g>
		<g>
			<path class="st14" d="M435.52,245.15c-1.11,2.65-4.22,3.94-6.89,2.85l-0.68-0.27c-0.15,0.68-0.35,1.35-0.62,2.01l-25.32,60.39
				l-10.65,25.38c-0.14,0.31-0.28,0.63-0.43,0.92c-2.87,5.46-9.58,7.99-15.42,5.64c-6.16-2.47-9.12-9.5-6.57-15.59l0.09-0.23
				l16.03-38.23l19.85-47.33c0.28-0.65,0.62-1.26,1-1.85l-0.68-0.27c-2.68-1.07-3.96-4.13-2.85-6.78s4.22-3.94,6.89-2.85l23.4,9.42
				C435.35,239.44,436.63,242.5,435.52,245.15z"/>
		</g>
            <g>
			<path class="st15" d="M404.15,292.79l-18.43,43.95c-0.87,2.06-4.64,2.52-8.4,1h0c-3.75-1.51-6.12-4.44-5.25-6.5l18.43-43.95
				L404.15,292.79z"/>
		</g>

            <ellipse transform="matrix(0.9778 -0.2093 0.2093 0.9778 -50.2111 89.6488)" class="st15" cx="398.41"
                     cy="282.03" rx="3.7" ry="3.64"/>

            <ellipse transform="matrix(0.9778 -0.2093 0.2093 0.9778 -47.1281 92.0757)" class="st15" cx="411.41"
                     cy="268.68" rx="3.17" ry="3.12"/>

            <ellipse transform="matrix(0.9778 -0.2093 0.2093 0.9778 -44.6722 91.0808)" class="st15" cx="407.94"
                     cy="256.58" rx="3.7" ry="3.64"/>

            <ellipse transform="matrix(0.9778 -0.2093 0.2093 0.9778 -38.5957 95.4456)" class="st15" cx="431.6"
                     cy="230.05" rx="3.7" ry="3.64"/>

            <ellipse transform="matrix(0.9778 -0.2093 0.2093 0.9778 -36.4376 92.2828)" class="st15" cx="417.74"
                     cy="218.28" rx="3.17" ry="3.12"/>

            <ellipse transform="matrix(0.9778 -0.2093 0.2093 0.9778 -34.6503 95.2444)" class="st15" cx="432.62"
                     cy="211.31" rx="3.7" ry="3.64"/>

            <ellipse transform="matrix(0.9778 -0.2093 0.2093 0.9778 -32.8846 92.6566)" class="st15" cx="421.28"
                     cy="201.68" rx="2.11" ry="2.08"/>

            <ellipse transform="matrix(0.9778 -0.2093 0.2093 0.9778 -44.7309 102.5416)" class="st15" cx="462.05"
                     cy="262.58" rx="1.95" ry="1.92"/>

            <ellipse transform="matrix(0.9778 -0.2093 0.2093 0.9778 -33.5937 99.7005)" class="st15" cx="454.2"
                     cy="208.55" rx="5.91" ry="5.82"/>

            <ellipse transform="matrix(0.9778 -0.2093 0.2093 0.9778 -29.9581 88.1318)" class="st15" cx="401.37"
                     cy="185.59" rx="4.6" ry="4.53"/>

            <ellipse transform="matrix(0.9778 -0.2093 0.2093 0.9778 -22.9934 91.9828)" class="st15" cx="423.04"
                     cy="154.61" rx="5.91" ry="5.82"/>
	</g>

        <ellipse transform="matrix(0.4955 -0.8686 0.8686 0.4955 -73.5345 502.6413)" class="st1" cx="395.93" cy="314.62"
                 rx="14.96" ry="9.39"/>

        <ellipse transform="matrix(0.4437 -0.8962 0.8962 0.4437 -61.5836 531.1464)" class="st10" cx="397.03" cy="315.18"
                 rx="7.76" ry="1.66"/>
        <g>
		<g>
			<g>
				<path class="st4" d="M291.29,89.26c0,0-20.21-14.13-57.25-13.51s-56.78,15.39-56.78,15.39L158.8,37.31
					c-0.67-1.96-0.22-4.05,1.13-5.27c6.45-5.85,28.15-21.74,73.04-22.48c44.99-0.74,67.2,14.5,73.78,20.1
					c1.37,1.16,1.85,3.24,1.25,5.19L291.29,89.26z"/>
                <path class="st16" d="M291.58,90.1L291,89.69c-0.05-0.03-5.14-3.55-14.66-6.94c-8.79-3.13-23.25-6.8-42.28-6.48
					c-19.04,0.32-33.37,4.45-42.05,7.87c-9.41,3.7-14.37,7.38-14.42,7.42l-0.57,0.43l-18.7-54.5c-0.74-2.17-0.25-4.46,1.27-5.84
					c3.15-2.86,10.24-8.39,22.26-13.25c14.55-5.89,31.74-9.06,51.12-9.36c19.41-0.32,36.73,2.27,51.48,7.71
					c12.16,4.48,19.41,9.77,22.64,12.52c1.51,1.28,2.08,3.6,1.42,5.75L291.58,90.1z M233.29,75.23c0.25-0.01,0.49-0.01,0.74-0.01
					c19.21-0.32,33.82,3.39,42.7,6.56c7.88,2.81,12.66,5.64,14.27,6.66l16.5-53.73c0.54-1.76,0.1-3.62-1.09-4.64
					c-22.65-19.29-61.93-20.17-73.43-19.98c-11.46,0.21-50.65,2.36-72.7,22.35c-1.19,1.08-1.58,2.97-0.98,4.71l18.24,53.16
					c1.57-1.07,6.26-4.06,14.04-7.12C200.23,79.76,214.45,75.64,233.29,75.23z"/>
			</g>
            <path class="st17" d="M291.29,89.26c0,0-20.21-14.13-57.25-13.51s-56.78,15.39-56.78,15.39L158.8,37.31
				c0,0,14.15,34.72,75.17,33.72S308,34.85,308,34.85L291.29,89.26z"/>
		</g>
	</g>
        <g>
		<path class="st13" d="M366.49,367.97c0,0-8.7-56.67-19.25-114.9c-5.6-30.88-4.82-55.86-14.92-63.09
			c-10.15-7.25-10.89-4.27-10.89-4.27l-15.89,33.24l0.27-0.24l-36.45,40.81l0,0c-3.89,47.61-7.21,107.24-5.37,158.54
			c0,0,0.97,29.77,0.81,34.75c0,0,66.21,10.73,119.02-11.39L366.49,367.97z"/>
	</g>
        <path class="st18" d="M369.02,378.71c0.18,0.76,4.01,16.29,1.19,36.25c-2.83,19.96-33.22,36.35-66.97,36.08
		c-34.76-0.28-39.05-24.87-39.05-24.87l0.35,10.75c0.18,6.99,0.33,13.75,0.26,15.89c0,0,66.21,10.73,119.02-11.39L369.02,378.71
		L369.02,378.71z"/>
        <path class="st13"
              d="M350.38,417.61l-1.62-43.43l-62.46,4.55l3.99,43.56C290.29,422.29,324.77,424.92,350.38,417.61z"/>
        <path class="st13" d="M321.31,241.03l-7.2-20.43l29.63-10.22c7.45-2.02-2.14-18.21-16.44-31.41c-2.03-1.87-5.15-1.86-7.12,0.07l0,0
		c0,0-25.58,34.48-58.09,82.68l0,0L321.31,241.03z"/>
        <g>
		<path class="st2" d="M237.46,166.08c0,0,0.01,0,0.01,0c0.31,0.02,0.59,0.04,0.9,0.07l-0.03-0.06
			C238.03,166.08,237.76,166.08,237.46,166.08z"/>
            <path class="st2" d="M251.91,167.13l-0.01,0.06C356.75,175.22,284.45,169.64,251.91,167.13z"/>
	</g>
        <path class="st13" d="M83.31,342.37c0,0-24.04-48.34-22.63-49.76c1.41-1.42,79.2-102.36,86.27-95.25s0,115.16,0,115.16
		L83.31,342.37z"/>
        <path class="st13" d="M199.49,421.5c0,0-16.7-96.03-15.61-158.11c0.02-1.16,0.04-2.27,0.07-3.41l-0.01,0
		c-11.39-9.84-21.32-21.89-26.27-28.24c-1.98-2.54-1.9-6.11,0.18-8.57l7.07-8.38c2.21-2.62,2.13-6.49-0.2-9.01l-11.15-12.08
		c-2.19-2.38-5.76-2.88-8.5-1.16c-0.03,0.02-0.05,0.03-0.08,0.05c-1.69,1.06-2.83,2.79-3.13,4.77c-1.09,7.23-2.25,14.46-3.57,21.68
		c-1.55,8.53-3.48,17.01-5.31,25.51c-1.85,8.57-3.48,17.17-4.97,25.78c-1.72,9.89-3.26,19.8-4.76,29.71
		c-3.95,37.01-5.86,68.72-6.08,72.61c-0.02,0.26-0.04,0.52-0.09,0.77c-0.72,4.1-6.95,41.19-0.81,70.25
		c0.58,2.74,2.81,4.82,5.57,5.26c11.6,1.83,43.84,6.06,75.8,2.4c3.87-0.44,6.54-4.13,5.84-7.98L199.49,421.5z"/>
        <path class="st18" d="M200.56,427.34c4.02,24.12-61.99,28.2-76.04,8.18c-12.16-17.33-7.37-62.47-7.37-62.47s-8.14,43.85,0.19,75.12
		c0,0,45.32,8.69,87.42,2.21L200.56,427.34L200.56,427.34z"/>
        <path class="st13"
              d="M185.26,423.64l0.36-43.96l-63.21,3.27l2.02,44.14C124.44,427.09,159.09,430.48,185.26,423.64z"/>
        <path class="st13" d="M152.98,252.51c0,0,23.02,10.02,46.06,14.11l0-0.01c-32.63-54.44-42.17-77.64-44.52-84.11
		c-0.43-1.2-1.58-1.97-2.85-1.94l0,0c-0.89,0.02-1.73,0.45-2.27,1.17c-6.26,8.29-16.97,21.54-24.74,37.07l1.94,0.65l29.32,8.69
		L152.98,252.51z"/>
</g>
</svg>
