<?xml version="1.0" encoding="utf-8"?>
<!-- Generator: Adobe Illustrator 28.0.0, SVG Export Plug-In . SVG Version: 6.00 Build 0)  -->
<svg xmlns:xlink="http://www.w3.org/1999/xlink" version="1.1" id="Шар_1" xmlns="http://www.w3.org/2000/svg" x="0px"
     y="0px"
     viewBox="0 0 512 512" style="enable-background:new 0 0 512 512;" xml:space="preserve">
<style type="text/css">
	.st0{fill:#7C634A;}
	.st1{fill:#33271C;}
	.st2{fill:#63513B;}
	.st3{fill:#161311;}
	.st4{fill:none;}
	.st5{fill:#232323;}
	.st6{fill:#FFFFFF;}
	.st7{fill:#FF8D00;}
	.st8{fill:#3D3D3D;}
	.st9{fill:#F1F1F1;stroke:#232323;stroke-width:3.7142;stroke-miterlimit:10;}
	.st10{fill:#353535;}
	.st11{fill:#F1F1F1;}
	.st12{fill:#FFD48F;}
	.st13{fill:#565656;}
	.st14{fill:none;stroke:#232323;stroke-width:7.1982;stroke-miterlimit:10;}
	.st15{fill:#C9C9C9;}
	.st16{fill:#F1C88D;}
	.st17{fill:#F5D6AB;}
	.st18{fill:#F8E1C1;}
	.st19{clip-path:url(#path39922_00000083049783717388862400000003372198453928640445_);fill:#5DA5C9;}
	.st20{opacity:0.66;fill:#316E92;}
	.st21{fill:#4F402F;}
</style>
    <g>
	<ellipse class="st0" cx="266.71" cy="239.84" rx="138.75" ry="178.24"/>
        <path class="st1" d="M154.68,498.12h-19.29c-4.68,0-8.5-3.82-8.5-8.5v-42.77c0-4.68,3.82-8.5,8.5-8.5h19.29
		c4.67,0,8.5,3.82,8.5,8.5v42.77C163.18,494.3,159.35,498.12,154.68,498.12z"/>
        <path class="st1" d="M380.94,498.12h-19.29c-4.67,0-8.5-3.82-8.5-8.5v-42.77c0-4.68,3.83-8.5,8.5-8.5h19.29
		c4.68,0,8.5,3.82,8.5,8.5v42.77C389.44,494.3,385.62,498.12,380.94,498.12z"/>
        <path class="st2" d="M418,457.56H91.93c-6.6,0-12-5.4-12-12V273.18c0-6.6,5.4-12,12-12H418c6.6,0,12,5.4,12,12v172.38
		C430,452.16,424.6,457.56,418,457.56z"/>
        <g>
		<path class="st3" d="M275.97,11"/>
            <g>
			<line class="st4" x1="271.75" y1="224.63" x2="372.26" y2="299.97"/>
		</g>
            <g>
			<path class="st5" d="M144.37,328.7c-11.2-79.39,38.09-171.36,38.09-171.36C186.28,10.38,301.61,29.41,301.63,29.41
				c0,0,115.73,16.52,73.4,157.54c0,0,34.96,150.24-57.22,215.82C250.02,451.01,155.99,411.07,144.37,328.7z"/>
		</g>
            <g>
			<path class="st6" d="M232.98,169.93l-28.3-30.14c-7.9-8.41-8.2-22.4-0.89-32.08l33.25-45.3c4.93-6.53,12.97-9.38,20.4-8.23
				l1.97,0.3c11.1,1.71,18.76,12.71,17.51,25.14l-7.54,74.68C267.39,174.09,245.65,183.42,232.98,169.93z"/>
		</g>
            <g>
			<path class="st6" d="M309.06,181.59l36.35-20.21c10.15-5.64,14.95-18.82,11.02-30.22l-18.22-52.84
				c-2.65-7.7-8.84-13.12-16.27-14.26l-1.97-0.3c-11.1-1.71-21.83,6.47-24.52,18.68l-16.16,73.36
				C275.01,175.24,292.79,190.64,309.06,181.59z"/>
		</g>
            <g>
			<path class="st7" d="M276.35,142.04c-8.46-2.19-17.44,8.9-17.44,8.9c-12.14,0.81-13.67,10.37-13.67,10.37s13.21,22.52,24.15,24.2
				c10.94,1.68,30.55-15.8,30.55-15.8s1.53-9.56-9.77-13.97C290.17,155.74,285.08,142.49,276.35,142.04L276.35,142.04z"/>
		</g>
            <g>
			<path class="st8" d="M253.01,132.64c9.35-12.73,27.83-18.61,39.81-5.72c3.52,3.69,6.01,8.08,7.58,12.73
				c-3.03-3.85-6.11-7.53-9.71-10.42C278.75,118.93,264.52,124.63,253.01,132.64L253.01,132.64z"/>
		</g>
            <path class="st9" d="M233.91,151.09L233.91,151.09c-11.58-1.78-19.37-13.78-17.31-26.67l2.57-16.07
			c2.06-12.89,13.23-21.98,24.81-20.2l0,0c11.58,1.78,19.37,13.78,17.31,26.67l-2.57,16.07c-0.48,3.02-1.46,5.82-2.83,8.33
			C251.41,147.44,242.79,152.45,233.91,151.09z"/>
            <path class="st9" d="M313.47,164.71L313.47,164.71c-11.58-1.78-19.37-13.78-17.31-26.67l2.57-16.07
			c2.06-12.89,13.23-21.98,24.81-20.2l0,0c11.58,1.78,19.37,13.78,17.31,26.67l-2.57,16.07c-0.48,3.02-1.46,5.82-2.83,8.33
			C330.97,161.06,322.34,166.07,313.47,164.71z"/>
            <g>
			<path class="st10" d="M314.61,161.25l-3.13-0.48c-4.43-0.68-7.41-5.29-6.62-10.24l1.83-11.45c0.79-4.95,5.07-8.45,9.51-7.77
				l3.13,0.48c4.43,0.68,7.41,5.29,6.62,10.24l-1.83,11.45C323.32,158.43,319.04,161.93,314.61,161.25z"/>

                <ellipse transform="matrix(0.1837 -0.983 0.983 0.1837 123.0855 414.8265)" class="st11" cx="311.31"
                         cy="133.3" rx="6.78" ry="6.09"/>
		</g>
            <g>
			<path class="st10" d="M235.37,147.92l-3.13-0.48c-4.43-0.68-7.41-5.29-6.62-10.24l1.83-11.45c0.79-4.95,5.07-8.45,9.51-7.77
				l3.13,0.48c4.43,0.68,7.41,5.29,6.62,10.24l-1.83,11.45C244.08,145.11,239.8,148.6,235.37,147.92z"/>

                <ellipse transform="matrix(0.1837 -0.983 0.983 0.1837 71.9692 323.993)" class="st11" cx="231.06"
                         cy="118.66" rx="6.78" ry="6.09"/>
		</g>
            <g>
			<path class="st6" d="M250.59,208.93c-6.78-4.11-15.76-9.55-24.96-15.12c-20.1-12.18-46.15,0.83-48.88,24.41l-14.41,124.26
				c-1.39,12.03,3.95,23.78,13.87,30.5l41.99,28.48c7.92,5.37,17.83,6.9,27.05,4.16c13.77-4.08,34.1-10.11,48.89-14.49
				c11.55-3.42,20.31-13,22.74-24.87l25.18-122.6c4.78-23.27-15.94-43.47-38.88-37.92l-28.49,6.9
				C266.45,214.63,257.8,213.3,250.59,208.93z"/>
		</g>
            <g>
			<path class="st10" d="M250.49,159.29c8.16,12.22,20.88,18.6,35.07,12.58c4.25-1.68,8.24-4.06,12.08-6.71
				c-3.38,3.2-7.18,6.06-11.51,8.04C271.75,180.29,257.01,173.27,250.49,159.29L250.49,159.29z"/>
		</g>

            <ellipse transform="matrix(0.1473 -0.9891 0.9891 0.1473 77.3413 405.9431)" class="st12" cx="274.11"
                     cy="158.11" rx="4.75" ry="7.31"/>

            <ellipse transform="matrix(0.4172 -0.9088 0.9088 0.4172 146.1348 326.6678)" class="st13" cx="327.77"
                     cy="49.39" rx="6.78" ry="12.95"/>
            <line class="st14" x1="339.29" y1="114.71" x2="352.36" y2="103.62"/>
            <line class="st14" x1="225.91" y1="95.3" x2="217.28" y2="80.5"/>
            <path class="st5"
                  d="M276.72,34.84c0,0,23.45-8.35,28.13-22.16c0,0,19.52,14.58,15.4,25.12S276.72,34.84,276.72,34.84z"/>
            <path class="st15"
                  d="M239.78,238.75c-1.14,6.63-7.6,11.06-14.44,9.89c-6.84-1.17-11.46-7.5-10.33-14.13L239.78,238.75z"/>
            <path class="st15"
                  d="M294.94,248.19c-1.14,6.63-7.6,11.06-14.44,9.89c-6.84-1.17-11.46-7.5-10.33-14.13L294.94,248.19z"/>
            <path class="st15"
                  d="M260.83,271.45c-1.14,6.63-7.6,11.06-14.44,9.89c-6.84-1.17-11.46-7.5-10.33-14.13L260.83,271.45z"/>
            <g id="g53033" transform="matrix(-1.0975627,0.02651995,-0.02266449,-0.93799977,804.21676,548.74438)">
			<path id="path44130" class="st16" d="M564.83,422.93c-0.3,1.58-5.53,18.1-5.53,18.1s-40.88-27.71-49.16-51.9
				c-8.28-24.2-11.43-40.4-11.43-40.4s-18.14,53.6-35.06,61.66c-16.92,8.06-45.35,20.21-45.35,20.21l21.98-74.23l57.97-31.45
				l20.33,11.12L564.83,422.93z"/>
                <path id="path43571" class="st17" d="M581.06,406.28L579.54,434c0,0-72.67-27.45-80.54-87.68
				c-20.02,26.16-64.38,44.66-103.23,37.14c5.61-18.15,9.6-41.95,9.6-41.95l101.1-25.93L581.06,406.28z"/>
                <path id="path42475" class="st18" d="M590.73,401.65l-0.67,25.11c0,0-79.84-28.46-90.51-83.58
				c-20.81,22.8-68.29,37.47-110.73,28.75c5.44-16.22,8.94-37.66,8.94-37.66l108.81-18.67L590.73,401.65z"/>
                <g>
				<defs>
					<path id="path39922_00000060030482491862040710000001340006715220683138_" d="M601.05,415.38c0,0,9.42-108.14,17.28-143.22
						c-22.16-7.15-65.47-39.08-76.42-55.68c-10.95-16.61-26.26-16.48-37.84-11.25c-11.58,5.23-63.04,9.91-84.93,7.51
						c-15.84,77.01-30.62,122.03-39.16,143.85c21.62,12.32,77.6,8.16,100.25-7.67c13.14-9.18,22.64-10.8,28.48,1.73
						c5.85,12.53,20.69,26.7,29.96,34.12C552.08,395.5,587.62,418,601.05,415.38L601.05,415.38z"/>
				</defs>
                    <use xlink:href="#path39922_00000060030482491862040710000001340006715220683138_"
                         style="overflow:visible;fill:#3E8CBA;"/>
                    <clipPath id="path39922_00000140008246911990384970000009489355196589593221_">
					<use xlink:href="#path39922_00000060030482491862040710000001340006715220683138_"
                         style="overflow:visible;"/>
				</clipPath>
                    <path style="clip-path:url(#path39922_00000140008246911990384970000009489355196589593221_);fill:#5DA5C9;"
                          d="M387.33,249.55
					c68.54,22.59,94.18-11.13,133.7,1.9c39.53,13.03,77.95,71.62,110.55,79.8l-3.17,49.15c-67.27-25.33-63.46-67.58-119-83.47
					c-55.54-15.9-64.34,26.73-131.69-2.11C310.37,265.96,387.33,249.55,387.33,249.55z"/>
			</g>
                <path id="path41833" class="st20" d="M479.9,349.12c0.11-0.07,0.22-0.14,0.33-0.21c13.14-9.18,22.64-10.8,28.48,1.73
				c0.65,1.39,1.43,2.81,2.28,4.23l29.22-140.78c-7.46-9.81-16.62-12.67-25.2-11.86L479.9,349.12z"/>
		</g>

            <ellipse transform="matrix(0.1687 -0.9857 0.9857 0.1687 -138.3133 333.6621)" class="st5" cx="128.66"
                     cy="248.83" rx="31.98" ry="20.56"/>

            <ellipse transform="matrix(0.1687 -0.9857 0.9857 0.1687 42.9842 584.145)" class="st5" cx="367.81"
                     cy="266.59" rx="38.83" ry="21.7"/>

            <ellipse transform="matrix(0.2206 -0.9754 0.9754 0.2206 32.6346 568.9088)" class="st13" cx="372.29"
                     cy="264.03" rx="21.7" ry="2.86"/>

            <ellipse transform="matrix(0.1687 -0.9857 0.9857 0.1687 -140.1782 330.4875)" class="st13" cx="125.84"
                     cy="248.35" rx="21.7" ry="2.86"/>
	</g>
        <g>
		<path class="st21" d="M130.09,343.37c9.52,28.23,23.73,56.74,49.23,73.42c8.27,5.52,17.68,9.22,27.61,11.96
			c-1.84-0.05-3.95-0.19-5.81-0.32c-3.87-0.43-7.73-1.22-11.5-2.23C154.36,415.72,133.1,378.38,130.09,343.37L130.09,343.37z"/>
	</g>
        <g>
		<path class="st21" d="M136.5,407.4c4.28,10,10.81,18.51,19.27,25.15c0.87,0.6,3.19,2.28,4.07,2.92c1.39,0.82,2.93,1.79,4.3,2.67
			c1.47,0.76,3.07,1.61,4.52,2.43c2.04,1.07,4.18,1.93,6.26,3.12c-1.18-0.08-2.35-0.23-3.52-0.39c-8.34-1.09-16.31-4.94-22.55-10.56
			C141.82,426.28,136.61,417.05,136.5,407.4L136.5,407.4z"/>
	</g>
        <path class="st7" d="M165.29,456.62l38.45-6.1c3.82-0.61,6.45-4.23,5.85-8.05l-2.49-15.77c-0.6-3.83-4.23-6.46-8.05-5.85
		l-38.45,6.1c-3.82,0.61-6.45,4.23-5.85,8.05l2.49,15.77C157.84,454.59,161.46,457.22,165.29,456.62z"/>
        <path class="st7" d="M244.42,460.3l32.8,20.96c3.26,2.08,7.63,1.12,9.71-2.13l8.61-13.45c2.09-3.26,1.13-7.64-2.14-9.72L260.61,435
		c-3.26-2.08-7.63-1.12-9.71,2.13l-8.61,13.45C240.2,453.84,241.16,458.22,244.42,460.3z"/>
        <g>
		<path class="st21" d="M281.65,426.61c24.04-3.75,46.5-14.87,63.32-32.38c5.62-5.77,10.7-12.14,15.66-18.85
			c-2.68,7.91-6.83,15.33-12,22.04C333.14,417.34,306.98,429.99,281.65,426.61L281.65,426.61z"/>
	</g>
        <ellipse class="st21" cx="412.92" cy="357.24" rx="7.47" ry="73.64"/>
</g>
</svg>
