<?xml version="1.0" encoding="utf-8"?>
<!-- Generator: Adobe Illustrator 28.0.0, SVG Export Plug-In . SVG Version: 6.00 Build 0)  -->
<svg version="1.1" id="Шар_1" xmlns="http://www.w3.org/2000/svg" x="0px" y="0px"
     viewBox="0 0 512 512" style="enable-background:new 0 0 512 512;" xml:space="preserve">
<style type="text/css">
	.st0{fill:#161311;}
	.st1{fill:#232323;}
	.st2{fill:#FF8D00;}
	.st3{fill:#FFFFFF;}
	.st4{fill:#3D3D3D;}
	.st5{fill:#F1F1F1;stroke:#232323;stroke-width:4.5001;stroke-miterlimit:10;}
	.st6{fill:#353535;}
	.st7{fill:#F1F1F1;}
	.st8{fill:#FFD48F;}
	.st9{fill:#565656;}
	.st10{fill:#F1F1F1;stroke:#232323;stroke-width:8.7213;stroke-miterlimit:10;}
	.st11{fill:#C9C9C9;}
</style>
    <path class="st0" d="M189,12"/>
    <g>
	<g>
		<path class="st1" d="M359.03,172.51c0,0,44.91,92.21,87.82,135.15c5.58,5.58,3.24,16.62-3.15,14.85
			c-29.3-8.12-83.91-33.89-170.41-112.81L359.03,172.51z"/>
	</g>
        <g>
		<path class="st1" d="M158.26,182.56c0,0-49.52,89.55-94.55,130.01c-5.85,5.26-4.08,16.42,2.39,15.01
			c29.67-6.46,85.51-29.12,175.88-103.06L158.26,182.56z"/>
	</g>
        <g>
		<line class="st1" x1="259.47" y1="232.9" x2="374.03" y2="291.92"/>
	</g>
        <path class="st2" d="M181.74,505.27l35.09,0.53c9.05,0.14,16.57-7.15,16.71-16.2l0.09-5.8c0.14-9.06-7.15-16.59-16.21-16.73
		l-35.09-0.53c-9.05-0.14-16.57,7.15-16.71,16.2l-0.09,5.8C165.38,497.61,172.68,505.13,181.74,505.27z"/>
        <path class="st2" d="M295.64,507.47l35.09,0.53c9.05,0.14,16.57-7.15,16.71-16.2l0.09-5.8c0.14-9.06-7.15-16.59-16.21-16.73
		l-35.09-0.53c-9.05-0.14-16.57,7.15-16.71,16.2l-0.09,5.8C279.29,499.8,286.58,507.33,295.64,507.47z"/>
        <g>
		<path class="st1" d="M260.71,477.73c-182.4,18.6-102.94-287.26-102.94-287.26C136.07,30.21,255.88,29.55,255.89,29.54
			c0,0,119.77-3.45,101.54,157.49C357.43,187.03,443.44,490.05,260.71,477.73z"/>
	</g>
        <g>
		<path class="st3" d="M219.04,183.97l-33.8-25.68c-9.43-7.17-12.31-21.28-6.61-32.37l26.45-51.4c3.85-7.49,10.94-12.16,18.65-12.29
			l2.04-0.04c11.51-0.2,21.15,9.64,22.03,22.48l5.3,77.12C254.51,182.22,234.17,195.47,219.04,183.97z"/>
	</g>
        <g>
		<path class="st3" d="M297.91,182.62l33.23-26.83c9.28-7.49,11.85-21.7,5.91-32.59L309.5,72.72c-4.01-7.35-11.2-11.78-18.9-11.64
			l-2.04,0.04c-11.51,0.2-20.93,10.36-21.54,23.23l-3.64,77.27C262.41,182.08,283.03,194.63,297.91,182.62z"/>
	</g>
        <g>
		<path class="st2" d="M256.85,151.79c-8.92-0.75-16.08,12.07-16.08,12.07c-12.12,2.93-12.02,12.9-12.02,12.9
			s17.24,20.56,28.58,20.37c11.34-0.19,28.13-21.34,28.13-21.34s-0.11-9.97-12.29-12.49C273.18,163.3,265.75,150.73,256.85,151.79"
        />
	</g>
        <g>
		<path class="st4" d="M232.82,138.07c1-2.34,2.44-4.46,4-6.49c1.58-2.02,3.42-3.86,5.45-5.5c4.05-3.26,9.18-5.68,14.75-5.96
			c2.77-0.15,5.56,0.3,8.13,1.19c2.58,0.88,4.98,2.18,7.06,3.81c4.2,3.2,7.42,7.31,9.68,11.84c-3.84-3.29-7.64-6.4-11.76-8.65
			c-1-0.61-2.08-1.04-3.11-1.53c-0.53-0.22-1.07-0.38-1.6-0.59c-0.52-0.22-1.07-0.36-1.61-0.49c-2.16-0.58-4.36-0.87-6.56-0.74
			c-4.4,0.21-8.76,1.84-12.82,4.24C240.36,131.6,236.53,134.65,232.82,138.07z"/>
	</g>
        <path class="st5" d="M216.72,160.12L216.72,160.12c-12.01,0.21-21.95-10.62-22.1-24.06l-0.18-16.76
		c-0.14-13.44,9.56-24.61,21.57-24.81h0c12.01-0.21,21.95,10.62,22.1,24.06l0.18,16.76c0.03,3.15-0.47,6.17-1.42,8.95
		C233.77,153.37,225.92,159.96,216.72,160.12z"/>
        <path class="st5" d="M299.44,160.12L299.44,160.12c-12.01,0.21-21.95-10.62-22.1-24.06l-0.18-16.76
		c-0.14-13.44,9.56-24.61,21.57-24.81h0c12.01-0.21,21.95,10.62,22.1,24.06l0.18,16.76c0.03,3.15-0.47,6.17-1.42,8.95
		C316.49,153.37,308.64,159.96,299.44,160.12z"/>
        <path class="st6" d="M300,151.7l-3.24,0.06c-4.6,0.08-8.4-4.08-8.46-9.24l-0.13-11.94c-0.06-5.17,3.66-9.46,8.26-9.54l3.24-0.06
		c4.6-0.08,8.4,4.08,8.46,9.24l0.13,11.94C308.31,147.33,304.59,151.63,300,151.7z"/>
        <path class="st6" d="M217.64,153.12l-3.24,0.06c-4.6,0.08-8.4-4.08-8.46-9.24l-0.13-11.94c-0.06-5.17,3.66-9.46,8.26-9.54
		l3.24-0.06c4.6-0.08,8.4,4.08,8.46,9.24l0.13,11.94C225.96,148.75,222.24,153.04,217.64,153.12z"/>

        <ellipse transform="matrix(0.0146 -0.9999 0.9999 0.0146 163.6805 413.905)" class="st7" cx="291.84" cy="123.91"
                 rx="6.98" ry="6.24"/>

        <ellipse transform="matrix(0.0146 -0.9999 0.9999 0.0146 79.8628 331.7268)" class="st7" cx="208.23" cy="125.34"
                 rx="6.98" ry="6.24"/>
        <g>
		<path class="st3" d="M245.92,222.1c-7.57-3.31-17.58-7.7-27.85-12.19c-22.42-9.82-46.46,9.71-45.11,36.64l7.11,141.91
			c0.69,13.73,8.13,25.88,19.33,31.53l47.38,23.91c8.93,4.51,19.21,4.33,28.04-0.48c13.19-7.19,32.68-17.81,46.85-25.53
			c11.07-6.03,18.24-18.42,18.64-32.18l4.06-142.1c0.77-26.97-23.68-45.66-45.88-35.07l-27.58,13.14
			C262.94,225.47,253.97,225.63,245.92,222.1z"/>
	</g>
        <g>
		<path class="st6" d="M233.72,173.79c3.34,3.42,7.17,6.28,11.33,8.34c4.16,2.03,8.76,3.1,13.3,2.69c2.27-0.17,4.51-0.67,6.67-1.44
			c2.15-0.81,4.25-1.79,6.24-3.02c4.01-2.4,7.62-5.51,11.11-8.79c-2.78,3.9-6.14,7.46-10.15,10.26l-1.51,1.04
			c-0.52,0.32-1.07,0.61-1.6,0.91c-0.53,0.31-1.07,0.6-1.64,0.84c-0.56,0.25-1.12,0.53-1.69,0.76c-2.31,0.89-4.76,1.47-7.25,1.69
			c-2.49,0.18-5.02-0.01-7.44-0.6c-2.41-0.62-4.73-1.54-6.85-2.78C239.99,181.21,236.35,177.81,233.72,173.79z"/>
	</g>

        <ellipse transform="matrix(0.9998 -0.0219 0.0219 0.9998 -3.6337 5.6854)" class="st8" cx="257.37" cy="168.5"
                 rx="7.49" ry="4.89"/>

        <ellipse transform="matrix(0.2599 -0.9656 0.9656 0.2599 167.7487 309.4464)" class="st9" cx="285.75" cy="45.29"
                 rx="6.99" ry="13.27"/>
        <line class="st10" x1="316.89" y1="104.88" x2="328.16" y2="91.35"/>
        <line class="st10" x1="198.99" y1="104.88" x2="187.71" y2="91.35"/>
        <path class="st1" d="M231.66,39.39c0,0,22.24-12.55,24.58-27.39c0,0,22.24,11.41,19.9,22.82
		C273.81,46.23,231.66,39.39,231.66,39.39z"/>
        <path class="st11" d="M241.31,252.78c0,6.93-5.77,12.55-12.88,12.55c-7.11,0-12.88-5.62-12.88-12.55"/>
        <path class="st11" d="M298.67,252.78c0,6.93-5.77,12.55-12.88,12.55s-12.88-5.62-12.88-12.55"/>
        <path class="st11" d="M270.58,279.03c0,6.93-5.77,12.55-12.88,12.55c-7.11,0-12.88-5.62-12.88-12.55"/>
</g>
</svg>
