<?xml version="1.0" encoding="utf-8"?>
<!-- Generator: Adobe Illustrator 28.0.0, SVG Export Plug-In . SVG Version: 6.00 Build 0)  -->
<svg version="1.1" xmlns="http://www.w3.org/2000/svg" x="0px" y="0px"
     viewBox="0 0 512 512" style="enable-background:new 0 0 512 512;" xml:space="preserve">
<style type="text/css">
	.st0{fill:#D3E0FD;stroke:#FFFFFF;stroke-miterlimit:10;}
	.st1{fill:#999999;}
	.st2{fill:#7C5A29;}
	.st3{fill:#443117;}
	.st4{fill:#604B31;}
	.st5{fill:#8C6C48;}
	.st6{fill:#68513A;}
	.st7{fill:none;stroke:#68513A;stroke-width:0.8291;stroke-miterlimit:10;}
	.st8{fill:#2D231A;}
	.st9{fill:#422918;}
	.st10{fill:#D9D9D9;}
	.st11{opacity:0.2;fill:#FFFFFF;enable-background:new    ;}
	.st12{fill:#B7793E;}
	.st13{fill:#C6C6C5;}
	.st14{fill:#251403;}
	.st15{fill:#FE8E00;}
	.st16{fill:#232323;}
	.st17{fill:#FFFFFF;}
	.st18{fill:#C9C9C9;}
	.st19{fill:url(#SVGID_1_);}
	.st20{fill:#C4BB83;}
	.st21{fill:#555558;}
	.st22{fill:none;}
	.st23{fill:#FF8D00;}
	.st24{fill:#353535;}
	.st25{fill:#FFD48F;}
	.st26{fill:#D1334A;}
	.st27{fill:none;stroke:#AD5C6C;stroke-width:0.8117;stroke-miterlimit:10;}
	.st28{fill:none;stroke:#AD5C6C;stroke-width:0.8117;stroke-miterlimit:10;stroke-dasharray:4.0623,4.0623;}
	.st29{fill:#DD8599;}
	.st30{fill:#FFD3AE;}
	.st31{fill:#FFF4C0;}
	.st32{fill:#FFFCC0;}
	.st33{fill:none;stroke:#000000;stroke-width:1.1848;stroke-miterlimit:10;}
</style>
    <g id="Layer_2">
	<circle class="st0" cx="248.6" cy="249.8" r="140"/>
</g>
    <g id="Шар_1">
	<g>
		<rect x="690.7" y="62.2" class="st1" width="124.3" height="71.2"/>
        <rect x="681" y="70.8" class="st2" width="124.3" height="71.2"/>
        <polygon class="st3" points="681,70.8 690.7,62.2 815,62.2 805.3,70.8 		"/>
        <polygon class="st3" points="815,133.4 805.3,142 805.3,70.8 815,62.2 		"/>
	</g>

        <ellipse transform="matrix(0.7501 -0.6614 0.6614 0.7501 158.2694 552.4996)" class="st4" cx="810.1" cy="66.8"
                 rx="5.4" ry="0.7"/>
        <ellipse class="st4" cx="752.8" cy="65.2" rx="31.6" ry="1"/>
        <ellipse class="st4" cx="809.8" cy="106.4" rx="1.5" ry="28.3"/>
        <ellipse class="st5" cx="766.6" cy="125.5" rx="19.4" ry="13.2"/>
        <ellipse class="st5" cx="773.7" cy="105.7" rx="6.3" ry="4"/>
        <ellipse class="st5" cx="780.8" cy="92.2" rx="4.5" ry="3"/>
        <ellipse class="st5" cx="763.6" cy="87.9" rx="3.7" ry="3.3"/>
        <ellipse class="st5" cx="790.8" cy="80.3" rx="2.6" ry="2.3"/>
        <ellipse class="st5" cx="777" cy="83.3" rx="2.2" ry="2"/>
        <g>
		<path class="st6" d="M726.8,66.9c-1-12.2,9.7-29.5,23.5-22.4c7.7,4.5,11,14,10.9,22.4l-0.5,0.2c-1.9-4-3.9-8-6.5-11.5
			c-9.3-13-18.1-5.5-24,5.6c-1.1,1.9-2,3.9-2.9,6L726.8,66.9L726.8,66.9z"/>
	</g>
        <path class="st7" d="M725.8,66.6"/>
        <ellipse class="st8" cx="727.5" cy="65.8" rx="2.2" ry="2"/>
        <ellipse class="st8" cx="760.6" cy="65.8" rx="2.2" ry="2"/>
        <g>
		<path class="st9" d="M507.6,459.8c0,5.4-4.4,9.8-9.8,9.8H325.7c-5.4,0-9.8-4.4-9.8-9.8V343.7c0-5.4,4.4-9.7,9.8-9.7h172.2
			c5.4,0,9.8,4.4,9.8,9.7L507.6,459.8L507.6,459.8z"/>
            <path class="st10" d="M971.5,287.3c-21.8,9.6-46.7,11.6-70.1,7.2c-14-2.6-27.8-7.4-39.8-15.1c-13.4-8.6-23.9-21.2-32.1-34.8
			c-9.6-16.1-17.8-36.4-19.3-56.5h-7.4c-5.4,0-9.8,4.4-9.8,9.7V314c0,5.4,4.4,9.8,9.8,9.8H975c5.4,0,9.8-4.4,9.8-9.8v-34
			C980.6,282.8,976.2,285.3,971.5,287.3z"/>
            <path class="st11" d="M483.3,342.9h-71.5c6.3,6.3,12.1,13,17.5,20c10.9,14.3,19.6,30.1,24.6,47.4c1.8,6.5,3.2,13,4,19.5
			c12.4-2.1,24.1-6.6,33.8-13.7v-65C491.6,346.6,487.9,342.9,483.3,342.9z"/>
            <g>
			<g>
				<rect x="348.8" y="333.9" class="st12" width="17.9" height="135.6"/>
                <rect x="357.7" y="333.9" class="st13" width="8.9" height="135.6"/>
			</g>
                <g>
				<rect x="456.9" y="333.9" class="st12" width="17.9" height="135.6"/>
                    <rect x="465.9" y="333.9" class="st13" width="8.9" height="135.6"/>
			</g>
		</g>
            <path class="st14" d="M388.8,333.9v-8.6c0-3.4,2.7-6.1,6.1-6.1h33.8c3.4,0,6.1,2.7,6.1,6.1v8.6h13.8v-17.1c0-5.4-4.4-9.8-9.8-9.8
			h-54.1c-5.4,0-9.8,4.4-9.8,9.8v17.1H388.8z"/>
	</g>

        <ellipse transform="matrix(0.1225 -0.9925 0.9925 0.1225 -153.9996 736.4515)" class="st15" cx="339.5" cy="455.3"
                 rx="18.7" ry="44"/>

        <ellipse transform="matrix(0.9925 -0.1225 0.1225 0.9925 -54.7156 25.4488)" class="st15" cx="179.6" cy="457.7"
                 rx="44" ry="18.7"/>
        <g>
		<path class="st16"
              d="M282.5,168.6c200.2,322.6-28.8,292.1-28.8,292.1c-220.6,10.9-26.4-291.5-26.4-291.5L282.5,168.6z"/>
	</g>
        <g>
		<path class="st16" d="M232.6,168.8c0,0-133.9,88.7-127.9,195.6c0.4,7.8,12,9.4,16.3,2.4c24.7-40.2,81.8-122.7,137.4-125.3
			C332.1,238.1,232.6,168.8,232.6,168.8z"/>
	</g>
        <path class="st17"
              d="M227.6,187.2c-3.3,0.4-157.4,260.3,32.4,251.7c128.2-5.8,15.5-302.9,25.5-300.3L227.6,187.2z"/>
        <path class="st18" d="M245,270.2c0,7.3-5.9,13.3-13.3,13.3s-13.3-6-13.3-13.3"/>
        <path class="st18" d="M304.2,270.2c0,7.3-6,13.3-13.3,13.3s-13.3-6-13.3-13.3"/>
        <path class="st18" d="M275.2,298c0,7.3-6,13.3-13.3,13.3s-13.3-6-13.3-13.3"/>

        <linearGradient id="SVGID_1_" gradientUnits="userSpaceOnUse" x1="204.2457" y1="721.4944" x2="94.9184"
                        y2="556.8801" gradientTransform="matrix(1 0 0 1 0 -330)">
		<stop offset="0.3084" style="stop-color:#FCE3A6"/>
            <stop offset="0.7382" style="stop-color:#FBBE82"/>
            <stop offset="1" style="stop-color:#E59D5C"/>
	</linearGradient>
        <path class="st19" d="M13.4,244.9l150.1-25.5c0,0,4.2,43.8,49.1,81s98.3,54.7,98.3,54.7l-192.3,49.1c0,0-60.8-37.7-93.5-85.5
		S5.4,251.5,13.4,244.9z"/>
        <path class="st20" d="M159.8,368.5c0,0,42.3,37.9,128-39"/>
        <g>
		<path class="st16" d="M324.2,205.8c29.2,21.2,32,63.8,6.5,89.3c-37.1,37.2-99.3,85.7-166.3,79.3c-7.8-0.8-8.9-12.3-1.6-16.4
			c41.4-23,126.5-76.5,131.5-131.8C297.1,195.6,310,195.5,324.2,205.8z"/>
	</g>
        <g>
		<path class="st21" d="M282,66.9c26.9,11.6,50,36.2,55.7,65.4c0.9,4.2,1.2,8.4,1.3,12.6c-1.4-7.2-3.2-14.2-6-21
			C323.1,99.7,303.7,80.7,282,66.9L282,66.9z"/>
	</g>
        <g>
		<path class="st22" d="M165.7,194.1"/>
	</g>
        <path class="st16" d="M359.1,130.2c0,57.8-42.7,94.1-103.5,94.1s-108.2-33.6-108.2-91.5S196.6,28.2,257.5,28.2
		S359.1,72.4,359.1,130.2z"/>
        <path class="st17" d="M338.6,145.9c0,45.6-30.3,79.6-82.3,79.6s-94.1-37-94.1-82.6s64.8-116.5,84.6,17.4
		C282.7,27.8,338.6,100.3,338.6,145.9z"/>
        <g>
		<path class="st16" d="M282.9,47.5L226.6,43c0,0,23.5-9.9,29.6-25.6c0.7-1.8,1.1-3.6,1.3-5.5c0.3-3,3.4-4.7,5.8-3.1
			c5.9,3.8,14.4,10.6,18.5,19.5C284.4,33.9,285.3,40.3,282.9,47.5z"/>
            <path class="st21" d="M281.8,28.3c-8.3-6.6-18.7-9.6-25.6-10.9c0.7-1.8,1.1-3.6,1.3-5.5c0.3-3,3.4-4.7,5.8-3.1
			C269.1,12.6,277.6,19.3,281.8,28.3z"/>
	</g>
        <g>
		<g>
			<path class="st23" d="M242.8,146.6c-10.3-0.8-18.6,12-18.6,12c-14,2.9-13.9,12.8-13.9,12.8s19.9,20.4,33.1,20.2
				c13.1-0.2,32.5-21.1,32.5-21.1s-0.1-9.9-14.2-12.4C261.7,158,253.1,145.5,242.8,146.6"/>
		</g>
            <g>
			<path class="st24" d="M216.1,174.1c8.5,4.1,18.1,5.8,27.5,5.4c1.2-0.1,3-0.3,4.2-0.4c1.1-0.1,3.9-0.7,5.1-0.9
				c1.1-0.3,3.9-1,5-1.3c1.1-0.4,3.7-1.3,4.9-1.7c2.2-0.8,4.2-1.8,6.4-2.7c-2,1.2-4,2.5-6,3.5c-1.2,0.5-3.7,1.7-4.8,2.1
				c-1.6,0.5-3.4,1.1-5,1.6l-3.4,0.7c-1.7,0.4-3.6,0.5-5.2,0.7C234.7,182.1,224.3,179.8,216.1,174.1L216.1,174.1z"/>
		</g>

            <ellipse transform="matrix(0.9999 -1.569927e-02 1.569927e-02 0.9999 -2.5306 3.8414)" class="st25" cx="243.4"
                     cy="163.1" rx="8.7" ry="4.8"/>
	</g>

        <ellipse transform="matrix(0.1548 -0.9879 0.9879 0.1548 178.519 351.075)" class="st21" cx="294.4" cy="71.2"
                 rx="5.4" ry="16.3"/>

        <ellipse transform="matrix(0.9999 -1.569927e-02 1.569927e-02 0.9999 -1.0253 3.3947)" class="st21" cx="215.7"
                 cy="67" rx="16.3" ry="5.4"/>
        <path class="st26" d="M121.9,352c-5.1,0-9.2,4.3-9.2,9.7c0,5.3,3.2,12.9,9.2,19.8c6.4-7.8,9.2-14.5,9.2-19.8
		C131.1,356.3,127,352,121.9,352z M121.9,366.3c-2.7,0-4.8-2.2-4.8-4.8s2.2-4.8,4.8-4.8s4.8,2.2,4.8,4.8S124.6,366.3,121.9,366.3z"
        />
        <path class="st26" d="M154.5,244.5c-5.1,0-9.2,4.3-9.2,9.7c0,5.3,3.2,12.9,9.2,19.8c6.4-7.8,9.2-14.5,9.2-19.8
		C163.7,248.8,159.6,244.5,154.5,244.5z M154.5,258.8c-2.7,0-4.8-2.2-4.8-4.8c0-2.7,2.2-4.8,4.8-4.8s4.8,2.2,4.8,4.8
		C159.4,256.6,157.2,258.8,154.5,258.8z"/>
        <g>
		<g>
			<path class="st27" d="M113.9,381.5c-0.6-0.4-1.2-0.7-1.7-1.1"/>
            <path class="st28" d="M108.8,378.1c-25.3-17.2-37.9-35.4-33.6-46.2c3.5-8.6,17.7-11.8,26.6-12.1c28.8-1,38.9,26.4,60.4,23
				c17.3-2.8,31.9-24,27.8-33.8c-2.5-6-12-7.7-31.4-8.5c-68.8-2.6-101.5,13.6-113.5-1.2c-6.9-8.5-4.9-24.5,2.4-31.4
				c5.9-5.6,16.4-6.2,73.7,10.9c34.4,10.2,51.4,16.6,53.1,13.3c0.8-1.6-1.6-5.5-14.9-15.7"/>
            <path class="st27" d="M157.8,275.2c-0.5-0.4-1.1-0.8-1.6-1.2"/>
		</g>
	</g>
        <ellipse class="st29" cx="126" cy="355.5" rx="1.2" ry="1.8"/>
        <ellipse class="st29" cx="158.6" cy="248" rx="1.2" ry="1.8"/>
        <ellipse class="st21" cx="344.6" cy="370" rx="4.8" ry="44.1"/>

        <ellipse transform="matrix(0.7071 -0.7071 0.7071 0.7071 -115.3629 311.7265)" class="st21" cx="318.6" cy="295.1"
                 rx="32" ry="3"/>
        <ellipse transform="matrix(0.9879 -0.1552 0.1552 0.9879 -36.5695 16.7843)" class="st30" cx="89.2" cy="242.6"
                 rx="61" ry="4.8"/>
        <g>
		<path class="st30" d="M16.1,248.6c-6.5,13.3-3.2,28.9,2.1,42c0.2,0.5,0.6,1.5,0.9,2c0.6,1.3,2.2,4.6,2.8,5.9l2.1,3.8
			c2,3.9,4.5,7.6,6.6,11.4c-4.8-5.6-9.2-11.7-12.5-18.3C10.8,282,6.5,262,16.1,248.6L16.1,248.6z"/>
	</g>
        <g>
		<path class="st30"
              d="M159.8,224.4c3.8,13.6,9.7,35.4,20.5,44.7C168.7,260.7,162.5,238.1,159.8,224.4L159.8,224.4z"/>
	</g>

        <ellipse transform="matrix(0.9672 -0.254 0.254 0.9672 -83.0408 80.6783)" class="st31" cx="270.9" cy="361.9"
                 rx="33.3" ry="1.5"/>
        <ellipse class="st32" cx="205.7" cy="322.3" rx="6" ry="4.8"/>
        <ellipse class="st32" cx="203.9" cy="311.4" rx="3" ry="2.4"/>
        <circle class="st32" cx="197.9" cy="304.8" r="1.8"/>
        <circle class="st32" cx="205.7" cy="301.7" r="1.2"/>
        <ellipse class="st32" cx="286" cy="352.5" rx="3" ry="2.4"/>
        <ellipse class="st32" cx="274.5" cy="351.9" rx="2.4" ry="1.8"/>
        <g>
		<ellipse transform="matrix(0.9999 -1.260052e-02 1.260052e-02 0.9999 -1.6785 3.5867)" cx="283.8" cy="135"
                 rx="10.2" ry="12.1"/>
	</g>

        <ellipse transform="matrix(1 -1.227203e-03 1.227203e-03 1 -0.157 0.3399)" class="st17" cx="276.9" cy="128.1"
                 rx="4.9" ry="4.5"/>
        <ellipse class="st33" cx="287.6" cy="129.4" rx="17.3" ry="20.9"/>
        <g>
		
			<ellipse transform="matrix(0.9999 -1.260052e-02 1.260052e-02 0.9999 -1.6811 2.5736)" cx="203.4" cy="134.7"
                     rx="10.2" ry="12.1"/>
	</g>

        <ellipse transform="matrix(1 -1.227203e-03 1.227203e-03 1 -0.1567 0.2411)" class="st17" cx="196.4" cy="127.8"
                 rx="4.9" ry="4.5"/>
        <ellipse class="st33" cx="207.2" cy="129.1" rx="17.3" ry="20.9"/>
</g>
</svg>
