<?xml version="1.0" encoding="utf-8"?>
<!-- Generator: Adobe Illustrator 28.0.0, SVG Export Plug-In . SVG Version: 6.00 Build 0)  -->
<svg version="1.1" id="Шар_1" xmlns="http://www.w3.org/2000/svg" x="0px" y="0px"
     viewBox="0 0 512 512" style="enable-background:new 0 0 512 512;" xml:space="preserve">
<style type="text/css">
	.st0{fill:#232323;}
	.st1{fill:#B6E7FF;}
	.st2{fill:#687999;}
	.st3{fill:#36466B;}
	.st4{fill:#D7EFF9;}
	.st5{fill:none;stroke:#3990B2;stroke-width:4.0739;stroke-miterlimit:10;}
	.st6{fill:#8080A0;}
	.st7{fill:#1E1E4C;}
	.st8{fill:#FFFFFF;}
	.st9{fill:#555558;}
	.st10{fill:none;}
	.st11{fill:#FF8D00;}
	.st12{fill:#FFD48F;}
	.st13{display:none;}
	.st14{display:none;fill:none;stroke:#000000;stroke-width:0.9476;stroke-miterlimit:10;}
	.st15{display:inline;}
	.st16{display:inline;fill:#FFFFFF;}
	.st17{display:inline;fill:none;stroke:#000000;stroke-width:0.9476;stroke-miterlimit:10;}
	.st18{fill:#FE8E00;}
	.st19{fill:#353535;}
	.st20{fill:#2D2D2B;}
	.st21{fill:#414140;}
	.st22{fill:#1D1D1B;}
	.st23{fill:#242422;}
	.st24{fill:#E5332A;}
	.st25{fill:#B02A1E;}
	.st26{opacity:0.5;fill:#F5F5F5;}
	.st27{fill:#922416;}
	.st28{fill:none;stroke:#000000;stroke-width:1.1848;stroke-miterlimit:10;}
</style>
    <g>
	<path class="st0" d="M274.76,191.71C345.75,518.88,165.1,438.98,165.1,438.98c-165.55-51.45,61.26-262.74,61.26-262.74
		L274.76,191.71z"/>
</g>
    <path class="st0" d="M401.19,303.52l-8.36,20.79c-0.71,0.11-1.42,0.21-2.14,0.31c-0.81,0.11-1.63,0.21-2.44,0.29
	c-1.93,0.22-3.85,0.4-5.78,0.53c-87.48,5.92-177.13-76.84-177.13-76.84s40.6-103.78,59.74-38.73
	c12.87,43.74,82.91,74.92,127.4,90.66c1.6,0.56,3.17,1.1,4.7,1.63c0.8,0.28,1.59,0.55,2.37,0.8
	C400.11,303.15,400.66,303.34,401.19,303.52z"/>
    <path class="st1" d="M445.46,244.99c-7.15,13.49-17.03,20.17-24.94,18.03c-0.08-0.01-0.14-0.03-0.22-0.06
	c-0.6-0.18-1.19-0.4-1.77-0.68c-0.18-0.08-0.37-0.18-0.55-0.28c-0.19-0.09-0.37-0.2-0.55-0.31c-1.02-0.63-2-1.46-2.91-2.47
	c-0.29-0.31-0.57-0.65-0.83-0.99c-8.09-10.5-7.01-33.46,2.43-51.28c6.11-11.53,14.23-18.08,21.37-18.41
	c2.57-0.13,5.01,0.55,7.2,2.07c0.66,0.47,1.3,1.01,1.91,1.64c0.43,0.45,0.86,0.92,1.27,1.46
	C455.99,204.21,454.9,227.17,445.46,244.99z"/>
    <g>
	<path class="st2" d="M448.6,242.01c-6.51,13.44-16.33,20.47-24.59,18.81c-0.63-0.13-1.24-0.3-1.85-0.53
		c-0.39-0.13-0.77-0.3-1.15-0.49c-0.92-0.45-1.82-1.04-2.67-1.75c8.22,1.49,17.9-5.53,24.36-18.85c8.52-17.59,8.19-39.5-0.77-48.93
		c-0.46-0.48-0.92-0.91-1.39-1.3c1.33,0.23,2.61,0.69,3.84,1.37c1.21,0.68,2.37,1.59,3.45,2.73
		C456.79,202.51,457.13,224.42,448.6,242.01z"/>
</g>
    <g>
	<path class="st2" d="M444.71,188.39c-2.19-1.53-4.63-2.2-7.2-2.07c-7.15,0.33-15.26,6.88-21.37,18.41
		c-9.44,17.82-10.52,40.79-2.43,51.28c1.14,1.47,2.39,2.63,3.74,3.46c0.36,0.22,0.72,0.42,1.09,0.59c0.58,0.28,1.17,0.5,1.77,0.68
		c-2.29,0.38-4.56,0.28-6.75-0.38c-12.6-3.77-17.63-24.2-11.23-45.64c6.41-21.45,21.82-35.78,34.43-32.01
		C439.9,183.65,442.57,185.63,444.71,188.39z"/>
</g>
    <path class="st3" d="M424.65,264.51c-1.18,0-2.35-0.15-3.49-0.45c-0.11-0.02-0.22-0.05-0.33-0.08c-0.76-0.23-1.47-0.5-2.13-0.82
	c-0.16-0.07-0.39-0.18-0.61-0.31c-0.24-0.12-0.47-0.26-0.7-0.4c-1.21-0.75-2.35-1.72-3.38-2.87c-0.3-0.32-0.62-0.71-0.93-1.11
	c-8.71-11.3-7.73-34.86,2.22-53.66c6.29-11.87,14.97-19.19,23.21-19.58c3.08-0.16,5.98,0.67,8.56,2.46c0.8,0.57,1.55,1.21,2.23,1.9
	c0.53,0.55,1,1.09,1.44,1.66c8.71,11.28,7.73,34.85-2.23,53.65l0,0C442,257.22,432.96,264.51,424.65,264.51z M422.05,259.75
	l0.17,0.04c7.04,1.9,16.04-4.91,22.42-16.94l0,0c9.06-17.11,10.24-39.05,2.63-48.91c-0.34-0.44-0.7-0.85-1.1-1.27
	c-0.5-0.5-1.04-0.97-1.62-1.38c-1.74-1.21-3.71-1.78-5.81-1.66c-6.59,0.31-14.07,6.92-19.55,17.25
	c-9.06,17.1-10.24,39.04-2.63,48.91c0.22,0.29,0.46,0.57,0.7,0.84c0.77,0.87,1.59,1.56,2.45,2.1c0.12,0.07,0.22,0.14,0.33,0.19
	l0.14,0.07c0.11,0.06,0.23,0.13,0.34,0.18C421.06,259.42,421.53,259.6,422.05,259.75C422.04,259.75,422.05,259.75,422.05,259.75z"/>
    <ellipse transform="matrix(0.2296 -0.9733 0.9733 0.2296 101.9372 592.1679)" class="st4" cx="425.04" cy="231.69"
             rx="14.29" ry="8.63"/>
    <ellipse transform="matrix(0.6667 -0.7453 0.7453 0.6667 -15.6983 387.6126)" class="st4" cx="425.52" cy="211.36"
             rx="3.61" ry="3.33"/>
    <polyline class="st5" points="418.35,261.18 416.72,265.7 413.14,275.6 "/>
    <g>
	<path class="st6" d="M420.8,272.48c0,0.88-0.14,1.8-0.46,2.68l-13.15,36.34l-11.88,32.89l-7.07,19.56
		c-1.33,3.72-5.16,5.53-8.48,4.03c-3.34-1.5-4.97-5.74-3.62-9.46l4.46-12.34l14.24-39.41l13.38-37.05c1.34-3.72,5.16-5.53,8.49-4.03
		C419.25,266.84,420.8,269.59,420.8,272.48z"/>
</g>
    <ellipse transform="matrix(0.3396 -0.9406 0.9406 0.3396 -41.5116 588.3605)" class="st7" cx="398.23" cy="323.74"
             rx="37.1" ry="1.95"/>
    <path class="st0" d="M397.18,306.74c2.96-0.59,5.91-1.1,8.87-1.51c5.32-0.75,9.3,4.62,6.87,9.26l-4.77,9.13
	c-1.57,3.01-5.28,4.33-8.49,3.02c-0.78-0.32-1.54-0.63-2.3-0.93C388.23,321.99,388.08,308.57,397.18,306.74z"/>
    <g>
	<path class="st0" d="M224.18,196.22c0,0-144.02,34.1-172.89,128.54c-2.1,6.86,7.38,11.97,13.38,7.23
		c34.14-26.97,109.77-80.08,158.72-64.64C288.24,287.79,224.18,196.22,224.18,196.22z"/>
</g>
    <path class="st8"
          d="M214.39,190.28c0,0-159.97,208.22-16.04,233.34C316.8,444.3,275.4,156.78,275.4,156.78L214.39,190.28z"/>
    <g>
	<path class="st9" d="M303.68,102.5c20.33,17.95,33.39,46.01,29.85,73.36c-0.48,3.88-1.41,7.69-2.56,11.39
		c0.84-6.7,1.25-13.39,0.73-20.11C330.05,143.16,318.65,120.97,303.68,102.5L303.68,102.5z"/>
</g>
    <g>
	<path class="st10" d="M165.16,180.21"/>
</g>
    <path class="st0" d="M359.68,185.05c-16.72,50.59-71.37,65.19-124.64,47.58s-84.99-60.76-68.27-111.35s73.47-77.32,126.74-59.71
	S376.41,134.46,359.68,185.05z"/>
    <path class="st8" d="M350.05,185.2c-13.19,39.91-66.08,64.85-111.57,49.81s-49.35-66.66-36.4-98.73
	c13.19-39.91,95.43-80.88,74.03,42.06C345.91,72.67,364.73,140.81,350.05,185.2z"/>
    <g>
	<path class="st0" d="M310.13,85.86l-48.02-20.29c0,0,23.39-1.84,33.27-13.85c1.11-1.36,2.05-2.84,2.76-4.46
		c1.12-2.52,4.3-3.17,5.97-1.07c4.03,5.07,9.5,13.42,10.57,22.47C315.38,74.33,314.32,80.28,310.13,85.86z"/>
        <path class="st9" d="M314.68,68.66c-5.32-8.21-13.61-13.81-19.29-16.94c1.11-1.36,2.05-2.84,2.76-4.46
		c1.12-2.52,4.3-3.17,5.97-1.07C308.15,51.27,313.62,59.62,314.68,68.66z"/>
</g>
    <g>
	<path class="st11" d="M282.28,165.76c-8.81-3.64-19.73,5.09-19.73,5.09c-13.11-1.51-15.86,7.17-15.86,7.17s11.55,23.6,23.08,27.22
		c11.53,3.62,34.58-9.1,34.58-9.1s2.75-8.69-8.85-14.94C295.5,181.21,291.59,167.82,282.28,165.76L282.28,165.76z"/>
</g>
    <ellipse transform="matrix(0.2989 -0.9543 0.9543 0.2989 28.5467 390.8042)" class="st12" cx="280.24" cy="175.97"
             rx="4.46" ry="7.98"/>
    <ellipse transform="matrix(0.3028 -0.9531 0.9531 0.3028 7.0821 373.6736)" class="st13" cx="258.94" cy="182"
             rx="8.22" ry="6.81"/>
    <ellipse transform="matrix(0.297 -0.9549 0.9549 0.297 46.9012 349.1047)" class="st8" cx="260.53" cy="142.7" rx="4.1"
             ry="3.89"/>
    <ellipse transform="matrix(0.3139 -0.9495 0.9495 0.3139 7.0371 364.1198)" class="st14" cx="255.45" cy="177.19"
             rx="15.24" ry="12.64"/>
    <g class="st13">
	<g class="st15">
		<ellipse transform="matrix(0.3623 -0.9321 0.9321 0.3623 8.6078 407.6219)" cx="302.19" cy="197.52" rx="8.22"
                 ry="6.81"/>
	</g>

        <ellipse transform="matrix(0.3566 -0.9343 0.9343 0.3566 16.097 407.0721)" class="st16" cx="303.58" cy="191.85"
                 rx="2.95" ry="2.79"/>

        <ellipse transform="matrix(0.3731 -0.9278 0.9278 0.3731 9.0865 398.1594)" class="st17" cx="299.17" cy="192.36"
                 rx="15.24" ry="12.64"/>
</g>
    <ellipse transform="matrix(0.2598 -0.9657 0.9657 0.2598 132.4607 402.636)" class="st9" cx="328.86" cy="114.92"
             rx="5.01" ry="15.03"/>
    <ellipse transform="matrix(0.3731 -0.9278 0.9278 0.3731 82.5778 319.9044)" class="st9" cx="278.01" cy="98.85"
             rx="5.01" ry="15.03"/>
    <ellipse transform="matrix(0.3856 -0.9227 0.9227 0.3856 -42.7695 567.8668)" class="st9" cx="405.02" cy="316.05"
             rx="8.14" ry="2.38"/>
    <ellipse transform="matrix(0.9443 -0.329 0.329 0.9443 -142.2743 127.1882)" class="st18" cx="304.64" cy="483.94"
             rx="40.59" ry="17.24"/>
    <ellipse transform="matrix(0.3731 -0.9278 0.9278 0.3731 -384.8804 395.8879)" class="st18" cx="100.51" cy="482.75"
             rx="17.24" ry="40.59"/>
    <g>
	<path class="st19" d="M295.78,196.49c-9.55-0.62-19.05-2.75-27.75-6.81c-2.39-1.3-6.81-3.41-6.76-6.55
		c0.14,0.81,0.72,1.36,1.29,1.83c4.5,3.02,10.02,4.18,15.13,5.85C283.04,192.45,290.58,194.57,295.78,196.49L295.78,196.49z"/>
</g>
    <circle class="st0" cx="229.34" cy="280.54" r="7.79"/>
    <circle class="st0" cx="217.1" cy="322.84" r="7.79"/>
    <circle class="st0" cx="204.85" cy="368.48" r="7.79"/>
    <g>
	
		<ellipse transform="matrix(0.297 -0.9549 0.9549 0.297 114.9197 334.1422)" class="st20" cx="284.38" cy="89.03"
                 rx="35.82" ry="107.03"/>
        <path class="st21" d="M205.79,60.69c4.59-14.77,42.52-16.24,86.17-3.82c-1.88-0.63-3.77-1.25-5.69-1.84
		C240.06,40.65,198.71,41.54,193.9,57c-4.81,15.46,28.75,39.64,74.96,54.01c2.08,0.65,4.14,1.26,6.2,1.84
		C231.82,98.34,201.19,75.51,205.79,60.69z"/>
        <path class="st22" d="M295.02,54.83c-22.05-6.86-43.2-10.87-61.13-12.09c14.75,2.31,31.14,6.11,48.13,11.4
		c56.44,17.55,98.17,44.75,93.2,60.74c-4.97,15.99-54.76,14.73-111.21-2.83c-30.61-9.52-56.88-21.87-73.73-33.74
		c14.38,15.8,45.41,33.08,83.47,44.92c56.44,17.55,106.96,16.47,112.84-2.42C392.45,101.92,351.46,72.38,295.02,54.83z"/>
        <path class="st20" d="M217.13,57.37l24.05-38.65c0,0,18.46-31.23,40.04-9.21c0,0,16.91,19.47,47.55,15.88
		c0,0,22.05-4.08,30.36,14.91l-1.41,60.8C357.72,101.09,279.44,117.21,217.13,57.37z"/>
        <path class="st23" d="M255.88,58.69c31.91-12.85,68.66-21.11,103.48-16.97l0.03-1.35c-8.31-18.99-30.36-14.91-30.36-14.91
		c-30.64,3.59-47.55-15.88-47.55-15.88c-21.58-22.02-40.04,9.21-40.04,9.21l-24.05,38.65c5.56,5.34,11.25,10.07,17,14.27
		C240.62,66.44,247.68,61.99,255.88,58.69z"/>
        <path class="st22" d="M243.04,25.85c0,0,18.46-31.23,40.04-9.21c0,0,16.91,19.47,47.55,15.88c0,0,19.01-3.51,28.38,11.2l0.08-3.3
		c-8.31-18.99-30.36-14.91-30.36-14.91c-30.64,3.59-47.55-15.88-47.55-15.88c-21.58-22.02-40.04,9.21-40.04,9.21L217.09,57.5
		c1.32,1.26,2.64,2.48,3.97,3.68L243.04,25.85z"/>
        <path class="st24" d="M224.34,45.78l-7.21,11.59c62.31,59.84,140.59,43.72,140.59,43.72l0.31-13.55
		C341.46,89.82,277.65,94.7,224.34,45.78z"/>
</g>
    <g>
	<g>
		<path class="st24" d="M243.92,239.7l-1.42,8.31c-13.67,14.61-34.08,10.15-34.08,10.15c-7.71-20.19,4.76-34.61,4.76-34.61
			S229.99,224.64,243.92,239.7z"/>
        <path class="st25" d="M213.28,223.56c5.96,1.39,16.7,5.19,26.12,15.37l-1.42,8.31c-9.73,10.4-22.87,11.14-29.64,10.7
			c0.03,0.08,0.05,0.15,0.08,0.23c0,0,20.42,4.45,34.08-10.15l1.42-8.31C230.58,225.29,214.61,223.67,213.28,223.56z"/>
        <path class="st26"
              d="M216.17,225.23l-3.04-0.85c0,0-5.47,9.27-6.24,16.84C206.89,241.22,210.85,225.99,216.17,225.23z"/>
        <polygon class="st25" points="219.08,229.63 239.25,239.82 216.05,233.83 227.91,235.28 222.13,232.08 		"/>
        <polygon class="st25" points="216.06,249.52 238.46,246.62 214.6,244.56 226.27,247.13 219.74,248.23 		"/>
        <path class="st25" d="M239.27,241.89c0,0-11.49-2.07-17.05-4.99c0,0-0.51,3.28-7.18,2.86l24,3.53L239.27,241.89z"/>
        <path class="st26" d="M207.12,246.21c0,0,3.25,1.35,6.57,0.76c0,0-4.59,1.17-6.51,2.71C207.18,249.69,206.89,247.55,207.12,246.21
			z"/>
	</g>
        <g>
		<path class="st24" d="M250.77,240.87l-1.42,8.31c8.03,18.32,28.77,20.9,28.77,20.9c13.98-16.48,7.01-34.23,7.01-34.23
			S268.92,231.3,250.77,240.87z"/>
            <path class="st25" d="M285.04,235.83c-6.09-0.67-17.47-0.66-29.74,5.81l-1.42,8.31c5.72,13.04,17.87,18.1,24.4,19.94
			c-0.05,0.06-0.1,0.12-0.15,0.19c0,0-20.74-2.58-28.77-20.9l1.42-8.31C268.15,231.71,283.74,235.49,285.04,235.83z"/>
            <path class="st26"
                  d="M281.75,236.44l3.15,0.21c0,0,2.08,10.55,0.29,17.96C285.19,254.61,286.53,238.93,281.75,236.44z"/>
            <polygon class="st25"
                     points="277.55,239.63 255.14,242.54 279.01,244.6 267.34,242.02 273.86,240.93 		"/>
            <polygon class="st25"
                     points="273.79,259.4 253.62,249.21 276.82,255.2 264.96,253.75 270.74,256.95 		"/>
            <path class="st25"
                  d="M254.43,244.49c0,0,11.52,1.87,17.74,0.96c0,0-0.61,3.27,5.82,5.09l-23.8-4.65L254.43,244.49z"/>
            <path class="st26" d="M283.32,259.24c0,0-3.51,0.19-6.45-1.46c0,0,3.94,2.62,5.24,4.72C282.11,262.5,283.09,260.58,283.32,259.24z
			"/>
	</g>
        <path class="st27" d="M252.33,251.02c-0.24,1.38-1.54,2.3-2.92,2.07l-9.22-1.58c-1.38-0.24-2.3-1.54-2.07-2.92l1.62-9.46
		c0.24-1.38,1.54-2.3,2.92-2.07l9.22,1.58c1.38,0.24,2.3,1.54,2.07,2.92L252.33,251.02z"/>
        <path class="st25" d="M252.12,250.33c-0.2,1.19-1.34,2-2.53,1.79l-7.98-1.36c-1.19-0.2-2-1.34-1.79-2.53l1.4-8.19
		c0.2-1.19,1.34-2,2.53-1.79l7.98,1.36c1.19,0.2,2,1.34,1.79,2.53L252.12,250.33z"/>
        <path class="st26" d="M250.8,240.38l-7.34-1.26c-0.64-0.11-1.26,0.1-1.7,0.5c0.23-0.04,0.47-0.05,0.72-0.01l7.34,1.26
		c1.1,0.19,1.83,1.23,1.65,2.33l-1.29,7.53c-0.08,0.46-0.31,0.85-0.62,1.14c0.8-0.15,1.46-0.79,1.61-1.64l1.29-7.53
		C252.63,241.61,251.9,240.57,250.8,240.38z"/>
</g>
    <g>
	<ellipse transform="matrix(0.2067 -0.9784 0.9784 0.2067 53.2086 366.4415)" cx="252.58" cy="150.41" rx="12.36"
             ry="10.33"/>
</g>
    <ellipse transform="matrix(0.2168 -0.9762 0.9762 0.2168 55.0855 352.5663)" class="st8" cx="247.26" cy="141.95"
             rx="4.63" ry="4.93"/>
    <ellipse transform="matrix(0.2182 -0.9759 0.9759 0.2182 54.7263 356.7663)" class="st28" cx="250.03" cy="144.23"
             rx="21.41" ry="17.54"/>
    <g>
	<ellipse transform="matrix(0.2182 -0.9759 0.9759 0.2182 85.7202 449.4579)" cx="323.38" cy="171.23" rx="12.36"
             ry="10.33"/>
</g>
    <ellipse transform="matrix(0.2282 -0.9736 0.9736 0.2282 87.1344 435.3452)" class="st8" cx="318.17" cy="162.71"
             rx="4.63" ry="4.93"/>
    <ellipse transform="matrix(0.2296 -0.9733 0.9733 0.2296 86.6068 439.4539)" class="st28" cx="320.91" cy="165.02"
             rx="21.41" ry="17.54"/>
</svg>
