<?xml version="1.0" encoding="utf-8"?>
<!-- Generator: Adobe Illustrator 28.0.0, SVG Export Plug-In . SVG Version: 6.00 Build 0)  -->
<svg version="1.1" xmlns="http://www.w3.org/2000/svg" x="0px" y="0px"
     viewBox="0 0 512 512" style="enable-background:new 0 0 512 512;" xml:space="preserve">
<style type="text/css">
	.st0{fill:#D3E0FD;stroke:#FFFFFF;stroke-miterlimit:10;}
	.st1{fill:#FE8E00;}
	.st2{fill:#232323;}
	.st3{fill:#555558;}
	.st4{fill:#FFFFFF;}
	.st5{fill:none;}
	.st6{fill:none;stroke:#773C15;stroke-width:5.0068;stroke-miterlimit:10;}
	.st7{fill:#896045;}
	.st8{fill:#5E3C23;}
	.st9{fill:#9E785E;}
	.st10{fill:#FF8D00;}
	.st11{fill:#FFD48F;}
	.st12{display:none;}
	.st13{display:inline;}
	.st14{display:inline;fill:#FFFFFF;}
	.st15{display:none;fill:none;stroke:#000000;stroke-width:1.0663;stroke-miterlimit:10;}
	.st16{fill:#C9BC99;}
	.st17{fill:#F4E9D7;}
	.st18{fill:#353535;}
	.st19{fill:none;stroke:#000000;stroke-width:1.1848;stroke-miterlimit:10;}
</style>
    <g id="Layer_2">
	<circle class="st0" cx="256" cy="266.4" r="140"/>
</g>
    <g id="Шар_1">
	
		<ellipse transform="matrix(0.1225 -0.9925 0.9925 0.1225 -173.1769 763.9127)" class="st1" cx="345.4" cy="479.9"
                 rx="19.5" ry="45.8"/>

        <ellipse transform="matrix(0.9925 -0.1225 0.1225 0.9925 -57.4255 25.5563)" class="st1" cx="179.1" cy="479.8"
                 rx="45.8" ry="19.5"/>
        <g>
		<g>
			<path class="st2" d="M269.3,175.1c0,0,140.1,91.1,135.5,202.7c-0.3,8.1-12.3,10-16.9,2.6c-26.2-41.7-86.6-127.1-144.3-129.2
				C167.1,248.4,269.3,175.1,269.3,175.1z"/>
		</g>
            <g>
			
				<ellipse transform="matrix(0.751 -0.6603 0.6603 0.751 -82.2276 290.8238)" class="st3" cx="344.5"
                         cy="254.4" rx="3.1" ry="20.1"/>
		</g>
	</g>
        <g>
		<path class="st2"
              d="M286.2,177.9c208.2,335.6-29.9,303.8-29.9,303.8C26.9,493,228.8,178.5,228.8,178.5L286.2,177.9z"/>
	</g>
        <path class="st4" d="M229.1,197.2c0,0-131.2,257.6,33.7,261.8c155.6,4,26.5-312.3,26.5-312.3L229.1,197.2z"/>
        <g>
		<path class="st3" d="M285.6,72.1c28,11.9,52.1,37.6,58,68c0.9,4.3,1.2,8.7,1.3,13.1c-1.5-7.5-3.4-14.8-6.3-21.8
			C328.2,106.3,308.1,86.6,285.6,72.1L285.6,72.1z"/>
	</g>
        <g>
		<path class="st5" d="M164.7,204.4"/>
	</g>
        <g>
		<path class="st6" d="M225.6,289c0,0-61.3-16.3-1.6,35.7"/>
            <path class="st7" d="M235.3,340.2h44.2c8.8,0,15.9-7.2,15.9-15.9v-40c0-20.9-17.1-22.5-38-22.5l0,0c-20.9,0-38.1,1.6-38.1,22.5v40
			C219.4,333.1,226.5,340.2,235.3,340.2z"/>
            <ellipse class="st8" cx="258.2" cy="273.1" rx="28" ry="8.9"/>
            <ellipse class="st9" cx="226.4" cy="310" rx="3.1" ry="21.7"/>
            <g>
			<path class="st9" d="M290.4,282.4c-8.4,7-19.8,10-30.6,9.9c-2.1,0.1-5.2-0.3-7.3-0.5c-1.7-0.3-3.6-0.7-5.4-1
				c-1.2-0.3-4-1.2-5.2-1.6c-2.3-0.8-4.5-1.8-6.6-2.8c2.4,0.4,4.7,1.1,7,1.5c1.2,0.2,4.1,0.7,5.2,0.9c1.7,0.2,3.6,0.4,5.3,0.6
				c1.2,0,4.1,0.2,5.3,0.3C269.2,289.7,280.4,287.5,290.4,282.4L290.4,282.4z"/>
		</g>
	</g>
        <path class="st2"
              d="M207.5,210.9c0,0-87.9,32.7-100.5,93c-8.3,40,84.2,45.2,108,7.5s-91.7-2.5-91.7-2.5S189.9,337.7,207.5,210.9z"
        />
        <path class="st2" d="M374.8,140.7c0,60.1-53.4,95.1-116.7,95.1s-112.6-35-112.6-95.1S196.9,31.8,260.2,31.8S374.8,80.6,374.8,140.7
		z"/>
        <path class="st4" d="M356.8,151.3c0,47.4-43.8,85.9-97.9,85.9S161,198.7,161,151.3s75.3-120.4,96,18.9
		C294.3,32.3,356.8,103.9,356.8,151.3z"/>
        <g>
		<path class="st2" d="M286.6,52L228,47.3c0,0,24.4-10.2,30.7-26.6c0.7-1.9,1.2-3.8,1.4-5.7c0.3-3.1,3.5-4.9,6-3.3
			c6.1,4,14.9,11,19.3,20.3C288.1,37.8,289.1,44.5,286.6,52z"/>
            <path class="st3" d="M285.4,31.9c-8.6-6.9-19.5-10-26.7-11.3c0.7-1.9,1.2-3.8,1.4-5.7c0.3-3.1,3.5-4.9,6-3.3
			C272.2,15.6,281,22.6,285.4,31.9z"/>
	</g>
        <g>
		<path class="st10" d="M258.7,146.2c-10.7-0.8-19.3,12.4-19.3,12.4c-14.6,3-14.4,13.3-14.4,13.3s20.7,21.2,34.4,21
			c13.6-0.2,33.8-22,33.8-22s-0.1-10.3-14.8-12.9C278.3,158.1,269.4,145.1,258.7,146.2"/>
	</g>

        <ellipse transform="matrix(0.9999 -1.569963e-02 1.569963e-02 0.9999 -2.5339 4.091)" class="st11" cx="259.3"
                 cy="163.4" rx="9" ry="5"/>

        <ellipse transform="matrix(0.2977 -0.9547 0.9547 0.2977 -196.1237 684.3357)" class="st11" cx="367.1" cy="475.5"
                 rx="6.9" ry="10"/>
        <g class="st12">
		
			<ellipse transform="matrix(0.9999 -1.160038e-02 1.160038e-02 0.9999 -1.9592 2.6705)" class="st13" cx="229.2"
                     cy="170.2" rx="7.7" ry="9.2"/>

            <ellipse transform="matrix(0.9998 -1.780074e-02 1.780074e-02 0.9998 -2.8777 4.1072)" class="st14" cx="229.3"
                     cy="163.7" rx="3.1" ry="3.3"/>
	</g>
        <g class="st12">
		<g class="st13">
			<ellipse transform="matrix(0.9999 -1.160038e-02 1.160038e-02 0.9999 -1.9458 3.367)" cx="289.3" cy="169.4"
                     rx="7.7" ry="9.2"/>
		</g>

            <ellipse transform="matrix(0.9998 -1.780074e-02 1.780074e-02 0.9998 -2.8537 5.1587)" class="st14" cx="288.4"
                     cy="162.9" rx="3.1" ry="3.3"/>
	</g>
        <ellipse class="st15" cx="229.2" cy="168.1" rx="14.2" ry="17.1"/>
        <ellipse class="st15" cx="289.4" cy="167.1" rx="14.2" ry="17.1"/>
        <ellipse transform="matrix(0.1508 -0.9886 0.9886 0.1508 183.7753 368.3705)" class="st3" cx="306.3" cy="77.2"
                 rx="5.7" ry="17"/>
        <ellipse transform="matrix(0.976 -0.2179 0.2179 0.976 -11.5445 48.6625)" class="st3" cx="214.9" cy="76.7"
                 rx="17" ry="5.7"/>
        <ellipse transform="matrix(0.9068 -0.4216 0.4216 0.9068 -110.5998 113.722)" class="st3" cx="201.9" cy="307"
                 rx="1.9" ry="8.2"/>

        <ellipse transform="matrix(0.9893 -0.1462 0.1462 0.9893 -42.5744 26.2545)" class="st3" cx="157.3" cy="302.8"
                 rx="25.2" ry="1.4"/>
        <g>
		<path class="st16" d="M255.7,237.5c-3.5,3.5-1,8.5,2.5,10.9c1.8,1.5,4.4,2.6,5.9,4.8c2.9,4.3-0.2,9.2-2.5,12.6
			c-0.8,1.3-1.5,2.7-1.7,4.3c-1.6-4.5,2.6-9.2,1.9-13.5c-0.6-2.7-3.8-3.7-5.8-5.7c-1.9-1.8-3.8-4.2-3.9-7
			C251.8,241.4,253.1,238.2,255.7,237.5L255.7,237.5z"/>
	</g>
        <g>
		<path class="st16" d="M251.1,252.9c-7.3-4.3-12.6-12.1-6-19.7c1.1-1.2,2.4-2,3.2-2.9c1.7-1.5,2.6-4.3,1.7-7.1
			c1.1,1,1.7,2.6,1.9,4.2c0.5,4.8-4.8,7.1-5.9,11.2c-0.8,2.4-0.5,4.6,0.8,6.9C248.1,247.9,249.6,250.3,251.1,252.9L251.1,252.9z"/>
	</g>
        <g>
		<path class="st16" d="M266.5,228c-1-1.5-2.5-2.2-3.8-3.6c-1.4-1.3-2.1-3.5-1.8-5.5c0.1-1,0.5-1.9,1.1-2.8c1.1-1.5,2.8-2.1,3.5-3.7
			c0.3-0.7,0.4-1.6,0.5-2.5c0.2,0.9,0.4,1.8,0.3,2.7c-0.2,1.9-2.1,3.1-2.9,4.4c-1.2,1.9-1.1,4.5,0.3,6.4
			C264.8,224.8,266.3,226.2,266.5,228L266.5,228z"/>
	</g>
        <ellipse class="st17" cx="279.1" cy="421.9" rx="31.4" ry="21.4"/>
        <ellipse class="st17" cx="300.5" cy="388.6" rx="10" ry="8.2"/>
        <circle class="st17" cx="313" cy="365.4" r="6.3"/>
        <g>
		<path class="st18" d="M230.6,170.4c11.9,9.2,28.4,13.4,42.6,7.5c4.7-1.9,9.1-4.4,13.2-7.5c-3.7,3.6-7.9,6.6-12.7,8.8
			C259.4,186,241.5,181.5,230.6,170.4L230.6,170.4z"/>
	</g>
        <g>
		<ellipse transform="matrix(0.9999 -1.290022e-02 1.290022e-02 0.9999 -1.6626 3.932)" cx="304" cy="130.8"
                 rx="10.4" ry="12.3"/>
	</g>
        <ellipse transform="matrix(1 -1.162212e-03 1.162212e-03 1 -0.1437 0.3451)" class="st4" cx="296.9" cy="123.8"
                 rx="5" ry="4.6"/>
        <ellipse class="st19" cx="304.3" cy="130.9" rx="17.7" ry="21.3"/>
        <g>
		
			<ellipse transform="matrix(0.9999 -1.290022e-02 1.290022e-02 0.9999 -1.6884 2.7688)" cx="213.8" cy="132.3"
                     rx="10.4" ry="12.3"/>
	</g>
        <ellipse transform="matrix(1 -1.162212e-03 1.162212e-03 1 -0.1454 0.2403)" class="st4" cx="206.7" cy="125.2"
                 rx="5" ry="4.6"/>
        <ellipse class="st19" cx="214.1" cy="132.4" rx="17.7" ry="21.3"/>
</g>
</svg>
