<?xml version="1.0" encoding="utf-8"?>
<!-- Generator: Adobe Illustrator 28.0.0, SVG Export Plug-In . SVG Version: 6.00 Build 0)  -->
<svg version="1.1" id="Шар_1" xmlns="http://www.w3.org/2000/svg" x="0px" y="0px"
     viewBox="0 0 512 512" style="enable-background:new 0 0 512 512;" xml:space="preserve">
<style type="text/css">
	.st0{fill:#FE8E00;}
	.st1{fill:#232323;}
	.st2{fill:#3F1212;}
	.st3{fill:#1C0808;}
	.st4{fill:#701E1E;}
	.st5{fill:#FFFFFF;}
	.st6{fill:#555558;}
	.st7{fill:none;}
	.st8{fill:#FF8D00;}
	.st9{fill:#FFD48F;}
	.st10{fill:#353535;}
	.st11{fill:#932828;}
	.st12{fill:#4C0B0B;}
	.st13{fill:#E8E8E8;}
	.st14{fill:none;stroke:#000000;stroke-width:1.1848;stroke-miterlimit:10;}
</style>
    <ellipse transform="matrix(0.1225 -0.9925 0.9925 0.1225 -195.6988 750.4927)" class="st0" cx="326.55" cy="485.91"
             rx="18.21" ry="42.85"/>
    <ellipse transform="matrix(0.9925 -0.1225 0.1225 0.9925 -58.1277 30.6591)" class="st0" cx="220.34" cy="488.18"
             rx="42.85" ry="18.21"/>
    <g>
	<path class="st1" d="M210.13,280.61c0,0-119.53,64.98-156.25,12.42c-25.21-36.09-22.13-77.7-17.72-100.24
		c1.37-7.01,10.44-9.03,14.66-3.26c12.89,17.67,33.21,49.45,32.95,73.87c0,0,23.82-76.26,144.64-10.61L210.13,280.61z"/>
</g>
    <path class="st1" d="M281.19,211.09c0,0,42.96-126.86,87.92-173.04c6.34-6.51,17.04-1.17,16.99,8.49
	c-0.22,52.07-7.41,183.17-72.53,217.89L281.19,211.09z"/>
    <path class="st2"
          d="M134.1,131.98c0,0-44.66,43.48-82.27,14.1l-3.53,24.68c0,0,57.59,12.93,92.84-31.73L134.1,131.98z"/>
    <g>
	<path class="st3"
          d="M55.95,156.07c18.01,7.34,37.1,5.77,54.06-3.53C95.25,164.99,72.15,166.78,55.95,156.07L55.95,156.07z"/>
</g>
    <path class="st4"
          d="M142.33,101.42c0,0-84.62,11.75-59.94,101.07l30.56-4.7c0,0-57.59-56.41,31.73-88.14L142.33,101.42z"/>
    <path class="st1" d="M237.55,471.07c-191.72-249.01-31.68-274.23-12.11-276.34c1.47-0.16,2.92-0.41,4.36-0.72
	c156.22-33.6,101.43,189.07,78.93,263.93c-4.4,14.63-16.6,25.58-31.63,28.33l0,0C262.11,489.01,246.84,483.14,237.55,471.07z"/>
    <path class="st5" d="M293.53,418.04c1.41-2.27,2.36-4.8,2.79-7.44c5.28-32.67,36.46-251.21-78.59-229.57
	c-83.12,15.64-26.9,154.47,12.96,234.13C243.3,440.35,278.65,441.96,293.53,418.04L293.53,418.04z"/>
    <g>
	<path class="st6" d="M234.13,80.08c27.66,7.11,53.5,27.24,63.34,54.57c1.43,3.87,2.39,7.9,3.11,11.92
		c-2.41-6.7-5.24-13.2-8.96-19.27C278.54,105.55,257.12,90.16,234.13,80.08L234.13,80.08z"/>
</g>
    <g>
	<path class="st7" d="M141.41,219.8"/>
</g>
    <path class="st1" d="M261.55,227.83c-0.01,0.02-0.02,0.02-0.05,0.02c-9.17,3.41-18.97,5.95-29.2,7.54
	c-8.94,1.39-17.7,1.99-26.15,1.77c-0.01,0.01-0.04,0.01-0.05,0c-46.84-1.1-84.24-26.44-91.57-73.52c-2.51-16.19-0.87-32.13,4.2-46.8
	c4.14-12.03,10.57-23.22,18.86-33c14.55-17.16,34.83-30.02,58.57-35.62c2.84-0.68,5.75-1.25,8.7-1.7c8.38-1.3,16.68-1.65,24.77-1.12
	c17.05,1.1,33.2,6.11,47.28,14.22c9.24,5.3,17.58,11.94,24.7,19.68c12.87,13.96,21.79,31.52,24.88,51.36
	C333.63,176.52,304.74,211.79,261.55,227.83z"/>
    <path class="st5" d="M311.35,143.05c6.82,43.84-28.17,85.69-78.15,93.47s-96.03-21.46-102.85-65.31
	c-6.82-43.84,52.35-122.11,91.44,3.7C236.48,42.02,304.53,99.21,311.35,143.05z"/>
    <g>
	<path class="st1" d="M232.18,61.34l-54.88,4.06c0,0,21.09-12.99,24.59-29.04c0.39-1.81,0.56-3.65,0.45-5.52
		c-0.17-2.91,2.52-5.05,5.09-3.88c6.23,2.83,15.39,8.03,20.74,16.02C231.55,47.98,233.43,54.08,232.18,61.34z"/>
        <path class="st6" d="M228.17,42.99c-8.95-5.15-19.43-6.42-26.28-6.63c0.39-1.81,0.56-3.65,0.45-5.52
		c-0.17-2.91,2.52-5.05,5.09-3.88C213.66,29.8,222.82,35.01,228.17,42.99z"/>
</g>
    <g>
	<path class="st8" d="M219.92,152.46c-10.03,0.82-16.08,14.28-16.08,14.28c-13.04,4.89-11.44,14.37-11.44,14.37
		s22.21,16.61,34.79,14.47c12.58-2.15,28.11-25.2,28.11-25.2s-1.6-9.49-15.51-9.77C239.78,160.6,229.66,149.91,219.92,152.46"/>
</g>
    <ellipse transform="matrix(0.9856 -0.1692 0.1692 0.9856 -25.2645 40.1638)" class="st9" cx="222.98" cy="168.29"
             rx="8.42" ry="4.71"/>
    <ellipse transform="matrix(0.132 -0.9913 0.9913 0.132 127.4856 304.3488)" class="st6" cx="237.52" cy="79.38"
             rx="5.29" ry="15.87"/>
    <ellipse transform="matrix(0.7789 -0.6272 0.6272 0.7789 -12.4916 136.5544)" class="st6" cx="187.4" cy="85.99"
             rx="15.87" ry="5.29"/>
    <g>
	<path class="st10" d="M202.58,182.38c1.51,1.65,3.8,2.57,5.96,2.91c4.34,0.78,9-0.27,13.16-1.55c10.93-3.51,20.71-9.78,30.78-15.17
		c-10.25,8.94-23.21,17.63-37.12,18.86c-1.06-0.05-2.58,0.08-3.61-0.1c-1.73-0.23-3.68-0.61-5.22-1.44
		C204.95,185.15,203.39,183.94,202.58,182.38L202.58,182.38z"/>
</g>
    <ellipse transform="matrix(0.9682 -0.2503 0.2503 0.9682 -58.471 40.3439)" class="st10" cx="129.4" cy="250.09"
             rx="25.27" ry="11.75"/>
    <ellipse transform="matrix(0.3086 -0.9512 0.9512 0.3086 75.2354 461.4735)" class="st10" cx="355.04" cy="178.99"
             rx="25.85" ry="5.88"/>
    <g>
	<path class="st8" d="M353.07,45.09c-1.02,5.44-3.27,10.34-6.4,14.48c-7.69,10.17-20.71,15.7-34.08,13.17
		c-4.43-0.83-8.51-2.48-12.1-4.77l-0.46-2.63c-0.85-4.89-5.3-8.29-10.17-7.91h-0.01c-4.63-7.19-6.63-16.11-4.91-25.18
		c3.55-18.82,21.67-31.19,40.49-27.64c13.82,2.61,24.16,13.06,27.28,25.88C353.83,35.13,354.01,40.09,353.07,45.09z"/>
        <circle class="st8" cx="429.87" cy="59.57" r="34.67"/>
        <path class="st8" d="M437.26,61.57c-1.27,6.73-17.98,9.57-40.65,7.82c-3.53-0.28-7.19-0.66-10.96-1.16
		c-4.1-0.54-8.32-1.21-12.63-2.02c-7.85-1.48-15.29-3.28-22.06-5.3c-1.46-0.43-2.89-0.88-4.29-1.33
		c-19.97-6.48-33.02-14.68-31.81-21.08c1.21-6.46,16.62-9.33,37.84-8c3.41,0.21,6.97,0.53,10.65,0.96
		c5.07,0.59,10.34,1.39,15.76,2.41c4.63,0.87,9.12,1.86,13.41,2.93c3.18,0.81,6.26,1.66,9.21,2.54
		C423.77,45.95,438.55,54.77,437.26,61.57z"/>
</g>
    <circle class="st9" cx="444.28" cy="49.73" r="12.93"/>
    <ellipse transform="matrix(0.1852 -0.9827 0.9827 0.1852 284.2359 500.8309)" class="st9" cx="444.14" cy="79.01"
             rx="6.46" ry="5.29"/>
    <circle class="st9" cx="426.17" cy="37.95" r="4.7"/>
    <ellipse transform="matrix(0.1852 -0.9827 0.9827 0.1852 245.739 336.932)" class="st9" cx="326.06" cy="20.27"
             rx="8.23" ry="9.99"/>
    <ellipse transform="matrix(0.1852 -0.9827 0.9827 0.1852 244.4082 416.5627)" class="st9" cx="373.41" cy="60.89"
             rx="2.94" ry="21.74"/>
    <path class="st1" d="M390.36,26.26c6.5,1.22,9.13,9.03,4.76,13.99c-0.38,0.43-0.77,0.86-1.16,1.28
	c-6.47,6.96-13.97,11.62-21.61,9.25c-5.65-1.75-8.98-6.02-10.86-11.36c-0.77-2.2-1.29-4.58-1.61-7.04c-0.72-5.46,4-10.1,9.46-9.41
	c4.54,0.57,9.18,1.25,13.88,2.03C385.63,25.4,388.01,25.82,390.36,26.26z"/>
    <ellipse transform="matrix(0.1852 -0.9827 0.9827 0.1852 280.2668 396.3214)" class="st6" cx="379.14" cy="29.15"
             rx="1.76" ry="12.34"/>
    <ellipse transform="matrix(0.5857 -0.8106 0.8106 0.5857 126.1298 328.5409)" class="st6" cx="384.42" cy="40.9"
             rx="8.23" ry="0.59"/>
    <path class="st11" d="M302.18,74.76c4.1,3.75,2.26,10.74-3.22,11.7c-0.04,0.01-0.08,0.01-0.12,0.02l-35.93,5.96h-0.01l-88.42,14.69
	h-0.01l-5.06,0.84c-8.04,1.33-15.97,3.2-23.74,5.65c-11.96,3.77-30.27,8.66-30.07,3.19c0.01-0.14,9.95-21.78,17.77-31.02
	c1.07-1.26,2.55-2.09,4.18-2.36c17.2-2.86,123.5-20.5,141-23.4c1.58-0.26,3.21,0.01,4.6,0.81
	C290.04,64.82,296.43,69.49,302.18,74.76z"/>
    <path class="st8" d="M300.48,67.97c-4.31-2.7-7.92-6.33-10.62-10.54c4.87-0.38,9.32,3.02,10.17,7.91L300.48,67.97z"/>
    <ellipse transform="matrix(0.8962 -0.4436 0.4436 0.8962 -16.7776 146.4083)" class="st6" cx="304.51" cy="109.06"
             rx="1.18" ry="21.74"/>
    <ellipse transform="matrix(0.7071 -0.7071 0.7071 0.7071 29.4582 221.0766)" class="st12" cx="281.59" cy="74.98"
             rx="1.76" ry="11.16"/>
    <ellipse transform="matrix(0.6019 -0.7985 0.7985 0.6019 61.1112 260.9842)" class="st12" cx="292.33" cy="69.2"
             rx="0.88" ry="11.81"/>
    <ellipse transform="matrix(0.9863 -0.1652 0.1652 0.9863 -9.9563 34.9669)" class="st12" cx="205.2" cy="77.33"
             rx="39.37" ry="1.76"/>
    <ellipse transform="matrix(0.9881 -0.1537 0.1537 0.9881 -11.4279 36.2548)" class="st12" cx="228.71" cy="92.02"
             rx="29.97" ry="2.35"/>
    <g>
	<path class="st2" d="M107.66,120.81c-14.86,10.98-22.25,29.4-23.49,47.43c-0.48,6.07-0.38,12.21-0.02,18.38
		c-1.57-6.77-2.12-13.82-1.84-20.81C83.19,148.15,91.45,129.33,107.66,120.81L107.66,120.81z"/>
</g>
    <g>
	<path class="st2"
          d="M92.38,172.52c1.54,8.03,4.96,15.25,10.58,21.15C95.74,189.56,91.55,180.73,92.38,172.52L92.38,172.52z"/>
</g>
    <path class="st13" d="M236.9,347.73l-11.53,1.79c-7.21,1.12-13.97-3.82-15.09-11.03l-1.79-11.53c-1.12-7.21,3.82-13.97,11.03-15.09
	l11.53-1.79c7.21-1.12,13.97,3.82,15.09,11.03l1.79,11.53C249.05,339.85,244.12,346.6,236.9,347.73z"/>
    <path class="st13" d="M282.86,340.58l-11.53,1.79c-7.21,1.12-13.97-3.82-15.09-11.03l-1.79-11.53c-1.12-7.21,3.82-13.97,11.03-15.09
	l11.53-1.79c7.21-1.12,13.97,3.82,15.09,11.03l1.79,11.53C295.01,332.7,290.08,339.45,282.86,340.58z"/>
    <path class="st13" d="M245.45,381.45l-8.68,1.35c-5.43,0.85-10.52-2.87-11.37-8.31l-1.35-8.68c-0.85-5.43,2.87-10.52,8.31-11.37
	l8.68-1.35c5.43-0.85,10.52,2.87,11.37,8.31l1.35,8.68C254.6,375.52,250.88,380.61,245.45,381.45z"/>
    <path class="st13" d="M282.12,375.75l-8.68,1.35c-5.43,0.85-10.52-2.87-11.37-8.31l-1.35-8.68c-0.85-5.43,2.87-10.52,8.31-11.37
	l8.68-1.35c5.43-0.85,10.52,2.87,11.37,8.31l1.35,8.68C291.27,369.81,287.55,374.9,282.12,375.75z"/>
    <path class="st13" d="M251.24,413.1l-7.93,1.23c-4.97,0.77-9.62-2.63-10.39-7.59l-1.23-7.93c-0.77-4.97,2.63-9.62,7.59-10.39
	l7.93-1.23c4.97-0.77,9.62,2.63,10.39,7.59l1.23,7.93C259.61,407.68,256.21,412.33,251.24,413.1z"/>
    <path class="st13" d="M285.47,407.78l-7.93,1.23c-4.97,0.77-9.62-2.63-10.39-7.59l-1.23-7.93c-0.77-4.97,2.63-9.62,7.59-10.39
	l7.93-1.23c4.97-0.77,9.62,2.63,10.39,7.59l1.23,7.93C293.83,402.35,290.43,407,285.47,407.78z"/>
    <ellipse transform="matrix(0.9856 -0.1692 0.1692 0.9856 -42.8168 44.8407)" class="st13" cx="241.63" cy="273.59"
             rx="2.94" ry="28.79"/>
    <g>
	<path class="st13" d="M253.08,294.19c9.91,2.37,20.45,1.02,29.62-3.24c0.8-0.42,2.9-1.52,3.67-1.92c0.83-0.49,2.69-1.69,3.53-2.21
		c1.55-1.02,2.99-2.2,4.55-3.25c-1.32,1.32-2.63,2.68-4.07,3.9C280.32,295.96,265.43,299.42,253.08,294.19L253.08,294.19z"/>
</g>
    <g>
	<path class="st13" d="M195.33,303.68c9.77,2.88,20.37,2.07,29.75-1.71c0.82-0.38,2.97-1.36,3.77-1.72
		c0.85-0.45,2.77-1.55,3.64-2.02c1.6-0.94,3.1-2.04,4.71-3.01c-1.38,1.25-2.77,2.54-4.27,3.68
		C222.45,306.86,207.39,309.55,195.33,303.68L195.33,303.68z"/>
</g>
    <ellipse transform="matrix(0.2146 -0.9767 0.9767 0.2146 -66.0583 403.9197)" class="st13" cx="218.13" cy="243.04"
             rx="1.76" ry="13.52"/>
    <ellipse transform="matrix(0.866 -0.5 0.5 0.866 -85.3772 158.0366)" class="st13" cx="252.21" cy="238.33" rx="13.52"
             ry="1.76"/>
    <g>
	<path class="st10" d="M321.84,112.48c8.68,20.46,11.17,46.59-0.47,66.39c-1.7,2.81-3.72,5.39-5.94,7.75
		c1.8-2.7,3.52-5.42,4.89-8.33C330.04,157.74,327.38,133.88,321.84,112.48L321.84,112.48z"/>
</g>
    <g>
	<path class="st9" d="M412.63,34.43c-5.83,3.5-10.28,9.02-12.12,15.54c-0.5,2.06-0.84,4.16-1.01,6.27c0,0.7-0.03,2.5-0.04,3.22
		c0.05,1.44,0.21,2.87,0.24,4.34c-0.59-2.02-1.14-4.34-1.27-6.47C397.38,47.66,403.24,37.51,412.63,34.43L412.63,34.43z"/>
</g>
    <g>
	<path class="st9" d="M333.3,66.75c7.77-4.22,13.38-11.94,13.91-20.85c0.13-1.26,0.08-2.53,0.2-3.82c0.24,1.26,0.52,2.54,0.61,3.83
		C348.84,55.19,342.3,64.4,333.3,66.75L333.3,66.75z"/>
</g>
    <g>
	<ellipse transform="matrix(0.9999 -0.0131 0.0131 0.9999 -1.6347 3.478)" cx="264.01" cy="126.22" rx="10.84"
             ry="12.74"/>
</g>
    <ellipse transform="matrix(1 -1.116647e-03 1.116647e-03 1 -0.1326 0.2866)" class="st5" cx="256.62" cy="118.9"
             rx="5.17" ry="4.78"/>
    <ellipse class="st14" cx="260.71" cy="131.25" rx="18.42" ry="21.92"/>
    <g>
	<ellipse transform="matrix(0.9999 -0.0131 0.0131 0.9999 -1.805 2.3967)" cx="181.59" cy="138.64" rx="10.84"
             ry="12.74"/>
</g>
    <ellipse transform="matrix(1 -1.116647e-03 1.116647e-03 1 -0.1465 0.1946)" class="st5" cx="174.21" cy="131.33"
             rx="5.17" ry="4.78"/>
    <ellipse class="st14" cx="178.29" cy="143.67" rx="18.42" ry="21.92"/>
</svg>
