<?xml version="1.0" encoding="utf-8"?>
<!-- Generator: Adobe Illustrator 28.0.0, SVG Export Plug-In . SVG Version: 6.00 Build 0)  -->
<svg version="1.1" id="Шар_1" xmlns="http://www.w3.org/2000/svg" x="0px" y="0px"
     viewBox="0 0 512 512" style="enable-background:new 0 0 512 512;" xml:space="preserve">
<style type="text/css">
	.st0{fill:#FE8E00;}
	.st1{fill:#232323;}
	.st2{fill:#FFFFFF;}
	.st3{fill:#555558;}
	.st4{fill:none;}
	.st5{fill:#FF8D00;}
	.st6{fill:#353535;}
	.st7{fill:#FFD48F;}
	.st8{fill:#C9C9C9;}
	.st9{fill:none;stroke:#000000;stroke-width:1.1848;stroke-miterlimit:10;}
</style>
    <ellipse transform="matrix(0.8489 -0.5286 0.5286 0.8489 -194.0192 275.4658)" class="st0" cx="384.72" cy="477.03"
             rx="45.02" ry="19.13"/>
    <ellipse transform="matrix(0.7547 -0.6561 0.6561 0.7547 -263.6079 177.2369)" class="st0" cx="105.21" cy="441.14"
             rx="19.13" ry="45.02"/>
    <g>
	<path class="st1" d="M275.36,168.33c212.5,322.93-18.99,299.38-18.99,299.38c-221.64,18.57-36.49-296.97-36.49-296.97
		L275.36,168.33z"/>
</g>
    <g>
	<path class="st1" d="M286.98,290.96c0,0,153.42-58.71,171.91-166.96c1.34-7.86-9.78-12.09-15.71-5.99
		c-33.72,34.71-109.36,104.31-165.29,94.5C203.8,199.52,286.98,290.96,286.98,290.96z"/>
</g>
    <g>
	<path class="st1" d="M227.34,297.01c0,0-154.69-54.95-175.14-162.56c-1.49-7.81,9.58-12.31,15.63-6.36
		c34.39,33.85,111.39,101.52,167.22,90.4C309,203.76,227.34,297.01,227.34,297.01z"/>
</g>
    <path class="st2"
          d="M219.46,189.19c0,0-120.4,257.37,41.65,256.07c152.99-1.23,15.78-307.66,15.78-307.66L219.46,189.19z"/>
    <g>
	<path class="st3" d="M273.32,64.32c27.94,10.86,52.41,35.22,59.16,64.94c1,4.22,1.48,8.54,1.71,12.83
		c-1.68-7.3-3.81-14.43-6.92-21.22C316.38,96.53,296,77.78,273.32,64.32L273.32,64.32z"/>
</g>
    <g>
	<path class="st4" d="M158.9,198.28"/>
</g>
    <path class="st1" d="M363.24,128.8c1.97,59.07-49.32,95.2-111.52,97.28c-62.2,2.08-111.75-30.69-113.72-89.76
	c-1.97-59.07,46.85-108.63,109.05-110.71S361.27,69.74,363.24,128.8z"/>
    <path class="st2" d="M345.87,139.79c1.56,46.59-40.24,85.8-93.35,87.57s-97.43-34.56-98.99-81.15s70.08-120.71,94.89,15.45
	C280.6,24.92,344.32,93.2,345.87,139.79z"/>
    <g>
	<path class="st1" d="M273.66,44.54l-57.75-2.72c0,0,23.64-10.87,29.33-27.17c0.63-1.84,1.04-3.74,1.17-5.7
		c0.2-3.05,3.27-4.94,5.8-3.4c6.14,3.74,15.03,10.33,19.6,19.34C274.7,30.52,275.88,37.12,273.66,44.54z"/>
        <path class="st3" d="M271.81,24.89c-8.69-6.5-19.45-9.16-26.57-10.24c0.63-1.84,1.04-3.74,1.17-5.7c0.2-3.05,3.27-4.94,5.8-3.4
		C258.34,9.29,267.24,15.88,271.81,24.89z"/>
</g>
    <g>
	<path class="st5" d="M249.32,138.01c-10.56-0.41-18.58,12.85-18.58,12.85c-14.22,3.44-13.76,13.54-13.76,13.54
		s21.06,20.14,34.45,19.5c13.39-0.64,32.51-22.72,32.51-22.72s-0.46-10.1-14.94-12.16C269,149.02,259.8,136.59,249.32,138.01"/>
</g>
    <g>
	<path class="st6" d="M222.74,161.2c12.75,10.95,29.52,14.14,44.39,5.42c4.66-2.61,8.98-5.92,13-9.6
		c-3.45,4.22-7.49,8.03-12.19,10.96C253.12,177.82,234.24,174.37,222.74,161.2L222.74,161.2z"/>
</g>
    <ellipse transform="matrix(0.9988 -0.0491 0.0491 0.9988 -7.2976 12.4755)" class="st7" cx="250.5" cy="154.9"
             rx="8.85" ry="4.95"/>
    <ellipse transform="matrix(0.1934 -0.9811 0.9811 0.1934 168.4817 347.1767)" class="st3" cx="295.39" cy="71.12"
             rx="5.56" ry="16.67"/>
    <ellipse transform="matrix(0.9905 -0.1375 0.1375 0.9905 -7.9163 28.73)" class="st3" cx="203.97" cy="71.66"
             rx="16.67" ry="5.56"/>
    <path class="st8" d="M240.07,273.42c0.25,7.5-5.62,13.78-13.12,14.03c-7.5,0.25-13.78-5.62-14.03-13.12"/>
    <path class="st8" d="M300.54,271.4c0.25,7.5-5.62,13.78-13.12,14.03s-13.78-5.62-14.03-13.12"/>
    <path class="st8" d="M271.87,300.78c0.25,7.5-5.62,13.78-13.12,14.03c-7.5,0.25-13.78-5.62-14.03-13.12"/>
    <g>
	<ellipse transform="matrix(0.9724 -0.2334 0.2334 0.9724 -21.0939 51.9116)" cx="208.82" cy="115.09" rx="10.49"
             ry="12.56"/>
</g>
    <ellipse transform="matrix(0.9745 -0.2244 0.2244 0.9745 -19.4968 47.7238)" class="st2" cx="200.25" cy="109.65"
             rx="5" ry="4.71"/>
    <ellipse transform="matrix(0.9751 -0.222 0.222 0.9751 -21.5907 49.4429)" class="st9" cx="209.18" cy="120.78"
             rx="17.81" ry="21.75"/>
    <g>
	<ellipse transform="matrix(0.0178 -0.9998 0.9998 0.0178 175.0504 400.0424)" cx="291.13" cy="110.93" rx="12.56"
             ry="10.49"/>
</g>
    <ellipse transform="matrix(0.027 -0.9996 0.9996 0.027 173.0443 384.8191)" class="st2" cx="284.21" cy="103.52"
             rx="4.71" ry="5"/>
    <ellipse transform="matrix(0.0295 -0.9996 0.9996 0.0295 165.0323 403.0172)" class="st9" cx="290.06" cy="116.52"
             rx="21.75" ry="17.81"/>
</svg>
