<?xml version="1.0" encoding="utf-8"?>
<!-- Generator: Adobe Illustrator 28.0.0, SVG Export Plug-In . SVG Version: 6.00 Build 0)  -->
<svg version="1.1" id="Шар_1" xmlns="http://www.w3.org/2000/svg" x="0px" y="0px"
     viewBox="0 0 512 512" style="enable-background:new 0 0 512 512;" xml:space="preserve">
<style type="text/css">
	.st0{fill:#FE8E00;}
	.st1{fill:#232323;}
	.st2{fill:#FFFFFF;}
	.st3{fill:#555558;}
	.st4{fill:none;}
	.st5{fill:#FF8D00;}
	.st6{fill:#353535;}
	.st7{fill:#FFD48F;}
	.st8{display:none;}
	.st9{display:inline;}
	.st10{display:none;fill:#FFFFFF;}
	.st11{display:none;fill:none;stroke:#000000;stroke-width:1.1848;stroke-miterlimit:10;}
	.st12{fill:#C9C9C9;}
	.st13{fill:none;stroke:#000000;stroke-width:1.1848;stroke-miterlimit:10;}
</style>
    <ellipse transform="matrix(0.1225 -0.9925 0.9925 0.1225 -178.5402 757.9359)" class="st0" cx="339.34" cy="479.93"
             rx="19.92" ry="46.88"/>
    <ellipse transform="matrix(0.9925 -0.1225 0.1225 0.9925 -57.8066 24.3468)" class="st0" cx="169.15" cy="482.41"
             rx="46.88" ry="19.92"/>
    <g>
	<path class="st1" d="M278.73,174.74c213.07,343.44-30.61,310.9-30.61,310.9c-234.77,11.62-28.07-310.32-28.07-310.32L278.73,174.74
		z"/>
</g>
    <g>
	<path class="st1" d="M273.78,166.67c0,0,144.68,91.24,141.47,205.54c-0.23,8.3-12.46,10.35-17.26,2.92
		c-27.35-42.32-90.39-128.82-149.49-130.21C170.19,243.06,273.78,166.67,273.78,166.67z"/>
</g>
    <g>
	<path class="st1" d="M225.53,174.95c0,0-142.52,94.37-136.17,208.25c0.46,8.27,12.77,10.03,17.39,2.5
		c26.26-42.84,87.07-130.55,146.27-133.34C331.46,248.68,225.53,174.95,225.53,174.95z"/>
</g>
    <path class="st2"
          d="M220.29,194.5c0,0-134.24,263.65,34.44,267.93c159.26,4.04,27.1-319.62,27.1-319.62L220.29,194.5z"/>
    <g>
	<path class="st3" d="M278.11,66.43c28.76,11.97,53.62,38.48,59.4,69.61c0.87,4.44,1.2,8.96,1.24,13.44
		c-1.56-7.64-3.57-15.11-6.59-22.27C321.58,101.55,301.1,81.41,278.11,66.43L278.11,66.43z"/>
</g>
    <g>
	<path class="st4" d="M154.38,201.86"/>
</g>
    <path class="st1" d="M369.45,136.65c0,61.54-54.63,97.36-119.43,97.36s-115.23-35.82-115.23-97.36S187.32,25.23,252.12,25.23
	S369.45,75.12,369.45,136.65z"/>
    <path class="st2" d="M350.99,147.48c0,48.54-44.86,87.89-100.19,87.89S150.6,196.02,150.6,147.48s77.12-123.19,98.22,19.38
	C287.05,25.68,350.99,98.94,350.99,147.48z"/>
    <g>
	<path class="st1" d="M279.15,45.85l-60.01-4.84c0,0,24.98-10.49,31.46-27.25c0.72-1.89,1.21-3.85,1.41-5.89
		c0.31-3.17,3.57-5.03,6.16-3.33c6.26,4.1,15.28,11.27,19.73,20.8C280.72,31.3,281.72,38.2,279.15,45.85z"/>
        <path class="st3" d="M277.91,25.34c-8.81-7.07-19.93-10.21-27.3-11.58c0.72-1.89,1.21-3.85,1.41-5.89
		c0.31-3.17,3.57-5.03,6.16-3.33C264.44,8.63,273.46,15.81,277.91,25.34z"/>
</g>
    <g>
	<path class="st5" d="M250.58,142.28c-10.98-0.8-19.79,12.73-19.79,12.73C215.87,158.1,216,168.62,216,168.62
		s21.22,21.69,35.18,21.49c13.96-0.21,34.62-22.52,34.62-22.52s-0.13-10.52-15.12-13.17C270.68,154.42,261.53,141.16,250.58,142.28"
    />
</g>
    <g>
	<path class="st6"
          d="M222.17,170.37c19.16,10.37,39.58,8.31,58.34-1.77C264.04,181.75,239.08,183.85,222.17,170.37L222.17,170.37z"
    />
</g>
    <ellipse transform="matrix(0.9999 -0.0157 0.0157 0.9999 -2.4807 3.9659)" class="st7" cx="251.22" cy="159.9"
             rx="9.21" ry="5.16"/>
    <g class="st8">
	
		<ellipse transform="matrix(0.9989 -0.0459 0.0459 0.9989 -6.8901 13.6004)" class="st9" cx="292.85" cy="156.91"
                 rx="10.05" ry="10.18"/>
</g>
    <ellipse transform="matrix(1 -3.008723e-03 3.008723e-03 1 -0.4448 0.8949)" class="st10" cx="297.21" cy="148.28"
             rx="4.12" ry="3.82"/>
    <ellipse class="st11" cx="291.56" cy="157.09" rx="14.94" ry="18.41"/>
    <ellipse transform="matrix(0.1896 -0.9819 0.9819 0.1896 168.5448 349.5536)" class="st3" cx="296.03" cy="72.67"
             rx="5.79" ry="17.36"/>
    <ellipse transform="matrix(0.9791 -0.2032 0.2032 0.9791 -10.6015 42.0686)" class="st3" cx="199.61" cy="72.67"
             rx="17.36" ry="5.79"/>
    <path class="st12" d="M238.82,282.87c0,7.81-6.33,14.14-14.14,14.14c-7.81,0-14.14-6.33-14.14-14.14"/>
    <path class="st12" d="M301.82,282.87c0,7.81-6.33,14.14-14.14,14.14s-14.14-6.33-14.14-14.14"/>
    <path class="st12" d="M270.96,312.44c0,7.81-6.33,14.14-14.14,14.14c-7.81,0-14.14-6.33-14.14-14.14"/>
    <g>
	<ellipse transform="matrix(0.9999 -0.0118 0.0118 0.9999 -1.4769 2.4024)" cx="203.53" cy="126.78" rx="11.42"
             ry="13.67"/>
</g>
    <ellipse transform="matrix(1 -1.457258e-03 1.457258e-03 1 -0.1731 0.2854)" class="st2" cx="195.76" cy="118.94"
             rx="5.45" ry="5.12"/>
    <ellipse class="st13" cx="203.91" cy="126.88" rx="19.39" ry="23.67"/>
    <ellipse class="st11" cx="292.67" cy="157.22" rx="15.08" ry="18.41"/>
    <g>
	<ellipse transform="matrix(0.9999 -0.0118 0.0118 0.9999 -1.458 3.5136)" cx="298.04" cy="125.73" rx="11.42"
             ry="13.67"/>
</g>
    <ellipse transform="matrix(1 -1.457258e-03 1.457258e-03 1 -0.1715 0.425)" class="st2" cx="291.55" cy="117.89"
             rx="5.45" ry="5.12"/>
    <ellipse class="st13" cx="298.42" cy="125.83" rx="19.39" ry="23.67"/>
</svg>
