<?xml version="1.0" encoding="utf-8"?>
<!-- Generator: Adobe Illustrator 28.0.0, SVG Export Plug-In . SVG Version: 6.00 Build 0)  -->
<svg version="1.1" id="Шар_1" xmlns="http://www.w3.org/2000/svg" x="0px" y="0px"
     viewBox="0 0 512 512" style="enable-background:new 0 0 512 512;" xml:space="preserve">
<style type="text/css">
	.st0{fill:#8A8AEA;}
	.st1{fill:#E3A773;}
	.st2{fill:#F03F54;}
	.st3{fill:#DDC2A2;}
	.st4{fill:#FFFFFF;}
	.st5{fill:#232323;}
	.st6{fill:#555558;}
	.st7{fill:none;}
	.st8{fill:#FF8D00;}
	.st9{fill:#353535;}
	.st10{fill:#FFD48F;}
	.st11{fill:#C9C9C9;}
	.st12{fill:none;stroke:#425066;stroke-width:4.4062;stroke-miterlimit:10;}
	.st13{fill:#F2853B;}
	.st14{fill:#6CA3E0;}
	.st15{fill:#ADC6EA;}
	.st16{fill:#F9CB64;}
	.st17{fill:#FF6E85;}
	.st18{fill:#B6E3FF;}
	.st19{fill:none;stroke:#000000;stroke-width:1.1848;stroke-miterlimit:10;}
</style>
    <path class="st0" d="M-211.56,314.06l1.48,1.32c2.13,1.89,2.03,5.24-0.2,7.01l-20.91,16.58c-2.12,1.68-5.19,1.35-6.91-0.74L-244,331
	l-4,2l4.23,9.16c1,2.17,0.18,4.75-1.9,5.94l-12.38,7.07c-2.47,1.41-5.6,0.05-6.25-2.72L-267,341l-5,3l-1,21c0,0-0.02,0.5-0.05,1
	c0.02,0,0.05,0,0.05,0s42.62,1.89,81.78-50.55c1.76-2.36,1.07-5.74-1.45-7.25L-193,308l-4.16,3.57c-1.66,1.43-4.09,1.52-5.86,0.23
	L-211,306l-4,5C-215,311-213.4,312.42-211.56,314.06z"/>
    <path class="st1" d="M-274.5,328.5c0,0-4,2-9,8c-1.79,2.14,13.56,37.97,79.15-33.84c1.62-1.77,1.6-4.49-0.03-6.25l-5.64-6.04
	L-274.5,328.5z"/>
    <path class="st2" d="M-259.48,275.82c-0.55,0.37-0.71,1.11-0.36,1.68c2.79,4.58,12.36,24.44-13.06,49.14
	c-1.98,1.93-4.18,3.88-6.6,5.86c0,0,7,13,30,1s42-40,42-40l-22.49-27.89c-1.46-1.81-3.99-2.33-6.05-1.25l-13.43,7.07
	c-1.21,0.64-1.9,1.97-1.7,3.33l1.68,11.73l-6.69-10.04c-0.72-1.08-2.19-1.38-3.27-0.65L-259.48,275.82z"/>
    <ellipse transform="matrix(0.9929 -0.119 0.119 0.9929 -37.3485 -27.5624)" class="st3" cx="-249.5" cy="299" rx="8"
             ry="2.5"/>
    <ellipse transform="matrix(0.9988 -0.0487 0.0487 0.9988 -15.3059 -11.9602)" class="st3" cx="-253" cy="308" rx="9.5"
             ry="2.5"/>
    <ellipse transform="matrix(0.1061 -0.9944 0.9944 0.1061 -545.7771 25.869)" class="st3" cx="-258.5" cy="316.5" rx="2"
             ry="10"/>
    <ellipse transform="matrix(0.1743 -0.9847 0.9847 0.1743 -539.7364 7.3257)" class="st3" cx="-265.5" cy="325.5" rx="2"
             ry="9"/>
    <ellipse transform="matrix(0.796 -0.6053 0.6053 0.796 -216.8051 -77.7544)" class="st3" cx="-223.75" cy="282.75"
             rx="1.75" ry="13.75"/>
    <g>
	<path class="st4" d="M-104.83,208.03c-0.03-0.02-0.07-0.04-0.12-0.05c0.05,0.03,0.06,0.05-0.03,0c-0.02-0.01-0.04-0.02-0.06-0.02
		c-0.05-0.01-0.1-0.02-0.14-0.01c0.04-0.01,0.08-0.01,0.12,0c-0.04-0.02-0.09-0.04-0.13-0.06c0.11,0.04,0.12,0.03,0.01-0.02
		c-0.05-0.03-0.11-0.05-0.16-0.08c-0.13-0.07-0.26-0.13-0.4-0.2c-0.3-0.15-0.61-0.31-0.91-0.47c-0.14-0.08-0.29-0.15-0.43-0.23
		c0.04-0.03,0.08-0.06,0.12-0.09c0.27-0.21,0.54-0.42,0.78-0.66c0.22-0.21,0.43-0.44,0.61-0.68c0.23-0.3,0.54-0.76,0.4-1.14
		c-0.1-0.26-0.29-0.42-0.57-0.44c-0.37-0.02-0.65,0.3-0.9,0.54c-0.2,0.19-0.38,0.39-0.59,0.57c-0.09,0.08-0.18,0.15-0.27,0.22
		c-0.01,0.01-0.03,0.02-0.04,0.03c-0.06,0.04-0.12,0.09-0.18,0.13c-0.13,0.09-0.26,0.16-0.39,0.24c-0.2-0.24-0.49-0.4-0.88-0.42
		c-1.5-0.05-3.02-0.03-4.53-0.02c0.27-0.32,0.54-0.64,0.83-0.95c0.38-0.41,0.75-0.84,1.14-1.24c0.13-0.13,0.33-0.31,0.51-0.51
		c0.04,0.01,0.07,0.02,0.11,0.02c0.39,0.04,0.78,0.05,1.17,0.07c0.19,0.01,0.39,0.01,0.58,0c0.27-0.01,0.55-0.02,0.79-0.16
		c0.16-0.09,0.37-0.31,0.31-0.52c-0.07-0.26-0.31-0.4-0.54-0.49c-0.22-0.08-0.45-0.09-0.68-0.11c-0.21-0.02-0.43-0.03-0.64-0.03
		c-0.19,0-0.39-0.01-0.58-0.01c-0.02,0-0.03,0-0.05,0c0,0,0,0,0,0c0.05-0.27,0.08-0.53,0.11-0.8c0.03-0.23,0.06-0.46,0.08-0.69
		c0.01-0.12,0.03-0.23,0.04-0.35c0.02-0.17-0.01-0.29-0.08-0.45c-0.11-0.26-0.49-0.26-0.67-0.09c-0.18,0.17-0.22,0.4-0.29,0.63
		c-0.06,0.21-0.11,0.42-0.17,0.62c-0.11,0.39-0.22,0.78-0.29,1.17c-0.01,0.04-0.01,0.08-0.01,0.12c-0.23,0.15-0.45,0.32-0.67,0.48
		c-0.49,0.36-0.99,0.73-1.44,1.14c-0.09,0.08-0.17,0.17-0.26,0.25c0.01-1.11,0.01-2.22-0.03-3.33c0-0.15-0.02-0.27-0.05-0.39
		c0.89-0.81,1.74-1.65,2.48-2.6c0,0-0.01,0-0.01-0.01c0.14-0.22,0.18-0.49,0.06-0.77c-0.18-0.43-0.81-0.74-1.24-0.42
		c-0.91,0.68-1.73,1.48-2.51,2.31c-0.2-0.18-0.38-0.37-0.56-0.56c-0.39-0.42-0.75-0.85-1.22-1.19c-0.18-0.13-0.47-0.08-0.63,0.04
		c-0.19,0.15-0.24,0.36-0.2,0.6c0.09,0.6,0.43,1.15,0.79,1.63c0.24,0.32,0.5,0.62,0.77,0.92c-0.05,0.13-0.09,0.27-0.09,0.44
		c-0.04,1.29-0.04,2.59-0.02,3.89c-0.38-0.39-0.75-0.79-1.12-1.2c-0.42-0.46-0.79-1.01-1.35-1.3c0.01-0.09,0.02-0.19,0.02-0.28
		c0.01-0.21-0.01-0.43-0.01-0.65c0-0.22,0-0.43-0.01-0.65c-0.01-0.15-0.04-0.32-0.07-0.47c-0.03-0.14-0.09-0.27-0.16-0.4
		c-0.21-0.4-0.84-0.39-1.05,0c-0.15,0.27-0.21,0.56-0.24,0.87c-0.02,0.21-0.01,0.43-0.02,0.65c-0.01,0.21-0.03,0.43-0.02,0.65
		c0,0,0,0.01,0,0.01c-0.56,0.07-1.12,0.15-1.66,0.29c-0.31,0.08-0.53,0.45-0.43,0.76c0.11,0.35,0.41,0.48,0.76,0.43
		c0,0,0.17-0.02,0.08-0.01c-0.09,0.01,0.06-0.01,0.08-0.01c0.09-0.01,0.18-0.02,0.27-0.03c0.19-0.02,0.38-0.03,0.57-0.04
		c0.37-0.02,0.75-0.02,1.12,0.01c0.04,0,0.09,0,0.13-0.01c0.07,0.12,0.16,0.22,0.24,0.33c0.19,0.25,0.38,0.5,0.57,0.75
		c0.41,0.53,0.82,1.05,1.24,1.57c0.02,0.03,0.04,0.05,0.06,0.08c-1.4,0-2.81-0.01-4.21-0.01c-0.25,0-0.46,0.07-0.64,0.18
		c-0.42-0.31-0.84-0.63-1.27-0.95c-0.23-0.18-0.47-0.35-0.71-0.5c-0.3-0.19-0.58-0.36-0.94-0.36c-0.36,0.01-0.54,0.32-0.49,0.64
		c0.05,0.34,0.29,0.59,0.51,0.83c0.21,0.23,0.42,0.44,0.65,0.66c0.23,0.22,0.46,0.43,0.68,0.65c-0.15,0.2-0.32,0.39-0.49,0.58
		c-0.23,0.25-0.48,0.48-0.67,0.77c-0.14,0.2-0.26,0.37-0.29,0.62c-0.05,0.37,0.1,0.79,0.45,0.98c0.85,0.45,1.59-0.37,2.08-0.98
		c0.2-0.25,0.4-0.51,0.58-0.77c0.15,0.07,0.34,0.12,0.55,0.12c1.39-0.01,2.78-0.01,4.17-0.01c-0.11,0.13-0.22,0.25-0.33,0.38
		c-0.5,0.58-1.05,1.2-1.4,1.89c-0.45-0.02-0.89-0.07-1.34-0.07c-0.22,0-0.44-0.01-0.66,0c-0.24,0.01-0.48,0.07-0.71,0.11
		c-0.14,0.02-0.25,0.19-0.25,0.32c0,0.16,0.11,0.27,0.25,0.32c0.2,0.08,0.4,0.18,0.61,0.24c0.21,0.05,0.42,0.1,0.64,0.15
		c0.22,0.05,0.45,0.08,0.67,0.12c0,0.04,0,0.09-0.01,0.13c-0.01,0.06-0.01,0.12-0.02,0.18c0,0.01,0,0.02,0,0.03c0,0,0,0,0-0.01
		c0,0.13-0.04,0.26-0.07,0.39c-0.05,0.25-0.11,0.49-0.19,0.73c-0.1,0.3-0.2,0.59-0.19,0.9c0.02,0.65,0.79,0.97,1.26,0.52
		c0.46-0.43,0.59-1.16,0.68-1.76c0.05-0.31,0.09-0.62,0.11-0.94c0.01-0.14,0.01-0.28,0.01-0.42c0-0.01,0-0.01,0-0.02
		c0.68-0.45,1.22-1.1,1.79-1.71c0.07-0.07,0.14-0.14,0.2-0.21c0,1.31,0,2.62-0.01,3.93c0,0.18,0.04,0.34,0.09,0.48
		c-0.24,0.24-0.47,0.5-0.69,0.77c-0.37,0.47-0.77,0.94-0.92,1.53c-0.09,0.36,0.06,0.8,0.4,0.99c0.37,0.19,0.75,0.12,1.06-0.14
		c0.21-0.18,0.36-0.37,0.53-0.6c0.03-0.04,0.06-0.08,0.09-0.12c0,0,0,0,0,0c0.07-0.08,0.13-0.17,0.2-0.25
		c0.19-0.23,0.4-0.44,0.61-0.65c0.08,0.07,0.17,0.14,0.25,0.21c0.34,0.3,0.65,0.64,0.99,0.95c0.32,0.28,0.74,0.46,1.17,0.4
		c0.5-0.07,0.89-0.51,0.87-1.03c-0.03-0.69-0.56-1.13-1.04-1.54c-0.17-0.14-0.34-0.28-0.52-0.42c-0.2-0.16-0.42-0.35-0.65-0.47
		c0-0.04,0.01-0.07,0.01-0.11c0-1.16-0.01-2.31-0.01-3.47c0.02,0.02,0.03,0.04,0.05,0.05c0.42,0.43,0.88,0.81,1.37,1.16
		c0.38,0.27,0.8,0.51,1.25,0.64c0.02,0.46,0.04,0.92,0.08,1.38c0.05,0.54,0.02,1.24,0.47,1.63c0.24,0.21,0.69,0.29,0.92,0
		c0.22-0.28,0.34-0.6,0.3-0.96c-0.02-0.24-0.05-0.47-0.07-0.71c-0.03-0.31-0.07-0.61-0.12-0.92c0.03-0.01,0.07-0.04,0.08-0.04
		c0.07-0.03,0.15-0.06,0.23-0.09c0.28-0.1,0.56-0.2,0.84-0.29c0.28-0.09,0.57-0.16,0.85-0.23c0.4-0.1,0.94-0.41,0.74-0.9
		c-0.18-0.46-0.76-0.41-1.15-0.33c-0.29,0.06-0.58,0.12-0.86,0.19c-0.29,0.07-0.57,0.16-0.85,0.25c-0.02,0.01-0.04,0.01-0.06,0.02
		c-0.02-0.06-0.04-0.12-0.08-0.17c-0.19-0.26-0.38-0.49-0.61-0.71c-0.18-0.17-0.36-0.32-0.55-0.48c-0.4-0.34-0.8-0.68-1.18-1.04
		c-0.07-0.06-0.13-0.13-0.2-0.19c1.26,0.01,2.52,0.02,3.78-0.02c0.03,0.05,0.07,0.11,0.12,0.16c0.2,0.22,0.47,0.36,0.72,0.5
		l0.85,0.48c0.27,0.15,0.54,0.31,0.8,0.47c0.39,0.23,0.82,0.51,1.29,0.38c0.43-0.12,0.71-0.54,0.7-0.98
		C-104.51,208.38-104.62,208.15-104.83,208.03z"/>
        <path class="st4" d="M-104.95,207.97c-0.03-0.01-0.07-0.03-0.11-0.04c0.01,0,0.02,0.01,0.02,0.01
		C-105.01,207.95-104.98,207.96-104.95,207.97z"/>
</g>
    <g>
	<path class="st4" d="M-70.64,122c-0.03-0.02-0.07-0.03-0.12-0.05c0.05,0.02,0.06,0.04-0.03,0c-0.02-0.01-0.04-0.01-0.06-0.02
		c-0.05-0.01-0.1-0.02-0.14-0.01c0.04-0.01,0.08-0.01,0.12,0c-0.04-0.02-0.09-0.03-0.13-0.05c0.11,0.04,0.12,0.03,0.01-0.02
		c-0.05-0.03-0.11-0.05-0.16-0.07c-0.13-0.06-0.26-0.12-0.4-0.18c-0.3-0.14-0.61-0.27-0.91-0.41c-0.14-0.07-0.29-0.13-0.43-0.2
		c0.04-0.03,0.08-0.05,0.12-0.08c0.27-0.18,0.54-0.38,0.78-0.59c0.22-0.19,0.43-0.39,0.61-0.61c0.23-0.26,0.54-0.68,0.4-1.02
		c-0.1-0.23-0.29-0.38-0.57-0.39c-0.37-0.01-0.65,0.27-0.9,0.48c-0.2,0.17-0.38,0.35-0.59,0.51c-0.09,0.07-0.18,0.13-0.27,0.2
		c-0.01,0.01-0.03,0.02-0.04,0.02c-0.06,0.04-0.12,0.08-0.18,0.11c-0.13,0.08-0.26,0.15-0.39,0.21c-0.2-0.21-0.49-0.36-0.88-0.37
		c-1.5-0.05-3.02-0.03-4.53-0.02c0.27-0.28,0.54-0.57,0.83-0.84c0.38-0.37,0.75-0.74,1.14-1.1c0.13-0.12,0.33-0.28,0.51-0.45
		c0.04,0.01,0.07,0.01,0.11,0.02c0.39,0.04,0.78,0.04,1.17,0.06c0.19,0.01,0.39,0.01,0.58,0c0.27-0.01,0.55-0.02,0.79-0.14
		c0.16-0.08,0.37-0.28,0.31-0.46c-0.07-0.23-0.31-0.36-0.54-0.43c-0.22-0.07-0.45-0.08-0.68-0.1c-0.21-0.02-0.43-0.02-0.64-0.03
		c-0.19,0-0.39-0.01-0.58-0.01c-0.02,0-0.03,0-0.05,0c0,0,0,0,0,0c0.05-0.24,0.08-0.47,0.11-0.71c0.03-0.21,0.06-0.41,0.08-0.62
		c0.01-0.1,0.03-0.21,0.04-0.31c0.02-0.15-0.01-0.26-0.08-0.4c-0.11-0.23-0.49-0.23-0.67-0.08c-0.18,0.15-0.22,0.35-0.29,0.56
		c-0.06,0.18-0.11,0.37-0.17,0.55c-0.11,0.34-0.22,0.69-0.29,1.04c-0.01,0.03-0.01,0.07-0.01,0.1c-0.23,0.13-0.45,0.28-0.67,0.43
		c-0.49,0.32-0.99,0.65-1.44,1.01c-0.09,0.07-0.17,0.15-0.26,0.22c0.01-0.99,0.01-1.97-0.03-2.95c0.01-0.13-0.02-0.24-0.05-0.35
		c0.89-0.72,1.74-1.46,2.48-2.31c0,0-0.01,0-0.01,0c0.14-0.19,0.18-0.43,0.06-0.68c-0.18-0.38-0.81-0.65-1.24-0.37
		c-0.91,0.6-1.73,1.31-2.51,2.05c-0.2-0.16-0.38-0.33-0.56-0.5c-0.39-0.37-0.75-0.75-1.22-1.06c-0.18-0.12-0.47-0.07-0.63,0.04
		c-0.19,0.14-0.24,0.32-0.2,0.53c0.09,0.53,0.43,1.02,0.79,1.45c0.24,0.28,0.5,0.55,0.77,0.81c-0.05,0.11-0.09,0.24-0.09,0.39
		c-0.04,1.15-0.04,2.3-0.02,3.45c-0.38-0.35-0.75-0.7-1.12-1.06c-0.42-0.41-0.79-0.9-1.35-1.16c0.01-0.08,0.02-0.17,0.02-0.25
		c0.01-0.19-0.01-0.38-0.01-0.58c0-0.19,0-0.38-0.01-0.58c-0.01-0.14-0.04-0.28-0.07-0.42c-0.03-0.13-0.09-0.24-0.16-0.35
		c-0.21-0.36-0.84-0.35-1.05,0c-0.15,0.24-0.21,0.5-0.24,0.77c-0.02,0.19-0.02,0.38-0.02,0.58c-0.01,0.19-0.03,0.38-0.02,0.58
		c0,0,0,0.01,0,0.01c-0.56,0.06-1.11,0.14-1.66,0.26c-0.31,0.07-0.53,0.4-0.43,0.67c0.11,0.31,0.42,0.43,0.76,0.38
		c0,0,0.17-0.02,0.08-0.01c-0.09,0.01,0.06-0.01,0.08-0.01c0.09-0.01,0.18-0.02,0.27-0.03c0.19-0.02,0.38-0.03,0.57-0.04
		c0.37-0.01,0.75-0.02,1.12,0.01c0.04,0,0.09,0,0.13-0.01c0.07,0.1,0.16,0.2,0.24,0.29c0.19,0.22,0.38,0.45,0.57,0.67
		c0.41,0.47,0.82,0.93,1.24,1.39c0.02,0.02,0.04,0.04,0.06,0.07c-1.4,0-2.81,0-4.21-0.01c-0.25,0-0.46,0.06-0.64,0.16
		c-0.42-0.28-0.84-0.56-1.27-0.84c-0.23-0.16-0.47-0.31-0.71-0.45c-0.3-0.17-0.58-0.32-0.94-0.32c-0.36,0.01-0.54,0.28-0.49,0.57
		c0.05,0.31,0.29,0.52,0.51,0.74c0.21,0.2,0.43,0.39,0.65,0.58c0.23,0.19,0.46,0.39,0.68,0.58c-0.15,0.18-0.32,0.35-0.49,0.51
		c-0.23,0.23-0.48,0.43-0.67,0.68c-0.14,0.18-0.26,0.33-0.29,0.55c-0.05,0.33,0.1,0.7,0.45,0.87c0.85,0.4,1.59-0.33,2.08-0.87
		c0.2-0.22,0.4-0.45,0.58-0.68c0.15,0.07,0.34,0.11,0.55,0.11c1.39,0,2.78-0.01,4.17-0.01c-0.11,0.11-0.22,0.22-0.33,0.34
		c-0.5,0.51-1.05,1.06-1.4,1.68c-0.45-0.01-0.89-0.06-1.34-0.06c-0.22,0-0.44,0-0.66,0c-0.24,0.01-0.48,0.06-0.71,0.1
		c-0.14,0.02-0.25,0.17-0.25,0.29c0,0.14,0.11,0.24,0.25,0.29c0.2,0.07,0.4,0.16,0.61,0.21c0.21,0.05,0.42,0.09,0.64,0.13
		c0.22,0.04,0.45,0.07,0.67,0.1c0,0.04,0,0.08-0.01,0.12c-0.01,0.05-0.01,0.11-0.02,0.16c0,0.01,0,0.02,0,0.03c0,0,0,0,0-0.01
		c0,0.11-0.04,0.23-0.07,0.34c-0.05,0.22-0.11,0.44-0.19,0.65c-0.1,0.26-0.2,0.52-0.19,0.8c0.02,0.57,0.79,0.86,1.26,0.46
		c0.46-0.38,0.59-1.03,0.68-1.56c0.05-0.27,0.09-0.55,0.11-0.83c0.01-0.13,0.01-0.25,0.01-0.38c0-0.01,0-0.01,0-0.02
		c0.68-0.4,1.22-0.98,1.79-1.52c0.07-0.06,0.14-0.13,0.2-0.19c0,1.16,0,2.32-0.01,3.49c0,0.16,0.04,0.3,0.09,0.42
		c-0.24,0.22-0.47,0.45-0.69,0.68c-0.37,0.42-0.77,0.83-0.92,1.36c-0.09,0.32,0.06,0.71,0.4,0.87c0.37,0.17,0.75,0.11,1.06-0.12
		c0.21-0.16,0.36-0.33,0.53-0.53c0.03-0.04,0.06-0.07,0.09-0.11c0,0,0,0,0,0c0.07-0.07,0.13-0.15,0.2-0.22
		c0.19-0.2,0.4-0.39,0.61-0.58c0.08,0.06,0.17,0.12,0.25,0.19c0.34,0.27,0.65,0.57,0.99,0.84c0.32,0.25,0.74,0.41,1.17,0.36
		c0.5-0.06,0.89-0.46,0.87-0.92c-0.03-0.61-0.56-1-1.04-1.37c-0.17-0.13-0.34-0.25-0.52-0.37c-0.2-0.14-0.42-0.31-0.65-0.42
		c0-0.03,0.01-0.06,0.01-0.09c0-1.03-0.01-2.05-0.01-3.08c0.02,0.02,0.03,0.03,0.05,0.05c0.42,0.38,0.88,0.72,1.37,1.03
		c0.38,0.24,0.8,0.45,1.25,0.57c0.02,0.41,0.04,0.82,0.08,1.22c0.05,0.48,0.02,1.1,0.47,1.45c0.24,0.18,0.69,0.26,0.92,0
		c0.22-0.25,0.34-0.53,0.3-0.85c-0.02-0.21-0.05-0.42-0.07-0.63c-0.03-0.27-0.07-0.54-0.12-0.82c0.03-0.01,0.07-0.03,0.08-0.04
		c0.07-0.03,0.15-0.05,0.23-0.08c0.28-0.09,0.56-0.18,0.84-0.25c0.28-0.08,0.57-0.14,0.85-0.21c0.4-0.09,0.94-0.36,0.74-0.8
		c-0.18-0.4-0.76-0.36-1.15-0.3c-0.29,0.05-0.58,0.11-0.86,0.17c-0.29,0.07-0.57,0.14-0.85,0.22c-0.02,0.01-0.04,0.01-0.06,0.02
		c-0.02-0.05-0.04-0.11-0.08-0.15c-0.19-0.23-0.38-0.43-0.61-0.63c-0.18-0.15-0.36-0.29-0.55-0.42c-0.4-0.3-0.8-0.6-1.18-0.92
		c-0.07-0.06-0.13-0.11-0.2-0.17c1.26,0.01,2.52,0.02,3.78-0.02c0.03,0.05,0.07,0.09,0.12,0.14c0.2,0.2,0.47,0.32,0.72,0.44
		l0.85,0.42c0.27,0.13,0.54,0.28,0.8,0.41c0.39,0.2,0.82,0.45,1.29,0.34c0.43-0.11,0.71-0.48,0.7-0.87
		C-70.32,122.32-70.43,122.11-70.64,122z"/>
        <path class="st4" d="M-70.76,121.96c-0.03-0.01-0.07-0.03-0.11-0.03c0.01,0,0.02,0.01,0.02,0.01
		C-70.82,121.94-70.79,121.95-70.76,121.96z"/>
</g>
    <g>
	<g>
		<path class="st5" d="M329.69,189.32c65.25,300.74-100.8,227.29-100.8,227.29C76.72,369.32,285.2,175.1,285.2,175.1L329.69,189.32z
			"/>
	</g>
        <g>
		<path class="st5" d="M298.1,193.75c0,0,115.71,71.72,113.87,162.71c-0.13,6.61-9.85,8.32-13.72,2.43
			c-22.03-33.51-72.74-101.96-119.79-102.7C216.14,255.2,298.1,193.75,298.1,193.75z"/>
	</g>
        <g>
		<path class="st5" d="M263.88,273.68c0,0-112.66-76.26-106.67-166.84c0.43-6.58,10.25-7.88,13.86-1.85
			c20.55,34.31,68.23,104.61,115.33,107.31C348.78,215.86,263.88,273.68,263.88,273.68z"/>
	</g>
        <path class="st4"
              d="M274.2,188c0,0-147.04,191.4-14.74,214.49c108.88,19.01,70.82-245.28,70.82-245.28L274.2,188z"/>
        <g>
		<path class="st6" d="M356.27,107.32c17.54,15.25,29.01,38.58,28.02,62.06c-0.3,5.38-1.25,10.75-2.94,15.85
			c0.85-7.09,1.12-14.14,0.35-21.09C379.5,143.06,369.37,123.72,356.27,107.32L356.27,107.32z"/>
	</g>
        <g>
		<path class="st7" d="M228.95,178.75"/>
	</g>
        <path class="st5" d="M407.75,183.2c-15.37,46.5-65.61,59.92-114.57,43.74s-78.13-55.85-62.75-102.36s67.53-71.08,116.5-54.89
		S423.13,136.7,407.75,183.2z"/>
        <path class="st4" d="M398.9,183.34c-12.13,36.68-60.74,59.61-102.55,45.79c-41.82-13.82-45.36-61.28-33.46-90.75
		c12.13-36.68,87.72-74.34,68.05,38.66C395.09,79.9,412.39,142.53,398.9,183.34z"/>
        <g>
		<g>
			<path class="st8" d="M336.6,165.47c-8.1-3.34-18.13,4.68-18.13,4.68c-12.05-1.39-14.58,6.59-14.58,6.59s10.61,21.69,21.21,25.02
				s31.79-8.37,31.79-8.37s2.53-7.98-8.14-13.73C348.76,179.67,345.16,167.36,336.6,165.47"/>
		</g>
            <g>
			<path class="st9" d="M309.29,175.9c6.85,12.07,18.96,19.35,32.96,16.85c4.37-0.67,8.66-2.02,12.87-3.68
				c-3.86,2.35-8.11,4.14-12.61,5.11C328.24,197.67,314.29,189.45,309.29,175.9L309.29,175.9z"/>
		</g>

            <ellipse transform="matrix(0.2989 -0.9543 0.9543 0.2989 62.4724 442.9333)" class="st10" cx="332.68"
                     cy="178.95" rx="4.1" ry="7.33"/>
	</g>

        <ellipse transform="matrix(0.4536 -0.8912 0.8912 0.4536 108.9185 405.3961)" class="st6" cx="385.05" cy="113.88"
                 rx="4.6" ry="13.81"/>

        <ellipse transform="matrix(0.2625 -0.9649 0.9649 0.2625 145.8568 381.347)" class="st6" cx="322.4" cy="95.26"
                 rx="4.6" ry="13.81"/>
        <path class="st11" d="M278.02,254.59c-1.47,6.04-7.55,9.75-13.59,8.28s-9.75-7.55-8.28-13.59"/>
        <path class="st11" d="M326.74,266.42c-1.47,6.04-7.55,9.75-13.59,8.28s-9.75-7.55-8.28-13.59"/>
        <path class="st11" d="M297.32,283.5c-1.47,6.04-7.55,9.75-13.59,8.28c-6.04-1.47-9.75-7.55-8.28-13.59"/>
        <g>
		<line class="st12" x1="100.94" y1="330.57" x2="81.5" y2="328.11"/>
            <line class="st12" x1="94.41" y1="382.29" x2="73.74" y2="379.67"/>
            <path class="st13" d="M137.26,318.38l-33.68-4.26c-4.24-0.54-8.08,2.52-8.53,6.76l-7.33,70.05c-0.64,6.16,6.16,10.28,11.33,6.88
			c6.79-4.47,15.03-15.01,21-39.24c0.64-2.61,2.71-4.63,5.33-5.21l10.86-2.38c2.96-0.65,5.15-3.15,5.41-6.17l1.62-19
			C143.59,322.13,140.94,318.85,137.26,318.38z"/>
            <g>
			<path class="st14" d="M90.83,408.11c-3.56,4.71-10.37,8.24-14.62,2.08c-3.2-4.89-3.82-10.58-4.37-16.15
				c-0.78-10.94,0.14-21.75,1.47-32.43c2.84-21.34,7.56-42.33,14.24-62.79c-2.46,21.27-6.2,42.3-8.9,63.48
				c-1.53,13.12-3.42,26.25-2.17,39.33C77.62,411.97,82.32,414.86,90.83,408.11L90.83,408.11z"/>
		</g>

            <ellipse transform="matrix(0.1254 -0.9921 0.9921 0.1254 -291.0387 390.5422)" class="st15" cx="75.98"
                     cy="360.33" rx="22.3" ry="1.26"/>

            <ellipse transform="matrix(0.4416 -0.8972 0.8972 0.4416 -279.6967 306.1135)" class="st16" cx="106.06"
                     cy="377.74" rx="9.42" ry="3.77"/>

            <ellipse transform="matrix(0.1254 -0.9921 0.9921 0.1254 -215.1676 398.7391)" class="st16" cx="118.56"
                     cy="321.4" rx="1.57" ry="19.78"/>
	</g>
        <g>
		<line class="st12" x1="308.69" y1="475.28" x2="312.48" y2="494.52"/>
            <line class="st12" x1="359.83" y1="465.2" x2="363.87" y2="485.64"/>
            <path class="st13" d="M285.69,444.65l6.57,33.3c0.83,4.19,4.93,6.88,9.1,5.96l68.79-15.1c6.05-1.33,7.82-9.09,2.96-12.92
			c-6.38-5.04-18.98-9.53-43.86-7.57c-2.68,0.21-5.25-1.11-6.62-3.42l-5.68-9.56c-1.55-2.61-4.61-3.9-7.56-3.19l-18.54,4.45
			C287.25,437.46,284.97,441.02,285.69,444.65z"/>
            <g>
			<path class="st14" d="M385.47,460.47c5.59,1.9,11.09,7.25,6.58,13.22c-3.63,4.58-8.84,6.96-13.95,9.23
				c-10.14,4.18-20.68,6.72-31.25,8.82c-21.15,4.03-42.56,6.15-64.08,6.26c20.96-4.37,42.1-7.44,63.05-11.55
				c12.93-2.68,25.99-5.02,38.01-10.33C393.3,471.78,394.56,466.42,385.47,460.47L385.47,460.47z"/>
		</g>

            <ellipse transform="matrix(0.9811 -0.1935 0.1935 0.9811 -88.2022 75.9516)" class="st15" cx="344.8"
                     cy="489.61" rx="22.3" ry="1.26"/>

            <ellipse transform="matrix(0.1365 -0.9906 0.9906 0.1365 -147.4911 741.9288)" class="st16" cx="351.85"
                     cy="455.57" rx="3.77" ry="9.42"/>

            <ellipse transform="matrix(0.9811 -0.1935 0.1935 0.9811 -83.7064 65.6772)" class="st16" cx="294.44"
                     cy="461.45" rx="1.57" ry="19.78"/>
	</g>
</g>
    <g>
	<path class="st17" d="M288.69,56.5c3.5-1.28,6.72,0.51,8.46,1.83c0.5-2.51,1.95-6.92,6.01-7.68c3.66-0.68,6.49,1.45,8.03,3.04
		c0.47-1.71,1.41-4.14,3.21-5.51c1.14-0.87,2.45-1.2,3.9-1c3.33,0.47,5.27,2.86,6.25,5.09c1.5-3.14,4.67-7.92,9.62-6.36
		c4.9,1.54,7,5.67,7.8,7.89c2.06-1.68,5.73-4.21,7.76-2.97c1.65,1.01,1.94,3.66,1.92,5.56c3.07-2.07,9.5-5.75,13.01-3.02
		c3.14,2.46,3.44,7.24,3.33,9.89c1.14-0.59,2.75-1.24,4.36-1.29c0.31-2.57,0.36-5.69-0.22-9.13c-2.09-12.28-11.44-23.08-27.03-31.24
		c-16.1-8.43-35.45-8.79-54.48-1.02c-16.98,6.93-31.49,19.6-39.17,33.69c3.61,1.18,6.34,3.87,7.69,7.14
		c4.57-2.17,10.58-4.02,15.9-2.35c0.04,0.01,0.08,0.03,0.12,0.04c3.66,1.19,6.48,3.9,8.43,8.07c0.57,0,1.09,0.03,1.53,0.08
		C284.77,64.47,284.51,58.03,288.69,56.5z"/>
        <path class="st4" d="M281.07,78.75c12.99-5.87,29.61-8.64,51.39-6.18c18.53,2.09,33.17,6.83,44.09,14.38
		c1.85-1.89,3.46-4.23,3.34-6.61c-0.06-1.33-0.51-2.35-1.37-3.12c-1.93-1.72-5.24-1.53-5.27-1.52c-0.43,0.03-0.82-0.25-0.95-0.66
		c-0.12-0.41,0.05-0.86,0.43-1.07c0.19-0.11,4.61-2.72,2.73-7.89c-0.42-1.16-1.05-1.85-1.94-2.13c0,0-0.01,0-0.01,0
		c-2.05-0.64-5.08,1.08-6.08,1.79c-0.3,0.22-0.7,0.23-1.02,0.04c-0.32-0.19-0.49-0.56-0.43-0.93c0.01-0.07,1.05-7.25-2.48-10.02
		c-2.81-2.2-9.88,2.28-12.36,4.19c-0.3,0.23-0.7,0.26-1.03,0.07c-0.32-0.19-0.5-0.56-0.45-0.93c0.28-1.99,0.18-5.09-0.91-5.75
		c-0.9-0.55-4.22,1.52-6.66,3.71c-0.25,0.22-0.58,0.29-0.91,0.19c-0.32-0.1-0.55-0.37-0.62-0.7c-0.01-0.06-1.33-6.16-6.96-7.93
		c-5.3-1.67-8.28,7.57-8.31,7.66c-0.13,0.41-0.53,0.68-0.96,0.64c-0.42-0.03-0.78-0.36-0.84-0.79c-0.03-0.22-0.84-5.52-5.46-6.17
		c-0.95-0.13-1.78,0.07-2.51,0.64c-2.3,1.75-2.9,6.17-2.91,6.22c-0.05,0.38-0.33,0.69-0.71,0.78c-0.38,0.09-0.77-0.07-0.98-0.39
		c-0.03-0.05-3.12-4.6-7.42-3.79c-4.23,0.79-4.75,7.66-4.76,7.73c-0.03,0.36-0.26,0.68-0.61,0.81c-0.34,0.12-0.73,0.03-0.98-0.23
		c-0.03-0.03-1.76-1.82-4.1-2.55c-1.14-0.36-2.43-0.47-3.73,0.01c-3.15,1.15-2.68,7.57-2.24,9.94c0.06,0.3-0.04,0.62-0.27,0.84
		c-0.22,0.22-0.54,0.31-0.84,0.24c-0.06-0.01-6.33-1.35-8.44,2.79C276.36,74.37,278.84,76.99,281.07,78.75z"/>
        <path class="st4" d="M250.72,55.98c-5.63-1.77-11.64,1.37-13.41,6.99c-1.77,5.63,1.37,11.64,6.99,13.41
		c5.63,1.77,11.64-1.37,13.41-6.99C259.48,63.76,256.34,57.74,250.72,55.98z"/>
        <path class="st18" d="M332.46,72.57c18.53,2.09,33.17,6.83,44.09,14.38c1.77-1.81,3.3-4.04,3.33-6.31
		c-2.38,0.67-4.83,1.04-7.23,0.58c-3.43-0.66-6.66-3.55-6.57-7.04c-3.18,2.37-8.51,0.51-9.52-3.32c-3.73,1.92-8.91,0-10.48-3.89
		c-2.29,1.26-4.68,2.54-7.29,2.69c-2.61,0.15-5.5-1.2-6.25-3.71c-2.52,1.91-6.83,0.08-7.21-3.06c-1.55,1.01-3.27,2.07-5.12,1.87
		c-1.85-0.19-3.51-2.36-2.5-3.91c-2.47,1.44-5.26,2.51-8.12,2.37c-2.86-0.14-5.76-1.71-6.88-4.34c-0.96-2.24-0.21-5.14,1.7-6.52
		c-0.3,0.01-0.6,0.03-0.92,0.09c-4.23,0.79-4.75,7.66-4.76,7.73c-0.03,0.36-0.26,0.68-0.61,0.81c-0.34,0.12-0.73,0.03-0.98-0.23
		c-0.03-0.03-1.76-1.82-4.1-2.55c-1.14-0.36-2.43-0.47-3.73,0.01c-3.15,1.15-2.68,7.57-2.24,9.94c0.06,0.3-0.04,0.62-0.27,0.84
		c-0.22,0.22-0.54,0.31-0.84,0.24c-0.06-0.01-6.33-1.35-8.44,2.79c-1.19,2.33,1.29,4.96,3.52,6.71
		C294.06,72.88,310.67,70.11,332.46,72.57z"/>
        <path class="st18" d="M245.89,70.6c-3.93-1.61-6.99-5.36-7.83-9.42c-0.3,0.57-0.56,1.16-0.76,1.79
		c-1.77,5.63,1.37,11.64,6.99,13.41c5.05,1.59,10.4-0.78,12.73-5.35C253.32,72.03,249.42,72.05,245.89,70.6z"/>
        <path class="st4" d="M268.29,52.61c-0.35-0.67-1.29-1.01-1.96-1.27c-0.46-0.18-0.93-0.31-1.4-0.42c0.05-0.03,0.11-0.07,0.16-0.1
		c0.27-0.17,0.54-0.35,0.81-0.53c0.29-0.19,0.66-0.37,0.82-0.69c0.16-0.32,0.02-0.82-0.42-0.8c-0.36,0.02-0.62,0.19-0.92,0.38
		c-0.27,0.17-0.54,0.35-0.82,0.52c-0.06,0.04-0.12,0.09-0.19,0.13c0.07-0.54,0.12-1.08,0.12-1.61c0.01-0.78-1.14-1.01-1.37-0.24
		c-0.21,0.68-0.35,1.39-0.47,2.11c-0.04-0.07-0.09-0.13-0.13-0.2c-0.15-0.25-0.3-0.51-0.44-0.76c-0.08-0.14-0.18-0.28-0.27-0.41
		c-0.1-0.14-0.21-0.25-0.32-0.38c-0.26-0.31-0.72-0.02-0.66,0.34c0.03,0.16,0.03,0.31,0.09,0.47c0.05,0.15,0.1,0.3,0.16,0.45
		c0.12,0.27,0.26,0.53,0.39,0.8c-0.83-0.04-1.65,0-2.45,0.2c-0.56,0.14-0.43,0.87,0.09,0.96c0.79,0.12,1.59,0.2,2.38,0.29
		c-0.06,0.04-0.12,0.08-0.18,0.12c-0.5,0.36-1.15,0.71-1.48,1.24c-0.14,0.22,0.06,0.45,0.29,0.42c0.6-0.08,1.17-0.53,1.7-0.82
		c0.14-0.08,0.28-0.17,0.42-0.25l-0.2,1.18c-0.11,0.65-0.4,1.46,0.1,2.01c0.22,0.24,0.62,0.33,0.92,0.16
		c0.68-0.39,0.65-1.27,0.75-1.96c0-0.03,0.01-0.06,0.01-0.09c0.37,0.39,0.76,0.75,1.23,1.03c0.34,0.2,0.79-0.16,0.59-0.54
		c-0.4-0.73-0.92-1.38-1.43-2.04c0.56,0.14,1.12,0.3,1.67,0.47c0.64,0.19,1.47,0.57,2.14,0.42
		C268.27,53.12,268.41,52.83,268.29,52.61z"/>
        <path class="st4" d="M288.87,32.84c-0.35-0.67-1.29-1.01-1.96-1.27c-0.46-0.18-0.93-0.31-1.4-0.42c0.05-0.03,0.11-0.07,0.16-0.1
		c0.27-0.17,0.54-0.35,0.81-0.53c0.29-0.19,0.66-0.37,0.83-0.69c0.16-0.32,0.02-0.82-0.42-0.8c-0.36,0.02-0.62,0.19-0.92,0.38
		c-0.27,0.17-0.54,0.35-0.82,0.52c-0.06,0.04-0.12,0.09-0.19,0.13c0.07-0.54,0.12-1.08,0.12-1.61c0.01-0.78-1.14-1.01-1.37-0.24
		c-0.21,0.68-0.35,1.39-0.47,2.11c-0.04-0.07-0.09-0.13-0.13-0.2c-0.15-0.25-0.3-0.51-0.44-0.76c-0.08-0.14-0.18-0.28-0.27-0.41
		c-0.1-0.14-0.21-0.25-0.32-0.38c-0.26-0.31-0.72-0.02-0.66,0.34c0.03,0.16,0.03,0.31,0.09,0.47c0.05,0.15,0.1,0.3,0.16,0.45
		c0.12,0.27,0.26,0.53,0.39,0.8c-0.83-0.04-1.65,0-2.45,0.2c-0.56,0.14-0.43,0.87,0.09,0.96c0.79,0.12,1.59,0.2,2.38,0.29
		c-0.06,0.04-0.12,0.08-0.18,0.12c-0.5,0.36-1.15,0.71-1.48,1.24c-0.14,0.22,0.06,0.45,0.29,0.42c0.6-0.08,1.17-0.53,1.7-0.82
		c0.14-0.08,0.28-0.17,0.42-0.25l-0.2,1.18c-0.11,0.65-0.4,1.46,0.1,2.01c0.22,0.24,0.62,0.33,0.92,0.16
		c0.68-0.39,0.65-1.27,0.75-1.96c0-0.03,0.01-0.06,0.01-0.09c0.37,0.39,0.76,0.75,1.23,1.03c0.34,0.2,0.79-0.16,0.59-0.54
		c-0.4-0.73-0.92-1.38-1.43-2.04c0.56,0.14,1.12,0.3,1.67,0.47c0.64,0.19,1.47,0.57,2.14,0.42
		C288.86,33.36,288.99,33.07,288.87,32.84z"/>
        <path class="st4" d="M313.06,44.94c-0.35-0.67-1.29-1.01-1.96-1.27c-0.46-0.18-0.93-0.31-1.4-0.42c0.05-0.03,0.11-0.07,0.16-0.1
		c0.27-0.17,0.54-0.35,0.81-0.53c0.29-0.19,0.66-0.37,0.83-0.69c0.16-0.32,0.02-0.82-0.42-0.8c-0.36,0.02-0.62,0.19-0.92,0.38
		c-0.27,0.17-0.54,0.35-0.82,0.52c-0.06,0.04-0.12,0.09-0.19,0.13c0.07-0.54,0.12-1.08,0.12-1.61c0.01-0.78-1.14-1.01-1.37-0.24
		c-0.21,0.68-0.35,1.39-0.47,2.11c-0.04-0.07-0.09-0.13-0.13-0.2c-0.15-0.25-0.3-0.51-0.44-0.76c-0.08-0.14-0.18-0.28-0.27-0.41
		c-0.1-0.14-0.21-0.25-0.32-0.38c-0.26-0.31-0.72-0.02-0.66,0.34c0.03,0.16,0.03,0.31,0.09,0.47c0.05,0.15,0.1,0.3,0.16,0.45
		c0.12,0.27,0.26,0.53,0.39,0.8c-0.83-0.04-1.65,0-2.45,0.2c-0.56,0.14-0.43,0.87,0.09,0.96c0.79,0.12,1.59,0.2,2.38,0.29
		c-0.06,0.04-0.12,0.08-0.18,0.12c-0.5,0.36-1.15,0.71-1.48,1.24c-0.14,0.22,0.06,0.45,0.29,0.42c0.6-0.08,1.17-0.53,1.7-0.82
		c0.14-0.08,0.28-0.17,0.42-0.25l-0.2,1.18c-0.11,0.65-0.4,1.46,0.1,2.01c0.22,0.24,0.62,0.33,0.92,0.16
		c0.68-0.39,0.65-1.27,0.75-1.96c0-0.03,0.01-0.06,0.01-0.09c0.37,0.39,0.76,0.75,1.23,1.03c0.34,0.2,0.79-0.16,0.59-0.54
		c-0.4-0.73-0.92-1.38-1.43-2.04c0.56,0.14,1.12,0.3,1.67,0.47c0.64,0.19,1.47,0.57,2.14,0.42
		C313.04,45.46,313.18,45.17,313.06,44.94z"/>
        <path class="st4" d="M338.95,27.16c-0.35-0.67-1.29-1.01-1.96-1.27c-0.46-0.18-0.93-0.31-1.4-0.42c0.05-0.03,0.11-0.07,0.16-0.1
		c0.27-0.17,0.54-0.35,0.81-0.53c0.29-0.19,0.66-0.37,0.83-0.69c0.16-0.32,0.02-0.82-0.42-0.8c-0.36,0.02-0.62,0.19-0.92,0.38
		c-0.27,0.17-0.54,0.35-0.82,0.52c-0.06,0.04-0.12,0.09-0.19,0.13c0.07-0.54,0.12-1.08,0.12-1.61c0.01-0.78-1.14-1.01-1.37-0.24
		c-0.21,0.68-0.35,1.39-0.47,2.11c-0.04-0.07-0.09-0.13-0.13-0.2c-0.15-0.25-0.3-0.51-0.44-0.76c-0.08-0.14-0.18-0.28-0.27-0.41
		c-0.1-0.14-0.21-0.25-0.32-0.38c-0.26-0.31-0.72-0.02-0.66,0.34c0.03,0.16,0.03,0.31,0.09,0.47c0.05,0.15,0.1,0.3,0.16,0.45
		c0.12,0.27,0.26,0.53,0.39,0.8c-0.83-0.04-1.65,0-2.45,0.2c-0.56,0.14-0.43,0.87,0.09,0.96c0.79,0.12,1.59,0.2,2.38,0.29
		c-0.06,0.04-0.12,0.08-0.18,0.12c-0.5,0.36-1.15,0.71-1.48,1.24c-0.14,0.22,0.06,0.45,0.29,0.42c0.6-0.08,1.17-0.53,1.7-0.82
		c0.14-0.08,0.28-0.17,0.42-0.25l-0.2,1.18c-0.11,0.65-0.4,1.46,0.1,2.01c0.22,0.24,0.62,0.33,0.92,0.16
		c0.68-0.39,0.65-1.27,0.75-1.96c0-0.03,0.01-0.06,0.01-0.09c0.37,0.39,0.76,0.75,1.23,1.03c0.34,0.2,0.79-0.16,0.59-0.54
		c-0.4-0.73-0.92-1.38-1.43-2.04c0.56,0.14,1.12,0.3,1.67,0.47c0.64,0.19,1.47,0.57,2.14,0.42
		C338.94,27.68,339.07,27.39,338.95,27.16z"/>
        <path class="st4" d="M361.87,45.58c-0.35-0.67-1.29-1.01-1.96-1.27c-0.46-0.18-0.93-0.31-1.4-0.42c0.05-0.03,0.11-0.07,0.16-0.1
		c0.27-0.17,0.54-0.35,0.81-0.53c0.29-0.19,0.66-0.37,0.83-0.69c0.16-0.32,0.02-0.82-0.42-0.8c-0.36,0.02-0.62,0.19-0.92,0.38
		c-0.27,0.17-0.54,0.35-0.82,0.52c-0.06,0.04-0.12,0.09-0.19,0.13c0.07-0.54,0.12-1.08,0.12-1.61c0.01-0.78-1.14-1.01-1.37-0.24
		c-0.21,0.68-0.35,1.39-0.47,2.11c-0.04-0.07-0.09-0.13-0.13-0.2c-0.15-0.25-0.3-0.51-0.44-0.76c-0.08-0.14-0.18-0.28-0.27-0.41
		c-0.1-0.14-0.21-0.25-0.32-0.38c-0.26-0.31-0.72-0.02-0.66,0.34c0.03,0.16,0.03,0.31,0.09,0.47c0.05,0.15,0.1,0.3,0.16,0.45
		c0.12,0.27,0.26,0.53,0.39,0.8c-0.83-0.04-1.65,0-2.45,0.2c-0.56,0.14-0.43,0.88,0.09,0.96c0.79,0.12,1.59,0.2,2.38,0.29
		c-0.06,0.04-0.12,0.08-0.18,0.12c-0.5,0.36-1.15,0.71-1.48,1.24c-0.14,0.22,0.06,0.45,0.29,0.42c0.6-0.08,1.17-0.53,1.7-0.82
		c0.14-0.08,0.28-0.17,0.42-0.25l-0.2,1.18c-0.11,0.65-0.4,1.46,0.1,2.01c0.22,0.24,0.62,0.33,0.92,0.16
		c0.68-0.39,0.65-1.27,0.75-1.96c0-0.03,0.01-0.06,0.01-0.09c0.37,0.39,0.76,0.75,1.23,1.03c0.34,0.2,0.79-0.16,0.59-0.54
		c-0.4-0.73-0.92-1.38-1.43-2.04c0.56,0.14,1.12,0.3,1.67,0.47c0.64,0.19,1.47,0.57,2.14,0.42
		C361.86,46.09,361.99,45.8,361.87,45.58z"/>
        <path class="st4" d="M345.07,21.6c-16.1-8.43-35.45-8.79-54.48-1.02c-7.05,2.88-13.66,6.75-19.54,11.3
		c13.65-8.23,37.56-18.94,62.08-12.35c32.28,8.68,38.06,31.09,38.95,42.48c0.08-0.01,0.16-0.03,0.24-0.03
		c0.31-2.57,0.36-5.69-0.22-9.13C370.01,40.56,360.66,29.75,345.07,21.6z"/>
</g>
    <g>
	<path class="st4" d="M404.6,305.22c-0.03-0.02-0.07-0.04-0.12-0.05c0.05,0.03,0.06,0.05-0.04,0c-0.02-0.01-0.04-0.02-0.06-0.02
		c-0.05-0.01-0.1-0.02-0.14-0.01c0.04-0.01,0.08-0.01,0.12,0c-0.05-0.02-0.09-0.04-0.14-0.06c0.11,0.04,0.12,0.04,0.01-0.02
		c-0.05-0.03-0.11-0.06-0.16-0.08c-0.13-0.07-0.27-0.14-0.4-0.2c-0.31-0.16-0.62-0.31-0.93-0.48c-0.15-0.08-0.29-0.15-0.44-0.23
		c0.04-0.03,0.08-0.06,0.12-0.09c0.28-0.21,0.55-0.43,0.8-0.68c0.22-0.22,0.44-0.45,0.63-0.7c0.23-0.3,0.55-0.78,0.4-1.17
		c-0.1-0.26-0.3-0.43-0.59-0.45c-0.38-0.02-0.66,0.31-0.92,0.55c-0.2,0.19-0.39,0.4-0.6,0.58c-0.09,0.08-0.18,0.15-0.28,0.23
		c-0.01,0.01-0.03,0.02-0.04,0.03c-0.06,0.04-0.12,0.09-0.19,0.13c-0.13,0.09-0.26,0.17-0.39,0.25c-0.2-0.24-0.5-0.41-0.9-0.42
		c-1.54-0.05-3.09-0.03-4.63-0.02c0.28-0.33,0.56-0.65,0.85-0.97c0.39-0.42,0.76-0.86,1.16-1.27c0.13-0.14,0.34-0.32,0.52-0.52
		c0.04,0.01,0.08,0.02,0.12,0.02c0.4,0.05,0.8,0.05,1.2,0.07c0.2,0.01,0.4,0.01,0.6,0c0.27-0.01,0.56-0.02,0.81-0.16
		c0.17-0.09,0.38-0.32,0.32-0.54c-0.07-0.26-0.31-0.41-0.56-0.5c-0.22-0.08-0.46-0.09-0.69-0.11c-0.22-0.02-0.44-0.03-0.66-0.03
		c-0.2,0-0.4-0.01-0.6-0.01c-0.02,0-0.03,0-0.05,0c0,0,0,0,0,0c0.05-0.27,0.08-0.54,0.11-0.82c0.03-0.24,0.06-0.47,0.09-0.71
		c0.01-0.12,0.03-0.24,0.04-0.36c0.02-0.17-0.02-0.3-0.08-0.46c-0.12-0.27-0.5-0.26-0.68-0.09c-0.19,0.18-0.23,0.4-0.29,0.64
		c-0.06,0.21-0.12,0.43-0.18,0.64c-0.11,0.4-0.23,0.79-0.29,1.2c-0.01,0.04-0.01,0.08-0.01,0.12c-0.24,0.15-0.46,0.33-0.69,0.49
		c-0.5,0.37-1.01,0.75-1.48,1.16c-0.09,0.08-0.18,0.17-0.27,0.25c0.01-1.14,0.01-2.27-0.03-3.41c0.01-0.15-0.02-0.28-0.05-0.4
		c0.91-0.83,1.79-1.69,2.53-2.66c0,0-0.01,0-0.01-0.01c0.14-0.22,0.18-0.5,0.06-0.79c-0.19-0.44-0.83-0.75-1.26-0.43
		c-0.93,0.7-1.77,1.51-2.57,2.36c-0.2-0.18-0.39-0.38-0.58-0.58c-0.4-0.43-0.77-0.87-1.25-1.22c-0.18-0.13-0.48-0.09-0.65,0.05
		c-0.2,0.16-0.24,0.37-0.21,0.61c0.09,0.62,0.44,1.18,0.81,1.67c0.25,0.33,0.52,0.64,0.79,0.94c-0.05,0.13-0.09,0.28-0.1,0.45
		c-0.05,1.32-0.04,2.65-0.02,3.98c-0.39-0.4-0.77-0.81-1.15-1.23c-0.43-0.47-0.81-1.04-1.38-1.34c0.01-0.1,0.02-0.19,0.02-0.29
		c0.01-0.22-0.01-0.44-0.01-0.66c0-0.22,0-0.44-0.01-0.66c-0.01-0.16-0.04-0.33-0.07-0.48c-0.03-0.15-0.09-0.28-0.16-0.41
		c-0.22-0.41-0.86-0.4-1.08,0c-0.15,0.28-0.22,0.57-0.25,0.89c-0.02,0.22-0.02,0.44-0.02,0.66c-0.01,0.22-0.03,0.44-0.02,0.66
		c0,0.01,0,0.01,0,0.02c-0.57,0.07-1.14,0.16-1.7,0.3c-0.32,0.08-0.54,0.46-0.44,0.78c0.12,0.36,0.42,0.49,0.78,0.44
		c0,0,0.17-0.02,0.08-0.01c-0.09,0.01,0.06-0.01,0.08-0.01c0.09-0.01,0.18-0.02,0.28-0.03c0.19-0.02,0.39-0.03,0.58-0.04
		c0.38-0.02,0.77-0.02,1.15,0.01c0.04,0,0.09,0,0.13-0.01c0.07,0.12,0.17,0.23,0.25,0.34c0.19,0.26,0.39,0.52,0.58,0.77
		c0.42,0.54,0.84,1.08,1.27,1.6c0.02,0.03,0.04,0.05,0.06,0.08c-1.44,0-2.88-0.01-4.31-0.01c-0.26,0-0.47,0.07-0.65,0.18
		c-0.43-0.32-0.86-0.65-1.29-0.97c-0.24-0.18-0.48-0.35-0.73-0.51c-0.3-0.19-0.59-0.37-0.96-0.37c-0.36,0.01-0.55,0.32-0.5,0.65
		c0.06,0.35,0.3,0.6,0.53,0.85c0.21,0.24,0.43,0.45,0.66,0.67c0.23,0.22,0.47,0.44,0.7,0.67c-0.15,0.21-0.33,0.4-0.5,0.59
		c-0.24,0.26-0.49,0.49-0.69,0.79c-0.14,0.2-0.26,0.38-0.3,0.63c-0.05,0.38,0.1,0.81,0.46,1c0.87,0.46,1.62-0.38,2.12-1
		c0.21-0.26,0.41-0.52,0.6-0.79c0.16,0.08,0.34,0.12,0.56,0.12c1.42-0.01,2.84-0.01,4.26-0.01c-0.11,0.13-0.23,0.26-0.34,0.39
		c-0.51,0.59-1.07,1.22-1.43,1.94c-0.46-0.02-0.92-0.07-1.37-0.07c-0.22,0-0.45-0.01-0.67,0c-0.24,0.01-0.49,0.07-0.73,0.11
		c-0.15,0.02-0.25,0.19-0.25,0.33c0,0.16,0.11,0.27,0.25,0.33c0.21,0.08,0.41,0.19,0.63,0.24c0.21,0.06,0.43,0.1,0.65,0.15
		c0.23,0.05,0.46,0.08,0.69,0.12c0,0.05,0,0.09-0.01,0.14c-0.01,0.06-0.01,0.12-0.02,0.19c0,0.01,0,0.02,0,0.04c0,0,0,0,0-0.01
		c0,0.13-0.04,0.27-0.07,0.4c-0.05,0.25-0.12,0.5-0.2,0.75c-0.1,0.3-0.2,0.6-0.19,0.92c0.02,0.66,0.81,0.99,1.29,0.54
		c0.47-0.44,0.6-1.19,0.7-1.8c0.05-0.32,0.09-0.64,0.11-0.96c0.01-0.14,0.01-0.29,0.01-0.43c0-0.01,0-0.01,0-0.02
		c0.69-0.46,1.25-1.13,1.83-1.75c0.07-0.07,0.14-0.14,0.21-0.22c0,1.34,0,2.68-0.01,4.02c0,0.18,0.04,0.34,0.1,0.49
		c-0.25,0.25-0.48,0.51-0.7,0.79c-0.38,0.48-0.79,0.96-0.94,1.57c-0.09,0.37,0.06,0.82,0.41,1.01c0.38,0.2,0.76,0.12,1.08-0.14
		c0.22-0.18,0.37-0.38,0.54-0.61c0.03-0.04,0.06-0.08,0.09-0.12c0,0,0,0,0,0c0.07-0.08,0.14-0.17,0.21-0.25
		c0.2-0.23,0.41-0.45,0.63-0.67c0.09,0.07,0.17,0.14,0.26,0.22c0.35,0.31,0.66,0.66,1.01,0.97c0.32,0.29,0.76,0.47,1.2,0.41
		c0.51-0.07,0.91-0.53,0.89-1.06c-0.03-0.7-0.57-1.16-1.07-1.58c-0.17-0.15-0.35-0.29-0.53-0.43c-0.21-0.16-0.43-0.36-0.66-0.48
		c0-0.04,0.01-0.07,0.01-0.11c0-1.18-0.01-2.37-0.01-3.55c0.02,0.02,0.03,0.04,0.05,0.06c0.43,0.44,0.9,0.83,1.4,1.18
		c0.39,0.28,0.82,0.52,1.28,0.66c0.02,0.47,0.04,0.94,0.09,1.41c0.06,0.56,0.02,1.27,0.48,1.67c0.25,0.21,0.71,0.3,0.94,0
		c0.22-0.29,0.35-0.61,0.31-0.98c-0.02-0.24-0.05-0.48-0.07-0.73c-0.03-0.31-0.08-0.63-0.12-0.94c0.03-0.02,0.07-0.04,0.08-0.05
		c0.08-0.03,0.15-0.06,0.23-0.09c0.28-0.11,0.57-0.2,0.86-0.29c0.29-0.09,0.58-0.16,0.87-0.24c0.41-0.1,0.96-0.42,0.76-0.92
		c-0.19-0.47-0.78-0.42-1.18-0.34c-0.3,0.06-0.59,0.12-0.88,0.2c-0.29,0.08-0.58,0.16-0.87,0.25c-0.02,0.01-0.04,0.01-0.06,0.02
		c-0.02-0.06-0.04-0.12-0.08-0.17c-0.19-0.26-0.39-0.5-0.63-0.73c-0.18-0.17-0.37-0.33-0.56-0.49c-0.41-0.34-0.82-0.7-1.21-1.06
		c-0.07-0.06-0.13-0.13-0.2-0.2c1.29,0.01,2.58,0.02,3.87-0.03c0.04,0.06,0.08,0.11,0.12,0.16c0.2,0.23,0.48,0.37,0.74,0.51
		l0.87,0.49c0.28,0.16,0.55,0.32,0.82,0.48c0.4,0.23,0.84,0.52,1.32,0.39c0.44-0.12,0.73-0.55,0.71-1
		C404.93,305.58,404.81,305.34,404.6,305.22z"/>
        <path class="st4" d="M404.48,305.16c-0.03-0.01-0.07-0.03-0.12-0.04c0.01,0,0.02,0.01,0.02,0.01
		C404.42,305.14,404.45,305.15,404.48,305.16z"/>
</g>
    <g>
	<path class="st4" d="M194.3,323.42c-0.03-0.01-0.06-0.03-0.1-0.04c0.04,0.02,0.05,0.04-0.03,0c-0.02-0.01-0.03-0.01-0.05-0.02
		c-0.04-0.01-0.08-0.01-0.12-0.01c0.03-0.01,0.07,0,0.1,0c-0.04-0.02-0.07-0.03-0.11-0.05c0.09,0.04,0.09,0.03,0.01-0.02
		c-0.04-0.03-0.09-0.04-0.13-0.07c-0.11-0.05-0.22-0.11-0.33-0.16c-0.25-0.13-0.5-0.25-0.75-0.38c-0.12-0.06-0.24-0.12-0.35-0.19
		c0.03-0.02,0.07-0.05,0.1-0.07c0.22-0.17,0.44-0.35,0.64-0.54c0.18-0.18,0.35-0.36,0.51-0.56c0.19-0.24,0.44-0.63,0.33-0.94
		c-0.08-0.21-0.24-0.35-0.47-0.36c-0.31-0.01-0.53,0.25-0.74,0.44c-0.16,0.15-0.31,0.32-0.49,0.47c-0.07,0.06-0.15,0.12-0.22,0.18
		c-0.01,0.01-0.02,0.02-0.03,0.02c-0.05,0.04-0.1,0.07-0.15,0.11c-0.1,0.07-0.21,0.13-0.32,0.2c-0.16-0.2-0.4-0.33-0.73-0.34
		c-1.24-0.04-2.48-0.03-3.73-0.01c0.22-0.26,0.45-0.53,0.68-0.78c0.31-0.34,0.61-0.69,0.94-1.02c0.11-0.11,0.27-0.26,0.42-0.42
		c0.03,0.01,0.06,0.01,0.09,0.02c0.32,0.04,0.64,0.04,0.96,0.06c0.16,0.01,0.32,0.01,0.48,0c0.22-0.01,0.45-0.02,0.65-0.13
		c0.13-0.08,0.31-0.26,0.26-0.43c-0.06-0.21-0.25-0.33-0.45-0.4c-0.18-0.06-0.37-0.07-0.56-0.09c-0.18-0.02-0.35-0.02-0.53-0.03
		c-0.16,0-0.32-0.01-0.48-0.01c-0.01,0-0.02,0-0.04,0c0,0,0,0,0,0c0.04-0.22,0.06-0.44,0.09-0.66c0.02-0.19,0.05-0.38,0.07-0.57
		c0.01-0.1,0.02-0.19,0.03-0.29c0.02-0.14-0.01-0.24-0.07-0.37c-0.09-0.21-0.4-0.21-0.55-0.07c-0.15,0.14-0.18,0.33-0.24,0.52
		c-0.05,0.17-0.09,0.34-0.14,0.51c-0.09,0.32-0.18,0.64-0.24,0.97c-0.01,0.03-0.01,0.06-0.01,0.1c-0.19,0.12-0.37,0.26-0.55,0.4
		c-0.4,0.3-0.81,0.6-1.19,0.94c-0.07,0.07-0.14,0.14-0.22,0.2c0.01-0.92,0.01-1.83-0.02-2.74c0-0.12-0.01-0.22-0.04-0.32
		c0.73-0.67,1.44-1.36,2.04-2.14c0,0-0.01,0-0.01,0c0.11-0.18,0.15-0.4,0.05-0.63c-0.15-0.36-0.67-0.61-1.02-0.34
		c-0.75,0.56-1.42,1.22-2.07,1.9c-0.16-0.15-0.32-0.3-0.46-0.46c-0.32-0.35-0.62-0.7-1-0.98c-0.15-0.11-0.39-0.07-0.52,0.04
		c-0.16,0.13-0.2,0.3-0.17,0.49c0.07,0.5,0.35,0.95,0.65,1.34c0.2,0.26,0.41,0.51,0.64,0.76c-0.04,0.11-0.07,0.22-0.08,0.36
		c-0.04,1.06-0.03,2.13-0.02,3.2c-0.31-0.32-0.62-0.65-0.92-0.99c-0.34-0.38-0.65-0.83-1.11-1.07c0.01-0.08,0.02-0.15,0.02-0.23
		c0.01-0.18,0-0.36-0.01-0.53c0-0.18,0-0.36-0.01-0.53c-0.01-0.13-0.03-0.26-0.06-0.39c-0.02-0.12-0.08-0.22-0.13-0.33
		c-0.18-0.33-0.69-0.32-0.87,0c-0.12,0.22-0.18,0.46-0.2,0.72c-0.02,0.18-0.01,0.36-0.02,0.53c-0.01,0.18-0.02,0.36-0.02,0.53
		c0,0,0,0.01,0,0.01c-0.46,0.05-0.92,0.13-1.37,0.24c-0.26,0.07-0.44,0.37-0.35,0.62c0.09,0.29,0.34,0.4,0.62,0.35
		c0,0,0.14-0.02,0.07-0.01c-0.07,0.01,0.05-0.01,0.07-0.01c0.07-0.01,0.15-0.02,0.22-0.02c0.16-0.01,0.31-0.03,0.47-0.03
		c0.31-0.01,0.62-0.02,0.92,0.01c0.03,0,0.07,0,0.11-0.01c0.06,0.1,0.14,0.18,0.2,0.27c0.15,0.21,0.31,0.42,0.47,0.62
		c0.33,0.44,0.67,0.87,1.02,1.29c0.02,0.02,0.03,0.04,0.05,0.06c-1.16,0-2.31,0-3.47-0.01c-0.21,0-0.38,0.06-0.52,0.15
		c-0.35-0.26-0.69-0.52-1.04-0.78c-0.19-0.14-0.38-0.28-0.59-0.41c-0.24-0.16-0.47-0.3-0.78-0.29c-0.29,0-0.44,0.26-0.4,0.53
		c0.04,0.28,0.24,0.48,0.42,0.69c0.17,0.19,0.35,0.37,0.53,0.54c0.19,0.18,0.38,0.36,0.56,0.54c-0.12,0.17-0.27,0.32-0.4,0.47
		c-0.19,0.21-0.39,0.4-0.56,0.63c-0.11,0.16-0.21,0.31-0.24,0.51c-0.04,0.3,0.08,0.65,0.37,0.81c0.7,0.37,1.31-0.31,1.71-0.8
		c0.17-0.21,0.33-0.42,0.48-0.63c0.13,0.06,0.28,0.1,0.45,0.1c1.14,0,2.29-0.01,3.43-0.01c-0.09,0.1-0.18,0.21-0.27,0.31
		c-0.41,0.47-0.86,0.98-1.15,1.56c-0.37-0.01-0.74-0.06-1.11-0.06c-0.18,0-0.36,0-0.54,0c-0.2,0.01-0.39,0.06-0.59,0.09
		c-0.12,0.02-0.2,0.15-0.2,0.27c0,0.13,0.09,0.22,0.2,0.27c0.17,0.07,0.33,0.15,0.5,0.19c0.17,0.05,0.35,0.08,0.52,0.12
		c0.18,0.04,0.37,0.07,0.55,0.1c0,0.04,0,0.07-0.01,0.11c0,0.05-0.01,0.1-0.01,0.15c0,0.01,0,0.02,0,0.03c0,0,0,0,0-0.01
		c0,0.1-0.04,0.22-0.06,0.32c-0.04,0.2-0.09,0.4-0.16,0.6c-0.08,0.24-0.16,0.48-0.16,0.74c0.01,0.53,0.65,0.8,1.04,0.43
		c0.38-0.36,0.49-0.95,0.56-1.45c0.04-0.26,0.07-0.51,0.09-0.77c0.01-0.12,0.01-0.23,0.01-0.35c0-0.01,0-0.01,0-0.02
		c0.56-0.37,1.01-0.91,1.47-1.41c0.06-0.06,0.11-0.12,0.17-0.18c0,1.08,0,2.16-0.01,3.24c0,0.15,0.03,0.28,0.08,0.39
		c-0.2,0.2-0.39,0.41-0.56,0.63c-0.31,0.39-0.64,0.77-0.76,1.26c-0.07,0.3,0.05,0.66,0.33,0.81c0.3,0.16,0.61,0.1,0.87-0.11
		c0.17-0.14,0.3-0.31,0.43-0.49c0.02-0.03,0.05-0.07,0.07-0.1c0,0,0,0,0,0c0.05-0.07,0.11-0.14,0.17-0.2
		c0.16-0.19,0.33-0.37,0.5-0.54c0.07,0.06,0.14,0.11,0.21,0.17c0.28,0.25,0.53,0.53,0.81,0.78c0.26,0.23,0.61,0.38,0.96,0.33
		c0.41-0.06,0.73-0.42,0.71-0.85c-0.03-0.57-0.46-0.93-0.86-1.27c-0.14-0.12-0.28-0.23-0.42-0.35c-0.17-0.13-0.34-0.29-0.53-0.39
		c0-0.03,0.01-0.06,0.01-0.09c0-0.95-0.01-1.9-0.01-2.86c0.01,0.01,0.03,0.03,0.04,0.04c0.35,0.35,0.72,0.66,1.12,0.95
		c0.31,0.22,0.66,0.42,1.03,0.53c0.02,0.38,0.03,0.76,0.07,1.13c0.05,0.45,0.02,1.02,0.39,1.34c0.2,0.17,0.57,0.24,0.76,0
		c0.18-0.23,0.28-0.49,0.25-0.79c-0.02-0.19-0.04-0.39-0.06-0.58c-0.03-0.25-0.06-0.51-0.1-0.76c0.02-0.01,0.06-0.03,0.07-0.04
		c0.06-0.03,0.12-0.05,0.19-0.07c0.23-0.09,0.46-0.16,0.69-0.24c0.23-0.07,0.47-0.13,0.7-0.19c0.33-0.08,0.77-0.34,0.61-0.74
		c-0.15-0.38-0.63-0.34-0.95-0.28c-0.24,0.05-0.48,0.1-0.71,0.16c-0.24,0.06-0.47,0.13-0.7,0.2c-0.02,0.01-0.03,0.01-0.05,0.02
		c-0.02-0.05-0.03-0.1-0.06-0.14c-0.16-0.21-0.31-0.4-0.5-0.59c-0.14-0.14-0.3-0.26-0.45-0.39c-0.33-0.28-0.66-0.56-0.98-0.85
		c-0.06-0.05-0.11-0.1-0.16-0.16c1.04,0.01,2.08,0.02,3.11-0.02c0.03,0.04,0.06,0.09,0.1,0.13c0.16,0.18,0.38,0.29,0.59,0.41
		l0.7,0.39c0.22,0.12,0.44,0.26,0.66,0.38c0.32,0.19,0.67,0.42,1.06,0.31c0.36-0.1,0.59-0.44,0.57-0.8
		C194.57,323.71,194.47,323.52,194.3,323.42z"/>
        <path class="st4" d="M194.2,323.37c-0.02-0.01-0.06-0.02-0.09-0.03c0.01,0,0.01,0.01,0.02,0.01
		C194.15,323.36,194.18,323.36,194.2,323.37z"/>
</g>
    <g>
	<path class="st4" d="M51.09,130.69c-0.02-0.01-0.05-0.03-0.08-0.04c0.04,0.02,0.04,0.03-0.03,0c-0.01-0.01-0.03-0.01-0.04-0.02
		c-0.04-0.01-0.07-0.01-0.1-0.01c0.03-0.01,0.06,0,0.08,0c-0.03-0.01-0.06-0.03-0.09-0.04c0.08,0.03,0.08,0.02,0.01-0.02
		c-0.03-0.02-0.08-0.04-0.11-0.06c-0.09-0.05-0.19-0.1-0.28-0.14c-0.22-0.11-0.44-0.22-0.65-0.33c-0.1-0.05-0.21-0.11-0.31-0.16
		c0.03-0.02,0.06-0.04,0.09-0.06c0.2-0.15,0.39-0.3,0.56-0.48c0.16-0.15,0.31-0.32,0.44-0.49c0.16-0.21,0.39-0.55,0.28-0.82
		c-0.07-0.19-0.21-0.31-0.41-0.31c-0.27-0.01-0.46,0.21-0.65,0.39c-0.14,0.14-0.27,0.28-0.42,0.41c-0.06,0.06-0.13,0.11-0.19,0.16
		c-0.01,0.01-0.02,0.02-0.03,0.02c-0.04,0.03-0.09,0.06-0.13,0.09c-0.09,0.06-0.18,0.12-0.28,0.17c-0.14-0.17-0.35-0.29-0.63-0.3
		c-1.08-0.04-2.17-0.02-3.25-0.01c0.2-0.23,0.39-0.46,0.59-0.68c0.27-0.3,0.54-0.6,0.82-0.89c0.09-0.1,0.24-0.23,0.37-0.37
		c0.03,0.01,0.05,0.01,0.08,0.02c0.28,0.03,0.56,0.03,0.84,0.05c0.14,0.01,0.28,0.01,0.42,0c0.19,0,0.4-0.02,0.57-0.11
		c0.12-0.07,0.27-0.23,0.23-0.38c-0.05-0.19-0.22-0.29-0.39-0.35c-0.16-0.06-0.32-0.06-0.49-0.08c-0.15-0.01-0.31-0.02-0.46-0.02
		c-0.14,0-0.28-0.01-0.42-0.01c-0.01,0-0.02,0-0.03,0c0,0,0,0,0,0c0.03-0.19,0.06-0.38,0.08-0.57c0.02-0.17,0.04-0.33,0.06-0.5
		c0.01-0.08,0.02-0.17,0.03-0.25c0.01-0.12-0.01-0.21-0.06-0.32c-0.08-0.19-0.35-0.18-0.48-0.06c-0.13,0.12-0.16,0.28-0.21,0.45
		c-0.04,0.15-0.08,0.3-0.12,0.45c-0.08,0.28-0.16,0.56-0.21,0.84c0,0.03-0.01,0.06-0.01,0.08c-0.17,0.1-0.32,0.23-0.48,0.35
		c-0.35,0.26-0.71,0.53-1.04,0.82c-0.06,0.06-0.13,0.12-0.19,0.18c0.01-0.8,0.01-1.6-0.02-2.39c0-0.1-0.01-0.2-0.04-0.28
		c0.64-0.58,1.25-1.19,1.78-1.87c0,0-0.01,0-0.01,0c0.1-0.16,0.13-0.35,0.04-0.55c-0.13-0.31-0.58-0.53-0.89-0.3
		c-0.66,0.49-1.24,1.06-1.81,1.66c-0.14-0.13-0.28-0.26-0.41-0.4c-0.28-0.3-0.54-0.61-0.88-0.86c-0.13-0.09-0.34-0.06-0.45,0.03
		c-0.14,0.11-0.17,0.26-0.15,0.43c0.06,0.43,0.31,0.83,0.57,1.17c0.17,0.23,0.36,0.45,0.56,0.66c-0.04,0.09-0.06,0.2-0.07,0.31
		c-0.03,0.93-0.03,1.86-0.02,2.79c-0.27-0.28-0.54-0.57-0.81-0.86c-0.3-0.33-0.57-0.73-0.97-0.94c0.01-0.07,0.01-0.13,0.02-0.2
		c0.01-0.15,0-0.31-0.01-0.47c0-0.15,0-0.31-0.01-0.47c-0.01-0.11-0.03-0.23-0.05-0.34c-0.02-0.1-0.07-0.19-0.12-0.29
		c-0.15-0.29-0.6-0.28-0.76,0c-0.11,0.2-0.15,0.4-0.17,0.63c-0.01,0.15-0.01,0.31-0.02,0.47c0,0.15-0.02,0.31-0.01,0.47
		c0,0,0,0.01,0,0.01c-0.4,0.05-0.8,0.11-1.2,0.21c-0.22,0.06-0.38,0.32-0.31,0.55c0.08,0.25,0.3,0.35,0.55,0.31
		c0,0,0.12-0.02,0.06-0.01c-0.06,0.01,0.05-0.01,0.06-0.01c0.06-0.01,0.13-0.01,0.19-0.02c0.14-0.01,0.27-0.02,0.41-0.03
		c0.27-0.01,0.54-0.01,0.81,0.01c0.03,0,0.06,0,0.09-0.01c0.05,0.08,0.12,0.16,0.18,0.24c0.13,0.18,0.27,0.36,0.41,0.54
		c0.29,0.38,0.59,0.76,0.89,1.13c0.01,0.02,0.03,0.04,0.05,0.05c-1.01,0-2.02,0-3.03-0.01c-0.18,0-0.33,0.05-0.46,0.13
		c-0.3-0.23-0.61-0.45-0.91-0.68c-0.17-0.13-0.34-0.25-0.51-0.36c-0.21-0.14-0.41-0.26-0.68-0.26c-0.26,0-0.39,0.23-0.35,0.46
		c0.04,0.25,0.21,0.42,0.37,0.6c0.15,0.17,0.31,0.32,0.47,0.47c0.16,0.16,0.33,0.31,0.49,0.47c-0.11,0.15-0.23,0.28-0.35,0.41
		c-0.17,0.18-0.34,0.35-0.48,0.55c-0.1,0.14-0.19,0.27-0.21,0.45c-0.04,0.27,0.07,0.57,0.32,0.7c0.61,0.32,1.14-0.27,1.49-0.7
		c0.14-0.18,0.28-0.37,0.42-0.55c0.11,0.05,0.24,0.09,0.39,0.09c1,0,2-0.01,3-0.01c-0.08,0.09-0.16,0.18-0.24,0.27
		c-0.36,0.41-0.75,0.86-1,1.36c-0.32-0.01-0.64-0.05-0.96-0.05c-0.16,0-0.31,0-0.47,0c-0.17,0.01-0.34,0.05-0.51,0.08
		c-0.1,0.02-0.18,0.13-0.18,0.23c0,0.11,0.08,0.19,0.18,0.23c0.14,0.06,0.29,0.13,0.44,0.17c0.15,0.04,0.3,0.07,0.46,0.11
		c0.16,0.03,0.32,0.06,0.48,0.08c0,0.03,0,0.06-0.01,0.1c0,0.04-0.01,0.09-0.01,0.13c0,0.01,0,0.01,0,0.03c0,0,0,0,0-0.01
		c0,0.09-0.03,0.19-0.05,0.28c-0.04,0.18-0.08,0.35-0.14,0.53c-0.07,0.21-0.14,0.42-0.14,0.65c0.01,0.47,0.57,0.7,0.91,0.38
		c0.33-0.31,0.42-0.83,0.49-1.26c0.04-0.22,0.06-0.45,0.08-0.67c0.01-0.1,0.01-0.2,0.01-0.3c0-0.01,0-0.01,0-0.01
		c0.49-0.32,0.88-0.79,1.29-1.23c0.05-0.05,0.1-0.1,0.15-0.15c0,0.94,0,1.88-0.01,2.83c0,0.13,0.03,0.24,0.07,0.34
		c-0.17,0.18-0.34,0.36-0.49,0.55c-0.27,0.34-0.56,0.67-0.66,1.1c-0.06,0.26,0.04,0.58,0.29,0.71c0.26,0.14,0.54,0.09,0.76-0.1
		c0.15-0.13,0.26-0.27,0.38-0.43c0.02-0.03,0.04-0.06,0.06-0.09c0,0,0,0,0,0c0.05-0.06,0.1-0.12,0.15-0.18
		c0.14-0.16,0.29-0.32,0.44-0.47c0.06,0.05,0.12,0.1,0.18,0.15c0.25,0.22,0.47,0.46,0.71,0.68c0.23,0.2,0.53,0.33,0.84,0.29
		c0.36-0.05,0.64-0.37,0.62-0.74c-0.02-0.49-0.4-0.81-0.75-1.11c-0.12-0.1-0.24-0.2-0.37-0.3c-0.15-0.11-0.3-0.25-0.47-0.34
		c0-0.03,0.01-0.05,0.01-0.08c0-0.83,0-1.66-0.01-2.49c0.01,0.01,0.02,0.03,0.04,0.04c0.3,0.31,0.63,0.58,0.98,0.83
		c0.27,0.2,0.58,0.37,0.9,0.46c0.02,0.33,0.03,0.66,0.06,0.99c0.04,0.39,0.01,0.89,0.34,1.17c0.17,0.15,0.5,0.21,0.66,0
		c0.16-0.2,0.24-0.43,0.22-0.69c-0.02-0.17-0.03-0.34-0.05-0.51c-0.02-0.22-0.05-0.44-0.09-0.66c0.02-0.01,0.05-0.03,0.06-0.03
		c0.05-0.02,0.11-0.04,0.16-0.06c0.2-0.07,0.4-0.14,0.6-0.21c0.2-0.06,0.41-0.12,0.61-0.17c0.29-0.07,0.67-0.29,0.53-0.65
		c-0.13-0.33-0.55-0.29-0.83-0.24c-0.21,0.04-0.42,0.09-0.62,0.14c-0.21,0.05-0.41,0.11-0.61,0.18c-0.01,0-0.03,0.01-0.04,0.01
		c-0.01-0.04-0.03-0.09-0.05-0.12c-0.14-0.19-0.27-0.35-0.44-0.51c-0.13-0.12-0.26-0.23-0.39-0.34c-0.29-0.24-0.58-0.49-0.85-0.75
		c-0.05-0.04-0.09-0.09-0.14-0.14c0.91,0.01,1.81,0.01,2.72-0.02c0.02,0.04,0.05,0.08,0.08,0.11c0.14,0.16,0.33,0.26,0.52,0.36
		l0.61,0.34c0.19,0.11,0.39,0.22,0.58,0.34c0.28,0.16,0.59,0.37,0.93,0.27c0.31-0.09,0.51-0.39,0.5-0.7
		C51.32,130.95,51.24,130.78,51.09,130.69z"/>
        <path class="st4" d="M51.01,130.66c-0.02-0.01-0.05-0.02-0.08-0.03c0.01,0,0.01,0,0.02,0.01
		C50.96,130.64,50.99,130.65,51.01,130.66z"/>
</g>
    <g>
	<path class="st4" d="M270.68,116.03c-0.04-0.02-0.08-0.04-0.13-0.06c0.06,0.03,0.07,0.05-0.04,0c-0.02-0.01-0.04-0.02-0.07-0.03
		c-0.06-0.01-0.12-0.02-0.16-0.01c0.05-0.01,0.09-0.01,0.13,0c-0.05-0.02-0.1-0.04-0.15-0.06c0.13,0.05,0.13,0.04,0.02-0.03
		c-0.05-0.04-0.12-0.06-0.18-0.09c-0.15-0.08-0.3-0.15-0.45-0.23c-0.35-0.17-0.69-0.35-1.03-0.53c-0.16-0.09-0.33-0.17-0.49-0.26
		c0.05-0.03,0.09-0.06,0.14-0.1c0.31-0.24,0.61-0.48,0.89-0.75c0.25-0.24,0.49-0.5,0.7-0.78c0.26-0.34,0.62-0.87,0.45-1.31
		c-0.11-0.29-0.33-0.48-0.66-0.5c-0.43-0.02-0.74,0.34-1.02,0.61c-0.23,0.21-0.44,0.45-0.67,0.65c-0.1,0.09-0.2,0.17-0.31,0.25
		c-0.02,0.01-0.03,0.03-0.04,0.03c-0.07,0.05-0.14,0.1-0.21,0.15c-0.14,0.1-0.29,0.19-0.44,0.27c-0.22-0.27-0.56-0.46-1.01-0.47
		c-1.72-0.06-3.44-0.04-5.16-0.02c0.31-0.36,0.62-0.73,0.94-1.08c0.43-0.47,0.85-0.95,1.3-1.41c0.15-0.15,0.38-0.36,0.58-0.58
		c0.04,0.01,0.09,0.02,0.13,0.02c0.44,0.05,0.89,0.05,1.34,0.08c0.22,0.01,0.44,0.01,0.66,0c0.31-0.01,0.63-0.02,0.9-0.18
		c0.19-0.1,0.42-0.36,0.36-0.6c-0.08-0.29-0.35-0.46-0.62-0.55c-0.25-0.09-0.51-0.1-0.77-0.12c-0.24-0.02-0.49-0.03-0.73-0.04
		c-0.22,0-0.44-0.01-0.66-0.01c-0.02,0-0.03,0-0.05,0c0,0,0,0,0,0c0.05-0.3,0.09-0.61,0.13-0.91c0.03-0.26,0.06-0.53,0.1-0.79
		c0.02-0.13,0.03-0.26,0.05-0.4c0.02-0.19-0.02-0.33-0.09-0.51c-0.13-0.3-0.56-0.29-0.76-0.1c-0.21,0.2-0.25,0.45-0.33,0.72
		c-0.07,0.24-0.13,0.47-0.2,0.71c-0.12,0.44-0.25,0.88-0.33,1.34c-0.01,0.04-0.01,0.09-0.02,0.13c-0.26,0.17-0.51,0.36-0.76,0.55
		c-0.56,0.41-1.13,0.83-1.65,1.3c-0.1,0.09-0.2,0.19-0.3,0.28c0.01-1.27,0.01-2.53-0.03-3.8c0.01-0.17-0.02-0.31-0.06-0.45
		c1.01-0.92,1.99-1.88,2.83-2.96c0,0-0.01,0-0.02-0.01c0.16-0.25,0.2-0.55,0.07-0.88c-0.21-0.49-0.92-0.84-1.41-0.48
		c-1.04,0.78-1.97,1.69-2.87,2.63c-0.22-0.21-0.44-0.42-0.64-0.64c-0.44-0.48-0.86-0.97-1.39-1.36c-0.2-0.15-0.54-0.1-0.72,0.05
		c-0.22,0.18-0.27,0.41-0.23,0.68c0.1,0.69,0.49,1.32,0.9,1.86c0.28,0.36,0.57,0.71,0.88,1.05c-0.06,0.15-0.1,0.31-0.11,0.5
		c-0.05,1.47-0.04,2.95-0.03,4.43c-0.43-0.45-0.86-0.9-1.28-1.37c-0.48-0.53-0.9-1.16-1.54-1.49c0.01-0.11,0.02-0.21,0.03-0.32
		c0.01-0.24-0.01-0.49-0.01-0.74c0-0.25,0-0.49-0.01-0.74c-0.01-0.18-0.05-0.36-0.08-0.54c-0.03-0.16-0.11-0.31-0.18-0.46
		c-0.24-0.46-0.96-0.45-1.2,0c-0.17,0.31-0.24,0.64-0.27,0.99c-0.02,0.24-0.02,0.49-0.02,0.74c-0.01,0.25-0.03,0.49-0.02,0.74
		c0,0.01,0,0.01,0,0.02c-0.64,0.07-1.27,0.18-1.9,0.33c-0.36,0.09-0.61,0.51-0.49,0.86c0.13,0.4,0.47,0.55,0.86,0.49
		c0,0,0.19-0.02,0.09-0.01c-0.1,0.01,0.07-0.01,0.09-0.01c0.1-0.01,0.21-0.02,0.31-0.03c0.22-0.02,0.43-0.04,0.65-0.04
		c0.43-0.02,0.85-0.02,1.28,0.01c0.05,0,0.1,0,0.15-0.01c0.08,0.13,0.19,0.25,0.28,0.38c0.21,0.29,0.43,0.58,0.65,0.86
		c0.46,0.6,0.93,1.2,1.42,1.79c0.02,0.03,0.05,0.06,0.07,0.09c-1.6,0-3.2-0.01-4.81-0.01c-0.29,0-0.53,0.08-0.73,0.2
		c-0.48-0.36-0.96-0.72-1.44-1.08c-0.27-0.2-0.53-0.39-0.81-0.57c-0.34-0.22-0.66-0.42-1.07-0.41c-0.41,0.01-0.61,0.36-0.55,0.73
		c0.06,0.39,0.33,0.67,0.59,0.95c0.24,0.26,0.48,0.51,0.74,0.75c0.26,0.25,0.52,0.5,0.78,0.74c-0.17,0.23-0.37,0.45-0.56,0.66
		c-0.26,0.29-0.55,0.55-0.77,0.88c-0.16,0.23-0.29,0.42-0.33,0.71c-0.06,0.42,0.12,0.91,0.51,1.12c0.97,0.51,1.81-0.42,2.37-1.11
		c0.23-0.29,0.45-0.58,0.66-0.88c0.18,0.09,0.38,0.14,0.62,0.14c1.58-0.01,3.17-0.01,4.75-0.01c-0.13,0.14-0.26,0.29-0.38,0.43
		c-0.57,0.66-1.2,1.36-1.59,2.16c-0.51-0.02-1.02-0.08-1.53-0.08c-0.25,0-0.5-0.01-0.75,0c-0.27,0.01-0.54,0.08-0.81,0.12
		c-0.16,0.03-0.28,0.21-0.28,0.37c0,0.18,0.12,0.3,0.28,0.37c0.23,0.09,0.46,0.21,0.7,0.27c0.24,0.06,0.48,0.12,0.72,0.17
		c0.25,0.05,0.51,0.09,0.76,0.13c0,0.05,0,0.1-0.01,0.15c-0.01,0.07-0.01,0.14-0.02,0.21c0,0.01,0,0.02,0,0.04c0,0,0,0,0-0.01
		c0,0.14-0.05,0.3-0.08,0.44c-0.06,0.28-0.13,0.56-0.22,0.83c-0.11,0.34-0.23,0.67-0.22,1.03c0.02,0.74,0.91,1.1,1.44,0.6
		c0.52-0.49,0.67-1.32,0.78-2c0.06-0.35,0.1-0.71,0.12-1.07c0.01-0.16,0.01-0.32,0.01-0.48c0-0.01,0-0.01,0-0.02
		c0.77-0.51,1.4-1.26,2.04-1.95c0.08-0.08,0.16-0.16,0.23-0.24c0,1.49-0.01,2.99-0.01,4.48c0,0.21,0.04,0.38,0.11,0.54
		c-0.28,0.28-0.54,0.57-0.78,0.88c-0.43,0.54-0.88,1.07-1.05,1.75c-0.1,0.41,0.06,0.92,0.46,1.12c0.42,0.22,0.85,0.14,1.21-0.16
		c0.24-0.2,0.41-0.43,0.6-0.68c0.03-0.05,0.07-0.09,0.1-0.14c0,0,0,0,0,0c0.08-0.09,0.15-0.19,0.23-0.28
		c0.22-0.26,0.46-0.51,0.7-0.75c0.1,0.08,0.19,0.16,0.29,0.24c0.39,0.34,0.74,0.73,1.13,1.08c0.36,0.32,0.85,0.53,1.33,0.46
		c0.57-0.08,1.01-0.59,0.99-1.18c-0.04-0.79-0.64-1.29-1.19-1.76c-0.19-0.16-0.39-0.32-0.59-0.48c-0.23-0.18-0.47-0.4-0.74-0.54
		c0-0.04,0.01-0.08,0.01-0.12c0-1.32-0.01-2.64-0.01-3.96c0.02,0.02,0.04,0.04,0.06,0.06c0.48,0.49,1,0.92,1.56,1.32
		c0.44,0.31,0.91,0.58,1.43,0.74c0.02,0.53,0.04,1.05,0.1,1.57c0.06,0.62,0.02,1.42,0.54,1.86c0.28,0.23,0.79,0.34,1.05,0
		c0.25-0.32,0.39-0.68,0.35-1.09c-0.03-0.27-0.05-0.54-0.08-0.81c-0.04-0.35-0.08-0.7-0.14-1.05c0.03-0.02,0.08-0.04,0.09-0.05
		c0.08-0.04,0.17-0.07,0.26-0.1c0.32-0.12,0.63-0.23,0.96-0.33c0.32-0.1,0.65-0.18,0.97-0.26c0.45-0.11,1.07-0.47,0.84-1.03
		c-0.21-0.52-0.87-0.47-1.31-0.38c-0.33,0.06-0.66,0.14-0.99,0.22c-0.33,0.08-0.65,0.18-0.97,0.28c-0.02,0.01-0.05,0.01-0.07,0.02
		c-0.02-0.07-0.04-0.14-0.09-0.2c-0.22-0.29-0.44-0.56-0.7-0.81c-0.2-0.19-0.41-0.37-0.62-0.55c-0.46-0.38-0.91-0.78-1.35-1.18
		c-0.08-0.07-0.15-0.15-0.23-0.22c1.44,0.01,2.88,0.02,4.31-0.03c0.04,0.06,0.08,0.12,0.13,0.18c0.23,0.25,0.53,0.41,0.82,0.57
		l0.97,0.54c0.31,0.17,0.61,0.35,0.92,0.53c0.45,0.26,0.93,0.58,1.47,0.43c0.49-0.14,0.81-0.61,0.8-1.11
		C271.05,116.44,270.92,116.17,270.68,116.03z"/>
        <path class="st4" d="M270.54,115.97c-0.03-0.02-0.08-0.03-0.13-0.04c0.01,0,0.02,0.01,0.03,0.01
		C270.47,115.95,270.51,115.96,270.54,115.97z"/>
</g>
    <g>
	<path class="st4" d="M-45.22,166.4c-0.02-0.01-0.05-0.03-0.09-0.04c0.04,0.02,0.04,0.03-0.03,0c-0.01-0.01-0.03-0.01-0.04-0.02
		c-0.04-0.01-0.07-0.01-0.1-0.01c0.03-0.01,0.06,0,0.09,0c-0.03-0.01-0.06-0.03-0.1-0.04c0.08,0.03,0.08,0.03,0.01-0.02
		c-0.03-0.02-0.08-0.04-0.12-0.06c-0.1-0.05-0.19-0.1-0.29-0.15c-0.22-0.11-0.44-0.22-0.66-0.34c-0.1-0.05-0.21-0.11-0.31-0.16
		c0.03-0.02,0.06-0.04,0.09-0.06c0.2-0.15,0.39-0.31,0.57-0.48c0.16-0.16,0.31-0.32,0.45-0.5c0.17-0.22,0.39-0.55,0.29-0.83
		c-0.07-0.19-0.21-0.31-0.42-0.32c-0.27-0.01-0.47,0.22-0.65,0.39c-0.15,0.14-0.28,0.28-0.43,0.42c-0.06,0.06-0.13,0.11-0.2,0.16
		c-0.01,0.01-0.02,0.02-0.03,0.02c-0.04,0.03-0.09,0.06-0.13,0.09c-0.09,0.06-0.19,0.12-0.28,0.18c-0.14-0.17-0.36-0.29-0.64-0.3
		c-1.1-0.04-2.2-0.02-3.29-0.01c0.2-0.23,0.4-0.47,0.6-0.69c0.28-0.3,0.54-0.61,0.83-0.9c0.09-0.1,0.24-0.23,0.37-0.37
		c0.03,0,0.05,0.01,0.08,0.02c0.28,0.03,0.57,0.03,0.85,0.05c0.14,0.01,0.28,0.01,0.42,0c0.2,0,0.4-0.02,0.58-0.11
		c0.12-0.07,0.27-0.23,0.23-0.38c-0.05-0.19-0.22-0.29-0.4-0.35c-0.16-0.06-0.33-0.06-0.49-0.08c-0.16-0.02-0.31-0.02-0.47-0.02
		c-0.14,0-0.28-0.01-0.42-0.01c-0.01,0-0.02,0-0.03,0c0,0,0,0,0,0c0.03-0.19,0.06-0.39,0.08-0.58c0.02-0.17,0.04-0.34,0.06-0.51
		c0.01-0.08,0.02-0.17,0.03-0.25c0.01-0.12-0.01-0.21-0.06-0.32c-0.08-0.19-0.36-0.19-0.49-0.06c-0.13,0.13-0.16,0.29-0.21,0.46
		c-0.04,0.15-0.08,0.3-0.13,0.45c-0.08,0.28-0.16,0.56-0.21,0.85c0,0.03-0.01,0.06-0.01,0.08c-0.17,0.11-0.33,0.23-0.49,0.35
		c-0.36,0.26-0.72,0.53-1.05,0.83c-0.07,0.06-0.13,0.12-0.19,0.18c0.01-0.81,0.01-1.62-0.02-2.42c0-0.11-0.01-0.2-0.04-0.28
		c0.65-0.59,1.27-1.2,1.8-1.89c0,0-0.01,0-0.01,0c0.1-0.16,0.13-0.35,0.04-0.56c-0.13-0.32-0.59-0.54-0.9-0.3
		c-0.66,0.5-1.26,1.08-1.83,1.68c-0.14-0.13-0.28-0.27-0.41-0.41c-0.28-0.31-0.55-0.62-0.89-0.87c-0.13-0.1-0.34-0.06-0.46,0.03
		c-0.14,0.11-0.17,0.26-0.15,0.44c0.06,0.44,0.31,0.84,0.58,1.19c0.18,0.23,0.37,0.45,0.56,0.67c-0.04,0.09-0.06,0.2-0.07,0.32
		c-0.03,0.94-0.03,1.89-0.02,2.83c-0.28-0.29-0.55-0.58-0.82-0.87c-0.31-0.34-0.58-0.74-0.98-0.95c0.01-0.07,0.01-0.14,0.02-0.2
		c0.01-0.16,0-0.32-0.01-0.47c0-0.16,0-0.32-0.01-0.47c-0.01-0.11-0.03-0.23-0.05-0.34c-0.02-0.1-0.07-0.2-0.12-0.29
		c-0.16-0.29-0.61-0.29-0.77,0c-0.11,0.2-0.16,0.41-0.17,0.63c-0.01,0.16-0.01,0.32-0.02,0.47c0,0.16-0.02,0.32-0.01,0.47
		c0,0,0,0.01,0,0.01c-0.41,0.05-0.81,0.11-1.21,0.21c-0.23,0.06-0.39,0.32-0.31,0.55c0.08,0.26,0.3,0.35,0.55,0.31
		c0,0,0.12-0.02,0.06-0.01c-0.06,0.01,0.05-0.01,0.06-0.01c0.07-0.01,0.13-0.01,0.2-0.02c0.14-0.01,0.28-0.02,0.42-0.03
		c0.27-0.01,0.55-0.01,0.82,0.01c0.03,0,0.06,0,0.1-0.01c0.05,0.08,0.12,0.16,0.18,0.24c0.14,0.18,0.27,0.37,0.41,0.55
		c0.3,0.38,0.6,0.77,0.91,1.14c0.02,0.02,0.03,0.04,0.05,0.06c-1.02,0-2.05,0-3.07-0.01c-0.19,0-0.34,0.05-0.46,0.13
		c-0.31-0.23-0.61-0.46-0.92-0.69c-0.17-0.13-0.34-0.25-0.52-0.37c-0.22-0.14-0.42-0.27-0.69-0.26c-0.26,0-0.39,0.23-0.35,0.46
		c0.04,0.25,0.21,0.43,0.37,0.61c0.15,0.17,0.31,0.32,0.47,0.48c0.17,0.16,0.33,0.32,0.5,0.47c-0.11,0.15-0.24,0.29-0.36,0.42
		c-0.17,0.19-0.35,0.35-0.49,0.56c-0.1,0.14-0.19,0.27-0.21,0.45c-0.04,0.27,0.07,0.58,0.33,0.71c0.62,0.33,1.16-0.27,1.51-0.71
		c0.15-0.18,0.29-0.37,0.42-0.56c0.11,0.05,0.24,0.09,0.4,0.09c1.01,0,2.02-0.01,3.03-0.01c-0.08,0.09-0.16,0.18-0.24,0.28
		c-0.36,0.42-0.76,0.87-1.02,1.38c-0.33-0.01-0.65-0.05-0.98-0.05c-0.16,0-0.32,0-0.48,0c-0.17,0.01-0.35,0.05-0.52,0.08
		c-0.1,0.02-0.18,0.14-0.18,0.24c0,0.12,0.08,0.19,0.18,0.24c0.15,0.06,0.29,0.13,0.44,0.17c0.15,0.04,0.31,0.07,0.46,0.11
		c0.16,0.03,0.32,0.06,0.49,0.08c0,0.03,0,0.07-0.01,0.1c0,0.04-0.01,0.09-0.01,0.13c0,0.01,0,0.02,0,0.03c0,0,0,0,0-0.01
		c0,0.09-0.03,0.19-0.05,0.28c-0.04,0.18-0.08,0.36-0.14,0.53c-0.07,0.22-0.14,0.43-0.14,0.66c0.01,0.47,0.58,0.71,0.92,0.38
		c0.33-0.31,0.43-0.84,0.5-1.28c0.04-0.23,0.06-0.45,0.08-0.68c0.01-0.1,0.01-0.21,0.01-0.31c0-0.01,0-0.01,0-0.01
		c0.49-0.32,0.89-0.8,1.3-1.24c0.05-0.05,0.1-0.1,0.15-0.16c0,0.95,0,1.91-0.01,2.86c0,0.13,0.03,0.25,0.07,0.35
		c-0.18,0.18-0.34,0.37-0.5,0.56c-0.27,0.34-0.56,0.68-0.67,1.11c-0.06,0.26,0.04,0.58,0.29,0.72c0.27,0.14,0.54,0.09,0.77-0.1
		c0.15-0.13,0.26-0.27,0.38-0.43c0.02-0.03,0.04-0.06,0.07-0.09c0,0,0,0,0,0c0.05-0.06,0.1-0.12,0.15-0.18
		c0.14-0.17,0.29-0.32,0.45-0.48c0.06,0.05,0.12,0.1,0.18,0.15c0.25,0.22,0.47,0.47,0.72,0.69c0.23,0.21,0.54,0.34,0.85,0.29
		c0.37-0.05,0.65-0.37,0.63-0.75c-0.02-0.5-0.41-0.82-0.76-1.12c-0.12-0.11-0.25-0.21-0.38-0.31c-0.15-0.12-0.3-0.25-0.47-0.34
		c0-0.03,0.01-0.05,0.01-0.08c0-0.84,0-1.68-0.01-2.53c0.01,0.01,0.02,0.03,0.04,0.04c0.31,0.31,0.64,0.59,0.99,0.84
		c0.28,0.2,0.58,0.37,0.91,0.47c0.02,0.34,0.03,0.67,0.06,1c0.04,0.4,0.01,0.91,0.34,1.19c0.18,0.15,0.5,0.21,0.67,0
		c0.16-0.2,0.25-0.43,0.22-0.7c-0.02-0.17-0.03-0.34-0.05-0.52c-0.02-0.22-0.05-0.45-0.09-0.67c0.02-0.01,0.05-0.03,0.06-0.03
		c0.05-0.02,0.11-0.04,0.16-0.06c0.2-0.08,0.41-0.15,0.61-0.21c0.21-0.06,0.41-0.12,0.62-0.17c0.29-0.07,0.68-0.3,0.54-0.66
		c-0.13-0.33-0.55-0.3-0.84-0.24c-0.21,0.04-0.42,0.09-0.63,0.14c-0.21,0.05-0.41,0.11-0.62,0.18c-0.01,0-0.03,0.01-0.04,0.01
		c-0.01-0.04-0.03-0.09-0.06-0.12c-0.14-0.19-0.28-0.36-0.44-0.52c-0.13-0.12-0.26-0.23-0.4-0.35c-0.29-0.24-0.58-0.5-0.86-0.76
		c-0.05-0.05-0.1-0.09-0.14-0.14c0.92,0.01,1.84,0.01,2.75-0.02c0.03,0.04,0.05,0.08,0.09,0.11c0.14,0.16,0.34,0.26,0.52,0.36
		l0.62,0.35c0.2,0.11,0.39,0.23,0.58,0.34c0.29,0.17,0.59,0.37,0.94,0.28c0.32-0.09,0.52-0.39,0.51-0.71
		C-44.98,166.66-45.06,166.49-45.22,166.4z"/>
        <path class="st4" d="M-45.3,166.36c-0.02-0.01-0.05-0.02-0.08-0.03c0.01,0,0.01,0,0.02,0.01
		C-45.35,166.35-45.32,166.35-45.3,166.36z"/>
</g>
    <g>
	<ellipse transform="matrix(0.9999 -0.0118 0.0118 0.9999 -1.7416 3.6368)" cx="308.37" cy="149.9" rx="9.63"
             ry="11.53"/>
</g>
    <ellipse transform="matrix(1 -1.457258e-03 1.457258e-03 1 -0.2085 0.44)" class="st4" cx="301.81" cy="143.29"
             rx="4.59" ry="4.32"/>
    <ellipse class="st19" cx="304.84" cy="146.14" rx="16.36" ry="19.97"/>
    <g>
	<ellipse transform="matrix(0.9999 -0.0118 0.0118 0.9999 -1.9365 4.3885)" cx="372.19" cy="166.86" rx="9.63"
             ry="11.53"/>
</g>
    <ellipse transform="matrix(1 -1.457258e-03 1.457258e-03 1 -0.2331 0.533)" class="st4" cx="365.63" cy="160.24"
             rx="4.59" ry="4.32"/>
    <ellipse class="st19" cx="368.66" cy="163.09" rx="16.36" ry="19.97"/>
</svg>
