<?xml version="1.0" encoding="utf-8"?>
<!-- Generator: Adobe Illustrator 28.0.0, SVG Export Plug-In . SVG Version: 6.00 Build 0)  -->
<svg version="1.1" id="Шар_1" xmlns="http://www.w3.org/2000/svg" x="0px" y="0px"
     viewBox="0 0 512 512" style="enable-background:new 0 0 512 512;" xml:space="preserve">
<style type="text/css">
	.st0{fill:#FE8E00;}
	.st1{fill:#232323;}
	.st2{fill:#FFFFFF;}
	.st3{fill:#555558;}
	.st4{fill:none;}
	.st5{fill:#FF8D00;}
	.st6{fill:#353535;}
	.st7{fill:#FFD48F;}
	.st8{fill:#C9C9C9;}
	.st9{fill:none;stroke:#000000;stroke-width:1.1848;stroke-miterlimit:10;}
</style>
    <ellipse transform="matrix(0.8489 -0.5286 0.5286 0.8489 -192.8594 270.2795)" class="st0" cx="376.23" cy="472.41"
             rx="44.67" ry="18.98"/>
    <ellipse transform="matrix(0.7547 -0.6561 0.6561 0.7547 -262.3131 172.0078)" class="st0" cx="98.87" cy="436.79"
             rx="18.98" ry="44.67"/>
    <g>
	<path class="st1" d="M267.71,166.08c210.87,320.45-18.84,297.09-18.84,297.09c-219.94,18.42-36.21-294.69-36.21-294.69
		L267.71,166.08z"/>
</g>
    <g>
	<path class="st1" d="M279.24,287.76c0,0,152.25-58.26,170.59-165.68c1.33-7.8-9.71-12-15.59-5.95
		c-33.46,34.45-108.52,103.51-164.02,93.78C196.7,197.02,279.24,287.76,279.24,287.76z"/>
</g>
    <g>
	<path class="st1" d="M220.06,293.77c0,0-153.5-54.53-173.8-161.31c-1.47-7.75,9.51-12.21,15.51-6.31
		c34.13,33.59,110.53,100.74,165.93,89.7C301.09,201.23,220.06,293.77,220.06,293.77z"/>
</g>
    <path class="st2"
          d="M212.23,186.78c0,0-119.48,255.39,41.33,254.11c151.82-1.22,15.65-305.3,15.65-305.3L212.23,186.78z"/>
    <g>
	<path class="st3" d="M265.68,62.87c27.74,10.76,52.02,34.94,58.71,64.44c0.99,4.19,1.47,8.48,1.69,12.74
		c-1.67-7.24-3.79-14.31-6.87-21.05C308.4,94.84,288.18,76.24,265.68,62.87L265.68,62.87z"/>
</g>
    <g>
	<path class="st4" d="M152.14,195.8"/>
</g>
    <path class="st1" d="M354.91,126.85c1.96,58.61-48.94,94.47-110.66,96.53c-61.72,2.06-110.89-30.46-112.85-89.07
	c-1.96-58.61,46.49-107.8,108.21-109.86S352.96,68.24,354.91,126.85z"/>
    <path class="st2" d="M337.68,137.75c1.54,46.24-39.93,85.14-92.64,86.9c-52.71,1.76-96.68-34.3-98.23-80.53
	c-1.54-46.24,69.54-119.79,94.17,15.33C272.9,23.77,336.14,91.52,337.68,137.75z"/>
    <g>
	<path class="st1" d="M266.02,43.23l-57.31-2.7c0,0,23.46-10.79,29.1-26.96c0.63-1.82,1.03-3.71,1.16-5.65
		c0.2-3.03,3.24-4.91,5.76-3.37c6.09,3.71,14.91,10.25,19.45,19.19C267.05,29.32,268.23,35.87,266.02,43.23z"/>
        <path class="st3" d="M264.19,23.74c-8.62-6.45-19.3-9.09-26.37-10.16c0.63-1.82,1.03-3.71,1.16-5.65c0.2-3.03,3.24-4.91,5.76-3.37
		C250.82,8.26,259.65,14.8,264.19,23.74z"/>
</g>
    <g>
	<path class="st5" d="M241.87,135.99c-10.48-0.41-18.44,12.75-18.44,12.75c-14.11,3.42-13.65,13.44-13.65,13.44
		s20.9,19.99,34.19,19.35c13.29-0.64,32.26-22.55,32.26-22.55s-0.46-10.02-14.83-12.07C261.4,146.92,252.27,134.58,241.87,135.99"/>
</g>
    <g>
	<path class="st6" d="M215.49,159c12.68,10.85,29.27,14.03,44.05,5.37c4.64-2.58,8.89-5.9,12.9-9.52
		c-3.4,4.21-7.44,7.96-12.09,10.89C245.68,175.49,226.88,172.1,215.49,159L215.49,159z"/>
</g>
    <ellipse transform="matrix(0.9988 -0.0491 0.0491 0.9988 -7.2011 12.1069)" class="st7" cx="243.04" cy="152.75"
             rx="8.78" ry="4.91"/>
    <ellipse transform="matrix(0.1934 -0.9811 0.9811 0.1934 163.6655 338.3038)" class="st3" cx="287.58" cy="69.61"
             rx="5.51" ry="16.54"/>
    <ellipse transform="matrix(0.9905 -0.1375 0.1375 0.9905 -7.7759 27.7388)" class="st3" cx="196.87" cy="70.15"
             rx="16.54" ry="5.51"/>
    <path class="st8" d="M232.69,270.36c0.25,7.44-5.58,13.67-13.02,13.92c-7.44,0.25-13.67-5.58-13.92-13.02"/>
    <path class="st8" d="M292.7,268.36c0.25,7.44-5.58,13.67-13.02,13.92c-7.44,0.25-13.67-5.58-13.92-13.02"/>
    <path class="st8" d="M264.25,297.51c0.25,7.44-5.58,13.67-13.02,13.92c-7.44,0.25-13.67-5.58-13.92-13.02"/>
    <g>
	<ellipse transform="matrix(0.9724 -0.2334 0.2334 0.9724 -20.8606 50.1943)" cx="201.68" cy="113.25" rx="10.41"
             ry="12.46"/>
</g>
    <ellipse transform="matrix(0.9745 -0.2244 0.2244 0.9745 -19.2726 46.0906)" class="st2" cx="193.18" cy="107.85"
             rx="4.97" ry="4.67"/>
    <ellipse transform="matrix(0.9751 -0.222 0.222 0.9751 -21.3497 47.8103)" class="st9" cx="202.03" cy="118.89"
             rx="17.68" ry="21.58"/>
    <g>
	<ellipse transform="matrix(0.0178 -0.9998 0.9998 0.0178 169.2291 390.4914)" cx="283.36" cy="109.11" rx="12.46"
             ry="10.41"/>
</g>
    <ellipse transform="matrix(0.027 -0.9996 0.9996 0.027 167.2895 375.3949)" class="st2" cx="276.49" cy="101.76"
             rx="4.67" ry="4.97"/>
    <ellipse transform="matrix(0.0295 -0.9996 0.9996 0.0295 159.3525 393.4562)" class="st9" cx="282.29" cy="114.67"
             rx="21.58" ry="17.68"/>
</svg>
