<?xml version="1.0" encoding="utf-8"?>
<!-- Generator: Adobe Illustrator 28.0.0, SVG Export Plug-In . SVG Version: 6.00 Build 0)  -->
<svg version="1.1" id="Шар_1" xmlns="http://www.w3.org/2000/svg" x="0px" y="0px"
     viewBox="0 0 512 512" style="enable-background:new 0 0 512 512;" xml:space="preserve">
<style type="text/css">
	.st0{fill:#232323;}
	.st1{fill:#B6E7FF;}
	.st2{fill:#687999;}
	.st3{fill:#36466B;}
	.st4{fill:#D7EFF9;}
	.st5{fill:none;stroke:#3990B2;stroke-width:4.0739;stroke-miterlimit:10;}
	.st6{fill:#8080A0;}
	.st7{fill:#1E1E4C;}
	.st8{fill:#FFFFFF;}
	.st9{fill:#555558;}
	.st10{fill:none;}
	.st11{fill:#FF8D00;}
	.st12{fill:#FFD48F;}
	.st13{display:none;}
	.st14{display:none;fill:none;stroke:#000000;stroke-width:0.9476;stroke-miterlimit:10;}
	.st15{display:inline;}
	.st16{display:inline;fill:#FFFFFF;}
	.st17{display:inline;fill:none;stroke:#000000;stroke-width:0.9476;stroke-miterlimit:10;}
	.st18{fill:#FE8E00;}
	.st19{fill:#353535;}
	.st20{fill:#2D2D2B;}
	.st21{fill:#414140;}
	.st22{fill:#1D1D1B;}
	.st23{fill:#242422;}
	.st24{fill:#E5332A;}
	.st25{fill:#B02A1E;}
	.st26{opacity:0.5;fill:#F5F5F5;}
	.st27{fill:#922416;}
	.st28{fill:none;stroke:#000000;stroke-width:1.1848;stroke-miterlimit:10;}
</style>
    <g>
	<path class="st0" d="M277.58,195.8c70.51,324.99-108.93,245.62-108.93,245.62c-164.45-51.1,60.85-260.99,60.85-260.99L277.58,195.8
		z"/>
</g>
    <path class="st0" d="M403.18,306.86l-8.3,20.66c-0.71,0.11-1.42,0.21-2.12,0.31c-0.81,0.11-1.61,0.21-2.42,0.29
	c-1.91,0.22-3.83,0.4-5.74,0.53c-86.9,5.88-175.95-76.33-175.95-76.33s40.33-103.09,59.35-38.47
	c12.78,43.45,82.36,74.42,126.55,90.05c1.59,0.55,3.15,1.09,4.67,1.61c0.8,0.28,1.58,0.54,2.36,0.8
	C402.1,306.5,402.65,306.68,403.18,306.86z"/>
    <path class="st1" d="M447.15,248.73c-7.1,13.4-16.92,20.04-24.77,17.91c-0.08-0.01-0.14-0.03-0.22-0.06
	c-0.6-0.18-1.18-0.4-1.76-0.67c-0.18-0.08-0.36-0.18-0.54-0.28c-0.19-0.09-0.36-0.2-0.54-0.31c-1.02-0.63-1.99-1.45-2.89-2.45
	c-0.29-0.31-0.56-0.64-0.83-0.98c-8.04-10.43-6.97-33.24,2.41-50.94c6.07-11.46,14.13-17.96,21.23-18.29
	c2.55-0.13,4.98,0.54,7.15,2.06c0.65,0.46,1.29,1.01,1.9,1.63c0.43,0.44,0.85,0.92,1.26,1.45
	C457.61,208.21,456.53,231.02,447.15,248.73z"/>
    <g>
	<path class="st2" d="M450.27,245.76c-6.47,13.35-16.22,20.33-24.42,18.68c-0.62-0.13-1.24-0.3-1.84-0.52
		c-0.38-0.13-0.77-0.3-1.15-0.48c-0.92-0.45-1.81-1.03-2.65-1.74c8.16,1.48,17.78-5.49,24.19-18.72
		c8.47-17.47,8.13-39.24-0.76-48.61c-0.45-0.48-0.91-0.9-1.38-1.29c1.32,0.23,2.59,0.68,3.82,1.36c1.2,0.68,2.35,1.58,3.43,2.71
		C458.4,206.52,458.74,228.29,450.27,245.76z"/>
</g>
    <g>
	<path class="st2" d="M446.4,192.5c-2.18-1.51-4.6-2.19-7.15-2.06c-7.1,0.33-15.16,6.83-21.23,18.29
		c-9.38,17.7-10.45,40.51-2.41,50.94c1.13,1.46,2.38,2.61,3.72,3.44c0.35,0.22,0.72,0.42,1.08,0.59c0.57,0.28,1.16,0.5,1.76,0.67
		c-2.28,0.38-4.53,0.28-6.7-0.38c-12.52-3.75-17.52-24.04-11.16-45.34c6.37-21.31,21.67-35.54,34.2-31.8
		C441.62,187.79,444.28,189.76,446.4,192.5z"/>
</g>
    <path class="st3" d="M426.47,268.11c-1.17,0-2.33-0.15-3.47-0.44c-0.11-0.02-0.21-0.05-0.33-0.08c-0.75-0.22-1.46-0.49-2.12-0.81
	c-0.16-0.07-0.38-0.18-0.61-0.31c-0.24-0.12-0.47-0.26-0.69-0.4c-1.21-0.75-2.34-1.71-3.36-2.85c-0.3-0.32-0.62-0.7-0.92-1.1
	c-8.65-11.22-7.68-34.63,2.21-53.3c6.25-11.8,14.87-19.07,23.06-19.45c3.06-0.16,5.94,0.66,8.5,2.45c0.8,0.57,1.54,1.2,2.21,1.89
	c0.53,0.54,0.99,1.08,1.43,1.65c8.65,11.21,7.68,34.62-2.21,53.3l0,0C443.71,260.87,434.73,268.11,426.47,268.11z M423.89,263.39
	l0.17,0.04c6.99,1.89,15.94-4.87,22.27-16.83l0,0c9-17,10.17-38.79,2.61-48.59c-0.33-0.43-0.69-0.85-1.1-1.26
	c-0.49-0.5-1.03-0.96-1.61-1.37c-1.73-1.2-3.69-1.77-5.77-1.65c-6.54,0.31-13.98,6.87-19.42,17.13c-9,16.99-10.17,38.78-2.61,48.59
	c0.22,0.29,0.46,0.57,0.7,0.83c0.77,0.86,1.58,1.55,2.44,2.08c0.11,0.07,0.21,0.14,0.32,0.19l0.14,0.07
	c0.11,0.06,0.23,0.13,0.34,0.18C422.91,263.05,423.38,263.23,423.89,263.39C423.89,263.38,423.89,263.39,423.89,263.39z"/>
    <ellipse transform="matrix(0.2296 -0.9733 0.9733 0.2296 99.6219 596.886)" class="st4" cx="426.87" cy="235.51"
             rx="14.2" ry="8.57"/>
    <ellipse transform="matrix(0.6667 -0.7453 0.7453 0.6667 -18.0413 390.2878)" class="st4" cx="427.34" cy="215.32"
             rx="3.59" ry="3.3"/>
    <polyline class="st5" points="420.21,264.8 418.6,269.29 415.04,279.13 "/>
    <g>
	<path class="st6" d="M422.65,276.03c0,0.87-0.14,1.78-0.46,2.66l-13.06,36.1l-11.8,32.67l-7.02,19.43
		c-1.32,3.69-5.12,5.49-8.42,4.01c-3.32-1.49-4.93-5.7-3.6-9.39l4.43-12.26l14.14-39.14l13.29-36.8c1.34-3.69,5.12-5.49,8.44-4.01
		C421.11,270.43,422.65,273.16,422.65,276.03z"/>
</g>
    <ellipse transform="matrix(0.3396 -0.9406 0.9406 0.3396 -43.2072 592.3618)" class="st7" cx="400.23" cy="326.95"
             rx="36.85" ry="1.93"/>
    <path class="st0" d="M399.19,310.06c2.94-0.59,5.87-1.09,8.81-1.5c5.28-0.74,9.24,4.59,6.83,9.2l-4.74,9.07
	c-1.56,2.99-5.25,4.3-8.43,3c-0.77-0.32-1.53-0.62-2.28-0.93C390.3,325.21,390.15,311.87,399.19,310.06z"/>
    <g>
	<path class="st0" d="M227.35,200.28c0,0-143.06,33.87-171.74,127.69c-2.08,6.81,7.33,11.89,13.29,7.18
		c33.91-26.79,109.04-79.54,157.66-64.21C290.97,291.24,227.35,200.28,227.35,200.28z"/>
</g>
    <path class="st8"
          d="M217.62,194.38c0,0-158.9,206.83-15.93,231.79c117.66,20.54,76.53-265.06,76.53-265.06L217.62,194.38z"/>
    <g>
	<path class="st9" d="M306.31,107.18c20.21,17.83,33.18,45.7,29.65,72.87c-0.47,3.86-1.41,7.64-2.55,11.32
		c0.83-6.65,1.24-13.3,0.72-19.97C332.49,147.57,321.17,125.53,306.31,107.18L306.31,107.18z"/>
</g>
    <g>
	<path class="st10" d="M168.72,184.38"/>
</g>
    <path class="st0" d="M361.94,189.18c-16.61,50.25-70.9,64.76-123.81,47.26s-84.43-60.36-67.82-110.61s72.98-76.81,125.89-59.32
	S378.55,138.93,361.94,189.18z"/>
    <path class="st8" d="M352.38,189.33c-13.1,39.64-65.64,64.42-110.82,49.48c-45.19-14.94-49.02-66.22-36.16-98.07
	c13.1-39.64,94.8-80.34,73.53,41.78C348.26,77.55,366.95,145.24,352.38,189.33z"/>
    <g>
	<path class="st0" d="M312.72,90.66l-47.7-20.15c0,0,23.23-1.82,33.05-13.76c1.1-1.35,2.03-2.82,2.74-4.43
		c1.11-2.51,4.28-3.14,5.93-1.06c4,5.04,9.44,13.33,10.49,22.32C317.93,79.2,316.88,85.11,312.72,90.66z"/>
        <path class="st9" d="M317.24,73.57c-5.29-8.15-13.52-13.72-19.17-16.83c1.1-1.35,2.03-2.82,2.74-4.43
		c1.11-2.51,4.28-3.14,5.93-1.06C310.75,56.29,316.18,64.59,317.24,73.57z"/>
</g>
    <g>
	<path class="st11" d="M285.05,170.03c-8.75-3.61-19.59,5.05-19.59,5.05c-13.02-1.5-15.75,7.12-15.75,7.12s11.47,23.44,22.92,27.04
		c11.46,3.6,34.35-9.04,34.35-9.04s2.73-8.63-8.8-14.84C298.19,185.37,294.3,172.07,285.05,170.03L285.05,170.03z"/>
</g>
    <ellipse transform="matrix(0.2989 -0.9543 0.9543 0.2989 26.4999 396.4044)" class="st12" cx="283.03" cy="180.17"
             rx="4.43" ry="7.93"/>
    <ellipse transform="matrix(0.3028 -0.9531 0.9531 0.3028 7.0821 373.6736)" class="st13" cx="258.94" cy="182"
             rx="8.22" ry="6.81"/>
    <ellipse transform="matrix(0.297 -0.9549 0.9549 0.297 44.7379 354.9961)" class="st8" cx="263.45" cy="147.12"
             rx="4.08" ry="3.86"/>
    <ellipse transform="matrix(0.3139 -0.9495 0.9495 0.3139 7.0371 364.1198)" class="st14" cx="255.45" cy="177.19"
             rx="15.24" ry="12.64"/>
    <g class="st13">
	<g class="st15">
		<ellipse transform="matrix(0.3623 -0.9321 0.9321 0.3623 8.6078 407.6219)" cx="302.19" cy="197.52" rx="8.22"
                 ry="6.81"/>
	</g>

        <ellipse transform="matrix(0.3566 -0.9343 0.9343 0.3566 16.097 407.0721)" class="st16" cx="303.58" cy="191.85"
                 rx="2.95" ry="2.79"/>

        <ellipse transform="matrix(0.3731 -0.9278 0.9278 0.3731 9.0865 398.1594)" class="st17" cx="299.17" cy="192.36"
                 rx="15.24" ry="12.64"/>
</g>
    <ellipse transform="matrix(0.2598 -0.9657 0.9657 0.2598 129.8425 408.4204)" class="st9" cx="331.32" cy="119.52"
             rx="4.98" ry="14.93"/>
    <ellipse transform="matrix(0.3731 -0.9278 0.9278 0.3731 79.9677 325.4557)" class="st9" cx="280.81" cy="103.55"
             rx="4.98" ry="14.93"/>
    <ellipse transform="matrix(0.3856 -0.9227 0.9227 0.3856 -44.5749 571.6744)" class="st9" cx="406.97" cy="319.31"
             rx="8.09" ry="2.37"/>
    <ellipse transform="matrix(0.9443 -0.329 0.329 0.9443 -142.8324 128.1712)" class="st18" cx="307.26" cy="486.08"
             rx="40.32" ry="17.13"/>
    <ellipse transform="matrix(0.3731 -0.9278 0.9278 0.3731 -384.3748 400.9328)" class="st18" cx="104.5" cy="484.9"
             rx="17.13" ry="40.32"/>
    <g>
	<path class="st19" d="M298.46,200.55c-10.71-0.97-32.42-5.71-39.4-14.1c-0.57-0.78-0.99-1.77-0.87-2.72
		c0.15,0.94,0.72,1.68,1.38,2.29c5.07,3.96,11.61,5.52,17.59,7.65C284.24,195.99,291.4,198.03,298.46,200.55L298.46,200.55z"/>
</g>
    <circle class="st0" cx="232.47" cy="284.03" r="7.74"/>
    <circle class="st0" cx="220.3" cy="326.05" r="7.74"/>
    <circle class="st0" cx="208.14" cy="371.39" r="7.74"/>
    <g>
	
		<ellipse transform="matrix(0.297 -0.9549 0.9549 0.297 112.3031 340.1334)" class="st20" cx="287.14" cy="93.8"
                 rx="35.58" ry="106.31"/>
        <path class="st21" d="M209.08,65.65c4.56-14.67,42.24-16.13,85.59-3.8c-1.86-0.63-3.75-1.24-5.66-1.83
		c-45.9-14.27-86.98-13.39-91.75,1.97c-4.78,15.36,28.56,39.38,74.46,53.65c2.06,0.64,4.12,1.25,6.16,1.83
		C234.93,103.05,204.5,80.37,209.08,65.65z"/>
        <path class="st22" d="M297.7,59.83c-21.9-6.81-42.91-10.8-60.72-12.01c14.65,2.29,30.93,6.07,47.81,11.32
		c56.07,17.44,97.51,44.45,92.57,60.33c-4.94,15.88-54.4,14.63-110.46-2.81c-30.4-9.45-56.5-21.73-73.24-33.51
		c14.28,15.69,45.11,32.86,82.91,44.62c56.07,17.44,106.25,16.36,112.08-2.4C394.49,106.61,353.77,77.26,297.7,59.83z"/>
        <path class="st20" d="M220.34,62.36l23.89-38.4c0,0,18.34-31.02,39.78-9.15c0,0,16.8,19.34,47.23,15.77c0,0,21.9-4.05,30.15,14.81
		l-1.4,60.39C359.99,105.79,282.24,121.8,220.34,62.36z"/>
        <path class="st23" d="M258.83,63.66c31.69-12.76,68.2-20.97,102.79-16.85l0.03-1.34c-8.25-18.86-30.15-14.81-30.15-14.81
		c-30.44,3.57-47.23-15.77-47.23-15.77c-21.44-21.87-39.78,9.15-39.78,9.15l-23.89,38.4c5.53,5.31,11.18,10,16.89,14.17
		C243.67,71.36,250.69,66.94,258.83,63.66z"/>
        <path class="st22" d="M246.08,31.04c0,0,18.34-31.02,39.78-9.15c0,0,16.79,19.34,47.23,15.77c0,0,18.88-3.48,28.19,11.13l0.08-3.28
		c-8.25-18.86-30.15-14.81-30.15-14.81c-30.44,3.57-47.23-15.77-47.23-15.77c-21.44-21.87-39.78,9.15-39.78,9.15l-23.89,38.4
		c1.31,1.26,2.62,2.46,3.94,3.65L246.08,31.04z"/>
        <path class="st24" d="M227.5,50.84l-7.16,11.51c61.9,59.44,139.65,43.43,139.65,43.43l0.31-13.46
		C343.84,94.59,280.46,99.44,227.5,50.84z"/>
</g>
    <g>
	<g>
		<path class="st24" d="M246.95,243.47l-1.41,8.26c-13.57,14.51-33.86,10.08-33.86,10.08c-7.66-20.05,4.73-34.38,4.73-34.38
			S233.11,228.51,246.95,243.47z"/>
        <path class="st25" d="M216.51,227.44c5.92,1.38,16.59,5.15,25.95,15.27l-1.41,8.26c-9.66,10.33-22.72,11.06-29.44,10.63
			c0.03,0.08,0.05,0.15,0.08,0.23c0,0,20.28,4.42,33.86-10.08l1.41-8.26C233.7,229.15,217.84,227.55,216.51,227.44z"/>
        <path class="st26"
              d="M219.39,229.09l-3.02-0.84c0,0-5.43,9.2-6.2,16.73C210.17,244.98,214.1,229.85,219.39,229.09z"/>
        <polygon class="st25" points="222.28,233.47 242.31,243.59 219.27,237.64 231.05,239.08 225.3,235.9 		"/>
        <polygon class="st25" points="219.27,253.23 241.53,250.34 217.82,248.29 229.41,250.85 222.94,251.94 		"/>
        <path class="st25"
              d="M242.33,245.65c0,0-11.41-2.05-16.94-4.95c0,0-0.51,3.26-7.13,2.84l23.84,3.5L242.33,245.65z"/>
        <path class="st26"
              d="M210.4,249.94c0,0,3.23,1.34,6.52,0.76c0,0-4.55,1.16-6.47,2.7C210.45,253.39,210.17,251.26,210.4,249.94z"
        />
	</g>
        <g>
		<path class="st24" d="M253.76,244.63l-1.41,8.26c7.98,18.2,28.58,20.76,28.58,20.76c13.89-16.37,6.96-34,6.96-34
			S271.78,235.13,253.76,244.63z"/>
            <path class="st25" d="M287.8,239.63c-6.05-0.67-17.36-0.65-29.55,5.78l-1.41,8.26c5.68,12.95,17.75,17.98,24.24,19.81
			c-0.05,0.06-0.1,0.12-0.15,0.19c0,0-20.6-2.57-28.58-20.76l1.41-8.26C271.01,235.53,286.51,239.29,287.8,239.63z"/>
            <path class="st26"
                  d="M284.53,240.23l3.13,0.21c0,0,2.06,10.48,0.29,17.84C287.95,258.28,289.27,242.71,284.53,240.23z"/>
            <polygon class="st25"
                     points="280.36,243.4 258.1,246.29 281.81,248.33 270.22,245.78 276.69,244.69 		"/>
            <polygon class="st25"
                     points="276.62,263.03 256.59,252.91 279.63,258.86 267.85,257.42 273.59,260.6 		"/>
            <path class="st25"
                  d="M257.39,248.22c0,0,11.45,1.86,17.62,0.96c0,0-0.6,3.24,5.78,5.05l-23.64-4.62L257.39,248.22z"/>
            <path class="st26"
                  d="M286.08,262.88c0,0-3.49,0.19-6.4-1.45c0,0,3.91,2.61,5.2,4.69C284.89,266.12,285.86,264.21,286.08,262.88z"
            />
	</g>
        <path class="st27" d="M255.31,254.71c-0.23,1.37-1.53,2.29-2.9,2.05l-9.15-1.57c-1.37-0.23-2.29-1.53-2.05-2.9l1.61-9.4
		c0.23-1.37,1.53-2.29,2.9-2.05l9.15,1.57c1.37,0.23,2.29,1.53,2.05,2.9L255.31,254.71z"/>
        <path class="st25" d="M255.1,254.03c-0.2,1.19-1.33,1.98-2.51,1.78l-7.93-1.36c-1.19-0.2-1.98-1.33-1.78-2.51l1.39-8.14
		c0.2-1.19,1.33-1.98,2.51-1.78l7.93,1.36c1.19,0.2,1.98,1.33,1.78,2.51L255.1,254.03z"/>
        <path class="st26" d="M253.78,244.15l-7.29-1.25c-0.64-0.11-1.25,0.1-1.69,0.5c0.23-0.04,0.47-0.05,0.71-0.01l7.29,1.25
		c1.09,0.19,1.82,1.22,1.64,2.31l-1.28,7.48c-0.08,0.46-0.3,0.85-0.62,1.14c0.8-0.15,1.46-0.78,1.6-1.63l1.28-7.48
		C255.61,245.37,254.87,244.33,253.78,244.15z"/>
</g>
    <g>
	<ellipse transform="matrix(0.2067 -0.9784 0.9784 0.2067 51.2974 372.8112)" cx="255.55" cy="154.77" rx="12.28"
             ry="10.26"/>
</g>
    <ellipse transform="matrix(0.2168 -0.9762 0.9762 0.2168 53.1266 358.9644)" class="st8" cx="250.27" cy="146.37"
             rx="4.6" ry="4.89"/>
    <ellipse transform="matrix(0.2182 -0.9759 0.9759 0.2182 52.7648 363.1272)" class="st28" cx="253.02" cy="148.63"
             rx="21.27" ry="17.42"/>
    <g>
	<ellipse transform="matrix(0.2182 -0.9759 0.9759 0.2182 83.5522 455.201)" cx="325.88" cy="175.45" rx="12.28"
             ry="10.26"/>
</g>
    <ellipse transform="matrix(0.2282 -0.9736 0.9736 0.2282 84.9226 441.1177)" class="st8" cx="320.7" cy="166.99"
             rx="4.6" ry="4.89"/>
    <ellipse transform="matrix(0.2296 -0.9733 0.9733 0.2296 84.3936 445.1899)" class="st28" cx="323.43" cy="169.28"
             rx="21.27" ry="17.42"/>
</svg>
