<?xml version="1.0" encoding="utf-8"?>
<!-- Generator: Adobe Illustrator 28.0.0, SVG Export Plug-In . SVG Version: 6.00 Build 0)  -->
<svg version="1.1" id="Шар_1" xmlns="http://www.w3.org/2000/svg" x="0px" y="0px"
     viewBox="0 0 512 512" style="enable-background:new 0 0 512 512;" xml:space="preserve">
<style type="text/css">
	.st0{fill:#FE8E00;}
	.st1{fill:#232323;}
	.st2{fill:#FFFFFF;}
	.st3{fill:#555558;}
	.st4{fill:none;}
	.st5{fill:#FF8D00;}
	.st6{fill:#FFD48F;}
	.st7{fill:#C9C9C9;}
	.st8{fill:#7ACAED;}
	.st9{fill:#5261EF;}
	.st10{fill:#00FC2F;}
	.st11{fill:#F9F43A;}
	.st12{fill:#EF3030;}
	.st13{fill:#93C01F;}
	.st14{fill:#F8B133;}
	.st15{fill:#00B0C2;}
	.st16{fill:#A15299;}
	.st17{fill:#7A1143;}
	.st18{fill:#EB642B;}
	.st19{fill:#353535;}
	.st20{fill:none;stroke:#000000;stroke-width:1.1848;stroke-miterlimit:10;}
</style>
    <ellipse transform="matrix(0.866 -0.5 0.5 0.866 -174.558 254.7617)" class="st0" cx="388.11" cy="453.11" rx="43.13"
             ry="18.33"/>
    <ellipse transform="matrix(0.2828 -0.9592 0.9592 0.2828 -366.4336 475.1501)" class="st0" cx="134.51" cy="482.6"
             rx="18.33" ry="43.13"/>
    <g>
	<path class="st1" d="M290.96,200.54c178.43,298.47-25.64,270.19-25.64,270.19c-196.6,10.1-23.51-269.69-23.51-269.69L290.96,200.54
		z"/>
</g>
    <g>
	<path class="st1" d="M267.66,304.29c0,0,155.38-25.07,193.88-122.99c2.8-7.11-6.81-13.26-13.56-8.69
		c-38.42,25.97-122.97,76.46-173.51,56.33C207.52,202.26,267.66,304.29,267.66,304.29z"/>
</g>
    <g>
	<path class="st1" d="M259.77,304.29c0,0-155.38-25.07-193.88-122.99c-2.8-7.11,6.81-13.26,13.56-8.69
		c38.42,25.97,122.97,76.46,173.51,56.33C319.91,202.26,259.77,304.29,259.77,304.29z"/>
</g>
    <path class="st2" d="M234,219.22c0,0-103.77,236.6,41.11,233.22c136.77-3.19,9.46-281.1,9.46-281.1L234,219.22z"/>
    <g>
	<path class="st3" d="M290.37,102.19c26.51,11.13,49.23,35.34,54.64,64.06c0.8,4.08,1.11,8.24,1.16,12.36
		c-1.42-7.03-3.26-13.91-6.04-20.51C330.42,134.49,311.56,115.94,290.37,102.19L290.37,102.19z"/>
</g>
    <g>
	<path class="st4" d="M176.52,226.81"/>
</g>
    <path class="st1" d="M374.41,166.81c0,56.62-50.27,89.59-109.9,89.59s-106.03-32.96-106.03-89.59S206.82,64.29,266.45,64.29
	S374.41,110.19,374.41,166.81z"/>
    <path class="st2" d="M357.43,176.78c0,44.67-41.28,80.88-92.19,80.88s-92.19-36.21-92.19-80.88s70.97-113.35,90.37,17.83
	C298.6,64.7,357.43,132.11,357.43,176.78z"/>
    <g>
	<path class="st1" d="M291.33,83.26l-55.22-4.45c0,0,22.99-9.65,28.95-25.08c0.66-1.74,1.12-3.54,1.3-5.42
		c0.29-2.92,3.29-4.63,5.67-3.07c5.76,3.77,14.06,10.37,18.15,19.14C292.77,69.87,293.7,76.22,291.33,83.26z"/>
        <path class="st3" d="M290.19,64.38c-8.11-6.5-18.34-9.4-25.12-10.66c0.66-1.74,1.12-3.54,1.3-5.42c0.29-2.92,3.29-4.63,5.67-3.07
		C277.79,49.01,286.09,55.61,290.19,64.38z"/>
</g>
    <g>
	<path class="st5" d="M265.04,171.99c-10.1-0.73-18.21,11.71-18.21,11.71c-13.73,2.84-13.61,12.53-13.61,12.53
		s19.52,19.96,32.37,19.77c12.85-0.19,31.86-20.72,31.86-20.72s-0.12-9.68-13.92-12.12C283.53,183.16,275.12,170.96,265.04,171.99"
    />
</g>
    <ellipse transform="matrix(0.9999 -0.0157 0.0157 0.9999 -2.9235 4.1957)" class="st6" cx="265.63" cy="188.2"
             rx="8.48" ry="4.74"/>
    <ellipse transform="matrix(0.0384 -0.9993 0.9993 0.0384 209.2198 385.9695)" class="st3" cx="305.15" cy="84.28"
             rx="5.32" ry="15.97"/>
    <ellipse transform="matrix(0.9923 -0.1238 0.1238 0.9923 -8.932 29.2392)" class="st3" cx="230.89" cy="86.52"
             rx="15.97" ry="5.32"/>
    <path class="st7" d="M254.22,301.36c0,7.19-5.83,13.01-13.01,13.01s-13.01-5.83-13.01-13.01"/>
    <path class="st7" d="M312.18,301.36c0,7.19-5.83,13.01-13.01,13.01c-7.19,0-13.01-5.83-13.01-13.01"/>
    <path class="st7" d="M283.79,328.57c0,7.19-5.83,13.01-13.01,13.01c-7.19,0-13.01-5.83-13.01-13.01"/>
    <path class="st4" d="M56.52,59.45c-10.19,4.44-15.6,17.53-11.53,27.88c1.08,2.73,2.7,5.23,3.85,7.93c4.12,9.62,1.52,21.72-6.19,28.8
	"/>
    <g>
	<circle class="st8" cx="103.14" cy="66.73" r="11.83"/>
        <circle class="st9" cx="171.76" cy="35.97" r="11.83"/>
        <circle class="st10" cx="384.7" cy="78.56" r="11.83"/>
        <circle class="st10" cx="103.14" cy="228.8" r="11.83"/>
        <circle class="st11" cx="456.86" cy="138.89" r="11.83"/>
        <circle class="st11" cx="125.62" cy="151.9" r="11.83"/>
        <circle class="st0" cx="103.14" cy="125.88" r="5.92"/>
        <circle class="st0" cx="330.28" cy="19.41" r="5.92"/>
        <circle class="st0" cx="435.57" cy="272.57" r="7.1"/>
        <circle class="st0" cx="117.34" cy="280.85" r="8.28"/>
        <circle class="st0" cx="340.93" cy="102.22" r="8.28"/>
        <circle class="st12" cx="51.09" cy="243" r="8.28"/>
        <circle class="st12" cx="407.17" cy="131.79" r="8.28"/>
        <path class="st13" d="M125.25,29.09c0.29-0.82-0.33-1.54-1.03-1.82c-3.84-1.52-5.67-1.27-7.01,1.48c-0.7-0.1-1.26-0.23-1.51-0.35
		c-1.94-0.96-2.61-3.47-2.69-5.44c-0.06-1.37,0.2-2.49,0.68-3.41c2.73,2.47,7.97-0.32,10.75-2.79c0.53-0.47,0.2-1.28-0.39-1.48
		c-3.58-1.22-7.39-0.92-10.09,0.79c-0.26-0.75-0.42-1.66-0.44-2.81c-0.09-5.26,3.25-9.69,7.27-12.68c0.21-0.16,0.1-0.55-0.19-0.46
		c-6.36,2.16-9.48,9.66-8.51,15.98c0.07,0.46,0.17,0.88,0.29,1.26c-1.59,1.72-2.41,4.2-1.91,7.42c0.51,3.27,2.33,5.69,5.46,6.82
		c0.09,0.03,0.19,0.05,0.28,0.08c-0.85,4.68,4.42,6.98,8.22,7.96c0.67,0.17,1.08-0.62,0.65-1.11c-1.22-1.41-2.54-2.36-4.16-3.28
		c-0.83-0.48-1.52-2-1.64-3.37C121.79,31.72,124.63,30.82,125.25,29.09z M121.86,16.57c-2.54,1.85-5.16,2.6-6.78,1.28
		C116.82,16.48,119.38,16.12,121.86,16.57z"/>
        <path class="st14" d="M485.68,181.79c-4.74,2.99-9.58,4.98-12.93-0.98c-1.67-2.97-1.45-5.67-0.03-7.59c3.95,0.4,8.23-0.68,8.2-4.16
		c0-0.63-0.52-1.16-1.16-1.16c-3.28-0.01-6.11,1.1-8.01,2.95c-1.72-0.31-3.22-1.37-4.27-2.79c-2.99-4.04,0.03-9.28,3.21-12.01
		c0.49-0.42-0.17-1.27-0.69-0.89c-5.37,3.89-8.31,10.38-3.17,15.84c0.72,0.76,1.97,1.37,3.43,1.77c-1.3,2.34-1.45,5.34,0.05,8.63
		c3.29,7.19,12.23,8.98,16.42,1.45C487.11,182.19,486.36,181.36,485.68,181.79z"/>
        <path class="st15" d="M400.32,196.13c-5.57-0.65-10.58-2.15-9.44-8.89c0.57-3.37,2.43-5.32,4.75-5.93c2.83,2.79,6.83,4.64,9,1.92
		c0.4-0.5,0.32-1.23-0.17-1.63c-2.55-2.07-5.44-2.99-8.09-2.74c-1.14-1.32-1.64-3.09-1.57-4.85c0.21-5.02,5.85-7.2,10.05-7.32
		c0.64-0.02,0.67-1.09,0.03-1.13c-6.62-0.35-12.99,2.85-12.42,10.33c0.08,1.04,0.67,2.3,1.55,3.53c-2.48,1-4.49,3.24-5.38,6.75
		c-1.95,7.66,3.86,14.67,11.86,11.45C401.18,197.35,401.12,196.23,400.32,196.13z"/>
        <path class="st15" d="M225.96,38.55c2.12-3.4,3.39-7.58,0.45-10.73c-4.4-4.71-10.98-2.86-15.88,0.01
		c-0.65,0.38-0.07,1.37,0.59,1.01c4.17-2.34,9.48-4.1,13.67-0.76c4.58,3.66,0.19,10.15-2.62,13.17c-0.6,0.66,0.37,1.63,0.98,0.98
		c3.65-4,7.66-2.52,8.06,2.71c0.27,3.56-2.16,6.13-3.64,9.06c-0.3,0.6,0.33,1.37,0.97,0.97C236.23,50.08,232.76,36.37,225.96,38.55z
		"/>
        <path class="st14" d="M81.03,143.57c-3.66,2.12-7.04,5.08-11.14,1.74c-0.95-0.77-1.46-1.55-1.67-2.32c3.48-1.06,5.51-4.25,6.9-7.54
		c0.44-1.04-0.83-2.14-1.81-1.81c-3.28,1.08-6.79,3.55-7.88,6.6c-1.57-0.08-3.22-0.87-4.82-2.54c-4.19-4.36-2.8-10.43,2.3-13.25
		c0.49-0.27,0.16-1.09-0.38-0.91c-7.71,2.53-9.09,10.13-3.93,16.17c1.61,1.88,4.08,3.33,6.61,3.59c0.23,1.05,0.77,2.14,1.72,3.23
		c4.03,4.61,12.78,4.53,15.62-1.45C83.01,144.12,82.05,142.98,81.03,143.57z"/>
        <path class="st16" d="M394.3,313.54c-8.5-4.33-7.1-14.69,1.98-15.76c0.59,0,1.2-0.03,1.8-0.09c1.89-0.2,1.76-2.89-0.14-2.94
		c-0.77-0.02-1.55,0.02-2.31,0.1c-5.67-0.15-9.81-3.41-8.39-9.97c0.32-1.47,0.8-2.6,1.4-3.46c2.14,3.77,6.55,5.94,12.84,3.5
		c0.82-0.32,1.32-1.31,0.78-2.1c-3.29-4.8-8.32-7.55-12.41-5.81c-0.77-4.71,1.75-10.78,7.5-12.73c0.69-0.23,0.36-1.22-0.33-1.06
		c-8.12,1.94-10.95,9.52-9.49,15.4c-0.95,0.96-1.81,2.27-2.5,3.98c-2.67,6.58,0.15,11.68,5.13,13.93c-2.66,1.5-4.56,4.01-4.71,7.71
		c-0.19,4.79,2.55,11.99,8.41,11.33C394.87,315.44,395.29,314.04,394.3,313.54z M398.67,282.78c-3.97,0.84-6.62-0.64-7.95-3.11
		C393.18,278.65,396.3,280.06,398.67,282.78z"/>
        <path class="st17" d="M153.05,137.81c-8.5-4.33-7.1-14.69,1.98-15.76c0.59,0,1.2-0.03,1.8-0.09c1.89-0.2,1.76-2.89-0.14-2.94
		c-0.77-0.02-1.55,0.02-2.31,0.1c-5.67-0.15-9.81-3.41-8.39-9.97c0.32-1.47,0.8-2.6,1.4-3.46c2.14,3.77,6.55,5.94,12.84,3.5
		c0.82-0.32,1.32-1.31,0.78-2.1c-3.29-4.8-8.32-7.55-12.41-5.81c-0.77-4.71,1.75-10.78,7.5-12.73c0.68-0.23,0.36-1.22-0.33-1.06
		c-8.12,1.94-10.95,9.52-9.49,15.4c-0.95,0.96-1.81,2.27-2.5,3.98c-2.67,6.58,0.15,11.68,5.13,13.93c-2.66,1.5-4.56,4.01-4.71,7.71
		c-0.19,4.79,2.55,11.99,8.41,11.33C153.62,139.71,154.04,138.32,153.05,137.81z M157.42,107.06c-3.97,0.84-6.62-0.64-7.95-3.11
		C151.93,102.92,155.05,104.34,157.42,107.06z"/>
        <path class="st17" d="M431.77,74.17c-9.38,1.77-14.6-7.29-8.07-13.68c0.47-0.36,0.93-0.75,1.37-1.18c1.37-1.31-0.38-3.36-1.91-2.24
		c-0.62,0.46-1.21,0.96-1.77,1.49c-4.58,3.35-9.84,3.3-12.74-2.76c-0.65-1.35-0.95-2.55-1.01-3.59c4,1.67,8.81,0.69,12.31-5.08
		c0.45-0.75,0.24-1.84-0.67-2.14c-5.54-1.79-11.2-0.88-13.38,2.99c-3.49-3.26-5.21-9.6-1.85-14.66c0.4-0.6-0.47-1.19-0.91-0.63
		c-5.24,6.5-2.85,14.23,1.9,17.99c-0.16,1.35-0.04,2.9,0.45,4.67c1.91,6.83,7.26,9.15,12.57,7.88c-1.19,2.82-1.16,5.96,0.99,8.98
		c2.77,3.9,9.35,7.93,13.58,3.82C433.38,75.33,432.87,73.97,431.77,74.17z M416.43,47.16c-2.63,3.09-5.63,3.54-8.19,2.4
		C409.55,47.25,412.89,46.46,416.43,47.16z"/>
        <path class="st18" d="M94.26,306.31c-3.49,0.12-6.35,0.28-9.22-2.13c-2.81-2.36-2.42-5.41-0.85-7.95c1.6-0.88,2.83-2.16,2.83-3.8
		c0-1.33-1.54-1.81-2.46-1.02c-0.84,0.72-1.57,1.48-2.19,2.28c-1.12,0.45-2.47,0.8-3.06,0.86c-2.22,0.23-4.24-0.97-5.84-2.36
		c-2.56-2.22-4.05-5.61-4.07-8.98c3.85,0.05,6.97-3.48,8.16-7.96c0.1-0.39-0.2-0.88-0.64-0.85c-5.04,0.39-8.14,2.86-9.32,6.25
		c-0.44-0.16-0.88-0.37-1.33-0.62c-6.19-3.51-6.67-11.93-3.19-17.37c0.26-0.4-0.33-0.85-0.65-0.5c-5.47,5.77-4.09,13.94,1.83,18.89
		c0.97,0.81,1.93,1.36,2.87,1.71c-0.28,2.57,0.37,5.48,1.98,8.36c1.97,3.53,5.38,5.86,9.36,6.36c0.59,0.07,1.29,0.05,2.02-0.05
		c-0.63,2.4-0.26,4.98,1.46,7.56c2.72,4.09,8.62,5.54,12.88,3.37C95.81,307.88,95.34,306.28,94.26,306.31z M72.3,277.03
		c0.56-0.4,4.11-2.03,2.9,0.33c-1.32,2.56-3.32,3.81-5.59,3.72c0.06-0.29,0.09-0.59,0.17-0.88
		C70.16,278.86,71.21,277.83,72.3,277.03z"/>
</g>
    <path class="st19" d="M249.37,198.18c0,0,14.05,29.58,33.12,0"/>
    <g>
	<ellipse transform="matrix(0.9724 -0.2334 0.2334 0.9724 -28.9111 57.13)" cx="226.96" cy="150.73" rx="9.71"
             ry="11.63"/>
</g>
    <ellipse transform="matrix(0.9745 -0.2244 0.2244 0.9745 -27.1051 52.8555)" class="st2" cx="219.03" cy="145.7"
             rx="4.63" ry="4.36"/>
    <ellipse transform="matrix(0.9751 -0.222 0.222 0.9751 -28.9566 54.3427)" class="st20" cx="227.29" cy="156"
             rx="16.49" ry="20.14"/>
    <g>
	<ellipse transform="matrix(0.999 -0.0444 0.0444 0.999 -6.3371 13.7182)" cx="305.51" cy="149.46" rx="9.71"
             ry="11.63"/>
</g>
    <ellipse transform="matrix(0.9994 -0.0352 0.0352 0.9994 -4.8433 10.59)" class="st2" cx="298.69" cy="143.01"
             rx="4.63" ry="4.36"/>
    <ellipse transform="matrix(0.9995 -0.0327 0.0327 0.9995 -4.896 10.0527)" class="st20" cx="304.84" cy="154.69"
             rx="16.49" ry="20.14"/>
</svg>
