<?xml version="1.0" encoding="utf-8"?>
<!-- Generator: Adobe Illustrator 28.0.0, SVG Export Plug-In . SVG Version: 6.00 Build 0)  -->
<svg version="1.1" id="Шар_1" xmlns="http://www.w3.org/2000/svg" x="0px" y="0px"
     viewBox="0 0 512 512" style="enable-background:new 0 0 512 512;" xml:space="preserve">
<style type="text/css">
	.st0{fill:#FE8E00;}
	.st1{fill:#232323;}
	.st2{fill:#FFFFFF;}
	.st3{fill:#555558;}
	.st4{fill:none;}
	.st5{fill:#FF8D00;}
	.st6{fill:#353535;}
	.st7{fill:#FFD48F;}
	.st8{fill:#C9C9C9;}
	.st9{fill:none;stroke:#000000;stroke-width:1.1848;stroke-miterlimit:10;}
</style>
    <ellipse transform="matrix(0.2602 -0.9656 0.9656 0.2602 -175.9863 687.6177)" class="st0" cx="360.73" cy="458.65"
             rx="17.96" ry="42.27"/>
    <ellipse transform="matrix(0.9925 -0.1225 0.1225 0.9925 -57.0854 30.1297)" class="st0" cx="216.55" cy="479.44"
             rx="42.27" ry="17.96"/>
    <g>
	<path class="st1" d="M245.62,160.56c252.01,263.22,30.98,279.97,30.98,279.97c-204.93,54.04-82.64-268.51-82.64-268.51
		L245.62,160.56z"/>
</g>
    <g>
	<path class="st1" d="M274.95,262.81c0,0,130.45-82.27,127.56-185.33c-0.21-7.48-11.23-9.34-15.57-2.63
		c-24.66,38.16-81.5,116.15-134.79,117.41C181.55,193.93,274.95,262.81,274.95,262.81z"/>
</g>
    <g>
	<path class="st1" d="M198.73,170.67c0,0-108.12,109.83-81.28,209.1c1.95,7.21,13.14,6.47,15.8-1.04
		c15.17-42.69,52.46-131.41,104.17-144.9C305.92,215.96,198.73,170.67,198.73,170.67z"/>
</g>
    <path class="st2"
          d="M195.48,189.38c0,0-69.25,257.62,80.35,229.93c141.24-26.14-35.7-287.01-35.7-287.01L195.48,189.38z"/>
    <g>
	<path class="st3" d="M224.86,65.13c27.67,5.59,54.08,23.94,65.28,50.37c1.62,3.74,2.78,7.65,3.7,11.58
		c-2.73-6.48-5.86-12.73-9.84-18.5C269.98,87.84,248.05,73.82,224.86,65.13L224.86,65.13z"/>
</g>
    <g>
	<path class="st4" d="M140.98,207.68"/>
</g>
    <path class="st1" d="M318.54,110.05c11.48,54.28-30.04,96.07-87.2,108.16c-57.16,12.09-108.33-10.11-119.81-64.39
	s25.56-108.09,82.72-120.17S307.06,55.76,318.54,110.05z"/>
    <path class="st2" d="M304.27,123.04c9.05,42.82-23.18,85.9-71.99,96.22c-48.81,10.32-95.72-16.03-104.78-58.85
	s45.06-123.05,90.25-1.22C225.15,27.52,295.22,80.22,304.27,123.04z"/>
    <g>
	<path class="st1" d="M221.95,46.78l-53.84,6.92c0,0,20.08-13.91,22.67-29.91c0.28-1.8,0.35-3.62,0.15-5.46
		c-0.32-2.86,2.21-5.1,4.81-4.09c6.28,2.45,15.58,7.09,21.28,14.67C220.62,33.66,222.79,39.56,221.95,46.78z"/>
        <path class="st3" d="M217.03,28.92c-9.09-4.59-19.48-5.29-26.24-5.13c0.28-1.8,0.35-3.62,0.15-5.46c-0.32-2.86,2.21-5.1,4.81-4.09
		C202.03,16.7,211.32,21.34,217.03,28.92z"/>
</g>
    <g>
	<path class="st5" d="M214.72,137.18c-9.83,1.35-15.08,14.92-15.08,14.92c-12.59,5.51-10.51,14.77-10.51,14.77
		s22.76,15.18,35.04,12.39c12.28-2.78,26.34-26.32,26.34-26.32s-2.08-9.26-15.8-8.8C234.72,144.14,224.18,134.15,214.72,137.18"/>
</g>
    <g>
	<path class="st6" d="M194.49,165.4c12.97,5.93,28.78,4.87,40.47-3.42c3.92-2.65,7.53-5.81,10.86-9.29
		c-2.77,3.94-6.11,7.54-10.02,10.48C224.26,172.37,206.9,173.47,194.49,165.4L194.49,165.4z"/>
</g>
    <ellipse transform="matrix(0.975 -0.2222 0.2222 0.975 -28.4436 52.3809)" class="st7" cx="218.58" cy="152.6"
             rx="8.31" ry="4.65"/>
    <path class="st3" d="M231.43,65.72c0,2.88,7.01,5.22,15.65,5.22s15.65-2.34,15.65-5.22s-7.01-5.22-15.65-5.22
	S231.43,62.84,231.43,65.72z"/>
    <ellipse transform="matrix(0.9234 -0.3838 0.3838 0.9234 -20.3824 68.0114)" class="st3" cx="160.24" cy="85.08"
             rx="15.65" ry="5.22"/>
    <path class="st8" d="M228.31,263.88c1.46,6.89-2.95,13.66-9.84,15.11s-13.66-2.95-15.11-9.84"/>
    <path class="st8" d="M283.88,252.13c1.46,6.89-2.95,13.66-9.84,15.11s-13.66-2.95-15.11-9.84"/>
    <path class="st8" d="M262.18,283.97c1.46,6.89-2.95,13.66-9.84,15.11c-6.89,1.46-13.66-2.95-15.11-9.84"/>
    <g>
	<ellipse transform="matrix(0.9724 -0.2334 0.2334 0.9724 -19.9336 61.4797)" cx="249.83" cy="114.97" rx="9.33"
             ry="11.17"/>
</g>
    <ellipse transform="matrix(0.9745 -0.2244 0.2244 0.9745 -18.5354 57.1501)" class="st2" cx="242.21" cy="110.14"
             rx="4.45" ry="4.19"/>
    <ellipse transform="matrix(0.9751 -0.222 0.222 0.9751 -19.2821 58.3927)" class="st9" cx="250.15" cy="114.98"
             rx="15.84" ry="19.34"/>
    <g>
	<ellipse transform="matrix(0.9724 -0.2334 0.2334 0.9724 -25.7217 43.9842)" cx="173" cy="130.68" rx="9.33"
             ry="11.17"/>
</g>
    <ellipse transform="matrix(0.9745 -0.2244 0.2244 0.9745 -24.0187 40.3143)" class="st2" cx="165.39" cy="125.85"
             rx="4.45" ry="4.19"/>
    <ellipse transform="matrix(0.9751 -0.222 0.222 0.9751 -24.6858 41.7322)" class="st9" cx="173.32" cy="130.69"
             rx="15.84" ry="19.34"/>
</svg>
