<?xml version="1.0" encoding="utf-8"?>
<!-- Generator: Adobe Illustrator 28.0.0, SVG Export Plug-In . SVG Version: 6.00 Build 0)  -->
<svg version="1.1" xmlns="http://www.w3.org/2000/svg" x="0px" y="0px"
     viewBox="0 0 512 512" style="enable-background:new 0 0 512 512;" xml:space="preserve">
<style type="text/css">
	.st0{fill:#D3E0FD;stroke:#FFFFFF;stroke-miterlimit:10;}
	.st1{fill:#FE8E00;}
	.st2{fill:#232323;}
	.st3{fill:#3F1212;}
	.st4{fill:#1C0808;}
	.st5{fill:#701E1E;}
	.st6{fill:#FFFFFF;}
	.st7{fill:#555558;}
	.st8{fill:none;}
	.st9{fill:#FF8D00;}
	.st10{fill:#FFD48F;}
	.st11{fill:none;stroke:#000000;stroke-width:0.9661;stroke-miterlimit:10;}
	.st12{fill:#353535;}
	.st13{fill:#932828;}
	.st14{fill:#4C0B0B;}
	.st15{fill:#E8E8E8;}
</style>
    <g id="Layer_2">
	<circle class="st0" cx="250.5" cy="324.5" r="140"/>
</g>
    <g id="Шар_1">
	<g>
		
			<ellipse transform="matrix(0.1225 -0.9925 0.9925 0.1225 -192.9492 742.5247)" class="st1" cx="323.4"
                     cy="480.4" rx="17.8" ry="41.9"/>

        <ellipse transform="matrix(0.9925 -0.1225 0.1225 0.9925 -57.4494 30.518)" class="st1" cx="219.5" cy="482.6"
                 rx="41.9" ry="17.8"/>
        <g>
			<path class="st2" d="M209.5,279.6c0,0-116.9,63.6-152.8,12.1c-24.7-35.3-21.6-76-17.3-98c1.3-6.9,10.2-8.8,14.3-3.2
				c12.6,17.3,32.5,48.4,32.2,72.3c0,0,23.3-74.6,141.5-10.4L209.5,279.6z"/>
		</g>
        <path class="st2"
              d="M279.1,211.6c0,0,42-124.1,86-169.3c6.2-6.4,16.7-1.1,16.6,8.3c-0.2,50.9-7.3,179.2-70.9,213.1L279.1,211.6z"
        />
        <path class="st3" d="M135.2,134.2c0,0-43.7,42.5-80.5,13.8l-3.4,24.1c0,0,56.3,12.6,90.8-31L135.2,134.2z"/>
        <g>
			<path class="st4" d="M58.7,157.7c17.6,7.1,36.3,5.6,52.9-3.4C97.2,166.5,74.6,168.3,58.7,157.7L58.7,157.7z"/>
		</g>
        <path class="st5" d="M143.2,104.3c0,0-82.8,11.5-58.6,98.9l29.9-4.6c0,0-56.3-55.2,31-86.2L143.2,104.3z"/>
        <path class="st2" d="M236.4,465.9c-187.5-243.6-31-268.2-11.8-270.3c1.4-0.2,2.9-0.4,4.3-0.7C381.6,162,328,379.8,306,453
			c-4.3,14.3-16.2,25-30.9,27.7h0C260.4,483.4,245.5,477.7,236.4,465.9z"/>
        <path class="st6" d="M291.1,414c1.4-2.2,2.3-4.7,2.7-7.3c5.2-32,35.7-245.7-76.9-224.6c-81.3,15.3-26.3,151.1,12.7,229
			C242,435.8,276.6,437.4,291.1,414L291.1,414z"/>
        <g>
			<path class="st7" d="M233,83.4c27.1,7,52.3,26.6,62,53.4c1.4,3.8,2.3,7.7,3,11.7c-2.4-6.6-5.1-12.9-8.8-18.8
				C276.4,108.4,255.5,93.3,233,83.4L233,83.4z"/>
		</g>
        <g>
			<path class="st8" d="M142.3,220.1"/>
		</g>
        <path class="st2" d="M259.8,227.9C259.8,228,259.8,228,259.8,227.9c-9,3.4-18.6,5.8-28.6,7.4c-8.7,1.4-17.3,1.9-25.6,1.7
			c0,0,0,0,0,0c-45.8-1.1-82.4-25.9-89.6-71.9c-2.5-15.8-0.9-31.4,4.1-45.8c4-11.8,10.3-22.7,18.4-32.3
			c14.2-16.8,34.1-29.4,57.3-34.8c2.8-0.7,5.6-1.2,8.5-1.7c8.2-1.3,16.3-1.6,24.2-1.1c16.7,1.1,32.5,6,46.2,13.9
			c9,5.2,17.2,11.7,24.2,19.3c12.6,13.7,21.3,30.8,24.3,50.2C330.3,177.7,302.1,212.2,259.8,227.9z"/>
        <path class="st6" d="M308.5,145c6.7,42.9-27.5,83.8-76.4,91.4s-93.9-21-100.6-63.9c-6.7-42.9,51.2-119.4,89.4,3.6
			C235.3,46.2,301.9,102.1,308.5,145z"/>
        <g>
			<path class="st2" d="M231.1,65.1l-53.7,4c0,0,20.6-12.7,24.1-28.4c0.4-1.8,0.5-3.6,0.4-5.4c-0.2-2.8,2.5-4.9,5-3.8
				c6.1,2.8,15,7.9,20.3,15.7C230.5,52,232.3,58,231.1,65.1z"/>
            <path class="st7" d="M227.2,47.1c-8.8-5-19-6.3-25.7-6.5c0.4-1.8,0.5-3.6,0.4-5.4c-0.2-2.8,2.5-4.9,5-3.8
				C213,34.2,222,39.3,227.2,47.1z"/>
		</g>
        <g>
			<path class="st9" d="M219.1,154.2c-9.8,0.8-15.7,14-15.7,14c-12.8,4.8-11.2,14.1-11.2,14.1s21.7,16.2,34,14.1
				c12.3-2.1,27.5-24.7,27.5-24.7s-1.6-9.3-15.2-9.6C238.5,162.2,228.6,151.7,219.1,154.2"/>
		</g>

        <ellipse transform="matrix(0.9856 -0.1692 0.1692 0.9856 -25.5152 40.0375)" class="st10" cx="222.1" cy="169.7"
                 rx="8.2" ry="4.6"/>
        <g>
			<ellipse transform="matrix(0.9863 -0.1652 0.1652 0.9863 -20.7742 32.7954)" cx="186.7" cy="141.3" rx="9.8"
                     ry="11.8"/>
            <ellipse transform="matrix(0.9852 -0.1713 0.1713 0.9852 -20.0443 33.7412)" class="st6" cx="185.5" cy="133"
                     rx="4" ry="4.2"/>
		</g>
        <g>
			<g>
				<ellipse transform="matrix(0.9863 -0.1652 0.1652 0.9863 -17.4424 44.9103)" cx="261.2" cy="127.3"
                         rx="9.8" ry="11.8"/>
			</g>

            <ellipse transform="matrix(0.9852 -0.1713 0.1713 0.9852 -16.6027 46.0822)" class="st6" cx="258.8" cy="119.3"
                     rx="4" ry="4.2"/>
		</g>

        <ellipse transform="matrix(0.9881 -0.1537 0.1537 0.9881 -20.5744 29.5413)" class="st11" cx="180.7" cy="147.8"
                 rx="18.2" ry="21.9"/>

        <ellipse transform="matrix(0.9881 -0.1537 0.1537 0.9881 -17.656 41.0283)" class="st11" cx="256.5" cy="134.7"
                 rx="18.2" ry="21.9"/>

        <ellipse transform="matrix(0.132 -0.9913 0.9913 0.132 123.1357 306.0843)" class="st7" cx="236.3" cy="82.7"
                 rx="5.2" ry="15.5"/>

        <ellipse transform="matrix(0.7789 -0.6272 0.6272 0.7789 -14.5225 137.2083)" class="st7" cx="187.3" cy="89.2"
                 rx="15.5" ry="5.2"/>
        <g>
			<path class="st12" d="M202.2,183.5c1.5,1.6,3.7,2.5,5.8,2.8c4.2,0.8,8.8-0.3,12.9-1.5c8.5-2.7,16.4-7.2,24.1-11.5
				c2-1.1,3.9-2.2,6-3.3c-3.4,3-7,5.9-10.8,8.4c-7.7,5-16.2,9.4-25.5,10.1c-1-0.1-2.5,0.1-3.5-0.1c-1.7-0.2-3.6-0.6-5.1-1.4
				C204.5,186.2,202.9,185,202.2,183.5L202.2,183.5z"/>
		</g>

        <ellipse transform="matrix(0.9682 -0.2503 0.2503 0.9682 -58.3379 40.6271)" class="st12" cx="130.6" cy="249.7"
                 rx="24.7" ry="11.5"/>

        <ellipse transform="matrix(0.3086 -0.9512 0.9512 0.3086 71.5236 458.7137)" class="st12" cx="351.3" cy="180.2"
                 rx="25.3" ry="5.7"/>
        <g>
			<path class="st9" d="M349.4,49.2c-1,5.3-3.2,10.1-6.3,14.2c-7.5,9.9-20.3,15.4-33.3,12.9c-4.3-0.8-8.3-2.4-11.8-4.7l-0.4-2.6
				c-0.8-4.8-5.2-8.1-9.9-7.7h0c-4.5-7-6.5-15.8-4.8-24.6c3.5-18.4,21.2-30.5,39.6-27c13.5,2.6,23.6,12.8,26.7,25.3
				C350.1,39.4,350.3,44.3,349.4,49.2z"/>
            <circle class="st9" cx="424.5" cy="63.4" r="33.9"/>
            <path class="st9" d="M431.7,65.3c-1.2,6.6-17.6,9.4-39.8,7.6c-3.4-0.3-7-0.6-10.7-1.1c-4-0.5-8.1-1.2-12.4-2
				c-7.7-1.4-15-3.2-21.6-5.2c-1.4-0.4-2.8-0.9-4.2-1.3C323.6,57,310.8,49,312,42.7c1.2-6.3,16.3-9.1,37-7.8
				c3.3,0.2,6.8,0.5,10.4,0.9c5,0.6,10.1,1.4,15.4,2.4c4.5,0.9,8.9,1.8,13.1,2.9c3.1,0.8,6.1,1.6,9,2.5
				C418.5,50,433,58.7,431.7,65.3z"/>
		</g>
        <circle class="st10" cx="438.6" cy="53.7" r="12.6"/>

        <ellipse transform="matrix(0.1852 -0.9827 0.9827 0.1852 276.2879 497.9642)" class="st10" cx="438.4" cy="82.4"
                 rx="6.3" ry="5.2"/>
        <circle class="st10" cx="420.9" cy="42.2" r="4.6"/>

        <ellipse transform="matrix(0.1852 -0.9827 0.9827 0.1852 238.6329 337.6496)" class="st10" cx="322.9" cy="24.9"
                 rx="8" ry="9.8"/>

        <ellipse transform="matrix(0.1852 -0.9827 0.9827 0.1852 237.3312 415.5388)" class="st10" cx="369.3" cy="64.6"
                 rx="2.9" ry="21.3"/>
        <path class="st2" d="M385.8,30.8c6.4,1.2,8.9,8.8,4.7,13.7c-0.4,0.4-0.8,0.8-1.1,1.3c-6.3,6.8-13.7,11.4-21.1,9.1
			c-5.5-1.7-8.8-5.9-10.6-11.1c-0.8-2.2-1.3-4.5-1.6-6.9c-0.7-5.3,3.9-9.9,9.2-9.2c4.4,0.6,9,1.2,13.6,2
			C381.2,29.9,383.5,30.3,385.8,30.8z"/>

        <ellipse transform="matrix(0.1852 -0.9827 0.9827 0.1852 272.4056 395.7402)" class="st7" cx="374.9" cy="33.6"
                 rx="1.7" ry="12.1"/>
        <ellipse transform="matrix(0.5857 -0.8106 0.8106 0.5857 120.9094 326.7144)" class="st7" cx="380" cy="45.1"
                 rx="8" ry="0.6"/>
        <path class="st13" d="M299.6,78.2c4,3.7,2.2,10.5-3.1,11.4c0,0-0.1,0-0.1,0l-35.1,5.8h0l-86.5,14.4h0l-4.9,0.8
			c-7.9,1.3-15.6,3.1-23.2,5.5c-11.7,3.7-29.6,8.5-29.4,3.1c0-0.1,9.7-21.3,17.4-30.3c1-1.2,2.5-2,4.1-2.3
			c16.8-2.8,120.8-20.1,137.9-22.9c1.5-0.3,3.1,0,4.5,0.8C287.7,68.5,294,73.1,299.6,78.2z"/>
        <path class="st9" d="M297.9,71.6c-4.2-2.6-7.7-6.2-10.4-10.3c4.8-0.4,9.1,3,9.9,7.7L297.9,71.6z"/>

        <ellipse transform="matrix(0.8962 -0.4436 0.4436 0.8962 -18.2514 145.5135)" class="st7" cx="301.9" cy="111.8"
                 rx="1.1" ry="21.3"/>

        <ellipse transform="matrix(0.7071 -0.7071 0.7071 0.7071 26.3911 220.5676)" class="st14" cx="279.4" cy="78.4"
                 rx="1.7" ry="10.9"/>

        <ellipse transform="matrix(0.6019 -0.7985 0.7985 0.6019 57.3085 260.5042)" class="st14" cx="289.9" cy="72.8"
                 rx="0.9" ry="11.6"/>

        <ellipse transform="matrix(0.9863 -0.1652 0.1652 0.9863 -10.524 34.9347)" class="st14" cx="204.7" cy="80.7"
                 rx="38.5" ry="1.7"/>

        <ellipse transform="matrix(0.9881 -0.1537 0.1537 0.9881 -11.9125 36.1389)" class="st14" cx="227.7" cy="95.1"
                 rx="29.3" ry="2.3"/>
        <g>
			<path class="st3" d="M109.3,123.3c-14.5,10.8-21.7,28.8-23,46.4c-0.5,5.9-0.4,11.9,0,18c-1.6-6.6-2.1-13.5-1.8-20.4
				C85.3,150,93.4,131.6,109.3,123.3L109.3,123.3z"/>
		</g>
        <g>
			<path class="st3" d="M94.4,173.8c1.5,7.8,4.9,14.9,10.3,20.7C97.6,190.5,93.5,181.9,94.4,173.8L94.4,173.8z"/>
		</g>
        <path class="st15" d="M235.4,345.3l-10.7,1.7c-7.2,1.1-14-3.8-15.1-11l-1.7-10.7c-1.1-7.2,3.8-14,11-15.1l10.7-1.7
			c7.2-1.1,14,3.8,15.1,11l1.7,10.7C247.6,337.4,242.7,344.1,235.4,345.3z"/>
        <path class="st15" d="M280.4,338.3l-10.7,1.7c-7.2,1.1-14-3.8-15.1-11l-1.7-10.7c-1.1-7.2,3.8-14,11-15.1l10.7-1.7
			c7.2-1.1,14,3.8,15.1,11l1.7,10.7C292.6,330.4,287.6,337.1,280.4,338.3z"/>
        <path class="st15" d="M243.9,378.2l-8.1,1.3c-5.4,0.8-10.5-2.9-11.4-8.3l-1.3-8.1c-0.8-5.4,2.9-10.5,8.3-11.4l8.1-1.3
			c5.4-0.8,10.5,2.9,11.4,8.3l1.3,8.1C253,372.3,249.3,377.4,243.9,378.2z"/>
        <path class="st15" d="M279.7,372.6l-8.1,1.3c-5.4,0.8-10.5-2.9-11.4-8.3l-1.3-8.1c-0.8-5.4,2.9-10.5,8.3-11.4l8.1-1.3
			c5.4-0.8,10.5,2.9,11.4,8.3l1.3,8.1C288.9,366.7,285.2,371.8,279.7,372.6z"/>
        <path class="st15" d="M249.6,409.2l-7.4,1.1c-5,0.8-9.6-2.6-10.4-7.6l-1.1-7.4c-0.8-5,2.6-9.6,7.6-10.4l7.4-1.1
			c5-0.8,9.6,2.6,10.4,7.6l1.1,7.4C257.9,403.8,254.5,408.4,249.6,409.2z"/>
        <path class="st15" d="M283,404l-7.4,1.1c-5,0.8-9.6-2.6-10.4-7.6l-1.1-7.4c-0.8-5,2.6-9.6,7.6-10.4l7.4-1.1
			c5-0.8,9.6,2.6,10.4,7.6l1.1,7.4C291.4,398.6,288,403.2,283,404z"/>

        <ellipse transform="matrix(0.9856 -0.1692 0.1692 0.9856 -42.6836 44.6121)" class="st15" cx="240.4" cy="272.7"
                 rx="2.9" ry="28.2"/>
        <g>
			<path class="st15" d="M251.6,292.8c9.7,2.3,20,1,29-3.2c0.8-0.4,2.8-1.5,3.6-1.9c0.8-0.5,2.6-1.7,3.5-2.2c1.5-1,2.9-2.1,4.5-3.2
				c-1.3,1.3-2.6,2.6-4,3.8C278.2,294.6,263.6,298,251.6,292.8L251.6,292.8z"/>
		</g>
        <g>
			<path class="st15" d="M195.1,302.1c9.6,2.8,19.9,2,29.1-1.7c0.8-0.4,2.9-1.3,3.7-1.7c0.8-0.4,2.7-1.5,3.6-2c1.6-0.9,3-2,4.6-2.9
				c-1.4,1.2-2.7,2.5-4.2,3.6C221.6,305.3,206.9,307.9,195.1,302.1L195.1,302.1z"/>
		</g>

        <ellipse transform="matrix(0.2146 -0.9767 0.9767 0.2146 -66.4332 402.9987)" class="st15" cx="217.4" cy="242.8"
                 rx="1.7" ry="13.2"/>
        <ellipse transform="matrix(0.866 -0.5 0.5 0.866 -85.5166 157.2672)" class="st15" cx="250.7" cy="238.2" rx="13.2"
                 ry="1.7"/>
        <g>
			<path class="st12" d="M318.8,115.1c8.5,20,11,45.6-0.4,64.9c-1.7,2.7-3.6,5.3-5.8,7.6c1.8-2.6,3.4-5.3,4.8-8.2
				C326.8,159.4,324.2,136,318.8,115.1L318.8,115.1z"/>
		</g>
        <g>
			<path class="st10" d="M407.6,38.8c-5.7,3.4-10,8.8-11.8,15.2c-0.5,2-0.8,4.1-1,6.1c0,0.7,0,2.4,0,3.1c0,1.4,0.2,2.8,0.2,4.2
				c-0.6-2-1.1-4.2-1.3-6.3C392.7,51.7,398.4,41.8,407.6,38.8L407.6,38.8z"/>
		</g>
        <g>
			<path class="st10" d="M330,70.4c7.6-4.1,13.1-11.7,13.6-20.4c0.1-1.2,0.1-2.5,0.2-3.7c0.2,1.2,0.5,2.5,0.6,3.7
				C345.2,59.1,338.8,68.1,330,70.4L330,70.4z"/>
		</g>
	</g>
</g>
</svg>
