<?xml version="1.0" encoding="utf-8"?>
<!-- Generator: Adobe Illustrator 28.0.0, SVG Export Plug-In . SVG Version: 6.00 Build 0)  -->
<svg version="1.1" id="Layer_1" xmlns="http://www.w3.org/2000/svg" x="0px" y="0px"
	viewBox="0 0 1000 1000" style="enable-background:new 0 0 1000 1000;" xml:space="preserve">
<style type="text/css">
	.st0{fill:#F68B1F;}
	.st1{fill:#FFF48C;}
	.st2{fill:#232323;}
	.st3{fill:#FFFFFF;}
	.st4{fill:#353635;}
	.st5{fill:#010101;}
	.st6{fill:none;stroke:#010101;stroke-width:0.7184;stroke-miterlimit:10;}
	.st7{fill:#C9C9C9;}
	.st8{fill:#F78E1E;}
	.st9{fill:#565659;}
	.st10{fill:none;}
	.st11{fill:#F78D1E;}
	.st12{fill:#FFD48F;}
	.st13{fill:none;stroke:#010101;stroke-width:2.0362;stroke-miterlimit:10;}
	.st14{fill:#3E3E3E;}
	.st15{fill:#F2F2F2;stroke:#232323;stroke-width:3.5787;stroke-miterlimit:10;}
	.st16{fill:#F2F2F2;}
	.st17{fill:#575757;}
	.st18{fill:none;stroke:#232323;stroke-width:6.9356;stroke-miterlimit:10;}
	.st19{fill:#0D0E0E;}
	.st20{fill:#5E5F5F;}
	.st21{fill:#464646;}
	.st22{fill:#1E1E1E;}
	.st23{fill:#F68C21;}
	.st24{fill:#E1DF2F;}
	.st25{opacity:0.25;fill:#2E2713;enable-background:new    ;}
	.st26{fill:#202120;}
	.st27{fill:#6D6E6E;}
	.st28{display:none;}
	.st29{display:inline;fill:#00AEEF;}
	.st30{opacity:0.98;fill:#558FFB;}
</style>
    <g>
	
		<ellipse transform="matrix(0.2029 -0.9792 0.9792 0.2029 -742.5208 925.8275)" class="st0" cx="197.4" cy="919"
                 rx="31.1" ry="40.1"/>
        <g>
		
			<ellipse transform="matrix(0.9336 -0.3584 0.3584 0.9336 -282.9828 214.5212)" class="st0" cx="437.2"
                     cy="870.7" rx="40.1" ry="31.1"/>

            <ellipse transform="matrix(0.9753 -0.2207 0.2207 0.9753 -176.6138 117.8553)" class="st1" cx="439.2"
                     cy="849.4" rx="9.1" ry="6.7"/>
	</g>
        <g>
		<path class="st2" d="M135.6,553.4c0,0-83.5,92.7-52.4,195.4c2.8,9.4,14.7,5.9,18.9-5.6c12.4-34.1,40-92.1,97.4-149.9L135.6,553.4z
			"/>
	</g>
        <g>
		<path class="st2" d="M328.2,509.6c0,0,115.4,47.5,131.7,153.5c1.5,9.7-10.7,11.7-19.5,3.2c-25.9-25.4-75.8-65.7-152.6-93.1
			L328.2,509.6z"/>
	</g>
        <g>
		<path class="st2" d="M399.4,631.8c81.7,161.1-16.9,199.8-92.8,217S137,887.4,124.5,694.3c-10.5-161.9,2-275.7,78-293
			C278.4,384.1,309.9,455.3,399.4,631.8z"/>
	</g>
        <g>
		<path class="st3" d="M222.3,527.5c0,0-11.8-117-38.1-99.1c-26.2,17.9-60.5,93.5,3.1,155.1c0,0-52.3,261.2,109.5,215.9
			c164.8-32.6,1.6-242.4,1.6-242.4c29.4-83.8-34.9-135.9-66.4-140.1s10.2,105.8,10.2,105.8"/>
	</g>
        <g>
		<path class="st0" d="M258.5,514.3l-2.9,4.8c-11,18-33.3,21.5-49.8,7.7l-2.8-2.4c-2.8-2.4-3.6-6.7-1.7-9.8l2.9-4.8
			c11-18,33.3-21.5,49.8-7.7l2.8,2.4C259.6,506.8,260.4,511.2,258.5,514.3z"/>
	</g>
        <g>
		<path class="st4" d="M205.4,517.6c11.1,8,25.4,8.6,36.9,0.9c3.7-2.3,7.1-5.2,10.3-8.3c-3,4-6.7,7.6-11,10.4
			C230.3,528.2,215.3,527,205.4,517.6L205.4,517.6z"/>
	</g>
        <g>
		
			<ellipse transform="matrix(0.9739 -0.2268 0.2268 0.9739 -105.1192 58.0051)" class="st5" cx="199.9"
                     cy="486.5" rx="6.7" ry="10.1"/>

            <ellipse transform="matrix(0.9743 -0.2251 0.2251 0.9743 -102.8954 57.3727)" class="st3" cx="200.2" cy="480"
                     rx="2.7" ry="3.6"/>
	</g>
        <g>
		
			<ellipse transform="matrix(0.9739 -0.2268 0.2268 0.9739 -101.2134 69.1199)" class="st5" cx="250.2" cy="475"
                     rx="6.7" ry="10.1"/>

            <ellipse transform="matrix(0.9743 -0.2251 0.2251 0.9743 -99.029 68.4067)" class="st3" cx="250.5" cy="468.6"
                     rx="2.7" ry="3.6"/>
	</g>
        <path class="st2"
              d="M187.3,418.4c0,0-2.2-30.1,20.9-40.7c3.3-1.5,7.1,2.3,6.2,6.4c-2.1,9.9-0.7,24.4,24.6,27.7L187.3,418.4z"/>
        <ellipse transform="matrix(0.9724 -0.2333 0.2333 0.9724 -111.3212 68.5507)" class="st1" cx="234.2" cy="504.9"
                 rx="7.6" ry="4"/>

        <ellipse transform="matrix(0.3178 -0.9481 0.9481 0.3178 -312.2007 625.0414)" class="st3" cx="278.3" cy="529.5"
                 rx="6.1" ry="6.8"/>

        <ellipse transform="matrix(0.9751 -0.2217 0.2217 0.9751 -107.4298 76.3354)" class="st3" cx="286.4" cy="516.8"
                 rx="2.9" ry="3.4"/>
        <ellipse transform="matrix(0.9751 -0.2217 0.2217 0.9751 -105.0307 75.0828)" class="st3" cx="282" cy="505.5"
                 rx="2.9" ry="3.4"/>
        <g>
		<path class="st5" d="M178.5,457.6c5.6-5.8,14.8-7.9,22.4-5.1l0.1,0.4c-1.8,0.5-3.7,1-5.6,1.4c-2.8,0.7-8.4,2-11.2,2.5
			c-1.9,0.4-3.7,0.8-5.6,1.1C178.6,458,178.5,457.6,178.5,457.6L178.5,457.6z"/>
	</g>
        <g>
		<path class="st5" d="M228.2,447.7c-1.8-12.1,9-24.8,21.6-21.2C237.7,429.4,232.7,436.8,228.2,447.7L228.2,447.7z"/>
	</g>

        <ellipse transform="matrix(0.9751 -0.2217 0.2217 0.9751 -101.7221 55.1946)" class="st6" cx="195" cy="480.8"
                 rx="12.4" ry="18.7"/>
        <ellipse transform="matrix(0.9751 -0.2217 0.2217 0.9751 -97.6249 66.1847)" class="st6" cx="246" cy="468"
                 rx="12.4" ry="18.7"/>
        <path class="st7" d="M231.2,609.6c1.9,8.2-3.6,16.3-12.2,18.3s-17-3.1-18.9-11.2"/>
        <path class="st7" d="M300.4,593.9c1.9,8.2-3.6,16.3-12.2,18.3c-8.6,2-17-3.1-18.9-11.2"/>
        <path class="st7" d="M273.5,632.5c1.9,8.2-3.6,16.3-12.2,18.3c-8.6,2-17-3.1-18.9-11.2"/>
</g>
    <g>
	
		<ellipse transform="matrix(0.9496 -0.3135 0.3135 0.9496 -235.5474 300.277)" class="st8" cx="815.8" cy="882.4"
                 rx="49.2" ry="20.9"/>

        <ellipse transform="matrix(0.8881 -0.4596 0.4596 0.8881 -295.8687 329.2164)" class="st8" cx="528.3" cy="772.3"
                 rx="20.9" ry="49.2"/>
        <g>
		<path class="st2"
              d="M779.2,526.6c142.4,397.6-97.3,312.9-97.3,312.9c-240.1-37.4,37.8-324.7,37.8-324.7L779.2,526.6z"/>
	</g>
        <g>
		<path class="st2" d="M759.9,659.7c0,0,178-22.8,225.5-133c3.4-8-7.3-15.4-15.1-10.4c-44.7,28.2-143,82.6-199.8,57.7
			C695.2,541.2,759.9,659.7,759.9,659.7z"/>
	</g>
        <g>
		<path class="st2" d="M695.1,650.8c0,0-150.1-98.2-144.1-217.7c0.4-8.7,13.3-10.6,18.2-2.7c27.8,44.8,92.1,136.5,154.2,139
			C805.8,572.8,695.1,650.8,695.1,650.8z"/>
	</g>
        <path class="st3" d="M714.5,534.3c0,0-194.1,242.2-21.8,282.6c162.7,38.1,96-322.5,96-322.5L714.5,534.3z"/>
        <g>
		<path class="st9" d="M803.8,415.6c25,17.3,43.7,46.5,45.9,77.1c0.4,7.1,0,14.2-1.3,21.2c0.1-8.2-0.3-16.3-1.9-24.3
			C841.2,460.9,824.4,435.8,803.8,415.6L803.8,415.6z"/>
	</g>
        <g>
		<path class="st10" d="M647.9,528.4"/>
	</g>
        <path class="st2" d="M882.7,507.2c-13.1,63.2-76.9,88.4-143.4,74.5s-110.7-61.4-97.6-124.6c13.1-63.2,77.7-103.3,144.3-89.4
		S895.8,444,882.7,507.2z"/>
        <path class="st3" d="M861.4,514.4c-10.4,49.9-64.8,80.7-121.7,68.9c-56.8-11.8-94.5-61.8-84.2-111.7s105.5-110.1,96.8,40.8
		C821.7,375.7,871.8,464.6,861.4,514.4z"/>
        <g>
		<path class="st2" d="M809.3,394.7l-60.6-17.8c0,0,27.9-5.4,38.1-21.3c1.1-1.8,2.1-3.7,2.7-5.7c1-3.2,4.7-4.4,7-2.1
			c5.6,5.5,13.3,14.8,15.8,25.6C814,380.1,813.6,387.4,809.3,394.7z"/>
            <path class="st9" d="M812.4,373.4c-7.5-9.1-18.3-14.7-25.6-17.7c1.1-1.8,2.1-3.7,2.7-5.7c1-3.2,4.7-4.4,7-2.1
			C802.1,353.3,809.8,362.6,812.4,373.4z"/>
	</g>
        <g>
		<path class="st11" d="M759.4,487.7c-11.1-3.2-23,8.9-23,8.9c-16,0-18.1,10.8-18.1,10.8s17.2,26.8,31.6,29.6
			c14.4,2.8,40.4-15.7,40.4-15.7s2.1-10.8-12.7-16.8C777.4,504.4,770.9,488.9,759.4,487.7"/>
	</g>
        <g>
		<path class="st4" d="M726.1,509.4c12.7,9.4,28.2,14.2,44,12.8c5.2-0.4,10.4-1.3,15.8-2.3c-9.3,6-21,8.5-32,6.7
			C742.9,524.7,732.1,518.8,726.1,509.4L726.1,509.4z"/>
	</g>

        <ellipse transform="matrix(0.1878 -0.9822 0.9822 0.1878 117.3052 1153.6805)" class="st12" cx="756.3" cy="505.9"
                 rx="5.4" ry="9.7"/>

        <ellipse transform="matrix(0.4193 -0.9078 0.9078 0.4193 90.3338 998.2748)" class="st9" cx="825.5" cy="428.5"
                 rx="6.1" ry="18.2"/>

        <ellipse transform="matrix(9.992830e-02 -0.995 0.995 9.992830e-02 252.0205 1089.6931)" class="st9" cx="728.3"
                 cy="405.5" rx="6.1" ry="18.2"/>
        <path class="st7" d="M714.7,629c-1.7,8-9.5,13.2-17.5,11.5c-8-1.7-13.2-9.5-11.5-17.5"/>
        <path class="st7" d="M779.4,642.5c-1.7,8-9.5,13.2-17.5,11.5c-8-1.7-13.2-9.5-11.5-17.5"/>
        <path class="st7" d="M741.4,666.3c-1.7,8-9.5,13.2-17.5,11.5c-8-1.7-13.2-9.5-11.5-17.5"/>
        <g>
		
			<ellipse transform="matrix(2.496178e-03 -1 1 2.496178e-03 255.7004 1176.2692)" class="st5" cx="717.5"
                     cy="460" rx="13.7" ry="11.5"/>
	</g>

        <ellipse transform="matrix(1.176296e-02 -0.9999 0.9999 1.176296e-02 249.461 1156.3846)" class="st3" cx="709.8"
                 cy="452" rx="5.1" ry="5.5"/>

        <ellipse transform="matrix(1.421817e-02 -0.9999 0.9999 1.421817e-02 251.9483 1173.6256)" class="st13" cx="721.2"
                 cy="459" rx="23.8" ry="19.5"/>
        <g>
		
			<ellipse transform="matrix(0.253 -0.9675 0.9675 0.253 140.7561 1135.799)" class="st5" cx="805.9" cy="476.7"
                     rx="13.7" ry="11.5"/>
	</g>

        <ellipse transform="matrix(0.262 -0.9651 0.9651 0.262 139.9734 1117.2289)" class="st3" cx="800.5" cy="467.1"
                 rx="5.1" ry="5.5"/>

        <ellipse transform="matrix(0.2644 -0.9644 0.9644 0.2644 136.067 1129.0835)" class="st13" cx="808.1" cy="475.3"
                 rx="23.8" ry="19.5"/>
</g>
    <g>
	<g>
		<path class="st2" d="M347.9,490.1c0,0-43.2,137.1-95,205.8c-6.7,8.9-0.8,23.7,8,19.8c40.2-17.6,112.8-65.2,218.8-193.1
			L347.9,490.1z"/>
	</g>
        <g>
		<path class="st2"
              d="M632.7,485c0,0,48.1,135.5,102.3,202.3c7,8.7,1.7,23.6-7.2,20.1c-40.8-16.2-115-61.1-225.6-185.1L632.7,485z"
        />
	</g>
        <g>
		<line class="st10" x1="494.6" y1="571" x2="662.5" y2="650.9"/>
	</g>
        <path class="st11" d="M295.7,972.7l50.7,25c10.4,5.1,23.1,1.1,28.1-9l5.9-11.9c5-10.1,0.6-22.6-9.9-27.7l-50.7-25
		c-10.4-5.1-23.1-1.1-28.1,9l-5.9,11.9C280.8,955.1,285.3,967.6,295.7,972.7z"/>
        <path class="st11" d="M609.5,987.6l50.4-25.6c10.4-5.3,14.7-17.8,9.6-27.8l-6-11.8c-5.1-10.1-17.7-14-28.1-8.7L585,939.2
		c-10.4,5.3-14.7,17.8-9.6,27.8l6,11.8C586.5,989,599.1,992.9,609.5,987.6z"/>
        <g>
		<path class="st2" d="M501.9,913.4C237.1,943.7,345.8,514,345.8,514c-35.1-223.6,139-227.4,139.1-227.4c0,0,174.1-7.6,151.2,217.9
			C636,504.6,767.9,926.3,501.9,913.4z"/>
	</g>
        <g>
		<path class="st3" d="M434.7,503.5L385,468.4c-13.9-9.8-18.4-29.5-10.3-45.1l37.3-72.5c5.4-10.6,15.6-17.3,26.8-17.6l3-0.1
			c16.7-0.5,31,13,32.5,30.9l9.4,107.7C486.3,500.2,457,519.3,434.7,503.5z"/>
	</g>
        <g>
		<path class="st3" d="M549.4,499.8l47.7-38.3c13.3-10.7,16.7-30.6,7.9-45.7l-41.2-69.9c-6-10.2-16.5-16.2-27.8-15.8l-3,0.1
			c-16.7,0.5-30.2,15-30.8,33l-3.6,108.2C497.8,499.9,528,516.9,549.4,499.8z"/>
	</g>
        <g>
		<path class="st11" d="M489,457.6c-13-0.8-23.1,17.3-23.1,17.3c-17.6,4.4-17.2,18.3-17.2,18.3s25.5,28.4,42,27.8
			c16.5-0.5,40.4-30.5,40.4-30.5s-0.4-14-18.1-17.2C513,473.3,501.9,455.9,489,457.6"/>
	</g>
        <g>
		<path class="st14" d="M453.7,439c10.1-20.6,35.7-33.9,56.8-18.8c6.2,4.3,11,9.9,14.5,16.1c-5.5-4.6-11.1-9-17.1-12.1
			C487.7,412.9,468.5,424.7,453.7,439L453.7,439z"/>
	</g>
        <path class="st15" d="M430.8,470.2L430.8,470.2c-17.5,0.6-32.2-14.3-32.7-33.1l-0.6-23.4c-0.5-18.8,13.4-34.6,30.8-35.2l0,0
		c17.5-0.6,32.2,14.3,32.7,33.1l0.6,23.4c0.1,4.4-0.5,8.6-1.9,12.6C455.5,460.4,444.2,469.8,430.8,470.2z"/>
        <path class="st15" d="M551.1,468.3L551.1,468.3c-17.5,0.6-32.2-14.3-32.7-33.1l-0.6-23.4c-0.5-18.8,13.4-34.6,30.8-35.2l0,0
		c17.5-0.6,32.2,14.3,32.7,33.1l0.6,23.4c0.1,4.4-0.5,8.6-1.9,12.6C575.7,458.4,564.5,467.8,551.1,468.3z"/>
        <path class="st4" d="M551.7,456.5l-4.7,0.1c-6.7,0.2-12.3-5.5-12.5-12.7l-0.5-16.7c-0.2-7.2,5.1-13.3,11.8-13.5l4.7-0.1
		c6.7-0.2,12.3,5.5,12.5,12.7l0.5,16.7C563.7,450.2,558.4,456.3,551.7,456.5z"/>
        <path class="st4" d="M432,460.4l-4.7,0.1c-6.7,0.2-12.3-5.5-12.5-12.7l-0.5-16.7c-0.2-7.2,5.1-13.3,11.8-13.5l4.7-0.1
		c6.7-0.2,12.3,5.5,12.5,12.7l0.5,16.7C444,454.1,438.7,460.2,432,460.4z"/>

        <ellipse transform="matrix(6.990667e-03 -1 1 6.990667e-03 117.6889 954.0845)" class="st16" cx="539.2" cy="417.8"
                 rx="9.8" ry="9.1"/>

        <ellipse transform="matrix(6.990667e-03 -1 1 6.990667e-03 -6.975 836.5218)" class="st16" cx="417.7" cy="421.8"
                 rx="9.8" ry="9.1"/>
        <g>
		<path class="st3" d="M474.7,556.2c-11.1-4.5-25.7-10.4-40.8-16.4c-32.8-13.2-67.3,14.7-64.8,52.3l13.5,198.3
			c1.3,19.2,12.4,36,28.8,43.6l69.4,32.3c13.1,6.1,28,5.6,40.8-1.3c19-10.4,47.1-25.7,67.6-36.8c16-8.7,26.1-26.2,26.4-45.4
			l2.7-198.8c0.5-37.7-35.5-63.3-67.5-48L511,555C499.5,560.5,486.5,561,474.7,556.2z"/>
	</g>

        <ellipse transform="matrix(0.9993 -3.621725e-02 3.621725e-02 0.9993 -17.0985 18.066)" class="st12" cx="490.1"
                 cy="481" rx="10.9" ry="6.8"/>

        <ellipse transform="matrix(0.2283 -0.9736 0.9736 0.2283 108.067 752.3462)" class="st17" cx="528.6" cy="308"
                 rx="9.8" ry="19.3"/>
        <line class="st18" x1="575.2" y1="390.6" x2="591.3" y2="371.4"/>
        <line class="st18" x1="403.8" y1="393.4" x2="387.1" y2="374.7"/>
        <path class="st2"
              d="M449.8,301c0,0,32.1-18.1,35.1-38.9c0,0,32.6,15.4,29.5,31.4C511.3,309.6,449.8,301,449.8,301z"/>
        <path class="st7" d="M468.7,599.2c0.2,9.7-8.1,17.7-18.4,17.9c-10.3,0.2-18.9-7.6-19-17.2"/>
        <path class="st7" d="M552.1,597.9c0.2,9.7-8.1,17.7-18.4,17.9c-10.3,0.2-18.9-7.6-19-17.2"/>
        <path class="st7" d="M511.8,635.3c0.2,9.7-8.1,17.7-18.4,17.9c-10.3,0.2-18.9-7.6-19-17.2"/>
        <path class="st19" d="M401.5,315.2c0,0-18.3,26.7,34.5,25.7L401.5,315.2z"/>

        <ellipse transform="matrix(0.3226 -0.9465 0.9465 0.3226 -27.8034 660.7826)" class="st7" cx="447.8" cy="349.8"
                 rx="8.3" ry="29.1"/>
        <path class="st20" d="M599.2,316.3c1.4,13.2,7.6,51.2-10.8,51.4C511.5,372.5,484.2,368,422,341c-1.7-0.8-16.8-13-21.9-21.4
		c-2.1-14,4.4-32.7,13-45.5c26.9-40.1,65.4-49.7,113.6-37.9C547.1,241.3,593.1,260.1,599.2,316.3z"/>
        <path class="st21" d="M422,340.1C422,340.1,421.9,340.1,422,340.1c-0.4,0-0.7-0.3-0.7-0.7c0,0,0-1.3,0.2-3.6c0-0.4,0.4-0.7,0.8-0.7
		c0.4,0,0.7,0.4,0.7,0.7c-0.2,2.2-0.2,3.5-0.2,3.5C422.7,339.7,422.3,340,422,340.1z M422.4,333C422.4,333,422.4,333,422.4,333
		c-0.5,0-0.8-0.4-0.7-0.8c0.1-1.1,0.2-2.2,0.4-3.5c0-0.4,0.4-0.6,0.8-0.6c0.4,0,0.7,0.4,0.6,0.8c-0.2,1.3-0.3,2.4-0.4,3.5
		C423.1,332.8,422.8,333,422.4,333z M423.3,326.1c0,0-0.1,0-0.1,0c-0.4-0.1-0.7-0.4-0.6-0.8c0.2-1.1,0.3-2.3,0.5-3.5
		c0.1-0.4,0.4-0.6,0.8-0.6c0.4,0.1,0.7,0.4,0.6,0.8c-0.2,1.2-0.4,2.3-0.5,3.4C423.9,325.8,423.6,326.1,423.3,326.1z M424.5,319.2
		c0,0-0.1,0-0.2,0c-0.4-0.1-0.7-0.4-0.6-0.8c0.2-1.1,0.4-2.3,0.7-3.4c0.1-0.4,0.5-0.6,0.8-0.5c0.4,0.1,0.6,0.4,0.6,0.8
		c-0.3,1.2-0.5,2.3-0.7,3.4C425.1,319,424.8,319.2,424.5,319.2z M425.9,312.4c-0.1,0-0.1,0-0.2,0c-0.4-0.1-0.6-0.5-0.5-0.8
		c0.3-1.1,0.5-2.2,0.8-3.4c0.1-0.4,0.5-0.6,0.9-0.5c0.4,0.1,0.6,0.5,0.5,0.9c-0.3,1.1-0.6,2.3-0.8,3.4
		C426.5,312.2,426.2,312.4,425.9,312.4z M427.7,305.6c-0.1,0-0.1,0-0.2,0c-0.4-0.1-0.6-0.5-0.5-0.9c0.3-1.1,0.7-2.2,1-3.4
		c0.1-0.4,0.5-0.6,0.9-0.5c0.4,0.1,0.6,0.5,0.5,0.9c-0.4,1.1-0.7,2.2-1,3.3C428.3,305.4,428,305.6,427.7,305.6z M429.8,298.9
		c-0.1,0-0.2,0-0.3,0c-0.4-0.1-0.6-0.5-0.5-0.9c0.4-1.1,0.8-2.2,1.2-3.3c0.1-0.4,0.5-0.6,0.9-0.4c0.4,0.1,0.6,0.5,0.4,0.9
		c-0.4,1.1-0.8,2.2-1.2,3.3C430.3,298.8,430.1,298.9,429.8,298.9z M432.2,292.4c-0.1,0-0.2,0-0.3,0c-0.4-0.1-0.6-0.5-0.4-0.9
		c0.4-1.1,0.9-2.2,1.3-3.2c0.2-0.4,0.6-0.5,0.9-0.4c0.4,0.1,0.5,0.6,0.4,0.9c-0.5,1.1-0.9,2.1-1.3,3.2
		C432.7,292.2,432.5,292.4,432.2,292.4z M435,285.9c-0.1,0-0.2,0-0.3-0.1c-0.4-0.2-0.5-0.6-0.4-0.9c0.5-1.1,1-2.1,1.5-3.2
		c0.2-0.3,0.6-0.5,1-0.3c0.4,0.2,0.5,0.6,0.3,0.9c-0.5,1-1,2.1-1.5,3.1C435.5,285.8,435.2,285.9,435,285.9z M438.2,279.7
		c-0.1,0-0.2,0-0.4-0.1c-0.4-0.2-0.5-0.6-0.3-0.9c0.6-1,1.2-2.1,1.8-3.1c0.2-0.3,0.6-0.4,1-0.3c0.3,0.2,0.5,0.6,0.3,0.9
		c-0.6,1-1.2,2-1.7,3C438.6,279.5,438.4,279.7,438.2,279.7z M441.7,273.6c-0.1,0-0.3,0-0.4-0.1c-0.3-0.2-0.4-0.6-0.2-1
		c0.6-1,1.3-2,2-2.9c0.2-0.3,0.7-0.4,1-0.2c0.3,0.2,0.4,0.6,0.2,1c-0.6,0.9-1.3,1.9-1.9,2.9C442.2,273.5,442,273.6,441.7,273.6z
		 M445.8,267.9c-0.2,0-0.3,0-0.5-0.1c-0.3-0.2-0.4-0.7-0.2-1c0.7-1,1.5-1.9,2.2-2.8c0.3-0.3,0.7-0.4,1-0.1c0.3,0.2,0.4,0.7,0.1,1
		c-0.7,0.9-1.5,1.8-2.2,2.7C446.2,267.8,446,267.9,445.8,267.9z M450.2,262.4c-0.2,0-0.4-0.1-0.5-0.2c-0.3-0.2-0.3-0.7-0.1-1
		c0.8-0.9,1.6-1.8,2.4-2.6c0.3-0.3,0.7-0.3,1,0s0.3,0.7,0,1c-0.8,0.8-1.6,1.7-2.4,2.6C450.6,262.3,450.4,262.4,450.2,262.4z
		 M455.2,257.3c-0.2,0-0.4-0.1-0.5-0.2c-0.3-0.3-0.3-0.7,0-1c0.9-0.8,1.8-1.6,2.7-2.4c0.3-0.3,0.8-0.2,1,0.1s0.2,0.7-0.1,1
		c-0.9,0.8-1.8,1.5-2.6,2.3C455.5,257.3,455.3,257.3,455.2,257.3z M460.5,252.7c-0.2,0-0.4-0.1-0.6-0.3c-0.2-0.3-0.2-0.7,0.1-1
		c0.9-0.7,1.9-1.5,2.9-2.1c0.3-0.2,0.8-0.2,1,0.2c0.2,0.3,0.2,0.7-0.2,1c-1,0.7-1.9,1.4-2.8,2.1
		C460.8,252.7,460.7,252.7,460.5,252.7z M466.3,248.6c-0.2,0-0.5-0.1-0.6-0.3c-0.2-0.3-0.1-0.7,0.2-1c1-0.6,2-1.3,3.1-1.9
		c0.3-0.2,0.8-0.1,1,0.2c0.2,0.3,0.1,0.8-0.3,1c-1,0.6-2,1.2-3,1.8C466.6,248.6,466.5,248.6,466.3,248.6z M472.5,245.1
		c-0.3,0-0.5-0.1-0.7-0.4c-0.2-0.3,0-0.8,0.3-0.9c1.1-0.6,2.2-1.1,3.3-1.6c0.4-0.2,0.8,0,1,0.3c0.2,0.3,0,0.8-0.4,0.9
		c-1.1,0.5-2.1,1-3.2,1.5C472.7,245,472.6,245.1,472.5,245.1z M479,242.1c-0.3,0-0.6-0.1-0.7-0.4c-0.2-0.4,0-0.8,0.4-0.9
		c1.1-0.4,2.2-0.9,3.4-1.2c0.4-0.1,0.8,0.1,0.9,0.4c0.1,0.4-0.1,0.8-0.4,0.9c-1.1,0.4-2.2,0.8-3.3,1.2
		C479.2,242.1,479.1,242.1,479,242.1z M485.8,239.8c-0.3,0-0.6-0.2-0.7-0.5c-0.1-0.4,0.1-0.8,0.5-0.9c1.1-0.3,2.3-0.7,3.5-1
		c0.4-0.1,0.8,0.1,0.9,0.5s-0.1,0.8-0.5,0.9c-1.2,0.3-2.3,0.6-3.4,0.9C485.9,239.8,485.9,239.8,485.8,239.8z M492.8,238.1
		c-0.3,0-0.7-0.2-0.7-0.5c-0.1-0.4,0.2-0.7,0.6-0.8c1.2-0.2,2.4-0.5,3.6-0.7c0.4-0.1,0.8,0.2,0.8,0.6c0.1,0.4-0.2,0.7-0.6,0.8
		c-1.2,0.2-2.4,0.4-3.5,0.6C492.9,238.1,492.8,238.1,492.8,238.1z M517.8,236.3C517.8,236.3,517.8,236.3,517.8,236.3
		c-1.3-0.1-2.5-0.1-3.6-0.1c-0.4,0-0.7-0.3-0.7-0.7s0.3-0.7,0.7-0.7c1.2,0,2.4,0.1,3.6,0.1c0.4,0,0.7,0.3,0.7,0.7
		C518.5,236,518.2,236.3,517.8,236.3z M499.9,236.9c-0.4,0-0.7-0.3-0.7-0.6c-0.1-0.4,0.2-0.7,0.6-0.8c1.2-0.1,2.4-0.3,3.6-0.4
		c0.4,0,0.7,0.3,0.8,0.6c0,0.4-0.3,0.7-0.6,0.8C502.3,236.6,501.1,236.8,499.9,236.9C499.9,236.9,499.9,236.9,499.9,236.9z
		 M510.6,236.2C510.6,236.2,510.6,236.2,510.6,236.2c-1.2,0-2.4,0.1-3.6,0.1c-0.4,0-0.7-0.3-0.8-0.7c0-0.4,0.3-0.7,0.7-0.7
		c1.2-0.1,2.4-0.1,3.6-0.1c0.4,0,0.7,0.3,0.7,0.7C511.3,235.8,511,236.2,510.6,236.2z"/>
        <path class="st22" d="M697.5,304.2l-245.3-28.8c-4-0.5-7.8-2.1-10.9-4.7l-96.1-81.8c-1.1-1-0.2-2.8,1.3-2.5L558,221.5
		c2.5,0.4,4.8,1.3,7,2.5l133.5,77.5C699.9,302.3,699.2,304.4,697.5,304.2z"/>
        <g>
		<path class="st23" d="M655.8,320.5c-0.1-2.2-0.2-4.7-0.4-7.3c-0.1-2.7-0.3-5.5-0.4-7.9c-0.1-2.5-0.4-3.9-0.8-5.7l0-0.1
			c-0.5-2.4-3-4.2-5-5.7l-0.2-0.1c-3.9-2.9-12.4-7-19-9.9c-10.3-4.4-21-8.9-31.5-13.4c-27.7-11.8-53.9-22.9-72.8-31.1l0.9-1.9
			c18.8,8.2,45,19.3,72.8,31.1c10.5,4.5,21.2,9,31.5,13.4c6.8,2.9,15.4,7.1,19.5,10.1l0.2,0.1c2.1,1.6,5.1,3.7,5.8,6.9l0,0.1
			c0.4,1.9,0.8,3.5,0.9,6.1c0.1,2.3,0.2,5.1,0.4,7.9c0.1,2.5,0.3,5.1,0.4,7.3L655.8,320.5z"/>
            <polygon class="st24" points="653,331.6 661.6,331.3 662.2,346.3 653.6,346.6 		"/>
            <path class="st23" d="M665.2,519.5L665.2,519.5c-5.5,0.2-10.1-4-10.2-9.3l-2.9-162.4c0-1.2,1-2.2,2.2-2.2l7.6-0.3
			c1.2-0.1,2.3,0.9,2.4,2.1l10.4,162.1C675,514.7,670.7,519.3,665.2,519.5z"/>
            <path class="st23" d="M661.2,332.5l-7.6,0.3c-1,0-1.8-0.7-1.8-1.6l-0.1-1.5c-0.1-3,2.3-5.5,5.4-5.6l0,0c3.1-0.1,5.7,2.2,5.8,5.2
			l0.1,1.5C662.9,331.7,662.2,332.5,661.2,332.5z"/>
            <path class="st24"
                  d="M659.6,324.5l-4.9,0.2l-0.1-3.1c0-1.1,0.9-2,2-2.1l0.7,0c1.1,0,2.1,0.8,2.1,1.9L659.6,324.5z"/>
            <polygon class="st25" points="662.6,345.2 671.7,516.7 661.2,345.3 		"/>
            <polygon class="st25" points="660.6,345.3 665.2,519.5 659.2,345.3 		"/>
            <polygon class="st25" points="658.3,345.3 664.3,478.1 656.9,345.4 		"/>
            <polygon class="st25" points="655,345.5 658.4,517.2 653.6,345.5 		"/>
            <polygon class="st25" points="656.6,345.4 661,518.7 655.1,345.5 		"/>
	</g>
        <g>
		<path class="st26" d="M533.9,237.1l-1.4,3.3c-0.1,0.3-0.6,0.5-1.3,0.6l0,0c-1.8,0.1-5.2-0.7-8.9-2.2c-3.5-1.4-6.3-3-7.7-4.3
			c-0.6-0.6-0.9-1.2-0.8-1.5l1.4-3.3l2.5,3c1.8,0.3,4,1,6.4,1.9c2.2,0.9,4.1,1.8,5.6,2.8L533.9,237.1z"/>
            <path class="st27" d="M533.9,237.1c-0.5,1.2-5.1,0.5-10.3-1.6c-5.2-2.1-8.9-4.7-8.4-5.9c0.5-1.2,5.1-0.5,10.3,1.6
			C530.6,233.3,534.4,235.9,533.9,237.1z"/>
	</g>

        <ellipse transform="matrix(0.9458 -0.3249 0.3249 0.9458 -92.8788 221.0791)" class="st7" cx="615.6" cy="388.7"
                 rx="5.1" ry="28.1"/>

        <ellipse transform="matrix(0.9993 -3.850172e-02 3.850172e-02 0.9993 -12.101 22.2623)" class="st7" cx="571.9"
                 cy="325.3" rx="5.1" ry="28"/>
        <g>
		<path class="st4" d="M457.4,490.1c16.3,9.1,32.9,14.9,49.2,8.8c5.4-1.8,10.6-5.8,16-10C504.1,522.9,477.5,517.9,457.4,490.1
			L457.4,490.1z"/>
	</g>
</g>
    <g class="st28">
	<path class="st29" d="M161.9,200.2c-2.8,5.1-7.1,9.2-13,12.3c-5.8,3.1-13.1,4.7-21.7,4.7h-16v38H85.5V149.3h41.8
		c8.4,0,15.6,1.5,21.4,4.4c5.8,2.9,10.2,6.9,13.1,12.1c2.9,5.1,4.4,11,4.4,17.6C166.2,189.5,164.8,195.1,161.9,200.2z M136.3,193.2
		c2.4-2.3,3.6-5.6,3.6-9.8c0-4.2-1.2-7.5-3.6-9.8c-2.4-2.3-6.1-3.5-11-3.5h-14v26.5h14C130.2,196.6,133.9,195.5,136.3,193.2z"/>
        <path class="st29" d="M204.9,149.3v105.8h-25.8V149.3H204.9z"/>
        <path class="st29" d="M298,179.7c5.9,6.4,8.8,15.2,8.8,26.3v49.2h-25.6v-45.7c0-5.6-1.5-10-4.4-13.1c-2.9-3.1-6.8-4.7-11.8-4.7
		c-4.9,0-8.8,1.6-11.8,4.7c-2.9,3.1-4.4,7.5-4.4,13.1v45.7h-25.8V171h25.8v11.2c2.6-3.7,6.1-6.7,10.6-8.8c4.4-2.2,9.4-3.2,14.9-3.2
		C284.3,170.1,292.1,173.3,298,179.7z"/>
        <path class="st29" d="M371.9,173.4c4.5,2.4,7.9,5.6,10.3,9.5V171H408v84c0,7.7-1.5,14.8-4.6,21c-3.1,6.3-7.7,11.3-14,15
		c-6.3,3.7-14.1,5.6-23.4,5.6c-12.5,0-22.6-2.9-30.3-8.8c-7.7-5.9-12.2-13.8-13.3-23.9h25.5c0.8,3.2,2.7,5.8,5.7,7.6
		c3,1.9,6.7,2.8,11.2,2.8c5.3,0,9.6-1.5,12.7-4.6c3.2-3.1,4.8-8,4.8-14.7v-11.9c-2.5,3.9-6,7.1-10.4,9.6c-4.4,2.5-9.6,3.7-15.5,3.7
		c-6.9,0-13.2-1.8-18.8-5.4c-5.6-3.6-10.1-8.6-13.3-15.2c-3.3-6.6-4.9-14.2-4.9-22.8c0-8.6,1.6-16.2,4.9-22.8
		c3.3-6.5,7.7-11.6,13.3-15.1c5.6-3.5,11.9-5.3,18.8-5.3C362.2,169.8,367.4,171,371.9,173.4z M376.9,197.8c-3.6-3.7-7.9-5.6-13-5.6
		s-9.5,1.8-13,5.5c-3.6,3.7-5.4,8.7-5.4,15.2c0,6.4,1.8,11.5,5.4,15.3c3.6,3.8,7.9,5.7,13,5.7s9.5-1.9,13-5.6
		c3.6-3.7,5.4-8.8,5.4-15.2C382.2,206.6,380.4,201.5,376.9,197.8z"/>
        <path class="st29" d="M442.3,251.1c-6.6-3.5-11.8-8.5-15.5-15.1c-3.8-6.5-5.7-14.2-5.7-22.9c0-8.6,1.9-16.3,5.7-22.8
		c3.8-6.6,9-11.6,15.7-15.2c6.6-3.5,14.1-5.3,22.3-5.3c8.2,0,15.7,1.8,22.3,5.3c6.6,3.5,11.9,8.6,15.7,15.2
		c3.8,6.6,5.7,14.2,5.7,22.8c0,8.6-1.9,16.3-5.8,22.8c-3.9,6.6-9.1,11.6-15.8,15.2c-6.7,3.5-14.1,5.3-22.4,5.3
		C456.3,256.3,448.9,254.6,442.3,251.1z M477.1,228.6c3.5-3.6,5.2-8.8,5.2-15.5c0-6.7-1.7-11.9-5.1-15.5c-3.4-3.6-7.5-5.4-12.4-5.4
		c-5,0-9.2,1.8-12.5,5.4c-3.3,3.6-5,8.8-5,15.6c0,6.7,1.6,11.9,4.9,15.5c3.3,3.6,7.4,5.4,12.3,5.4
		C469.5,234,473.7,232.2,477.1,228.6z"/>
        <path class="st29" d="M547.6,235.2h33.8v19.9h-59.6V149.3h25.8V235.2z"/>
        <path class="st29" d="M595.2,158.2c-2.9-2.7-4.3-6-4.3-9.9c0-4,1.4-7.4,4.3-10c2.9-2.7,6.6-4,11.1-4c4.4,0,8.1,1.3,10.9,4
		c2.9,2.7,4.3,6,4.3,10c0,3.9-1.4,7.2-4.3,9.9c-2.9,2.7-6.5,4-10.9,4C601.8,162.2,598.1,160.9,595.2,158.2z M619.1,171v84.1h-25.8
		V171H619.1z"/>
        <path class="st29" d="M712.2,179.7c5.9,6.4,8.8,15.2,8.8,26.3v49.2h-25.6v-45.7c0-5.6-1.5-10-4.4-13.1c-2.9-3.1-6.8-4.7-11.8-4.7
		c-4.9,0-8.8,1.6-11.8,4.7c-2.9,3.1-4.4,7.5-4.4,13.1v45.7h-25.8V171h25.8v11.2c2.6-3.7,6.1-6.7,10.6-8.8c4.4-2.2,9.4-3.2,14.9-3.2
		C698.5,170.1,706.3,173.3,712.2,179.7z"/>
        <path class="st29" d="M786.1,173.4c4.5,2.4,7.9,5.6,10.3,9.5V171h25.8v84c0,7.7-1.5,14.8-4.6,21c-3.1,6.3-7.7,11.3-14,15
		c-6.3,3.7-14.1,5.6-23.4,5.6c-12.5,0-22.6-2.9-30.3-8.8c-7.7-5.9-12.2-13.8-13.3-23.9H762c0.8,3.2,2.7,5.8,5.7,7.6
		c3,1.9,6.7,2.8,11.2,2.8c5.3,0,9.6-1.5,12.7-4.6c3.2-3.1,4.7-8,4.7-14.7v-11.9c-2.5,3.9-6,7.1-10.4,9.6c-4.4,2.5-9.6,3.7-15.5,3.7
		c-6.9,0-13.2-1.8-18.8-5.4c-5.6-3.6-10.1-8.6-13.3-15.2c-3.3-6.6-4.9-14.2-4.9-22.8c0-8.6,1.6-16.2,4.9-22.8
		c3.3-6.5,7.7-11.6,13.3-15.1c5.6-3.5,11.9-5.3,18.8-5.3C776.4,169.8,781.6,171,786.1,173.4z M791.1,197.8c-3.6-3.7-7.9-5.6-13-5.6
		c-5.1,0-9.5,1.8-13,5.5c-3.6,3.7-5.4,8.7-5.4,15.2c0,6.4,1.8,11.5,5.4,15.3c3.6,3.8,7.9,5.7,13,5.7c5.1,0,9.5-1.9,13-5.6
		c3.6-3.7,5.4-8.8,5.4-15.2C796.4,206.6,794.6,201.5,791.1,197.8z"/>
        <path class="st29" d="M856.5,251.1c-6.6-3.5-11.8-8.5-15.5-15.1c-3.8-6.5-5.7-14.2-5.7-22.9c0-8.6,1.9-16.3,5.7-22.8
		c3.8-6.6,9-11.6,15.7-15.2c6.6-3.5,14.1-5.3,22.3-5.3c8.2,0,15.7,1.8,22.3,5.3c6.6,3.5,11.9,8.6,15.7,15.2
		c3.8,6.6,5.7,14.2,5.7,22.8c0,8.6-1.9,16.3-5.8,22.8c-3.9,6.6-9.1,11.6-15.8,15.2c-6.7,3.5-14.2,5.3-22.4,5.3
		C870.5,256.3,863.1,254.6,856.5,251.1z M891.3,228.6c3.5-3.6,5.2-8.8,5.2-15.5c0-6.7-1.7-11.9-5.1-15.5c-3.4-3.6-7.5-5.4-12.4-5.4
		c-5,0-9.2,1.8-12.5,5.4c-3.3,3.6-5,8.8-5,15.6c0,6.7,1.6,11.9,4.9,15.5c3.3,3.6,7.4,5.4,12.3,5.4
		C883.7,234,887.9,232.2,891.3,228.6z"/>
</g>
    <g>
	<g>
		<path class="st30" d="M157.9,82.2c-2.5,4.4-6.2,7.9-11.2,10.5c-5,2.6-11.1,3.9-18.2,3.9h-12.2v29.8H91.8V38.2h36.7
			c7.1,0,13.1,1.3,18.1,3.8c5,2.5,8.7,6,11.2,10.4c2.5,4.4,3.8,9.5,3.8,15.3C161.6,73,160.3,77.8,157.9,82.2z M136.5,67.6
			c0-6.4-3.5-9.7-10.4-9.7h-9.8v19.2h9.8C133,77.1,136.5,74,136.5,67.6z"/>
        <path class="st30" d="M173.4,46.1c-2.6-2.4-3.9-5.4-3.9-9c0-3.7,1.3-6.7,3.9-9.1c2.6-2.4,6.1-3.6,10.5-3.6c4.3,0,7.7,1.2,10.3,3.6
			c2.6,2.4,3.9,5.5,3.9,9.1c0,3.6-1.3,6.6-3.9,9c-2.6,2.4-6.1,3.6-10.3,3.6C179.5,49.7,176,48.5,173.4,46.1z M196,56.2v70.3h-24.6
			V56.2H196z"/>
        <path class="st30" d="M275.4,63.7c4.8,5.4,7.1,12.7,7.1,21.9v41H258V88.8c0-4-1-7.2-3.1-9.5c-2.1-2.3-4.9-3.4-8.4-3.4
			c-3.7,0-6.6,1.1-8.6,3.4c-2.1,2.3-3.1,5.5-3.1,9.5v37.7h-24.6V56.2h24.6v10c2.2-3.2,5.1-5.7,8.8-7.7c3.7-2,7.9-2.9,12.7-2.9
			C264.2,55.6,270.6,58.3,275.4,63.7z"/>
        <path class="st30" d="M334.5,58.2c3.6,1.9,6.3,4.5,8.2,7.8v-9.8h24.6v69.6c0,6.6-1.3,12.6-3.8,17.9c-2.5,5.3-6.4,9.5-11.7,12.7
			c-5.3,3.2-12,4.8-20.1,4.8c-10.9,0-19.6-2.5-26.1-7.6c-6.5-5.1-10.2-12-11.2-20.8h24.2c0.5,2.3,1.8,4,3.8,5.3s4.6,1.9,7.8,1.9
			c8.4,0,12.5-4.7,12.5-14v-9c-1.9,3.3-4.7,5.8-8.2,7.8c-3.6,1.9-7.7,2.9-12.5,2.9c-5.6,0-10.7-1.5-15.2-4.4
			c-4.6-2.9-8.1-7.1-10.8-12.6c-2.6-5.5-3.9-11.8-3.9-19.1c0-7.3,1.3-13.6,3.9-19.1c2.6-5.4,6.2-9.6,10.8-12.5
			c4.6-2.9,9.6-4.4,15.2-4.4C326.8,55.3,330.9,56.3,334.5,58.2z M339,80.6c-2.5-2.6-5.5-3.9-9.1-3.9c-3.7,0-6.7,1.3-9.1,3.8
			c-2.4,2.5-3.6,6.1-3.6,10.7c0,4.5,1.2,8.1,3.6,10.7c2.4,2.6,5.5,3.9,9.1,3.9c3.6,0,6.6-1.3,9.1-3.9c2.5-2.6,3.7-6.2,3.7-10.8
			C342.7,86.8,341.5,83.2,339,80.6z"/>
        <path class="st30" d="M395.1,123c-5.6-2.9-9.9-7.1-13.1-12.5c-3.2-5.4-4.8-11.8-4.8-19.2c0-7.3,1.6-13.6,4.8-19.1
			c3.2-5.4,7.6-9.6,13.2-12.5c5.6-2.9,11.8-4.4,18.9-4.4c7,0,13.3,1.5,18.9,4.4c5.6,2.9,9.9,7.1,13.2,12.5
			c3.2,5.4,4.8,11.8,4.8,19.1c0,7.3-1.6,13.6-4.8,19.1c-3.2,5.5-7.6,9.7-13.2,12.6c-5.6,2.9-11.9,4.4-18.9,4.4
			S400.7,125.9,395.1,123z M422.6,102.3c2.3-2.5,3.4-6.2,3.4-11c0-4.8-1.1-8.4-3.4-10.9c-2.3-2.5-5.1-3.8-8.5-3.8
			c-3.3,0-6.1,1.3-8.4,3.8c-2.3,2.5-3.4,6.1-3.4,10.9c0,4.8,1.1,8.5,3.3,11c2.2,2.5,5,3.8,8.4,3.8
			C417.4,106.1,420.3,104.8,422.6,102.3z"/>
        <path class="st30" d="M544.9,38.2v19.6h-35.3v15.5h26.1v18.7h-26.1v34.6h-24.6V38.2H544.9z"/>
        <path class="st30" d="M555.2,72.2c2.6-5.4,6.2-9.6,10.8-12.5c4.6-2.9,9.6-4.4,15.2-4.4c4.8,0,9,1,12.5,2.9
			c3.5,1.9,6.2,4.5,8.1,7.8v-9.8h24.6v70.3h-24.6v-9.8c-1.9,3.3-4.7,5.8-8.2,7.8c-3.6,1.9-7.7,2.9-12.5,2.9
			c-5.6,0-10.7-1.5-15.2-4.4c-4.6-2.9-8.1-7.1-10.8-12.6c-2.6-5.5-3.9-11.8-3.9-19.1C551.2,84,552.6,77.7,555.2,72.2z M598.2,80.6
			c-2.5-2.6-5.5-3.9-9.1-3.9c-3.7,0-6.7,1.3-9.2,3.8c-2.4,2.5-3.6,6.1-3.6,10.7c0,4.5,1.2,8.1,3.6,10.7c2.4,2.6,5.5,3.9,9.2,3.9
			c3.6,0,6.6-1.3,9.1-3.9c2.5-2.6,3.7-6.2,3.7-10.8C601.9,86.8,600.7,83.2,598.2,80.6z"/>
        <path class="st30" d="M753.2,63.6c5.1,5.3,7.6,12.7,7.6,21.9v41h-24.6V88.8c0-3.8-1-6.7-3.1-8.8c-2.1-2.1-4.9-3.1-8.5-3.1
			c-3.6,0-6.4,1-8.5,3.1c-2.1,2.1-3.1,5-3.1,8.8v37.7h-24.6V88.8c0-3.8-1-6.7-3.1-8.8c-2-2.1-4.9-3.1-8.5-3.1c-3.7,0-6.6,1-8.6,3.1
			c-2.1,2.1-3.1,5-3.1,8.8v37.7h-24.6V56.2h24.6v9.3c2.2-3,5-5.4,8.5-7.2c3.5-1.8,7.5-2.7,12-2.7c5.2,0,9.8,1.1,13.8,3.4
			c4.1,2.3,7.2,5.4,9.6,9.5c2.5-3.8,5.8-7,9.9-9.3c4.1-2.4,8.6-3.6,13.5-3.6C741.2,55.6,748.2,58.3,753.2,63.6z"/>
        <path class="st30" d="M776.2,46.1c-2.6-2.4-3.9-5.4-3.9-9c0-3.7,1.3-6.7,3.9-9.1c2.6-2.4,6.1-3.6,10.5-3.6c4.3,0,7.7,1.2,10.3,3.6
			c2.6,2.4,3.9,5.5,3.9,9.1c0,3.6-1.3,6.6-3.9,9c-2.6,2.4-6.1,3.6-10.3,3.6C782.3,49.7,778.8,48.5,776.2,46.1z M798.8,56.2v70.3
			h-24.6V56.2H798.8z"/>
        <path class="st30" d="M837.4,33.8v92.8h-24.6V33.8H837.4z"/>
        <path class="st30" d="M927.1,56.2L882.5,160h-26.7l16.8-36.5l-28.8-67.3h27.3l14.8,39.9l14.3-39.9H927.1z"/>
	</g>
</g>
</svg>